<?xml version="1.0" encoding="UTF-8"?>
<svg id="Layer_2" data-name="Layer 2" xmlns="http://www.w3.org/2000/svg" viewBox="0 0 2048.06 2048.2">
  <defs>
    <style>
      .cls-1 {
        fill: #c1566a;
      }

      .cls-2 {
        fill: #d15668;
      }

      .cls-3 {
        fill: #f16472;
      }

      .cls-4 {
        opacity: 0;
      }
    </style>
  </defs>
  <g id="BubblegumBile">
    <g>
      <rect class="cls-4" width="2048.06" height="2048.2"/>
      <g>
        <path d="M1795.12,1560.66c-23.76-124.11-130.14-210.33-173.63-325.73,39.13,8.04,90.17,1.48,93-47.93,5.1-89.1-103.98-193.95-169.69-243.11,0,0-.52-23.63-9.49-78.57-7.62-24.67-13.7-49.73-24.5-73.24-4.34-9.45-19.35-25.78-18.82-37.08l44.81-86.86c47.24-175.49-38.2-397.34-248.73-380.55-125.58,10.02-190.29,110.92-220.38,222.49-1.54,5.73-3.24,24.43-5.79,27.1-2.35,2.46-29.25,2.93-36.24,4.36-12.52,2.56-20.61,12.33-33.03,4.98-18.23-10.79-28.51-24.97-54.47-24.8-5.15.03-19.54,6.51-20.27,5.76-1.02-1.04-5.63-22.7-7.71-28.08-116.54-301.71-498.21-81.75-398.54,157.09,24.03,57.59,59.01,86.34,62.28,154.37,0,0-.41,148.31-30.64,213.93-47.24,37.08-147.26,113.16-134.37,181.86,5.19,27.66,30.24,39.82,55.79,43.45-74.53,131.51-171.94,365.59-37.52,489.32,108.85,100.19,282.03,39.27,407.85,18.77,7.61-1.24,16.05-3.28,23.71-2.65,15.3,1.24,64.91,22.24,82.56,28.91,81.2,30.68,157.37,70.76,247.64,64.29,83.53-5.99,157.68-60.33,241.37-70.62,99.17-12.2,192.3,46.03,285.43-12.37,70.08-43.94,94.53-125.92,79.38-205.07ZM1499.51,705.86c-10.94,22.55-38.92,54.48-40.44,80.02-.07,1.2.2,4.94.57,8.73,0,0,11.35,15.44,17.77,13.83,6.43-1.61-2.41-25.7,3.21-30.52s18.47,22.49,27.31,40.96c8.83,18.47,28.11,111.63,27.31,123.68-.8,12.05,9.95,22.28,17.67,28.11,114.85,86.74,144.56,168.66,140.55,208.81-4.02,40.16-70.39,30.54-70.39,30.54-46.61-8.77-100.14-35.71-137.93-63.97M1484.68,1145.98c-1.99,7.52,7.08,18.26,12.19,24.12,23.84,27.31,65.21,45.46,98.47,57.98,37.21,137.96,191.64,241.62,180.09,394.75-4.38,58.04-43.44,117.19-100.38,134.62-77.68,23.79-159.13-14.67-240.94-5.94-72.56,7.74-131.11,45.84-199.14,62.2-192.53,46.28-360.97-146-559.57-99.7l-18.22,7.08c45.04.52,89.99,3.75,134.08,12.81l17.84,5.42c-122.5,22.68-329.59,74.42-401.45-65.48-90.89-176.94,97.97-407.1,143.6-576.27,0,0,8.23-38.57,16.41-76.72l11.44-53.08c33.56-176.14-5.35-247.04-26.51-268.2s-40.63-90.83-40.63-90.83c-3.01-12.55-2.66-28.76-2-41.67,7.1-139.56,194.39-248.15,314.65-160.04,53.29,39.04,67.33,139.05,96.5,158.81,18.7,12.67-3.9-13.01,11.14-23.01,19.84-13.18,53.68,29.95,65.97,31.08,5.92.54,27.26-13.54,39.03-14.97,4.13-.5,23.84-.37,25.48,1.53,1.09,1.27,1.28,27.43,2.3,33.5,3.69,21.99,11.66,42.4,28.72,57.33-5.31-25.2-12.14-50.54-13.48-76.46-5.81-112.89,61.72-229.33,174.35-258.45"/>
        <path class="cls-1" d="M471.96,1226.46l68.33-173s-187.53,151.19-68.33,173Z"/>
        <g>
          <path d="M1254.68,316.29c-112.63,29.13-180.16,145.56-174.35,258.45,1.33,25.92,8.17,51.26,13.48,76.46-17.07-14.93-25.03-35.34-28.72-57.33-1.02-6.07-1.21-32.23-2.3-33.5-1.64-1.91-21.35-2.03-25.48-1.53-11.77,1.43-33.11,15.51-39.03,14.97-12.29-1.13-46.14-44.26-65.97-31.08-15.04,10,7.57,35.68-11.14,23.01-29.17-19.77-43.21-119.77-96.5-158.81-120.26-88.12-307.56,20.48-314.65,160.04-.66,12.91-1.01,29.12,2,41.67,0,0,19.47,69.67,40.63,90.83s60.07,92.06,26.51,268.2l-11.44,53.08c-8.19,38.15-16.41,76.72-16.41,76.72-45.63,169.16-234.49,399.33-143.6,576.27,71.86,139.9,278.95,88.16,401.45,65.48l-17.84-5.42c-44.09-9.06-89.04-12.29-134.08-12.81l18.22-7.08c198.6-46.31,367.05,145.98,559.57,99.7,68.03-16.35,126.58-54.45,199.14-62.2,81.81-8.73,163.26,29.73,240.94,5.94,56.94-17.44,96-76.58,100.38-134.62,11.55-153.13-142.87-256.79-180.09-394.75-33.27-12.53-74.63-30.67-98.47-57.98-5.11-5.86-14.18-16.6-12.19-24.12l.45.09c37.79,28.26,91.32,55.2,137.93,63.97,0,0,66.38,9.61,70.39-30.54s-25.7-122.08-140.55-208.81c-7.72-5.83-18.47-16.06-17.67-28.11s-18.47-105.21-27.31-123.68c-8.83-18.47-21.68-45.78-27.31-40.96-5.62,4.82,3.21,28.91-3.21,30.52-6.42,1.61-17.77-13.83-17.77-13.83-.37-3.79-.64-7.53-.57-8.73,1.52-25.54,29.5-57.47,40.44-80.02"/>
          <path class="cls-3" d="M1499.55,705.74c-11.3,22.37-38.92,54.48-40.44,80.02-.07,1.2.2,4.94.57,8.73,0,0,11.35,15.44,17.77,13.83,6.43-1.61-2.41-25.7,3.21-30.52,5.62-4.82,18.47,22.49,27.31,40.96,8.83,18.47,28.11,111.63,27.31,123.68s9.95,22.28,17.67,28.11c114.85,86.74,144.56,168.66,140.55,208.81s-70.39,30.54-70.39,30.54c-46.61-8.77-100.14-35.71-137.93-63.97l-.45-.09c-1.99,7.52,7.08,18.26,12.19,24.12,23.84,27.31,65.21,45.46,98.47,57.98,37.21,137.96,191.64,241.62,180.09,394.75-4.38,58.04-43.44,117.19-100.38,134.62-77.68,23.79-159.13-14.67-240.94-5.94-72.56,7.74-131.11,45.84-199.14,62.2-192.53,46.28-360.97-146-559.57-99.7l-18.22,7.08c45.04.52,89.99,3.75,134.08,12.81l17.84,5.42c-122.5,22.68-329.59,74.42-401.45-65.48-90.89-176.94,97.97-407.1,143.6-576.27,0,0,8.23-38.57,16.41-76.72l11.44-53.08c33.56-176.14-5.35-247.04-26.51-268.2s-40.63-90.83-40.63-90.83c-3.01-12.55-2.66-28.76-2-41.67,7.1-139.56,194.39-248.15,314.65-160.04,53.29,39.04,67.33,139.05,96.5,158.81,18.7,12.67-3.9-13.01,11.14-23.01,19.84-13.18,53.68,29.95,65.97,31.08,5.92.54,27.26-13.54,39.03-14.97,4.13-.5,23.84-.38,25.48,1.53,1.09,1.27,1.28,27.43,2.3,33.5,3.69,21.99,11.66,42.4,28.72,57.33-5.31-25.2-12.14-50.54-13.48-76.46-5.81-112.89,61.72-229.33,174.35-258.45,0,0,136.8-33.3,204.38,55.86,67.58,89.15,69.76,161.64,69.76,161.64,0,0,11.18,91.94-29.26,171.97Z"/>
        </g>
        <path class="cls-1" d="M523.01,510.36c-7.47,17.98-12.05,37.04-13.05,56.71-.66,12.91-1.01,29.12,2,41.67,0,0,19.47,69.67,40.63,90.83s60.07,92.06,26.51,268.2l-11.44,53.08c-8.19,38.15-16.41,76.72-16.41,76.72-45.63,169.16-234.49,399.33-143.6,576.27,71.86,139.9,278.95,88.16,401.45,65.48l-17.84-5.42c-44.09-9.06-89.04-12.29-134.08-12.81l18.22-7.08c198.6-46.31,367.05,145.98,559.57,99.7,68.03-16.35,126.58-54.45,199.14-62.2,81.81-8.73,163.26,29.73,240.94,5.94,34.46-10.55,62.37-36.38,80.01-68l-.63-1.61s-98.2,34.76-182.42,23.28c-84.22-11.48-179.93-61.25-279.46-26.8-99.53,34.45-126.33,91.88-233.52,30.63-107.19-61.25-118.68-126.33-264.15-126.33s-396.7-32.61-251.94-401.04c0,0,64.14-163.1,72.67-235.59,0,0,4.48-131.11-14.57-184.9-19.05-53.79-117.92-161.56-78.01-256.72Z"/>
        <path class="cls-2" d="M1595.43,1228.29c-33.27-12.53-74.63-30.67-98.47-57.98-2.46-2.82-5.83-6.77-8.45-10.94.2,1.44,18.48,131.33,144.43,154.09-16.05-27.36-29.5-55.47-37.51-85.17Z"/>
        <path d="M938.82,622.99c10.25,9.04,1.34,32.65-14.93,25.56-17.75-7.74-2.25-40.72,14.93-25.56Z"/>
        <path d="M1030.64,633.07c7,6.09,3.65,18.11-2.52,23.82-3.89,3.96-10.73,3.93-13.86-.8-3.27-4.96-4.29-14.26-.25-19.62,3.64-4.95,11.43-8.02,16.5-3.52l.13.12Z"/>
      </g>
    </g>
  </g>
</svg>