<?xml version="1.0" encoding="UTF-8"?>
<svg id="Layer_2" data-name="Layer 2" xmlns="http://www.w3.org/2000/svg" viewBox="0 0 2048.06 2048.2">
  <defs>
    <style>
      .cls-1 {
        fill: #642e9e;
      }

      .cls-2 {
        fill: #813abf;
      }

      .cls-3 {
        opacity: 0;
      }
    </style>
  </defs>
  <g id="GrapeGuts">
    <g>
      <g>
        <g>
          <path d="M1579.58,1169.66c-7.29,7.24,41.97,79.97,49.05,90.21,38.05,55.05,84.11,106.52,112.96,167.52,47.09,99.56,75.34,272.13-43.81,332.8-104.54,53.23-174.23-47.66-270.53-30.95-49.4,8.57-92.87,40.36-137.2,61.48-128.33,61.15-276.29,55.64-405.21-1.33-70.15-31-135.75-85.43-217.55-74.1-114.5,15.86-257.94,144.11-359.57,24.03-116.93-138.15,11.36-355.21,91.45-479.13,12.33-19.09,27.84-36.82,37.05-57.42h-39.93c-7.49,0-27.79-9.53-34.68-14.01-97.68-63.45,70.37-158.58,113.37-193.63,34.11-27.81,76.68-83.57,85-127.31,8.55-44.98,5.13-121.94-13.01-164.38-10.1-23.64-28.34-36.56-36.8-60.59-53.78-152.68,99.06-313.65,253.35-284.51,81.34,15.36,135.85,91.78,155.66,167.7,6.47,2.25,11.05-2.52,18.49-3.15,27.69-2.35,35.44,14.67,55.85,24.31,12.52,5.91,26.09-4.44,39.94-6.43,9.08-1.31,19.03,1.06,28.05-3.12l1.55-2.34c21.01-120.88,95.48-238.38,229.13-246.12,131.86-7.64,219.98,83.85,245.52,206.53,9.57,45.97,11.8,128.27-4.81,172.47-9.3,24.76-33.6,55.72-41.42,79.36-3.89,11.74,2.41,9.77,7.13,17.11,31.58,49.01,26.49,91.06,41.02,142.07,17.78,62.41,96.27,83.76,140.3,124.6,43.32,40.18,58.36,93.74-4.23,124.43-18.28,8.96-96.14,13.91-96.14,13.91ZM527.78,980.74c-3.13.76-6.7-1.51-9.23-1.48-4.1.05-23.7,26.02-29.71,31.69-26,24.5-59.18,45.57-85.76,70.06-24.98,23.03-69.94,63.07-19.41,87.64,15.32,7.45,46.75,12.53,63.15,8.68,11.01-2.59,24.93-27.49,30.64-37.52,27.62-48.47,44.73-103.5,50.32-159.07Z"/>
          <path class="cls-2" d="M573.6,714.71c-10.19-44.28-29.42-50.88-35.81-83.88-24.53-126.5,75.86-266.31,200.45-243.29,61.35,11.34,132.48,55.13,156.08,114.67,4.62,11.66,13.48,54.07,23.01,58.8,11.21,5.57,15.57-8.85,22.31-12.79,14.77-8.63,41.29,14.96,54.02,18.26,24.97,6.47,32.06-5.14,51.75-9.87,11.13-2.67,41.9-.35,47.37-7.17,4.7-5.87,4.45-33.03,5.97-42.72,10.1-64.44,84.62-163.47,148.2-182.93,42.07-12.87,119.72-3.61,158.65,17.74,78.39,42.99,132.56,207.02,108.73,290.54-11.02,38.63-42.46,79.96-51.69,115.81-3.66,14.21-3.32,18.13,6.85,28.39,32.22,32.46,41.18,73.56,50.57,116.78,15.5,71.37,71.19,85.71,120.83,126.7,42.02,34.7,79.94,90.63,6.85,117.76-56.09,20.82-147.32-1.21-192.83-38.91-14.89-12.33-24.42-29.36-38.91-41.9.22,4.96,1.7,10.36,3.51,14.97,11.03,28.06,46.12,57.69,72.39,71.75,18.48,9.89,38.51,15.55,57.41,24.4,47.03,110.19,137,190.42,179.78,303.27,30.64,80.83,48.49,188.68-26.75,250.79-76.59,63.23-149.91-11.72-227.47-23.84-90.52-14.15-172.38,63.44-255.61,88.09-107.35,31.79-214.69,20.92-316.85-22.06-43.45-18.28-85.04-45.4-128.67-62.21-58.56-22.56-122.92-24.41-180.71-49.13-3.09,1.93.49,4.34,2.01,5.78,17.91,17.07,37.12,20.03,56.88,30.74,2.28,1.24,3.29-.07,2.48,4.34-70.98,4.79-134.27,49.37-201.73,64.14-123.95,27.15-168.27-90.91-160.3-193.41,12.77-164.33,168.42-302.61,221.84-455.99,20.94-60.11,25.01-126.39,48.31-181.52-4.71,1.53,35.98-104.04,11.11-212.11Z"/>
          <path class="cls-1" d="M527.78,980.74c-5.59,55.57-22.7,110.6-50.32,159.07-5.71,10.02-19.63,34.93-30.64,37.52-16.4,3.85-47.83-1.23-63.15-8.68-50.53-24.57-5.57-64.61,19.41-87.64,26.57-24.5,59.76-45.56,85.76-70.06,6.01-5.67,25.62-31.64,29.71-31.69,2.53-.03,6.1,2.24,9.23,1.48Z"/>
        </g>
        <path class="cls-1" d="M1492.06,1143.41c-16.85-9.01-37.31-24.43-52.74-41.74,2.49,8.68,26.49,81.27,148.32,146.25l-.88-9.49c-13.92-22.5-26.7-45.8-37.29-70.62-18.89-8.85-38.92-14.51-57.4-24.4Z"/>
        <path class="cls-1" d="M534.58,580.82c-.82,16.52.26,33.21,3.45,49.67,6.4,33,25.62,39.6,35.81,83.88,24.87,108.07-15.82,213.65-11.11,212.11-23.3,55.14-27.38,121.41-48.31,181.52-53.42,153.38-209.07,291.66-221.84,455.99-7.96,102.5,36.35,220.56,160.3,193.41,67.46-14.77,130.75-59.36,201.73-64.14.81-4.42-.2-3.11-2.48-4.34-19.76-10.72-38.97-13.67-56.88-30.74-1.52-1.45-5.09-3.85-2.01-5.78,57.79,24.72,122.15,26.57,180.71,49.13,43.63,16.81,85.22,43.93,128.67,62.21,102.16,42.98,209.5,53.85,316.85,22.06,83.23-24.65,165.09-102.24,255.61-88.09,72.19,11.28,140.7,76.96,211.59,35.04-81.09-44.35-221.13-109.01-304.48-80.01-122.58,42.64-213.18,74.61-367.74,42.64-154.56-31.98-282.47-149.23-335.76-149.23s-21.32,58.62-122.58,26.65c-101.26-31.98-53.3-191.86-26.65-266.48,26.65-74.61,44.66-309.48,44.66-309.48,0,0,11.15-109.09,26.89-178.18,0,0-3.36-82.93-13.45-108.7-10.09-25.77-48.84-66.6-53-129.12Z"/>
        <path class="cls-1" d="M1454.46,1098.89c40.81,33.8,118.36,54.99,174.39,44.01-.09-.02-.22-.03-.38-.03-6.09,0-42.05-2.77-75.25-9.41-33.2-6.64-113.43-49.8-113.43-49.8.02.12.05.24.07.36,4.49,5.28,9.19,10.38,14.6,14.86Z"/>
        <path d="M938.82,622.99c10.25,9.04,1.34,32.65-14.93,25.56-17.75-7.74-2.25-40.72,14.93-25.56Z"/>
        <path d="M1030.64,633.07c7,6.09,3.65,18.11-2.52,23.82-3.89,3.96-10.73,3.93-13.86-.8-3.27-4.96-4.29-14.26-.25-19.62,3.64-4.95,11.43-8.02,16.5-3.52l.13.12Z"/>
      </g>
      <rect class="cls-3" width="2048.06" height="2048.2"/>
    </g>
  </g>
</svg>