<?xml version="1.0" encoding="UTF-8"?>
<svg id="Layer_2" data-name="Layer 2" xmlns="http://www.w3.org/2000/svg" viewBox="0 0 2048.06 2048.2">
  <defs>
    <style>
      .cls-1 {
        fill: #a09535;
      }

      .cls-2 {
        fill: #e8dd58;
      }

      .cls-3 {
        fill: #fff;
      }

      .cls-4 {
        opacity: 0;
      }
    </style>
  </defs>
  <g id="MangoMuck">
    <g>
      <rect class="cls-4" width="2048.06" height="2048.2"/>
      <g>
        <path class="cls-3" d="M1529.16,654.02c47.5-187.55-73.7-412.21-283.79-362.64-111.63,26.34-167.12,140.42-188.65,246.73-1.59,1.06-28.16,1.26-33.1,2.1-5.9,1.01-12.76,6.4-18.4,7.24-14.62,2.18-26.01-12.88-37.98-19.2-16.28-8.61-30.88-9.31-47.92-2.24-5.83-34.04-21.94-68.43-42.14-95.9-144.19-196.08-442.55,8.78-357.97,225.1"/>
        <path d="M519.2,655.21c-84.57-216.32,213.78-421.18,357.97-225.1,20.2,27.47,36.31,61.86,42.14,95.9,17.04-7.07,31.64-6.37,47.92,2.24,11.97,6.33,23.36,21.38,37.98,19.2,5.65-.84,12.5-6.23,18.4-7.24,4.95-.84,31.52-1.04,33.1-2.1,21.53-106.31,77.02-220.39,188.65-246.73,210.08-49.57,331.29,175.09,283.79,362.64,0,0-6.08,22.04-18.12,40.09-12.03,18.05-15.8,34.6-19.56,100.79-3.76,66.19,24.41,110.25,24.41,110.25,37.19,77.36,47.92,178.91,112.77,238,35.95,32.76,72.01,53.88,102.31,94.61,0,0,43.52,55.47,23.93,86.84-13.34,21.36-47.31,33.75-70.41,30.41-6.17-.89-9.6-3.77-15.02-5.73,17.81,40.4,35.46,81.33,41.34,125.56,17.52,131.71-12.83,297.31-157.09,340.97-122.19,36.98-293.99-8.64-378.9-105-6.84-7.76-23.21-33.68-31.43-36.25-12.86-4.03-42.07,11.37-57.97,12.97-68.5,6.86-127.26-39.46-196.73-35.18-59.11,3.64-118.67,34.49-178.28,29.02-20.23-1.86-39.82-12.49-60.07-14.92-53.61,94.27-139.32,167.53-255.04,146.94-118.11-21.02-151.89-128.28-130.01-235.18,18.6-90.9,65.78-176.08,93.37-264.3-33.21,9.65-102.12,45.42-132.33,17.7-24.57-22.54,9.27-66.64,24.68-86.13,44.97-56.85,105.98-101.67,147.99-161.24,34.15-48.41,51.55-102.05,78.86-153.45,10.49-19.75,24.96-38.13,34.91-57.4,0,0,31.17-96.26,31.17-121.64,0,0-9.61-53.45-24.75-96.52M489.17,974.39c-48.15,106.04-71.7,230.32-107.01,342.21-27.79,88.05-75.15,184.87-93.51,272.64-26.84,128.36,55.41,221.65,187.23,193.37,68.38-14.67,112.75-63.41,145.88-121.9-.07-8.08-21.48-1.57-26.5-.25-25.92,6.8-48.29,25.01-75.05,25.71-2.88-2.81,12.61-18.36,15.36-20.78,53.01-46.68,96.34-28.13,155.39-15.35,68.41,14.81,119.36-21.58,186.96-25.39,60.81-3.42,101.69,20.75,157.65,30.02,76.48,12.66,153.25-42.45,224.67-18.51,14.5,4.86,27.86,17.77,3.9,19.31-31.02,2-63.51-5.3-93.19,5.38-.54,6.03,25.84,30.82,31.55,36.12,80.23,74.55,198.42,119.86,308.83,102.59,218.15-34.13,215.54-313.01,125.45-463.77-98.07-30.36-192.36-102.06-233.73-197.81-2.52-5.83-12.27-29.66-11.98-34.26.38-5.98,6.34-2.98,9.2.12,6.33,6.86,12.86,27.74,18.17,37.22,37.6,67.09,180.23,176.73,256.61,188.01,33.92,5.01,60.82,5.18,55.8-37.34-3.3-27.97-42.53-65.88-62.89-84.8-49.04-45.57-105.63-83.81-150.05-134.57-4.01-4.58-18.12-20.06-14.4-25.98,18.96-7.98,31.44,17.43,44.56,26.59,2.94,2.05,6.89,5.74,10.62,3.23-34.78-57.25-50.82-123.2-82.81-181.81M426.35,1086.2c-3.49-3.64-19.03,13.42-21.49,16.19-22.79,25.65-48.42,56.74-70.98,82.41-25,28.43-84.01,75.75-91.46,112.07-1.85,9-3.27,21.22,7.87,23.07,23.43,3.91,113.3-29.76,127.55-49.16,13.16-17.92,21.65-84.96,29.3-110.74,7.24-24.43,21.55-47.51,19.22-73.84Z"/>
        <path class="cls-2" d="M1507.07,645.56c39.77-129.28-36.1-232.33-36.1-232.33-94.81-159.88-301.71-121.18-369.88,40.52-18.15,43.05-24.9,90.99-20.24,137.63,2.1,21.01,7.19,41.53,10.45,62.31-1.57,1.77-10.65-8.44-11.93-10.03-11.48-14.26-19.34-40.12-20.97-58.43-.64-7.15.46-15.06,0-22.31h-27.67c-4.41,0-20.24,11.53-26.13,13.12-23.74,6.39-47.98-42.84-69.96-30.39-12.4,7.03,6.3,35.6-14.07,22.88-17.99-11.25-37.7-68.64-47.39-89.71-21.32-46.35-40.41-78.9-91.51-93.57-149.62-42.97-302.58,112.37-245.58,267.96,35.44,96.75,18.71,163.8,18.71,163.8-5.44,68.89-65.65,157.38-65.65,157.38-48.15,106.04-71.7,230.32-107.01,342.21-27.79,88.05-75.15,184.87-93.51,272.64-26.84,128.36,55.41,221.65,187.23,193.37,68.38-14.67,112.75-63.41,145.88-121.9-.07-8.08-21.48-1.57-26.5-.25-25.92,6.8-48.29,25.01-75.05,25.71-2.88-2.81,12.61-18.36,15.36-20.78,53.01-46.68,96.34-28.13,155.39-15.35,68.41,14.81,119.36-21.58,186.96-25.39,60.81-3.42,101.69,20.75,157.65,30.02,76.48,12.66,153.25-42.45,224.67-18.51,14.5,4.86,27.86,17.77,3.9,19.31-31.02,2-63.51-5.3-93.19,5.38-.54,6.03,25.84,30.82,31.55,36.12,80.23,74.55,198.42,119.86,308.83,102.59,218.15-34.13,215.54-313.01,125.45-463.77-98.07-30.36-192.36-102.06-233.73-197.81-2.52-5.83-12.27-29.66-11.98-34.26.38-5.98,6.34-2.98,9.2.12,6.33,6.86,12.86,27.74,18.17,37.22,37.6,67.09,180.23,176.73,256.61,188.01,33.92,5.01,60.82,5.18,55.8-37.34-3.3-27.97-42.53-65.88-62.89-84.8-49.04-45.57-105.63-83.81-150.05-134.57-4.01-4.58-18.12-20.06-14.4-25.98,18.96-7.98,31.44,17.43,44.56,26.59,2.94,2.05,6.89,5.74,10.62,3.23-34.78-57.25-50.82-123.2-82.81-181.81,0,0-16.7-80.8-.2-166.44,7.51-38.98,31.38-82.4,31.38-82.4Z"/>
        <path class="cls-1" d="M426.35,1086.2c2.33,26.33-11.98,49.41-19.22,73.84-7.64,25.78-16.13,92.82-29.3,110.74-14.25,19.4-104.12,53.07-127.55,49.16-11.14-1.86-9.72-14.08-7.87-23.07,7.45-36.32,66.46-83.64,91.46-112.07,22.56-25.66,48.2-56.75,70.98-82.41,2.46-2.77,18-19.83,21.49-16.19Z"/>
        <path class="cls-1" d="M621.62,1660.72c-.07-8.08-21.47-1.57-26.5-.25-25.92,6.8-48.29,25.01-75.05,25.71,0,0-65.6,89.3-95.94,101.43,16.15.5,33.4-1.08,51.59-4.99,68.38-14.67,112.75-63.41,145.88-121.9Z"/>
        <path class="cls-1" d="M1359.82,1717.12c-33.12-39.74-72.99-62.11-82.51-67.12-.53,2.67-4.29,4.76-13.08,5.33-31.02,2-63.51-5.3-93.19,5.38-.54,6.03,25.84,30.82,31.55,36.12,80.23,74.55,198.42,119.86,308.83,102.59,12.1-1.89,23.51-4.54,34.28-7.88-26.28-1.82-149.21-30.44-185.87-74.43Z"/>
        <path class="cls-1" d="M1658.01,1376.61c-6.31-14.43-13.33-28.17-20.99-40.98-54.26-16.8-107.35-46.25-150.98-85.43,4.26,11.21,38.14,88.71,171.96,126.41Z"/>
        <path class="cls-1" d="M524.67,568.34c-2.44,27.45.92,56.15,11.44,84.87,35.44,96.75,18.71,163.8,18.71,163.8-5.44,68.89-65.65,157.38-65.65,157.38-48.15,106.04-71.7,230.32-107.01,342.21-27.79,88.05-75.15,184.87-93.51,272.64-26.84,128.36,55.41,221.65,187.23,193.37,68.38-14.67,112.75-63.41,145.88-121.9-.07-8.08-21.48-1.57-26.5-.25-25.92,6.8-48.29,25.01-75.05,25.71-2.88-2.81,12.61-18.36,15.36-20.78,53.01-46.68,96.34-28.13,155.39-15.35,68.41,14.81,119.36-21.58,186.96-25.39,60.81-3.42,101.69,20.75,157.65,30.02,56.66,9.38,113.47-18.43,168.15-23.74-17.41-3.18-41.05-6.69-60.28-6.69-35.05,0-134.38-32.13-210.33-35.05-75.95-2.92-160.67,26.29-189.88,26.29s-37.98-17.53-84.72-17.53-125.61,32.13-172.35,0c-46.74-32.13-47.63-225.25-49.66-312.57-2.03-87.32,93.48-315.49,113.93-338.86,0,0,32.32-75.21,30.64-142.45,0,0-6.72-68.92-16.81-104.22-10.09-35.3-43.89-79.79-39.59-131.51Z"/>
        <path d="M937.92,622.99c10.25,9.04,1.34,32.65-14.93,25.56-17.75-7.74-2.25-40.72,14.93-25.56Z"/>
        <path d="M1029.74,633.07c7,6.09,3.65,18.11-2.52,23.82-3.89,3.96-10.73,3.93-13.86-.8-3.27-4.96-4.29-14.26-.25-19.62,3.64-4.95,11.43-8.02,16.5-3.52l.13.12Z"/>
      </g>
    </g>
  </g>
</svg>