<?xml version="1.0" encoding="UTF-8"?>
<svg id="Layer_2" data-name="Layer 2" xmlns="http://www.w3.org/2000/svg" viewBox="0 0 2048.06 2048.2">
  <defs>
    <style>
      .cls-1 {
        fill: #668066;
      }

      .cls-2 {
        fill: #809e7d;
      }

      .cls-3 {
        opacity: 0;
      }
    </style>
  </defs>
  <g id="PukeGreen">
    <g>
      <rect class="cls-3" width="2048.06" height="2048.2"/>
      <g>
        <g>
          <g>
            <path class="cls-2" d="M506.09,1118.54l13.1-34.24c5.2-13.78,10.81-31.57,15.17-45.82,4.67-15.25,9.69-32.58,11.62-48.35-27.81,31.66-61.62,57.09-91.85,86.07-18.66,17.89-85.32,78.03-14.69,70.43,12.43-1.34,59.91-18.44,66.66-28.09Z"/>
            <path class="cls-2" d="M1597.54,1191.24l-1.02-1.83c-.13-2.14-1.13-3.9-1.93-5.8-1.51-3.57-13.21-25.07-14.65-25.3-1.46-.23-17.58,9.95-20.14,11.75-31.48,10.79-60.25-19.76-70.51-46.48-1.4-3.65-6.98-18.77-4.86-21.24,3.28-3.81,8.94,10.52,9.65,11.6,10.84,16.52,34.25,42.64,55.34,44.41,6.04.51,24.31-3.65,21.84-12.2-.67-2.31-30.39-19.02-38.52-28.33-.6-.69-1.36-1.25-1.93-1.93-.44-.52-.89-2.47-1.93-3.87.52-2.29-2.06-9.03,2.82-7.68,13.15,3.63,37.28,20.67,51.93,27.36,40.55,18.51,104.6,44.79,149.21,38.4,21.4-3.07,11.38-17.47,4.42-29.65-19.63-34.3-61.41-71.36-93.73-93.86-32.13-22.37-89.77-45.34-105.06-82.52-21.38-52.01-21.49-120.54-51.79-174.55-10.49-18.7-14.37-12.63-18.92,5.16-.95,3.71,1.37,7.36,1.17,7.7-.21.34-7.28,2.39-7.7,1.98-.65-.65-2.14-15.65-1.98-18.29,1.52-25.54,29.5-57.47,40.44-80.02,29.86-61.57,36.62-134.4,23.39-200.43-.41-2.05,1.69-4.49.92-7.11-.44-1.49-4.27-2.22-4.83-4.54-31.5-130.14-135.62-210.68-264.36-177.39-112.63,29.13-180.16,145.56-174.35,258.45,1.33,25.92,8.17,51.26,13.48,76.46-17.07-14.93-25.03-35.34-28.72-57.33-1.02-6.07-1.21-32.23-2.3-33.5-1.64-1.91-21.35-2.03-25.48-1.53-11.77,1.43-33.11,15.51-39.03,14.97-12.29-1.13-46.14-44.26-65.97-31.08-15.04,10,7.57,35.68-11.14,23.01-29.17-19.76-43.21-119.77-96.5-158.81-120.26-88.11-307.56,20.48-314.65,160.04-.66,12.91-1.01,29.12,2,41.67,7.99,84.12,87.95,114.47,81.14,227.31-12.27,203.3-112.32,394.12-194.91,574.99-47.87,104.82-113.54,287.76,34.55,346.04,83.51,32.86,89.21-17.75,132.35-66.74,16.8-19.08,37.44-35.18,57.03-51.26-15.64-.82-33.13,2.21-48.7,5.43-11.94,2.47-34.62,12-43.24,12.85-7.52.74.88-5.32,1.1-5.7,65.94-46.5,152.94-44.14,230.02-34.83.32.81,1.1,1.79,1.93,1.93,31.65,5.45,62.24,15.61,92.78,25.15,78.72,35.06,135.02,79.8,206.99,122.7,97.33,58,195.92,78.29,301.41,25.36,70.73-35.49,153.41-136.23,234.87-132.65,6.02.26,36.3,6.96,22.16,12.58-5.72,2.27-37.86,6.86-38.79,10.06-6.21,21.41,32,45.3,51.36,45.28,60.56-.05,106.83-76.75,115.01-129.77,13.74-89.06-23.9-173.55-63.46-250.9-9.37-18.32-80.08-151.78-88.22-155.54Z"/>
          </g>
          <path class="cls-1" d="M763.43,1618.96c-.83-.14-1.61-1.12-1.93-1.93.64.08,1.3-.08,1.93,0v1.93Z"/>
          <path class="cls-1" d="M519.2,1084.3c4.94-13.87,10.81-31.57,15.17-45.82,4.67-15.25,9.69-32.58,11.62-48.35-27.81,31.66-61.62,57.09-91.85,86.07-18.66,17.89-85.32,78.03-14.69,70.43,12.43-1.34,59.91-18.44,66.66-28.09,0,0,8.13-20.32,13.1-34.24Z"/>
          <path class="cls-1" d="M1494.08,1113.95c10.84,16.52,34.25,42.64,55.34,44.41,6.04.51,24.31-3.65,21.84-12.2-.67-2.31-30.39-19.02-38.52-28.33l-1.93-1.93c-.44-.52-.89-2.47-1.93-3.87-7.76-10.4-5.04-13.1-23.18-11.6,0,0-20.1-4.37-11.61,13.53Z"/>
          <path class="cls-1" d="M1559.8,1170.06c2.56-1.8,18.68-11.99,20.14-11.75,1.44.23,13.14,21.73,14.65,25.3l1.34,3.09s.02.06.03.09l.56,2.63,1.01,1.83c-10.25-4.73-38.99-6.29-50.99-14.85-3.36-5.04-2.71-4.2,5.42-4.2,1.17,0,7.64-1.99,7.83-2.13Z"/>
          <path class="cls-2" d="M763.43,1617.02c-.63-.08-1.3.08-1.93,0-77.08-9.31-164.08-11.67-230.02,34.83,22.25-39.01,143.77-44.95,184.56-42.54,14.86.88,33,3.68,47.39,7.71Z"/>
          <path class="cls-2" d="M856.21,1644.11c-30.54-9.54-61.13-19.7-92.78-25.15v-1.93c34.27,4.43,61.83,13.3,92.78,27.09Z"/>
          <path class="cls-2" d="M1532.73,1117.82l-1.93-1.93c.57.68,1.33,1.25,1.93,1.93Z"/>
          <path class="cls-1" d="M1731.23,1615.46c-32.51,20.41-66.82-1.28-99.51-9.5-45.2-11.36-96.01-15.04-141.14-1.14-52.81,16.27-100.37,63.97-152.61,81.36l-45.67,10.55c-6.78,2.9-37.69,2.18-46.57,1.51-75.77-5.71-151.68-70.65-215.74-109.11-132.55-79.58-249.71-112.97-406.45-93.75-91.04,11.16-193.24,63.09-166.55-85.46,2.67-14.86,76.5-229.51,76.5-229.51,2.09-3.17,18.37-51.3,21.27-59.76,0,0,50.18-185.48,55.22-251.04,5.04-65.56-10.75-137.15-47.07-191.63-47.07-70.6-46.89-130.98-46.89-130.98-11.59,10.21-3.89,61.92-3.89,61.92,7.99,84.12,87.95,114.47,81.14,227.31-12.27,203.3-112.32,394.12-194.91,574.99-47.87,104.82-113.54,287.76,34.55,346.04,83.51,32.86,89.21-17.75,132.35-66.74,1.27-1.44,2.56-2.85,3.87-4.26h0c16.04-17.24,35.05-32.13,53.16-47,0,0,0,0,0,0,0,0,0,0,0,0-15.64-.82-33.13,2.21-48.69,5.43-11.94,2.47-34.62,12-43.24,12.85-2.11.21-2.97-.12-3.1-.71-.34-1.51,4.04-4.71,4.2-4.98,65.94-46.5,152.94-44.14,230.02-34.83.32.81,1.1,1.79,1.93,1.93,31.65,5.45,62.24,15.61,92.78,25.15,78.72,35.06,135.02,79.8,206.99,122.7,97.33,58,195.92,78.29,301.41,25.36,70.73-35.49,153.41-136.23,234.87-132.65,4.7.21,24.21,4.34,25.78,8.81.44,1.25-.53,2.53-3.62,3.76-5.72,2.27-37.86,6.86-38.79,10.06-.15.5-.26,1-.36,1.51-.01.08-.03.15-.04.23-.09.49-.16.98-.2,1.47,0,.07,0,.14-.01.2-.04.48-.06.96-.05,1.43,0,.04,0,.07,0,.11,0,.49.04.99.08,1.48,0,.09.02.19.03.28.05.49.12.98.21,1.46,0,.05.02.1.03.16.09.46.19.92.32,1.37.02.08.04.16.06.24.13.48.28.95.45,1.43.04.1.07.2.11.3.18.48.36.97.57,1.45,0,.02.02.03.02.05.2.47.43.93.66,1.39.05.11.11.21.16.32.24.46.48.91.75,1.36.06.1.12.2.18.3.25.41.5.82.77,1.23.05.07.09.14.14.22.3.45.61.89.93,1.33.09.12.17.24.26.36.32.43.65.87,1,1.3.07.09.15.18.22.27.3.37.62.75.94,1.11.09.11.19.22.28.32.36.41.74.82,1.12,1.23.12.12.24.25.36.37.37.39.75.77,1.13,1.15.09.09.18.17.27.26.37.36.74.71,1.12,1.06.13.12.27.25.4.37.41.38.84.75,1.26,1.12.14.12.28.24.43.36.36.31.73.61,1.1.92.12.1.23.19.35.29.44.36.89.71,1.35,1.05.17.13.34.26.5.38.45.34.91.68,1.37,1.01.15.11.3.21.45.32.37.26.75.53,1.13.78.17.11.33.23.5.34.47.31.94.62,1.41.92.19.12.37.24.56.35.42.26.84.52,1.27.78.2.12.4.24.6.36.4.24.8.47,1.2.69.2.11.39.22.59.33.48.27.96.53,1.44.79.19.1.39.2.58.3.39.2.77.4,1.16.59.19.1.38.19.57.28.46.23.93.45,1.39.67.21.1.41.19.61.29.48.22.96.44,1.45.65.18.08.37.16.55.23.37.16.75.31,1.12.46.19.08.38.15.57.23.48.19.95.37,1.42.54.2.07.4.15.6.22.41.15.82.29,1.23.43.1.03.2.07.29.1h0c4.52,1.49,8.8,2.33,12.42,2.32,60.56-.05,106.83-76.75,115.01-129.77l-17.99,17.79Z"/>
        </g>
        <path d="M938.82,622.99c10.25,9.04,1.34,32.65-14.93,25.56-17.75-7.74-2.25-40.72,14.93-25.56Z"/>
        <path d="M1030.64,633.07c7,6.09,3.65,18.11-2.52,23.82-3.89,3.96-10.73,3.93-13.86-.8-3.27-4.96-4.29-14.26-.25-19.62,3.64-4.95,11.43-8.02,16.5-3.52l.13.12Z"/>
      </g>
    </g>
    <path d="M1709.29,1345.47c-32.9-61.6-68.72-121.43-103.06-182.21,20.75,6.55,38.5,15.97,59.46,21.72,0,0,92.67,16.91,99.78-17.16,5.07-24.3-29.52-65.67-46.11-82.99-38.32-39.99-82.98-59.69-125.37-91.21-41.38-30.77-43.95-81.08-58.49-128.12-7.62-24.67-13.7-49.73-24.5-73.24-4.34-9.45-19.35-25.78-18.82-37.08l44.81-86.86c47.24-175.49-38.2-397.34-248.73-380.55-125.58,10.02-190.29,110.92-220.38,222.49-1.54,5.73-3.24,24.43-5.79,27.1-2.35,2.46-29.25,2.93-36.24,4.36-12.52,2.56-20.61,12.33-33.03,4.98-18.22-10.79-28.51-24.97-54.47-24.8-5.15.03-19.54,6.51-20.27,5.76-1.02-1.04-5.63-22.7-7.71-28.08-116.54-301.71-498.21-81.75-398.54,157.09,24.03,57.59,59.01,86.34,62.28,154.37,1.38,28.62-5.9,116.12-18.59,140.25-22.7,43.2-107.91,101.01-142.93,141.35-17.32,19.95-40.55,49.24-7.78,67.82,31.7,17.97,54.69-.2,82.89-8.17,2.57-.73,2.17-2.65,5.07,1.3-17.14,38.24-31.06,78.12-47.94,116.45-51.99,118.08-161.53,283.42-112.48,415.72,21.55,58.12,85.35,103.92,148.01,101.62,60.92-2.23,70.13-53.65,104.15-91.09,12.93-14.22,66.06-59.5,83.2-61.89,53.31-7.42,154.54,19.91,204.66,40.96,132.57,55.68,210.5,169.44,367.54,168.89,66.69-.23,110.72-17.87,165.52-53.78,20.41-13.37,138.42-112.26,154.26-101.76.9.59,5.5,15.38,8.24,19.85,52.93,86.1,161.06,9.71,190.69-57.93,43.84-100.07-2.62-217.71-49.32-305.14ZM439.45,1146.63c-70.63,7.6-3.97-52.54,14.69-70.43,30.23-28.98,64.04-54.41,91.85-86.07-1.93,15.78-6.95,33.1-11.62,48.35-4.36,14.25-9.97,32.04-15.17,45.82l-13.1,34.24c-6.75,9.65-54.23,26.75-66.66,28.09ZM1749.22,1597.68c-8.18,53.02-54.45,129.72-115.01,129.77-19.36.02-57.57-23.88-51.36-45.28.93-3.2,33.07-7.79,38.79-10.06,14.14-5.61-16.15-12.31-22.16-12.58-81.46-3.58-164.14,97.16-234.87,132.65-105.49,52.93-204.08,32.64-301.41-25.36-71.97-42.89-128.27-87.64-206.99-122.7-30.54-9.54-61.13-19.7-92.78-25.15-.83-.14-1.61-1.12-1.93-1.93-77.08-9.31-164.08-11.67-230.02,34.83-.22.38-8.62,6.44-1.1,5.7,8.62-.85,31.3-10.38,43.24-12.85,15.57-3.22,33.05-6.25,48.69-5.43-19.59,16.08-40.23,32.18-57.03,51.26-43.14,48.99-48.84,99.6-132.35,66.74-148.1-58.28-82.42-241.22-34.55-346.04,82.59-180.87,182.64-371.69,194.91-574.99,6.81-112.84-73.15-143.19-81.14-227.31-3.01-12.55-2.66-28.76-2-41.67,7.1-139.56,194.39-248.15,314.65-160.04,53.29,39.04,67.33,139.05,96.5,158.81,18.7,12.67-3.9-13.01,11.14-23.01,19.84-13.18,53.68,29.95,65.97,31.08,5.92.54,27.26-13.54,39.03-14.97,4.13-.5,23.84-.37,25.48,1.53,1.09,1.27,1.28,27.43,2.3,33.5,3.69,21.99,11.66,42.4,28.72,57.33-5.31-25.2-12.14-50.54-13.48-76.46-5.81-112.89,61.72-229.33,174.35-258.45,123.4-31.91,223.75,41.07,259.6,161.79l-.17-.37s1.64,5.6,3.79,13.62c.22.89.46,1.77.67,2.67l.12.32c3.06,11.57,6.81,26.85,8.47,37.96,6.75,58.45-1.78,120.18-27.62,173.47-10.94,22.55-38.92,54.48-40.44,80.02-.16,2.64,1.33,17.64,1.98,18.29.41.41,7.49-1.64,7.7-1.98.2-.33-2.12-3.99-1.17-7.7,4.54-17.79,8.43-23.86,18.92-5.16,30.29,54.01,30.41,122.54,51.79,174.55,15.29,37.18,72.93,60.15,105.06,82.52,32.31,22.5,74.1,59.57,93.73,93.86,6.97,12.17,16.99,26.58-4.41,29.65-44.61,6.39-108.66-19.89-149.21-38.4-14.65-6.69-38.78-23.74-51.93-27.36-4.88-1.35-2.3,5.38-2.82,7.68,1.05,1.4,1.5,3.35,1.93,3.87.57.68,1.33,1.25,1.93,1.93,8.13,9.31,37.86,26.03,38.52,28.33,2.47,8.55-15.8,12.71-21.84,12.2-21.09-1.77-44.5-27.89-55.34-44.41-.71-1.08-6.38-15.41-9.65-11.6-2.12,2.47,3.46,17.58,4.86,21.24,10.26,26.72,39.03,57.27,70.51,46.48,2.56-1.8,18.68-11.99,20.14-11.75,1.44.23,13.14,21.73,14.65,25.3.81,1.9,1.81,3.67,1.93,5.8l1.01,1.83c8.14,3.75,78.86,137.22,88.23,155.54,39.56,77.35,77.2,161.84,63.46,250.9Z"/>
  </g>
</svg>