<?xml version="1.0" encoding="UTF-8"?>
<svg id="Layer_1" data-name="Layer 1" xmlns="http://www.w3.org/2000/svg" viewBox="0 0 1117.95 1006.84">
  <defs>
    <style>
      .cls-1 {
        fill: #fff;
        stroke-width: 0px;
      }
    </style>
  </defs>
  <g>
    <path class="cls-1" d="M612.35,664.99c-5.99-11.82,10.78-24.04,24.04-24.04s22.87,10.83,24.03,24.04c4.17,47.14-19.46,63.24-19.46,63.24-10.72,7.25-23.23,11.98-36.58,13.88v.82l-8.67.11h-7.92c-48.78-1.81-83.95-38.44-83.95-87.12s35.93-86.12,83.57-87.78h20.96c12.95,0,23.48,10.53,23.48,23.47s-10.53,23.48-23.48,23.48h-20.38c-16.18,1.14-34.99,12.51-34.99,40.83,0,25.26,17.55,37.89,35.03,39.26h5.92c6.88-.55,13.71-2.98,19.27-6.86,0,0,6.44-8.9-.88-23.34Z"/>
    <path class="cls-1" d="M294.15,739.9c13.31,0,24.15-10.83,24.15-24.14v-120.34c0-13.31-10.83-24.14-24.15-24.14s-24.14,10.83-24.14,24.14v120.34c0,13.31,10.83,24.14,24.14,24.14Z"/>
    <path class="cls-1" d="M755.69,693.59h-31.75v-99.15c0-12.76-10.39-23.15-23.16-23.15h-1.53c-12.77,0-23.16,10.38-23.16,23.15v122.31c0,12.77,10.39,23.15,23.16,23.15h56.44c12.77,0,23.16-10.38,23.16-23.15s-10.39-23.16-23.16-23.16Z"/>
    <path class="cls-1" d="M388.5,715.87c0,13.25-10.78,24.03-24.04,24.03s-24.03-10.78-24.03-24.03v-114.42c0-16.63,13.53-30.17,30.17-30.17h5.38c10.55,0,20.14,5.36,25.68,14.33l39.17,63.46v-53.98c0-13.13,10.78-23.81,24.04-23.81s23.82,10.68,23.82,23.81v114.63c0,16.63-13.54,30.17-30.17,30.17-10.45,0-20.01-5.29-25.56-14.14l-44.9-71.66.47,61.77Z"/>
    <path class="cls-1" d="M1008.47,634.29l-20.88-3.95c-9.92-1.82-9.92-6.27-9.92-8.4,0-3.91,4.49-9.79,13.95-10h35.69c12.11,0,21.96-9.85,21.96-21.96s-9.85-21.96-21.96-21.96h-35.76c-34.37.47-61.29,25.3-61.29,56.54,0,26.09,18.71,46.53,47.72,52.09l21.2,3.95c3.4.65,11.31,2.83,11.31,9.07,0,8.92-11.72,9.61-15.31,9.61-1.05,0-2.07-.05-3.06-.11l-34.43-.02c-12.11,0-21.96,9.85-21.96,21.96s9.85,21.96,21.94,21.96l35.17.06c.62.03,1.25.06,1.9.06,41.59,0,64.03-28.7,64.03-55.7h0c0-26.65-19.77-47.52-50.31-53.18Z"/>
    <path class="cls-1" d="M846.54,677.11h46.59s17.17-2.65,17.62-19.3v-2.19c0-12.04-9.8-21.84-21.85-21.84h-42.36c-4.57,0-8.31-3.74-8.31-8.31h0c0-4.57,3.74-8.31,8.31-8.31h41.41c12.05,0,21.85-9.8,21.85-21.84v-2.19c0-12.04-9.8-21.84-21.85-21.84h-67.95c-12.04,0-21.84,9.8-21.84,21.84v60.35c0,.24,0,.47,0,.72v61.25s0,2.63,0,2.63c0,12.04,9.8,21.84,21.84,21.84h68.17c12.04,0,21.84-9.8,21.84-21.84v-2.4c0-5.83-2.26-11.31-6.38-15.44-4.13-4.14-9.62-6.41-15.45-6.41h-25.1l.05-.09h-16.57c-4.57,0-8.31-3.74-8.31-8.31s3.74-8.31,8.31-8.31Z"/>
    <path class="cls-1" d="M106.61,716.18c0,13.07-10.64,23.71-23.71,23.71-13.08,0-23.72-10.64-23.72-23.71l1-61.3v-48.19c0-18.28,14.87-33.15,33.15-33.15,13.54,0,25.6,8.11,30.7,20.65l29.21,71.75,27.51-71.2c4.9-12.68,17.33-21.2,30.92-21.2h2.03c8.85,0,17.17,3.45,23.44,9.72,6.27,6.27,9.72,14.59,9.71,23.44v110.46c0,12.53-10.2,22.73-22.73,22.73h-1.07c-12.54,0-22.74-10.2-22.74-22.73v-51.06s-22.34,56.75-22.34,56.75c-4.07,10.35-13.89,17.04-25.02,17.04-11.07,0-20.88-6.64-24.98-16.92l-23.86-59.85,2.5,53.06Z"/>
  </g>
  <g>
    <path class="cls-1" d="M374.99,222.17c21.63.78,41.66,6.34,59.34,19.18.91.66,1.51.64,2.41,0,18.28-12.99,38.87-18.83,61.07-19.04,21.76-.21,41.5,6.56,59.44,18.7,1.28.86,2.06.86,3.32,0,17.75-12.02,37.27-18.77,58.8-18.69,22.27.08,42.94,5.85,61.34,18.78,1.18.83,1.91.89,3.11.03,14.27-10.13,30.1-16.09,47.56-17.83,7.13-.71,14.26-1.68,21.35-.06,17.2,3.94,28.74,14.39,33.81,31.2,4.89,16.23.77,30.7-10.89,42.85-8.11,8.45-18.07,13.16-30.01,13.41-10.27.21-17.18,5.85-18.75,15.06-.24,1.38-.2,2.82-.2,4.23,0,15.79.03,31.59.04,47.38,0,8.25,3.52,14.1,11.3,17.46,15.03,6.49,24.82,17.61,27.41,33.94,2.88,18.17-3.78,32.89-18.51,43.65-12.41,9.06-26.14,9.79-40.44,4.87-9.18-3.15-17.75-7.43-25.51-13.26-1.24-.93-2.11-1.04-3.52-.15-20.64,13.18-43.23,18.01-67.54,15.99-18.13-1.51-34.38-7.83-49.24-18.06-1.33-.92-2.21-.93-3.52,0-21.25,15-44.99,20.26-70.68,18.02-16.64-1.46-31.83-7.03-45.9-15.83-1.51-.95-2.47-.92-3.88.14-9.59,7.17-20.21,12.29-31.86,14.99-20.88,4.83-41.77-6.44-49.84-26.63-8.5-21.26.14-44.83,20.4-55.57,1.5-.8,3.03-1.55,4.6-2.2,7.67-3.16,11.1-9.05,11.1-17.14.01-13.39-.01-26.77,0-40.16,0-2.9.08-5.81.08-8.71,0-9.49-6.73-16.99-16.21-17.8-5.65-.48-11.33-.59-16.65-2.88-16.32-7.02-26.66-19.09-28.61-36.83-2.67-24.2,14.73-44.52,36.66-48.21,2.85-.48,5.77-.57,8.66-.84ZM514.33,390.67c-.94.82-1.57,1.38-2.22,1.93-4.03,3.39-8.71,5.19-13.95,5.45-14.89.75-24.7-12.74-24.6-24.03.14-15.65.16-31.31-.02-46.96-.06-5.42-.51-10.9-1.38-16.25-3.04-18.76-11.15-35.15-24.03-49.13-11.94-12.96-25.94-22.85-42.84-28.34-8.24-2.68-16.77-3.62-25.35-4.54-13.08-1.41-24.28,1.98-33.59,11.43-11.45,11.61-14.31,29.5-6.45,43.78,6.07,11.04,15.24,18.23,27.97,20.23,3.34.52,6.82.3,10.11,1,13.64,2.87,20.13,14.02,19.44,27.14-.03.63-.22,1.26-.21,1.89.21,16.84-.12,33.72.82,50.52.99,17.64,7.46,33.58,18.01,47.83,16.29,22.01,37.67,35.74,64.82,40.3,10.79,1.81,21.58,1.61,32.34.23,11.47-1.47,22.17-5.42,32.2-11.15,2.54-1.45,5-3.03,7.76-4.72-21.47-17.43-33.9-39.71-38.85-66.6ZM563.5,246.36c21.37,18.08,33.62,40.88,37.78,68.48.53-.67.81-1.05,1.12-1.42,9.26-11.29,26.56-11.63,35.95-.74,3.91,4.54,5.81,9.76,5.81,15.73-.01,16.15-.06,32.29.04,48.44.03,4.73.33,9.47.82,14.18,1.57,15.07,6.73,28.89,14.99,41.57,11.56,17.74,26.64,31.19,46.87,38.39,7.29,2.59,14.7,4.15,22.43,2.6,16.89-3.38,28.29-17.18,30.44-32.91,2.3-16.81-7.38-33.33-23.27-39.88-10.67-4.39-15.83-12.2-15.82-23.65.01-15.79.02-31.58-.09-47.38-.09-12.8-1.91-25.33-6.47-37.37-12.5-33.04-45.6-61.59-88.39-63.87-13.57-.72-26.78,1.11-39.51,5.93-7.94,3.01-15.42,6.9-22.68,11.89ZM637.96,351.21s-.03,0-.04,0c0-6.72.03-13.45-.02-20.17-.02-2.47.13-5.02-.42-7.38-1.91-8.29-10.2-13.71-19.03-12.72-8.36.94-15.17,8.34-15.2,16.69-.05,15.92-.09,31.84.02,47.76.05,6.52,3.51,11.49,8.95,14.48,11.73,6.45,25.62-2.08,25.73-15.52.06-7.71.01-15.42.01-23.14ZM513.49,351.44h.08c0-9.21.02-18.41-.02-27.62,0-.96-.17-1.99-.53-2.87-2.99-7.17-11.45-11.45-19.28-9.84-8.12,1.67-13.8,8.46-13.84,16.47-.06,14.3-.16,28.6-.2,42.9,0,2.4-.17,4.88.38,7.18,2.95,12.5,16.02,18.55,26.88,11.24,4.19-2.82,6.9-6.54,6.65-12.2-.37-8.4-.1-16.84-.1-25.25ZM723.18,256.88c0,6.01,3.55,9.79,9.23,9.81,5.79.02,9.66-3.86,9.66-9.7,0-5.36-4.15-9.48-9.52-9.46-5.3.02-9.37,4.08-9.37,9.35Z"/>
    <path class="cls-1" d="M375.74,256.88c0,6.01,3.55,9.79,9.23,9.81,5.79.02,9.66-3.86,9.66-9.7,0-5.36-4.15-9.48-9.52-9.46-5.3.02-9.37,4.08-9.37,9.35Z"/>
  </g>
</svg>