<?xml version="1.0" encoding="UTF-8"?>
<svg id="Layer_2" data-name="Layer 2" xmlns="http://www.w3.org/2000/svg" viewBox="0 0 2048.06 2048.2">
  <defs>
    <style>
      .cls-1 {
        fill: #f4d493;
      }

      .cls-2 {
        fill: #f1c64a;
      }

      .cls-3 {
        fill: #fff;
      }

      .cls-4 {
        fill: #f5d595;
      }

      .cls-5 {
        fill: #6c111d;
      }

      .cls-6 {
        opacity: .15;
      }

      .cls-7 {
        fill: #efece4;
      }

      .cls-8 {
        opacity: 0;
      }
    </style>
  </defs>
  <g id="banana">
    <g>
      <rect class="cls-8" width="2048.06" height="2048.2"/>
      <g>
        <g>
          <g>
            <path class="cls-3" d="M951.5,1078.54c26.4-54.61,72.82-101.84,138.9-90.59,42.3,7.2,58.25,27.76,87.86,53.52,5.91,5.14,17.81,16.77,15.1.32-4.1-24.84-43.6-59.79-64.19-73.02-103.27-66.31-284.48-58.89-358.8,48.33-4.91,7.08-19.87,30.22-12.77,37.66l3.96,1.22c17.34-16.14,29.91-35.08,53.44-43.25,1.35-.47,3.99-2.61,4.91-.69-35.68,37.5-58.11,86.05-68.6,136.5-80.4-22.18-117.24,75.6-114.84,139.34.49,13.02,3.72,27.43,4.32,40.48.65,14.35-5,51.84,1.34,61.66,8.64,13.38,24.09,7.11,33.62-1.39,26.78-23.89,29.9-78.98,41.96-112.03l12.61-25.87c.08,26.56-1.19,52.41,3.22,78.68,8.13,48.41,34.86,101.47,70.97,134.82,12.95,11.96,28.52,20.76,38.09,36.11,11.74,18.82,14.07,47.67,43.49,42.63,4.54-.78,26.18-13.69,28.61-16.88.38-.5,4.51-10.81,4.56-11.55.96-13.46-19.25-26.35-20.98-40.5-1.42-11.63.47-27.02.09-39.29-1.07-34.98-3.59-70.02-1.52-104.99,1.68-28.34,5.13-56.94,11.27-84.63,2.76-2.15,14.58,26.2,15.43,28.64,11.86,33.92,13.7,81.85,39.19,109.2,16.01,17.18,39.5,14.32,41.78-11.33,1.33-15-3.34-39.51-4.08-55.77-.64-14.26.94-29.25.04-43.44-3.08-48.8-26.21-104.23-78.39-115.51-2.37-2.36,16.85-54.71,21.38-61.22,29.08-9.78,52.3-31.52,80.32-43.57,21.31-9.16,43.62-12.84,66.29-17.01-1.27-3.05-5.48-4.16-8.34-4.94-24.39-6.69-59.26,3.85-80.79,15.92l-49.46,32.42Z"/>
            <path d="M951.5,1078.54l49.46-32.42c21.54-12.07,56.4-22.61,80.79-15.92,2.86.78,7.06,1.89,8.34,4.94-22.67,4.18-44.98,7.86-66.29,17.01-28.02,12.04-51.24,33.79-80.32,43.57-4.52,6.52-23.74,58.86-21.38,61.22,52.18,11.28,75.31,66.71,78.39,115.51.9,14.19-.69,29.18-.04,43.44.73,16.26,5.41,40.77,4.08,55.77-2.28,25.65-25.77,28.51-41.78,11.33-25.49-27.35-27.33-75.28-39.19-109.2-.85-2.44-12.67-30.79-15.43-28.64-6.15,27.69-9.6,56.29-11.27,84.63-2.07,34.97.45,70.01,1.52,104.99.37,12.27-1.51,27.66-.09,39.29,1.72,14.15,21.94,27.04,20.98,40.5-.05.74-4.18,11.05-4.56,11.55-2.43,3.19-24.07,16.1-28.61,16.88-29.43,5.04-31.76-23.81-43.49-42.63-9.57-15.35-25.14-24.15-38.09-36.11-36.11-33.35-62.84-86.4-70.97-134.82-4.41-26.27-3.14-52.12-3.22-78.68l-12.61,25.87c-12.05,33.05-15.18,88.14-41.96,112.03-9.53,8.5-24.97,14.77-33.62,1.39-6.34-9.82-.69-47.31-1.34-61.66-.59-13.06-3.83-27.47-4.32-40.48-2.4-63.73,34.44-161.52,114.84-139.34,10.48-50.45,32.92-99,68.6-136.5-.92-1.92-3.56.22-4.91.69-23.53,8.17-36.1,27.11-53.44,43.25l-3.96-1.22c-7.1-7.44,7.86-30.59,12.77-37.66,74.32-107.22,255.54-114.65,358.8-48.33,20.59,13.22,60.09,48.18,64.19,73.02,2.72,16.45-9.19,4.82-15.1-.32-29.61-25.76-45.56-46.32-87.86-53.52-66.08-11.25-112.5,35.98-138.9,90.59ZM1021.48,979.18c-52.38-17.94-98.49-30.77-147.99,2.47-54.78,36.79-92.17,108.9-109.59,171.07,23.88,9.15,43.81,26.04,55.31,49.01,16.53-30.48,52.65-45.56,86.14-46.83,17.12-54.57,40.12-109.1,80.37-150.61l35.75-25.12ZM804.51,1205.94c-24.17-42.43-87.39-63.62-123.16-21.65-34.03,39.92-28.71,96.02-26.57,144.1.65,14.67-3.07,31.28-1.49,44.89s10.4,8.58,16.86,1.4c20.85-23.2,23.83-77.09,34.94-107.85,15.4-42.64,50.5-80.03,99.42-60.88ZM825.52,1217.15c22.84-25.98,61.75-19.98,84.75,2.73,38.81,38.32,32.46,126.93,65,153.39,8.09,6.58,15.57,6.51,15.55-5.62-.02-11.94-3.68-27.95-4.31-40.62-2.64-52.88,2.99-107.38-42.68-144.91-33.88-27.85-82.72-9.72-108.48,20.37-3.43,4.01-7.77,9.78-9.83,14.66ZM903.9,1511.11v-2.06c-11.59-12.56-19.57-22.99-20.2-40.62-2.1-58.23-4.32-122.72,2.02-180.57,2.19-19.93,7.05-39.55,9.12-59.47-18.46-18.57-46.49-15.61-63.04,4.15-8.85,10.57-9.83,30.43-10.47,44.13-1.06,22.67,1.61,47.24,4.38,69.78,1.59,12.92,4.47,25.76,6.13,38.68.19,1.48,1.95,4.52-.71,4.21-14.52-35.1-19.95-76.11-18.27-114.14,1.01-22.88,11.26-42.05-16.38-53.5-18.43-7.63-42.79-7.48-48.16,15.55-12.24,52.41,2.4,125.92,30.41,171.58,18.42,30.02,36.6,42.18,60.81,65.18,19.83,18.85,17.26,25.78,28.84,46.76,1.55,2.81,5.07,9.23,8.86,7.92,6.78-2.36,17.45-16.91,26.67-17.57Z"/>
            <path class="cls-2" d="M903.9,1511.11c-9.22.66-19.89,15.21-26.67,17.57-3.79,1.32-7.31-5.1-8.86-7.92-11.58-20.97-9.01-27.91-28.84-46.76-24.21-23.01-42.39-35.17-60.81-65.18-28.01-45.66-42.65-119.18-30.41-171.58,5.38-23.03,29.74-23.18,48.16-15.55,27.64,11.45,17.39,30.62,16.38,53.5-1.67,38.03,3.76,79.03,18.27,114.14,2.67.31.91-2.73.71-4.21-1.67-12.91-4.54-25.76-6.13-38.68-2.77-22.54-5.44-47.11-4.38-69.78.64-13.7,1.62-33.56,10.47-44.13,16.55-19.76,44.58-22.72,63.04-4.15-2.06,19.92-6.93,39.54-9.12,59.47-6.34,57.84-4.12,122.34-2.02,180.57.64,17.63,8.62,28.06,20.2,40.62v2.06Z"/>
            <path class="cls-3" d="M1021.48,979.18l-35.75,25.12c-40.26,41.51-63.25,96.04-80.37,150.61-33.49,1.27-69.61,16.36-86.14,46.83-11.5-22.97-31.43-39.87-55.31-49.01,17.42-62.17,54.81-134.28,109.59-171.07,49.5-33.25,95.61-20.41,147.99-2.47Z"/>
            <path class="cls-4" d="M804.51,1205.94c-48.92-19.15-84.01,18.24-99.42,60.88-11.11,30.76-14.1,84.65-34.94,107.85-6.46,7.19-15.2,12.85-16.86-1.4s2.14-30.22,1.49-44.89c-2.14-48.08-7.46-104.18,26.57-144.1,35.77-41.96,98.99-20.78,123.16,21.65Z"/>
            <path class="cls-1" d="M825.52,1217.15c2.06-4.88,6.4-10.65,9.83-14.66,25.76-30.09,74.6-48.22,108.48-20.37,45.67,37.53,40.04,92.03,42.68,144.91.63,12.66,4.29,28.68,4.31,40.62.02,12.14-7.46,12.2-15.55,5.62-32.54-26.46-26.19-115.06-65-153.39-23-22.71-61.91-28.71-84.75-2.73Z"/>
          </g>
          <path class="cls-6" d="M692.49,1343.85s18.83-32.95,28.25-40.02c9.42-7.06-15.66,113.56,83.75,160.42,0,0-83.75-94.51-57.85-198.08,0,0,101.22-40.02,131.82,0,30.6,40.02,18.39,63.61,18.39,63.61l21.63-11.83s0,40.02,23.54,65.91c23.54,25.89,31.2,2.35,33.26-10.6l-23.84-22.36-14.12-57.28-20.4-54.92-36.09-27.46-38.45,3.92-24.32,12.55-25.89-16.48-30.6.78-24.32,19.62-20.4,29.03-24.32,83.17Z"/>
        </g>
        <path class="cls-5" d="M969.47,946.83s47.86,2.35,59.63,21.97c0,0,63.55-3.92,93.37,16.48,0,0-72.97-60.42-153-38.45Z"/>
        <path class="cls-5" d="M843.14,991.55s29.82-24.32,43.15-32.17c0,0-32.95-5.49-58.85,19.62,0,0-12.55,7.85-15.69,14.12s21.97-9.42,31.39-1.57Z"/>
      </g>
      <path class="cls-7" d="M794.75,1139.18c0-22.21,109.28-172.35,109.28-172.35-25.92,10.02-47.55,26.31-65.44,45.19-35.94,38.94-61.24,92.66-74.69,140.54-.03.14-.06.22-.06.26.09.04.18.08.27.11,8.52,1.97,16.73,6.92,24.09,12.95,12.94,9.26,23.64,21.37,30.94,35.95,2.6-4.79,5.69-9.2,9.17-13.24-2.69-9.37-33.55-28.17-33.55-49.41Z"/>
      <path class="cls-7" d="M911.62,1093.68c3.04-7.78,6.95-15.19,11.03-22.47,4.16-7.44,8.43-14.83,12.65-22.24,2.48-4.34,4.95-8.69,7.43-13.03,1.6-2.8-2.72-5.32-4.32-2.52-4.41,7.74-8.83,15.48-13.24,23.22-4.22,7.4-8.53,14.75-12.37,22.36-2.2,4.36-4.23,8.81-6.01,13.36-.49,1.26.54,2.74,1.75,3.08,1.42.39,2.58-.48,3.08-1.75h0Z"/>
    </g>
  </g>
</svg>