<?xml version="1.0" encoding="UTF-8"?>
<svg id="Layer_2" data-name="Layer 2" xmlns="http://www.w3.org/2000/svg" viewBox="0 0 2048.06 2048.2">
  <defs>
    <style>
      .cls-1 {
        fill: #fff;
      }

      .cls-2 {
        fill: #c24136;
      }

      .cls-3 {
        fill: #691b1f;
      }

      .cls-4 {
        opacity: 0;
      }
    </style>
  </defs>
  <g id="burp">
    <g>
      <g>
        <g>
          <path d="M823.05,1092.37c-18.2,10.46-32.56-5.92-33.65-24.05-2.38-39.67,33.1-114.22,56.29-146.67,97.32-136.2,236.06-73.81,287.6,62.82,9.77,25.91,28.02,92.88,4.16,113.48-27.02,23.33-62.16-8.54-90.17-15.14-8.25-1.94-30.65-5.28-38.17-3.36-14.21,3.61-38.14,36.08-46.84,48.44-24.42,34.69-44.05,80.01-92.64,83.34-58.09,3.98-71.51-49.53-56.94-96.17,2.53-8.09,6.85-15.09,10.37-22.68ZM987.83,985.89c-64.19-18.06-114.25,35.87-143.25,85.96-10.14,17.51-22.86,43.86-25.87,63.8-10.26,67.99,57.59,85.17,97.96,39.67,29.14-32.85,43.17-76.94,81.94-104.12,22.87-16.03,51.16-27.83,79.16-17.78,5.82,2.09,13.35,5.58,15.42,12.03-17.15-7-36.72-7.88-54.4-2.28l-11.72,5.64c13.9-.85,27.36,3.45,39.98,8.78,15.59,6.58,44.11,28.72,57.99,11.3,7.27-9.12,3.23-18.36-.73-28.22-28.81-71.82-127.13-94.73-170.58-24.28-3.33,5.41-5.1,12.36-9.61,16.72-.45-20.76,13.21-40.92,28.6-53.77,2.31-1.92,17.62-10.68,15.1-13.47Z"/>
          <path d="M811.85,1111.43c-1.87,3.83-7.68,6.24-11.74,6.74-21.23,2.61-34.63-16-31.96-35.9l8.47,17.86c8.7,10.99,21.6,16.66,35.24,11.29Z"/>
          <path class="cls-2" d="M987.83,985.89c2.52,2.79-12.79,11.55-15.1,13.47-15.4,12.85-29.05,33.01-28.6,53.77,4.51-4.36,6.27-11.32,9.61-16.72,43.45-70.46,141.77-47.55,170.58,24.28,3.95,9.85,8,19.09.73,28.22-13.88,17.42-42.4-4.72-57.99-11.3-12.62-5.33-26.08-9.63-39.98-8.78l11.72-5.64c17.68-5.6,37.25-4.71,54.4,2.28-2.07-6.46-9.59-9.95-15.42-12.03-28-10.05-56.29,1.75-79.16,17.78-38.78,27.19-52.8,71.28-81.94,104.12-40.37,45.5-108.22,28.32-97.96-39.67,3.01-19.94,15.73-46.29,25.87-63.8,29-50.09,79.06-104.02,143.25-85.96Z"/>
        </g>
        <path class="cls-3" d="M821.03,1081.27s-35.74,1.88-11.29-60.2c24.46-62.08,75.25-141.09,112.87-152.38,37.62-11.29,83.71-10.35,121.34,16.93,37.62,27.28,91.24,105.35,91.24,144.85s1.88,26.34,1.88,26.34c0,0-14.11-38.56-31.04-48.91-16.93-10.35-55.49-28.22-79.95-25.4l-24.46,2.82s-7.52-16.93-35.74-15.05c-28.22,1.88-89.36,2.82-144.85,110.99Z"/>
        <g>
          <path class="cls-1" d="M792.53,888.6c7.38-51.02-87.64-53.39-75.25.04-66.25-.91-49.24,94,13.77,72.02.13,41.52,62.92,37.78,68.85,1.05,24.84,5.34,51.45,5.89,76.24,0l-3.18-3.69-57.18-16.43c17.71-20.55,3.8-51.76-23.25-52.99Z"/>
          <path d="M792.53,888.6c27.05,1.22,40.96,32.43,23.25,52.99l57.18,16.43,3.18,3.69c-24.79,5.89-51.4,5.34-76.24,0-5.93,36.73-68.72,40.47-68.85-1.05-63.01,21.98-80.02-72.93-13.77-72.02-12.4-53.43,82.62-51.06,75.25-.04ZM849.66,959.59c-.38-2.12-2.29-1.69-3.68-2.14-10.49-3.39-44.56-10.24-50.8-16.97-1.27-1.37-2.27-3.4.09-4.05,8.1-2.25,11.21,8.49,18.21-2.95,11.56-18.89-7.91-43.44-29.48-36.88l1.07-18.02c-7.64-36.49-82.58-25.83-57.22,15.9-4.85,3.65-11.31.21-17.31.64-24.95,1.78-37.01,29.9-22.29,49.56,8.27,11.04,21.63,13.23,34.74,11.62,3.61-.44,11.88-4.55,13.79-4.07,2.25.57.37,8.57.89,11.88,3.08,19.66,29.16,25.12,43.68,14.54,8.33-6.07,11.36-14.86,13.88-24.42,17.97,3.42,35.98,6.27,54.43,5.36Z"/>
          <path class="cls-1" d="M849.66,959.59c-18.45.91-36.45-1.93-54.43-5.36-2.52,9.57-5.55,18.36-13.88,24.42-14.52,10.57-40.6,5.12-43.68-14.54-.52-3.31,1.36-11.31-.89-11.88-1.91-.48-10.18,3.63-13.79,4.07-13.11,1.6-26.47-.58-34.74-11.62-14.72-19.66-2.66-47.78,22.29-49.56,6-.43,12.45,3.01,17.31-.64-25.37-41.72,49.58-52.38,57.22-15.9l-1.07,18.02c21.57-6.56,41.04,17.98,29.48,36.88-7,11.44-10.12.7-18.21,2.95-2.35.65-1.36,2.68-.09,4.05,6.24,6.74,40.31,13.58,50.8,16.97,1.39.45,3.3.02,3.68,2.14Z"/>
        </g>
      </g>
      <rect class="cls-4" width="2048.06" height="2048.2"/>
    </g>
  </g>
</svg>