<?xml version="1.0" encoding="UTF-8"?>
<svg id="Layer_2" data-name="Layer 2" xmlns="http://www.w3.org/2000/svg" viewBox="0 0 2048.06 2048.2">
  <defs>
    <style>
      .cls-1 {
        fill: #fff;
      }

      .cls-2 {
        fill: #691b1f;
      }

      .cls-3 {
        fill: #925b35;
      }

      .cls-4 {
        opacity: 0;
      }
    </style>
  </defs>
  <g id="chomper">
    <g>
      <g>
        <path d="M934.02,886.3c1.11-9.36,7-19.93,17.01-21.61,23.56-3.95,62.35,17.25,86.13,24.17,40.04,11.66,83.9,14.45,124.27,2.77,5.79-13.91,13.53-29.69,27.02-37.52,2.69-1.56,9.15-5.36,11.92-3.44,4.98,3.47-6.69,10.71-8.59,12.87-9.39,10.66-16.37,26.04-20.43,39.53-20.19,67.08-6.93,144.47,48.26,190.56-3.19,3.73-7.08,2.36-11.13.98-11.28-3.84-26.35-21.49-31.55-31.98l-1.37.12c-8.77,7.62-33.67,10.1-37.99,20.98-3.71,9.33-3.69,21.54-7.9,31.73-13.64,32.99-67.24,30.7-77.45-2.8-1.72-5.64-2.5-30.73-8.03-31.68-12.04,11.04-23.33,20.91-39.6,25.28-47.68,12.8-115.79-17.92-92.2-75.65-16.24-12.2-23.61-31.24-19.02-51.31-10.24,2.39-21.53-10.85-30.02-3.1-9.58,8.74-13.61,15.76-26.57,22.22-66.83,33.32-109.15-57.53-45.07-88.75-41.03-37.47,5.26-102.92,54.92-77.26,20.66,10.67,31.24,37.26,32.55,59.43l54.84,10.21c.42-5.03-.58-10.84,0-15.75ZM825.26,916.28h-17.79c-.74,0-12.19,4.72-13.76,5.55-21.84,11.44-28.61,39.56-11.66,58.49,23.85,26.63,62.94,5.04,77.41-20.41l37.97,6.75c4.21-10.1,9.48-18.93,16.28-27.48,4.57-5.73,13.64-16.1,19.23-20.42,2.52-1.95,7.19-1.32,2.38-5.3l-66.16-11.59c-1.28-11.86-2.41-21.92-7.12-33.03-27.36-64.46-108.64-7.76-56.62,36.29l19.85,11.15ZM946.21,887.32c-.84,5.05.61,11.97,0,17.28l2.43,1.44c5.17-2.78,9.72-6.79,14.83-9.59,3.43-1.88,24.41-9.83,24.42-11.17.02-3.3-15.21-6.56-18.27-7.14-8.92-1.69-21.39-3.02-23.41,9.18ZM923.35,1018.93c5.27.59,11.39-.43,16.77,0-8.88,9.94-19.24,14.99-20.31,29.99-2.64,37.28,48.62,52.75,78.29,46.79,14.18-2.85,26.93-10.82,36.5-21.46.2-.87-11-10.52-12.68-12.62-5.63-7.04-10.36-17.27-9.65-26.44-4.73.24-9.41,2.83-13.19-1.52,2.49-2.55,6.29-3.1,9.06-5.15,6.66-4.91,8.15-14.56,12.09-21.44,10.08-17.59,24.63-22.26,44.25-20.54,6.63.58,25.18,6.58,29.37,5.81.91-.17,5.44-2.91,6.53-3.67.89-.61,1.88.17,1.32-2.25-1.73-1.81-12.52-1.67-14.22-5.08,8.95-4.73,18.45.39,27.89-1.09,4.75-.75,12.84-6.16,18.83-7.59,2.71-.65,14.13-1.44,14.84-2.44.68-20.9,1.73-42,8.17-61.99l-1.1-2.07c-42.96,10.9-87.37,5.23-129.37-6.88-4.86-1.4-18.58-7.4-22.07-7.43s-14.34,4.64-18.17,6.29c-29.94,12.89-69.9,43.54-79.65,75.86-4.62,15.31-3.93,42.67,16.48,44.94ZM1151.53,983.36c-19.69-3.59-30.75,9.24-45.72,16.79-24.15,12.19-48.68-15.4-70.19,5.02-15.94,15.14-16.5,39.13.03,53.92,5.93,5.3,15.79,8.93,20.6,14.98,7.35,9.25,4.43,23.76,8.1,34.59,7.37,21.69,38.19,23.91,51.58,6.3,10.32-13.57,3.28-37.43,17.62-46.41,5.94-3.72,32.7-11.85,34.79-16.07l.3-3.29c-8.13-21.1-16.79-42.91-17.1-65.82Z"/>
        <path d="M977.47,1124.85c25.58-3.74,25.02,49.43,4.38,54.23-31.41,7.31-29.56-50.55-4.38-54.23ZM977.47,1134.97c-14.28,2.35-14.78,42.89,5.09,33.63,8.29-3.86,10.4-36.18-5.09-33.63Z"/>
        <path d="M892.05,1111.63c27.69-6.29,21.77,38.78,1.58,42.22-29.35,5-15.05-39.16-1.58-42.22ZM895.16,1120.75c-7.1,1.74-15.7,22.25-6.12,24.04,11.67,2.19,18.01-26.96,6.12-24.04Z"/>
        <path class="cls-3" d="M923.35,1018.93c-20.41-2.27-21.1-29.63-16.48-44.94,9.75-32.32,49.71-62.97,79.65-75.86,3.83-1.65,14.64-6.32,18.17-6.29s17.21,6.03,22.07,7.43c42,12.1,86.41,17.78,129.37,6.88l1.1,2.07c-6.44,20-7.49,41.09-8.17,61.99-.7,1-12.12,1.8-14.84,2.44-6,1.43-14.08,6.84-18.83,7.59-9.43,1.48-18.94-3.64-27.89,1.09,1.7,3.41,12.5,3.28,14.22,5.08.56,2.42-.43,1.64-1.32,2.25-1.1.76-5.62,3.51-6.53,3.67-4.19.77-22.74-5.23-29.37-5.81-19.62-1.72-34.17,2.95-44.25,20.54-3.95,6.89-5.44,16.54-12.09,21.44-2.77,2.05-6.57,2.6-9.06,5.15,3.78,4.35,8.46,1.76,13.19,1.52-.72,9.17,4.02,19.39,9.65,26.44,1.68,2.1,12.88,11.75,12.68,12.62-9.58,10.64-22.32,18.61-36.5,21.46-29.67,5.96-80.94-9.51-78.29-46.79,1.06-15.01,11.43-20.05,20.31-29.99-5.38-.43-11.5.59-16.77,0ZM986.87,970.16c-8.66-.57-14.38-9.66-14.26-17.75.06-4.13,2.73-8.68,2.57-12.75-18.8,6.9-17.53,40.76,6.14,34.6.69-.18,7.34-2.35,5.54-4.1Z"/>
        <path class="cls-1" d="M825.26,916.28l-19.85-11.15c-52.02-44.05,29.26-100.75,56.62-36.29,4.71,11.1,5.84,21.16,7.12,33.03l66.16,11.59c4.82,3.98.15,3.35-2.38,5.3-5.59,4.32-14.66,14.69-19.23,20.42-6.81,8.55-12.08,17.38-16.28,27.48l-37.97-6.75c-14.47,25.44-53.56,47.04-77.41,20.41-16.95-18.93-10.18-47.05,11.66-58.49,1.58-.83,13.02-5.55,13.76-5.55h17.79Z"/>
        <path class="cls-1" d="M1151.53,983.36c.31,22.91,8.97,44.72,17.1,65.82l-.3,3.29c-2.09,4.21-28.85,12.34-34.79,16.07-14.34,8.98-7.3,32.85-17.62,46.41-13.39,17.61-44.22,15.39-51.58-6.3-3.68-10.82-.75-25.34-8.1-34.59-4.81-6.05-14.67-9.67-20.6-14.98-16.53-14.79-15.97-38.78-.03-53.92,21.51-20.43,46.04,7.17,70.19-5.02,14.97-7.56,26.03-20.38,45.72-16.79Z"/>
        <path class="cls-2" d="M946.21,887.32c2.02-12.2,14.49-10.87,23.41-9.18,3.06.58,18.29,3.84,18.27,7.14,0,1.34-21,9.29-24.42,11.17-5.11,2.8-9.66,6.81-14.83,9.59l-2.43-1.44c.61-5.31-.84-12.23,0-17.28Z"/>
        <path class="cls-3" d="M977.47,1134.97c15.49-2.55,13.38,29.77,5.09,33.63-19.87,9.26-19.37-31.28-5.09-33.63Z"/>
        <path class="cls-3" d="M895.16,1120.75c11.89-2.92,5.55,26.23-6.12,24.04-9.58-1.79-.98-22.3,6.12-24.04Z"/>
        <path d="M986.87,970.16c1.8,1.76-4.85,3.92-5.54,4.1-23.68,6.16-24.94-27.7-6.14-34.6.16,4.07-2.51,8.61-2.57,12.75-.12,8.09,5.59,17.17,14.26,17.75Z"/>
      </g>
      <rect class="cls-4" width="2048.06" height="2048.2"/>
    </g>
  </g>
</svg>