<?xml version="1.0" encoding="UTF-8"?>
<svg id="Layer_2" data-name="Layer 2" xmlns="http://www.w3.org/2000/svg" viewBox="0 0 2048.06 2048.2">
  <defs>
    <style>
      .cls-1 {
        fill: #eeca98;
      }

      .cls-2 {
        fill: #691b1f;
      }

      .cls-3 {
        opacity: 0;
      }
    </style>
  </defs>
  <g id="clench">
    <g>
      <g>
        <path d="M917.29,870.4c91.94-6.04,200.02,21.83,251.67,103.67,18.56,29.41,38.32,81.06,14.64,112.27-26.64,35.12-77.5-10.91-104.43-25.51-78.15-42.38-193.87-52.25-275.69-15.3-16.62,7.5-42.74,26.69-60.73,24.66-5.35-.6-14.32-5.55-18.44-9.11-23.86-20.63-4.47-65.21,8.67-87.61,37.09-63.22,112.81-98.38,184.32-103.08ZM1133.62,961.26c-98.32-100.25-330.87-102.26-389.64,40.25-3.18,7.7-6.47,10.99-7.78,19.98-.37,2.54.91,4.81.68,6.54-.27,2.03-2.36,3.4-2.31,6.01.16,7.49,4.31,16.43,12.63,16.49,19.58.15,39.65-18.2,57.75-24.93,2.45-.91,4.58-1.51,7.22-1.2-1.83-16.89,2.99-35.85,10.88-51.03,1.57-3.02,7.3-12.44,9.4-14.29.6-.52,13.26-7.36,14.05-7.44,1.56-.17,6.57,1.09,8.47,1.67,20.11,6.07,31.27,28.82,30.51,48.75l2.8,1.19-1.24,2.8h4.59s-1.61-5.25-1.61-5.25c-.03-.96,2.32-.56,3.08-1.95,2.57-4.69,4.14-11.71,7.4-16.79,9.13-14.21,31.03-18.98,45.15-9.4,3.17,2.15,5.34,5.86,7.83,7.49,2.05,1.34,4.67,1.15,5.31,1.6.16.11-.99,1.98-.28,3.93,1.29,3.53,4.17,6.26,5.72,9.68,2.29,5.05,1.87,13.65,8.41,12.24,4.84-21.07,12.54-41.51,36.27-45.53,10.32-1.75,20.1,1.96,27.45,9.31,12.61,12.61,13.18,33.21,12.72,49.97l15.26-20.66c6.54-6.49,21.16-10.28,29.65-6.68,22.66,9.6,27.91,46.92,24.53,68.61,13.7,9.73,40.15,25.01,52.15,6.21,2.45-16.81,1.25-34.06-3.1-50.58-5.78-21.95-18.53-41.25-33.97-56.99ZM824.41,1019.83c15.77-7,33.32-7.64,49.78-12.18-.14-16.26-7.19-44.41-28.86-39.5-14.15,3.21-21.82,38.89-20.92,51.68ZM1036.85,1022.89c.45-13.04.56-37.58-12.67-44.65-18.63-9.96-36.05,14.48-39.3,30.89,17.73,2.89,35.3,7.07,51.96,13.77ZM909.23,1004.54c11.64-1.3,27.52,0,39.74,0,.53,0,4.49,4.11,3.83-.76-1.35-10.02-13.7-21.61-23.82-22.14-10.94-.57-21.12,12.58-23.5,22.21-1.15,4.67,3.34.73,3.75.68ZM1104.11,1053.47c10.47-41.01-24.38-68.7-44.32-21.42l19.39,7.38,24.93,14.04Z"/>
        <path d="M998.65,1099.33c-5.98,5.34-28.21-7.44-35.15-9.93-28.71-10.29-57.42-11-86.77-2.7-8.57,2.42-17.65,7.52-25.72,9.46-4.81,1.16-1.17-4.83.86-6.8,32.07-31.08,115.29-30.02,144.49,5.39,1.26,1.53,2.93,1.96,2.29,4.58Z"/>
        <path class="cls-2" d="M1133.62,961.26c15.44,15.74,28.19,35.04,33.97,56.99,4.35,16.53,5.55,33.77,3.1,50.58-12,18.8-38.45,3.52-52.15-6.21,3.38-21.69-1.88-59.01-24.53-68.61-8.48-3.59-23.11.19-29.65,6.68l-15.26,20.66c.46-16.76-.11-37.36-12.72-49.97-7.35-7.35-17.13-11.06-27.45-9.31-23.73,4.02-31.44,24.46-36.27,45.53-6.53,1.41-6.12-7.19-8.41-12.24-1.55-3.42-4.43-6.15-5.72-9.68-.71-1.95.44-3.82.28-3.93-.64-.44-3.26-.26-5.31-1.6-2.48-1.62-4.66-5.34-7.83-7.49-14.12-9.58-36.02-4.81-45.15,9.4-3.26,5.08-4.84,12.1-7.4,16.79-.76,1.39-3.11.99-3.08,1.95l1.61,5.25h-4.59s1.24-2.8,1.24-2.8l-2.8-1.19c.76-19.93-10.4-42.68-30.51-48.75-1.91-.57-6.91-1.83-8.47-1.67-.79.09-13.45,6.92-14.05,7.44-2.1,1.85-7.83,11.27-9.4,14.29-7.89,15.18-12.71,34.14-10.88,51.03-2.65-.31-4.78.29-7.22,1.2-18.1,6.73-38.17,25.08-57.75,24.93-8.32-.06-12.47-9-12.63-16.49-.05-2.61,2.04-3.99,2.31-6.01.23-1.74-1.05-4.01-.68-6.54,1.31-8.99,4.6-12.28,7.78-19.98,58.77-142.51,291.32-140.49,389.64-40.25Z"/>
        <path class="cls-1" d="M824.41,1019.83c-.89-12.79,6.77-48.47,20.92-51.68,21.67-4.92,28.72,23.23,28.86,39.5-16.46,4.54-34.02,5.19-49.78,12.18Z"/>
        <path class="cls-1" d="M1036.85,1022.89c-16.66-6.7-34.24-10.88-51.96-13.77,3.24-16.41,20.66-40.85,39.3-30.89,13.22,7.07,13.12,31.61,12.67,44.65Z"/>
        <path class="cls-1" d="M1104.11,1053.47l-24.93-14.04-19.39-7.38c19.94-47.28,54.79-19.6,44.32,21.42Z"/>
        <path class="cls-1" d="M909.23,1004.54c-.4.04-4.9,3.99-3.75-.68,2.38-9.63,12.56-22.78,23.5-22.21,10.12.53,22.47,12.12,23.82,22.14.66,4.87-3.3.76-3.83.76-12.22,0-28.1-1.3-39.74,0Z"/>
      </g>
      <rect class="cls-3" width="2048.06" height="2048.2"/>
    </g>
  </g>
</svg>