<?xml version="1.0" encoding="UTF-8"?>
<svg id="Layer_2" data-name="Layer 2" xmlns="http://www.w3.org/2000/svg" viewBox="0 0 2048.06 2048.2">
  <defs>
    <style>
      .cls-1 {
        fill: #eeca98;
      }

      .cls-2 {
        opacity: 0;
      }
    </style>
  </defs>
  <g id="cluster">
    <g>
      <g>
        <path d="M1211.2,939.33c-7.06-8.85-36.21-10.9-46.86-10.26-4.15.25-26.92,4.04-28.75,6.2-1.24,1.47-.86,2.34,1.55,2.09,14.21-1.5,26.16-2.63,40.4.68,10.46,2.43,24.63,10.48,32.83,17.44,3.4,2.89,10.65,12.26,14.09,12.89,4.84.9,3.37-3.17,2.09-7.01-2.37-7.11-9.04-12.8-13.79-18.15-.94-1.06-.84-2.99-1.57-3.9ZM1177.26,996.59c-18.77-20.23-49.2-22.52-73.86-32.17-8.83-3.46-18.83-8.42-26.53-13.92-7.78-5.56-14.21-12.84-21.56-18.88-4.22.2,1.82,13.56,2.85,15.53,6.43,12.27,16.88,17.8,27.18,26.15-1.66-.03-3.35,0-4.93.59-11.98,4.52-23.86,10.49-36.19,14.07-49.47,14.38-150.9,8.48-199.42-10.03-11.27-4.3-21.67-10.62-31.53-17.51,6.7-5.33,25.86-15.1,29.41-22.04,3.27-6.4-1.51-3.96-6.61-1.75-26.77,11.62-47.18,25.58-78.6,26.89-3.36.14-16.46-2.46-17.74-1.25-3.7,3.52,9.19,7.57,10.98,8.02,12.02,2.97,35.78,1.9,44.46,5.79,2.75,1.23,7.25,6.39,10.84,8.78,6.73,4.47,14.43,8.21,20.82,12.28,1.43.91,3.05.46,3.6.72.46.22-2.65,7.74-3.09,9.78-6.57,30.25-3.75,62.27,26.31,77.97,16.38,8.56,41.14,8.57,56.35-2.58,3.52-2.58,3.43-4.82,5-6.66.89-1.04,1.96,2.55,3,3.72,14.78,16.67,37.31,19.42,57.68,12.25,2.36-.83,9.79-5.11,10.89-4.85,1.36.32,2.37,3.57,3.79,4.83,28.33,25.21,83.62,15.43,87.63-26.39,2.52-26.25-5.42-35.57-9.52-57.95-1.03-5.64.65-3.3,5.08-5.37,5.88-2.76,26.15-15.49,29.53-15.87,7.75-.87,19.56,3.98,27.61,5.6,5.31,1.07,39.79,9.02,41.46,7.72,1.02-.8,1.02-4.45,5.14-3.45Z"/>
        <path d="M1177.26,996.59c-4.11-1-4.11,2.65-5.14,3.45-1.67,1.3-36.15-6.65-41.46-7.72-8.05-1.62-19.86-6.47-27.61-5.6-3.38.38-23.65,13.11-29.53,15.87-4.43,2.08-6.11-.26-5.08,5.37,4.1,22.38,12.04,31.71,9.52,57.95-4.01,41.82-59.3,51.59-87.63,26.39-1.42-1.26-2.43-4.51-3.79-4.83-1.1-.26-8.53,4.02-10.89,4.85-20.37,7.17-42.9,4.43-57.68-12.25-1.03-1.17-2.11-4.76-3-3.72-1.56,1.84-1.48,4.08-5,6.66-15.21,11.16-39.97,11.14-56.35,2.58-30.07-15.7-32.88-47.72-26.31-77.97.44-2.04,3.55-9.56,3.09-9.78-.55-.26-2.18.19-3.6-.72-6.39-4.07-14.09-7.81-20.82-12.28-3.59-2.39-8.09-7.55-10.84-8.78-8.68-3.89-32.45-2.83-44.46-5.79-1.79-.44-14.68-4.5-10.98-8.02,1.28-1.21,14.37,1.39,17.74,1.25,31.42-1.31,51.83-15.27,78.6-26.89,5.11-2.22,9.88-4.65,6.61,1.75-3.55,6.94-22.71,16.71-29.41,22.04,9.86,6.89,20.27,13.21,31.53,17.51,48.52,18.51,149.95,24.41,199.42,10.03,12.33-3.59,24.21-9.55,36.19-14.07,1.59-.6,3.27-.62,4.93-.59-10.31-8.35-20.75-13.87-27.18-26.15-1.03-1.97-7.07-15.32-2.85-15.53,7.35,6.05,13.78,13.33,21.56,18.88,7.71,5.51,17.71,10.47,26.53,13.92,24.66,9.66,55.09,11.94,73.86,32.17ZM913.74,1015.02l-71.07-13.51c-6.96,31.21-1.59,70.45,37.38,72.38,6.98.35,22.23-1.96,26.19-8.13,2.88-4.48,5.35-26.34,6.15-33.1.27-2.25,2.04-17.08,1.36-17.64ZM997.09,1019.91c.25,6.55,1.54,12.36,1.28,19.08-.41,10.64-6.32,27.44.54,36.16,10.87,13.84,31.39,15.53,46.83,8.8,22.02-9.6,18.75-37.87,13.77-57.19-.68-2.63-4.64-15.12-5.98-16.13-2.34-1.76-48.89,11.62-56.44,9.28ZM926,1018.68c-1.67,22.17-4.46,54.81,25.14,57.66,7.04.68,19.84-.53,25.18-5.45,7.58-6.99,8.46-33.15,7.32-43.02-.83-7.21-4.09-6.9-10.45-7.94l-47.18-1.24Z"/>
        <path d="M1211.2,939.33c.73.91.63,2.84,1.57,3.9,4.75,5.35,11.42,11.03,13.79,18.15,1.28,3.84,2.75,7.91-2.09,7.01-3.44-.64-10.69-10-14.09-12.89-8.2-6.96-22.37-15.01-32.83-17.44-14.24-3.31-26.19-2.18-40.4-.68-2.41.25-2.78-.62-1.55-2.09,1.82-2.16,24.6-5.95,28.75-6.2,10.65-.65,39.8,1.41,46.86,10.26Z"/>
        <path class="cls-1" d="M997.09,1019.91c7.56,2.34,54.11-11.04,56.44-9.28,1.34,1,5.3,13.5,5.98,16.13,4.98,19.32,8.25,47.59-13.77,57.19-15.44,6.74-35.96,5.04-46.83-8.8-6.85-8.72-.95-25.52-.54-36.16.26-6.71-1.03-12.53-1.28-19.08Z"/>
        <path class="cls-1" d="M913.74,1015.02c.69.56-1.09,15.39-1.36,17.64-.8,6.76-3.27,28.62-6.15,33.1-3.96,6.17-19.21,8.48-26.19,8.13-38.97-1.93-44.33-41.17-37.38-72.38l71.07,13.51Z"/>
        <path class="cls-1" d="M926,1018.68l47.18,1.24c6.37,1.04,9.62.73,10.45,7.94,1.14,9.88.26,36.03-7.32,43.02-5.34,4.93-18.14,6.13-25.18,5.45-29.6-2.85-26.81-35.49-25.14-57.66Z"/>
      </g>
      <rect class="cls-2" width="2048.06" height="2048.2"/>
    </g>
  </g>
</svg>