<?xml version="1.0" encoding="UTF-8"?>
<svg id="Layer_2" data-name="Layer 2" xmlns="http://www.w3.org/2000/svg" viewBox="0 0 2048.06 2048.2">
  <defs>
    <style>
      .cls-1 {
        fill: #fff;
      }

      .cls-2 {
        fill: #691b1f;
      }

      .cls-3 {
        fill: #9ac7c4;
      }

      .cls-4 {
        opacity: 0;
      }
    </style>
  </defs>
  <g id="crave">
    <g>
      <g>
        <g>
          <path class="cls-1" d="M963.38,961.59c-1.5,0-3.54.97-5.62.98-43.43.3-137.97-4.28-167.01,32.52-19.93,25.26-9.78,38.85,20.26,41.48,66.83-7.78,133.62-12.08,200.93-13.27,5.58-.1,12.14-4.21,16.18,2.21,3.41,5.41,1.96,10.28,8.32,15.45,11.17,9.09,28.33,3.73,36.88,12.01,21.29,20.62,4.32,91.5,6.58,120.18,1.68,21.31,13.1,27.45,33.66,24.29,14.2-2.18,17.2-25.83,17.98-37.49,1.68-25.15-2.91-49.38-4.01-74-.27-6.05-.07-12.21.2-18.26,6.85-4.81,14.81-7.05,22.14-12.21,7.42-5.23,15-13.24,20.48-20.47,13.16-17.38,19.72-28.41-.66-44-38.09-29.14-157.69-29.59-206.33-29.43ZM1046.91,1076.04l-2.21-3.71c-42.53,1.2-85.1-3.69-127.31,1.11-.67,3.11.46,2.12,1.71,2.94,21.56,14.21,66.78,15.79,91.14,11.24,12.97-2.42,24.52-6.71,36.67-11.57Z"/>
          <path d="M963.38,961.59c48.63-.16,168.23.29,206.33,29.43,20.38,15.59,13.82,26.63.66,44-5.48,7.23-13.06,15.24-20.48,20.47-7.33,5.16-15.29,7.39-22.14,12.21-.27,6.05-.47,12.21-.2,18.26,1.09,24.62,5.69,48.85,4.01,74-.78,11.66-3.78,35.31-17.98,37.49-20.56,3.16-31.98-2.98-33.66-24.29-2.26-28.68,14.71-99.56-6.58-120.18-8.55-8.28-25.71-2.92-36.88-12.01-6.36-5.18-4.91-10.04-8.32-15.45-4.05-6.42-10.6-2.31-16.18-2.21-67.31,1.18-134.1,5.49-200.93,13.27-30.04-2.64-40.19-16.22-20.26-41.48,29.04-36.8,123.58-32.22,167.01-32.52,2.08-.01,4.12-.98,5.62-.98ZM1161.87,1025.89c-32.09,5.78-63.54-9.36-95.86-6.66l-32.33,2.71c4.5,28.85,31.94,10.57,48.95,27.01,12.66,12.23,11.49,50.37,10.58,67.44-1.04,19.58-6.41,39.58-4.05,59.39,1.97,16.59,27.28,17.12,30.13.98,2.29-13.01,2.17-32.56,1.68-45.96-.67-18.07-7.78-51.42-1.48-67.38,2.68-6.8,9.94-5.94,16.24-8.86,3.03-1.41,7.8-4.64,10.31-6.87,2.51-2.23,17.28-20.01,15.83-21.8Z"/>
          <path d="M1046.91,1076.04c-12.15,4.86-23.7,9.15-36.67,11.57-24.35,4.55-69.58,2.98-91.14-11.24-1.25-.82-2.38.16-1.71-2.94,42.21-4.8,84.78.1,127.31-1.11l2.21,3.71Z"/>
          <path class="cls-3" d="M1161.87,1025.89c1.45,1.79-13.32,19.57-15.83,21.8-2.51,2.23-7.28,5.46-10.31,6.87-6.29,2.93-13.55,2.07-16.24,8.86-6.3,15.96.81,49.31,1.48,67.38.49,13.4.62,32.95-1.68,45.96-2.84,16.13-28.15,15.61-30.13-.98-2.36-19.81,3.01-39.81,4.05-59.39.91-17.07,2.08-55.21-10.58-67.44-17.01-16.43-44.44,1.84-48.95-27.01l32.33-2.71c32.32-2.7,63.77,12.44,95.86,6.66Z"/>
        </g>
        <path class="cls-2" d="M830.14,982.53s-24.11,10.09-28.03,16.82c-3.92,6.73-14.58,25.79,12.33,25.79s131.74-7.29,155.85-8.41c24.11-1.12,55.5,3.36,66.71-1.12,11.21-4.48,45.97-6.17,56.06-5.61,10.09.56,37,10.65,45.97,8.97,8.97-1.68,25.23-2.24,27.47-1.12,2.24,1.12,12.89-16.26-6.17-24.11-19.06-7.85-94.74-19.06-120.53-20.74s-103.15.56-116.61.56-65.03-1.12-93.06,8.97Z"/>
      </g>
      <rect class="cls-4" width="2048.06" height="2048.2"/>
    </g>
  </g>
</svg>