<?xml version="1.0" encoding="UTF-8"?>
<svg id="Layer_2" data-name="Layer 2" xmlns="http://www.w3.org/2000/svg" viewBox="0 0 2048.06 2048.2">
  <defs>
    <style>
      .cls-1 {
        opacity: 0;
      }
    </style>
  </defs>
  <g id="double">
    <g>
      <g>
        <path d="M1206.16,1076.32l-1.06.91c-2.18.67-5.17-2.18-6.33-3.86-5.54-8.02-8.54-19.02-14.71-27.96-45.68-66.2-170.85-85.19-245.3-81.27-59.28,3.12-164.75,20.45-204.96,67.89-4.53,5.35-13.75,24.1-19.43,25.18-.91.17-3.64.71-3.53-.93,1.46-21.66,21.24-42.48,37.95-54.51,59.7-42.94,177.69-56.44,249.47-50.54,55.74,4.58,142.48,25.09,181.71,67.22,9.02,9.68,26.18,34.96,26.18,48.17v9.7Z"/>
        <path d="M865.43,1045.57c-2.54-5.67,4-7.27,8.21-8.84,39.6-14.85,121.69-15.05,160.86,1.11,4.61,1.9,10.11,4.9,3.24,8.78-22.99-4.79-46.4-6.53-69.85-7.48-18.72-.75-37.44-1.21-56.18.73-15.43,1.6-30.71,5.3-46.28,5.7Z"/>
      </g>
      <rect class="cls-1" width="2048.06" height="2048.2"/>
    </g>
  </g>
</svg>