<?xml version="1.0" encoding="UTF-8"?>
<svg id="Layer_2" data-name="Layer 2" xmlns="http://www.w3.org/2000/svg" viewBox="0 0 2048.06 2048.2">
  <defs>
    <style>
      .cls-1 {
        fill: #6c111d;
      }

      .cls-2 {
        fill: #c24136;
      }

      .cls-3 {
        opacity: 0;
      }
    </style>
  </defs>
  <g id="down">
    <g>
      <g>
        <g>
          <path d="M947.03,896.91c-51.85,3.74-124.78,27.6-128.34,89.8-3.78,65.94,74.38,50.11,115.25,52.93,55.44,3.83,104.65,41.61,149.67,43.63,45.56,2.04,77.82-33.68,66.39-78.97-21.85-86.62-124.83-113.02-202.96-107.39ZM1158.33,1087.41c-20.83,29.7-49.92,45.72-86.76,36.85-11.83-2.85-24.1-13.63-32.12-15.7-3.71-.96-4.57-.04-6.78,2.71,22.65,43.63,90.83,46.66,120.37,8.27,5.82-7.56,17.76-26.94,5.28-32.13Z"/>
          <path d="M947.03,896.91c78.14-5.63,181.11,20.76,202.96,107.39,11.43,45.3-20.84,81.01-66.39,78.97-45.01-2.01-94.23-39.8-149.67-43.63-40.87-2.82-119.03,13-115.25-52.93,3.57-62.2,76.5-86.06,128.34-89.8ZM953.69,1025.06c48.99-1.78,110.65,56.9,157.26,29.53,7.37-4.33,21.45-17.5,14.14-25.39-11.95-12.9-44.86-27.28-62.36-29.02-35.38-3.53-79.99,3.7-109.03,24.89Z"/>
          <path d="M1158.33,1087.41c12.48,5.19.54,24.57-5.28,32.13-29.54,38.38-97.72,35.36-120.37-8.27,2.21-2.74,3.07-3.66,6.78-2.71,8.02,2.07,20.28,12.85,32.12,15.7,36.83,8.86,65.93-7.15,86.76-36.85Z"/>
          <path class="cls-2" d="M953.69,1025.06c29.04-21.18,73.65-28.42,109.03-24.89,17.5,1.75,50.41,16.12,62.36,29.02,7.31,7.9-6.76,21.07-14.14,25.39-46.61,27.37-108.26-31.31-157.26-29.53Z"/>
        </g>
        <path class="cls-1" d="M932.98,1024.19s-37.63-2.89-62.23-5.79c-24.6-2.89-51.38-33.29-17.37-65.13,34.01-31.84,95.52-41.25,127.36-39.8,31.84,1.45,110,26.78,126.64,46.31,16.64,19.54,33.29,41.25,30.39,60.79,0,0-28.95-24.6-65.13-31.84-36.18-7.24-98.42-10.13-139.67,35.46Z"/>
      </g>
      <rect class="cls-3" width="2048.06" height="2048.2"/>
    </g>
  </g>
</svg>