<?xml version="1.0" encoding="UTF-8"?>
<svg id="Layer_2" data-name="Layer 2" xmlns="http://www.w3.org/2000/svg" viewBox="0 0 2048.06 2048.2">
  <defs>
    <style>
      .cls-1 {
        fill: #691b1f;
      }

      .cls-2 {
        fill: #9ac7c4;
      }

      .cls-3 {
        opacity: 0;
      }
    </style>
  </defs>
  <g id="drool">
    <g>
      <g>
        <path d="M1044.83,1117.13c-22.71-2.22-45.21-8.71-68.09-11.02-43.52-4.39-86.78.43-129.37,8.93l7.01-2.12-4.18-2.77c14.59-5.22,28.03-11.47,43.35-14.77,42.54-9.17,109.19-6.28,146.97,16.97,1.64,1.01,3.63,2.93,4.32,4.77Z"/>
        <g>
          <path class="cls-1" d="M1151.75,1022.11c4.4,2.16,24.9,14.94,26.55,14.86,3.44-.15,14.45-6.76,17.11-9.41,18.87-18.81,3.68-38.71-13.48-51.04-67.1-48.2-198.1-47.31-277.83-41.42-49.25,3.64-103.1,11.9-142.84,43.4-13.78,10.92-33.04,42.77-17.56,58.17,28.66,28.49,104.51-.26,140.98-4.76,7.29-.9,14.59-1.51,21.91-1.94,1.27-.97,2.76-2.04,4.44-3.16h-.62c1.26-.68,2.52-1.36,3.79-2.03,4.52-2.77,10.07-5.62,16.34-7.77,7.98-3.37,16.19-6.22,24.66-8.42,64.37-16.72,136.16-16.17,196.57,13.52Z"/>
          <path d="M1176.48,953.97c-63.73-36.1-173.05-41.55-245.38-38.07-62.32,3-178.03,15.6-204.41,82.66-12.23,31.09.85,52.39,31.07,61.86,39.27,12.3,88.8-7.99,129.7-13.12,41.88-5.26,82.5-4.59,124.26,1.42,14.59,2.1,40.87,4.91,48.79,18.42,13.55,23.1,2.96,83.38,5.26,112.37,2.57,32.44,22.59,50.23,53.15,30.64,40.55-25.99,17.25-87.15,21.13-125.9.64-6.42,2.27-12.23,7.89-15.91,18.23-11.92,45.24-14.55,59.89-32.53,27.68-33.98-1.24-64.77-31.36-81.83ZM930.53,1017.01c-6.27,2.15-11.81,5-16.34,7.77-1.27.67-2.53,1.35-3.79,2.04h.62c-1.68,1.11-3.17,2.18-4.44,3.15-7.31.43-14.62,1.04-21.91,1.94-36.46,4.5-112.31,33.26-140.98,4.76-15.49-15.39,3.77-47.24,17.56-58.17,39.75-31.5,93.6-39.76,142.84-43.4,79.73-5.89,210.73-6.78,277.83,41.42,17.16,12.33,32.35,32.24,13.48,51.04-2.66,2.65-13.67,9.26-17.11,9.41-1.65.07-22.15-12.7-26.55-14.86-60.41-29.69-132.2-30.23-196.57-13.52-8.47,2.2-16.68,5.04-24.66,8.42Z"/>
        </g>
        <path class="cls-2" d="M940.13,1028.94s77.27-3.39,107.18,13.36c29.91,16.75,32.9,31.11,30.51,88.54-2.39,57.43-1.79,65.21,6.58,70.59,8.38,5.38,52.64,6.58,46.06-48.46-6.58-55.04-7.95-80.97,7.99-97.02s23.37-12.32,23.37-12.32c0,0-38.54-29.45-100.16-30.05-61.62-.6-103.68,2-121.53,15.36Z"/>
      </g>
      <rect class="cls-3" width="2048.06" height="2048.2"/>
    </g>
  </g>
</svg>