<?xml version="1.0" encoding="UTF-8"?>
<svg id="Layer_2" data-name="Layer 2" xmlns="http://www.w3.org/2000/svg" viewBox="0 0 2048.06 2048.2">
  <defs>
    <style>
      .cls-1 {
        fill: #eeca98;
      }

      .cls-2 {
        fill: #691b1f;
      }

      .cls-3 {
        opacity: 0;
      }
    </style>
  </defs>
  <g id="fangs">
    <g>
      <g>
        <path d="M767.02,1029.1c-19.04-19.03-46.26-63.37-30.55-90.04,18.62-31.61,65.21-.08,91.1,7.41,66.77,19.32,163,11.51,229.51-8.37,33.74-10.08,79.15-35.62,114.04-31.53,36.15,4.24,29.66,44.47,16.89,68-27.75,51.11-100.29,94.09-155.78,107.16-85.69,20.18-199.83,12.69-265.21-52.64ZM868.19,1064.16c.36-.3,3.25-6.65,4.31-8.25,5.61-8.49,12.19-18.9,20.25-25.16,7.61-5.91,10.17-3.81,16.07,2.98,6.34,7.29,25.39,43.29,29.92,45.35,12.01,5.48,17.72-17,22.5-25.27,4.68-8.11,16.85-30.76,27.74-27.35,9.95,3.12,25.41,28.29,32.82,36.52,16.03,17.82,21.39-15.52,26.7-27.1,9.42-20.55,14.58-31.8,36.08-14.15,3.71,3.05,14.97,17.13,17.37,17.37,3,.3,17.7-9.73,21.25-12.2,23.77-16.6,67.53-58.68,64.17-90-.69-6.46-5.62-15.48-11.93-17.94-5.31-2.06-24.95-4.74-26.34,2.39-.48,2.48.4,5.7,0,8.37-2.75,18.64-22.29,46.96-37.03,58.57-3.81,3-8.21,6.73-13.51,5.13-7.12-2.15-20.67-29.96-25.36-36.79-5.96,12.39-10.34,25.3-18.26,36.69-5.09,7.33-21.01,26.08-30.47,25.17-8.43-.81-23.48-15.93-28.99-22.44-2.48-2.93-10.93-16.81-13.13-16.82-1.74,0-2,.9-2.84,2.03-3.41,4.55-6.77,13.75-10.41,19.46-4.22,6.61-15.7,22.4-23.81,22.91-7.9.49-25.23-17.2-30.45-23.44-4.69-5.61-8.82-15.06-12.78-19.42-5.15-5.66-7.01,4.19-9.47,8.01-3.98,6.17-19.12,29.27-24.43,31.75-4.45,2.07-7.53-.98-10.75-3.56-14.61-11.69-22.91-30.58-30.47-47.18-5.88,5.76-14.16,34.91-20.58,36.8-5.94,1.75-12.43-8.02-15.68-12.54-14.19-19.77-12.53-28.01-17.02-49.9-2.52-12.31-24.43-10.13-29.21.51-12.12,26.98,25.81,74.32,46.66,89.59,16.53,12.1,14.49,3.37,27.49-5.92,10.47-7.48,17.08-11.44,25.95.3,7.82,10.36,13.76,23.93,21.14,34.77-.11,1.2,2.25.92,2.47.74ZM1139.56,923.19c-2.48-2.45-60.29,18.87-61.95,21.72-1.93,3.32,18.48,36.04,21.3,37.46,6.25,3.14,17.88-11.03,21.3-15.79,8.78-12.23,16.2-28.82,19.35-43.38ZM784.11,942.42c-5.78,1.9,1.58,23.92,3.43,28.53,1.57,3.92,10.13,20.41,13.37,21.38,4.28,1.27,7.44-3.76,9.36-6.98,2.15-3.61,12.09-25.12,11.2-27.91-1.19-3.72-33.29-16.35-37.36-15.01ZM1066.64,947.09c-26.58,4.58-51.94,14.55-78.79,18.02-3.02,4.43,16.2,28.62,20.19,32.79,12.23,12.78,18.54,13.72,31.76.61,5.55-5.5,31.07-47.19,26.84-51.42ZM890.88,967.43l-57.34-7.2c1.79,8.52,5.54,16.72,9.79,24.25,2.98,5.28,14.04,23.02,19.61,23.53,4.29.4,6.89-2.9,9.36-6.06,4.03-5.14,15.08-21.38,17.29-26.92.66-1.66,2.29-6.56,1.28-7.61ZM978.18,965.01l-69.92,2.39c-1.03-.02-2.83.99-3,1.81-.58,2.83,19.79,30.35,23.3,34.04,4.32,4.54,12.68,12.03,19.23,7.24,1.17-.86,10-12.23,11.77-14.52,2.31-2.98,20.54-29.26,18.62-30.96ZM1047.52,1062.97c2.85,2.81,40.51-13.56,42.48-17.94,1.41-3.13-3.63-8.3-5.98-10.77-3.09-3.25-12.89-11.87-17.03-9.87-4.56,2.2-21.82,36.27-19.46,38.58ZM830.84,1032.17c-4.02.81-15.46,9.45-17.06,12.91-3.32,7.18,13.87,10.84,18.2,12.89,3.37,1.59,25.74,16.22,22.56,3.79-.57-2.24-12.62-23.81-14.5-26.18-2.9-3.63-4.37-4.38-9.2-3.41ZM961.45,1079.7c3.36-.12,6.78.24,10.14,0,5.28-.39,38.46-4.63,40.56-6.05,4.72-3.18-.91-10.21-3.1-13.45-3.67-5.45-15.39-19.23-20.65-22.37-6.43-3.84-12.14,8.33-15.21,13.6-1.93,3.31-13.44,26.67-11.75,28.28ZM925.59,1080.89c2.06-1.95-8.79-17.4-10.49-19.97-2.35-3.55-14.8-21.91-17.62-21.91-1.81,0-1.94,1.09-2.82,2.01-2.66,2.81-8.31,10.87-10.69,14.4-2.05,3.06-9.38,13.96-9.64,16.72-.33,3.47,13.27,5.51,16.35,6.01,11.5,1.86,23.31,1.98,34.91,2.73Z"/>
        <path d="M832.35,1107.19c1.74-1.69,27.9,8.53,32.55,9.87,37.72,10.85,83.21,14.01,122.09,9.09,7.86-1,36.4-9.38,40.6-8.05,7.77,2.46-9.76,10.07-12.38,11.17-46.63,19.54-121.61,17.31-166.16-7.13-2.57-1.41-19.89-11.86-16.71-14.95Z"/>
        <path class="cls-2" d="M868.19,1064.16c-.21.18-2.57.46-2.47-.74-7.39-10.84-13.32-24.42-21.14-34.77-8.87-11.74-15.48-7.77-25.95-.3-13,9.28-10.96,18.01-27.49,5.92-20.85-15.26-58.78-62.61-46.66-89.59,4.78-10.64,26.68-12.81,29.21-.51,4.49,21.88,2.83,30.12,17.02,49.9,3.24,4.52,9.74,14.29,15.68,12.54,6.42-1.9,14.7-31.05,20.58-36.8,7.56,16.6,15.87,35.49,30.47,47.18,3.22,2.58,6.3,5.63,10.75,3.56,5.31-2.48,20.45-25.58,24.43-31.75,2.46-3.81,4.33-13.67,9.47-8.01,3.96,4.36,8.08,13.81,12.78,19.42,5.22,6.24,22.55,23.93,30.45,23.44,8.1-.5,19.58-16.3,23.81-22.91,3.64-5.71,7-14.91,10.41-19.46.84-1.12,1.1-2.03,2.84-2.03,2.21.01,10.65,13.89,13.13,16.82,5.51,6.51,20.56,21.63,28.99,22.44,9.46.91,25.38-17.84,30.47-25.17,7.91-11.39,12.3-24.3,18.26-36.69,4.69,6.82,18.24,34.64,25.36,36.79,5.3,1.6,9.69-2.13,13.51-5.13,14.74-11.61,34.29-39.93,37.03-58.57.39-2.68-.49-5.89,0-8.37,1.39-7.14,21.03-4.45,26.34-2.39,6.31,2.45,11.24,11.47,11.93,17.94,3.36,31.32-40.4,73.4-64.17,90-3.54,2.47-18.24,12.5-21.25,12.2-2.4-.24-13.66-14.33-17.37-17.37-21.5-17.65-26.66-6.4-36.08,14.15-5.31,11.58-10.67,44.92-26.7,27.1-7.41-8.23-22.87-33.41-32.82-36.52-10.89-3.41-23.06,19.24-27.74,27.35-4.77,8.27-10.49,30.75-22.5,25.27-4.53-2.07-23.59-38.06-29.92-45.35-5.9-6.79-8.46-8.89-16.07-2.98-8.06,6.26-14.65,16.67-20.25,25.16-1.06,1.6-3.95,7.96-4.31,8.25Z"/>
        <path class="cls-1" d="M1066.64,947.09c4.23,4.23-21.3,45.92-26.84,51.42-13.22,13.11-19.53,12.17-31.76-.61-3.99-4.17-23.21-28.35-20.19-32.79,26.85-3.47,52.21-13.44,78.79-18.02Z"/>
        <path class="cls-1" d="M978.18,965.01c1.92,1.7-16.31,27.98-18.62,30.96-1.77,2.29-10.6,13.66-11.77,14.52-6.55,4.79-14.91-2.7-19.23-7.24-3.51-3.69-23.88-31.22-23.3-34.04.17-.82,1.97-1.83,3-1.81l69.92-2.39Z"/>
        <path class="cls-1" d="M1139.56,923.19c-3.14,14.57-10.57,31.15-19.35,43.38-3.42,4.77-15.05,18.94-21.3,15.79-2.82-1.42-23.23-34.15-21.3-37.46,1.66-2.85,59.46-24.16,61.95-21.72Z"/>
        <path class="cls-1" d="M890.88,967.43c1.02,1.05-.61,5.95-1.28,7.61-2.21,5.54-13.26,21.78-17.29,26.92-2.47,3.15-5.07,6.46-9.36,6.06-5.57-.52-16.63-18.25-19.61-23.53-4.25-7.54-8-15.73-9.79-24.25l57.34,7.2Z"/>
        <path class="cls-1" d="M961.45,1079.7c-1.7-1.61,9.81-24.97,11.75-28.28,3.08-5.27,8.79-17.44,15.21-13.6,5.26,3.14,16.98,16.92,20.65,22.37,2.18,3.24,7.82,10.27,3.1,13.45-2.1,1.42-35.28,5.65-40.56,6.05-3.36.25-6.78-.11-10.14,0Z"/>
        <path class="cls-1" d="M784.11,942.42c4.07-1.34,36.17,11.29,37.36,15.01.89,2.8-9.04,24.31-11.2,27.91-1.92,3.22-5.09,8.25-9.36,6.98-3.23-.96-11.79-17.46-13.37-21.38-1.85-4.61-9.21-26.63-3.43-28.53Z"/>
        <path class="cls-1" d="M925.59,1080.89c-11.6-.75-23.41-.87-34.91-2.73-3.07-.5-16.68-2.54-16.35-6.01.26-2.76,7.59-13.66,9.64-16.72,2.37-3.54,8.03-11.6,10.69-14.4.88-.93,1.01-2.01,2.82-2.01,2.81,0,15.26,18.36,17.62,21.91,1.7,2.57,12.55,18.02,10.49,19.97Z"/>
        <path class="cls-1" d="M1047.52,1062.97c-2.35-2.32,14.9-36.39,19.46-38.58,4.15-1.99,13.94,6.63,17.03,9.87,2.35,2.47,7.39,7.64,5.98,10.77-1.97,4.38-39.63,20.74-42.48,17.94Z"/>
        <path class="cls-1" d="M830.84,1032.17c4.83-.97,6.3-.22,9.2,3.41,1.89,2.37,13.93,23.94,14.5,26.18,3.18,12.43-19.19-2.2-22.56-3.79-4.33-2.04-21.52-5.7-18.2-12.89,1.6-3.46,13.03-12.1,17.06-12.91Z"/>
      </g>
      <rect class="cls-3" width="2048.06" height="2048.2"/>
    </g>
  </g>
</svg>