<?xml version="1.0" encoding="UTF-8"?>
<svg id="Layer_2" data-name="Layer 2" xmlns="http://www.w3.org/2000/svg" viewBox="0 0 2048.06 2048.2">
  <defs>
    <style>
      .cls-1 {
        fill: #eeca98;
      }

      .cls-2 {
        opacity: 0;
      }
    </style>
  </defs>
  <g id="fourteeth">
    <g>
      <g>
        <path d="M936.47,855.25l50.6-4.92c3.93-21.1,19.25-50.66,44.98-36.3,11.03,6.16,16.52,26.49,15.45,38.33-.28,3.1-3,6.56-.18,9.41l18.42,5.4c9.6-20.58,36.94-26.37,48.03-3.59,7.43,15.25-1.17,25.91-4.86,40.23,17.32,21.03,34.59,43.05,49.03,66.2,10.72,17.18,20.81,35.74,24.14,55.99-6.49-8.79-11.88-18.26-18.54-26.96-25.32-33.04-62.66-71.61-99.31-91.56-113.05-61.53-268.79,11.18-338.67,107.79l-10.61,15.55c3.94-39.68,42.87-61.27,63.47-91.55,1.32-1.94,4.73-6.51,5.34-8.35,1.8-5.42-5.38-12.86-7.75-17.93-6.84-14.6-6.57-20.78,3.04-33.48,6.46-8.54,18.81-20.54,29.82-21.73,20.18-2.18,31.63,11.69,38.17,28.89l32.54-14.58c.9-.41,1.07-.78,1.11-1.73.15-4.5-2.69-13.33-3.04-18.73-1.15-17.62,2.45-39.32,23.76-41.46,31.15-3.12,28.62,23.01,35.06,45.08ZM930.78,879.39c-4.78-16.06-4.74-79.12-36.49-57.01-16.92,11.78-1.91,48,1.13,64.23l35.37-7.23ZM992.91,877.73l41.4,5.76c3.46-16.4,11.44-69.77-19.16-63.48-17.31,3.56-22.53,43.35-22.24,57.71ZM1102.05,860.4c-19.45-13.64-35.26,19.74-39.99,33.88l31.8,18.18c7.13-11.03,21.98-42.38,8.19-52.06ZM845.37,908.34c-3.79-19.98-20.21-53.91-45.3-38.43-5.77,3.56-16.55,14.94-17.91,21.55-2.14,10.37,4.19,22.23,9.78,30.58,1.02,1.52,7.3,10.19,8.12,10.46,3.08,1.05,39.04-22.45,45.32-24.16Z"/>
        <path d="M1041.14,1005.85c-2.19,2.28-18.51-12.24-21.01-14.02-51.92-36.99-124.3-18.94-173.35,14.17l-35.18,27.23c-2.02-2.42,5.11-11.66,6.83-13.7,42.83-50.74,153.51-83.91,207.42-35.03,3.28,2.97,12.63,12.71,14.37,16.23.87,1.77,1.14,3.15.91,5.12Z"/>
        <path d="M1175.65,1074.31h14.09c.87,0,6.45-2.18,7.68-2.79,16.34-8.09,15.13-30.42,9.43-44.92l-7.44-15.92c19.78,10.83,27.19,49.48,8.04,63.63-7.58,5.6-25.92,9.54-31.81,0Z"/>
        <path d="M705.28,1049.34v14.09c0,4.54,7.61,14.19,11.34,16.84,5.63,4,13.81,4.41,20.08,7.32-15.12,8.8-39.87-5.62-38.67-23.34.28-4.08,2.5-14.11,7.25-14.91Z"/>
        <path class="cls-1" d="M845.37,908.34c-6.28,1.71-42.23,25.21-45.32,24.16-.82-.28-7.1-8.95-8.12-10.46-5.59-8.34-11.92-20.2-9.78-30.58,1.36-6.6,12.14-17.99,17.91-21.55,25.09-15.48,41.52,18.45,45.3,38.43Z"/>
        <path class="cls-1" d="M992.91,877.73c-.29-14.37,4.93-54.15,22.24-57.71,30.6-6.3,22.62,47.08,19.16,63.48l-41.4-5.76Z"/>
        <path class="cls-1" d="M930.78,879.39l-35.37,7.23c-3.04-16.23-18.04-52.45-1.13-64.23,31.76-22.12,31.71,40.95,36.49,57.01Z"/>
        <path class="cls-1" d="M1102.05,860.4c13.8,9.68-1.06,41.04-8.19,52.06l-31.8-18.18c4.73-14.15,20.54-47.52,39.99-33.88Z"/>
      </g>
      <rect class="cls-2" width="2048.06" height="2048.2"/>
    </g>
  </g>
</svg>