<?xml version="1.0" encoding="UTF-8"?>
<svg id="Layer_2" data-name="Layer 2" xmlns="http://www.w3.org/2000/svg" viewBox="0 0 2048.06 2048.2">
  <defs>
    <style>
      .cls-1 {
        fill: #eeca98;
      }

      .cls-2 {
        opacity: 0;
      }
    </style>
  </defs>
  <g id="full">
    <g>
      <g>
        <g>
          <path d="M1174.09,907.83c57.27,25.28,97.89,84.11,94.64,147.86,0,0-8.37,50.87-48.08,81.67-.87-.72-10.6,5.75-11.63.6-.49-2.44,25.74-33.48,29.75-39.99,15.45-25.11,19.49-45.15,13.55-74.32,0,0-44.79-108.66-117.62-104.67-36.24,1.98-56.84,40.99-54.84,74.31,2.09,34.92,18.13,54.51,33.11,83.16.92,1.77,2.33,2.92,1.75,5.34-2.26,2.26-10.66-7.29-12.28-9.02-11.08-11.79-21.34-27.32-27.45-42.31-4.36-10.7-6.79-28.29-10.93-36.87-9.34-19.36-64.26-47.08-84.98-53.25-59.5-17.71-143.7-9.52-193.66,29.82-14.65,11.54-23.78,34.44-40.77,48.36-3.3,2.7-9.97,9.26-13.59,4.47-.64-2.31,9.9-14.73,11.91-17.78,11.62-17.59,27.85-42.54,32.67-62.93,4.01-16.97.72-28.89,17.51-40.62,22.71-15.87,48.63-.21,60.21,21.11,56.19-12.47,114.35-6.62,165.12,20.81-.81-50.62,46.58-64.88,74.93-23.49,20.43-14.88,42.33-21.25,67.82-15.29,5.22,1.22,12.87,3.02,12.87,3.02ZM1078.33,941.41c5.86-10.77,13.45-10.46.84-21.07-18.15-15.27-40.2-11.22-46.74,12.63-6.01,21.91,2.4,19.18,15.13,30.61,6.44,5.77,12.11,12.51,18.06,18.75.98-14.16,5.97-28.51,12.71-40.91ZM816.72,935.59c8.3-3.62,17.13-5.86,25.41-9.46-9.36-10.38-21.54-18.21-35.8-12.56-13.81,5.47-15.09,24.02-18.44,36.45,9.89-4.12,19.01-10.15,28.84-14.43Z"/>
          <path d="M847.76,1011.2c-1.89,1.96-4.28,6.24-2.48,8.68,2.03,2.77,28.24-2.34,33.7-2.66,38.9-2.27,79.2,5.34,113.89,23.02,3.91,1.99,22.75,12.59,24.61,14.78,1.76,2.08.95,6.39,4.23,7.4.09-11.8-6.48-18.62-14.88-25.8-20.24-17.28-55.52-29.51-81.7-33.27-16.52-2.37-65.41-4.52-77.35,7.85Z"/>
        </g>
        <path class="cls-1" d="M806.33,913.57c-13.81,5.47-15.09,24.02-18.44,36.45,9.89-4.12,19.01-10.15,28.84-14.43,8.3-3.62,17.13-5.86,25.41-9.46-9.36-10.38-21.54-18.21-35.8-12.56Z"/>
        <path class="cls-1" d="M1079.16,920.34c-18.15-15.27-40.2-11.22-46.74,12.63-6.01,21.91,2.4,19.18,15.13,30.61,6.44,5.77,12.11,12.51,18.06,18.75.98-14.16,5.97-28.51,12.71-40.91,5.86-10.77,13.45-10.46.84-21.07Z"/>
      </g>
      <rect class="cls-2" width="2048.06" height="2048.2"/>
    </g>
  </g>
</svg>