<?xml version="1.0" encoding="UTF-8"?>
<svg id="Layer_2" data-name="Layer 2" xmlns="http://www.w3.org/2000/svg" viewBox="0 0 2048.06 2048.2">
  <defs>
    <style>
      .cls-1 {
        fill: #fff;
      }

      .cls-2 {
        fill: #6c111d;
      }

      .cls-3 {
        fill: #c24136;
      }

      .cls-4 {
        opacity: 0;
      }
    </style>
  </defs>
  <g id="fun">
    <g>
      <g>
        <g>
          <path class="cls-1" d="M826.26,917.42c-34.33,8.03-72.11,12.9-87.51,49.46-3.11,7.37-10.03,29.98.59,32.87,1.75.48,2.04.76,3.4-.78,3.39-3.84,4.8-23.37,8.91-31.21,2.42-4.61,13.32-17.14,18.94-15.5,15.15,26.98,29.64,53.28,53.71,73.36,112.14,93.58,253,71.15,335.33-46.86,3.2-4.58,4.72-10.96,9.64-14.48,1.16-.2,11.36,7.2,12.55,8.56,3.88,4.45,7.89,23.37,16.1,17.48,6.47-15.53-9.05-34.61-21.03-43.3-16.89-12.24-36.24-14.96-56.58-12.24,8.85,11.3,25.82,9.93,37.05,17.03,1.36.86,2.34-.08,1.7,2.99-14.67,5.15-28.73,12.32-43.41,17.42-74.26,25.77-193.08,38.05-266.62,7.28-23.04-9.64-46.74-23.46-69.54-34.07-3.14-4.41,24.96-13.04,27.66-15.75l19.11-12.27ZM1032.09,1103.2c-44.87,18.39-102.94,21.29-147.04-.65-3.12-1.55-25.61-16.48-26.7-15.39,6.09,15.58,23.81,27.87,38.78,34.05,25.68,10.61,73.25,15.12,99.9,7.72,12.36-3.43,33.1-11.77,35.06-25.74Z"/>
          <path d="M826.26,917.42l-19.11,12.27c-2.69,2.71-30.8,11.34-27.66,15.75,22.8,10.61,46.5,24.43,69.54,34.07,73.54,30.76,192.36,18.49,266.62-7.28,14.69-5.1,28.74-12.27,43.41-17.42.64-3.07-.35-2.13-1.7-2.99-11.23-7.09-28.2-5.73-37.05-17.03,20.34-2.72,39.68,0,56.58,12.24,11.98,8.68,27.5,27.76,21.03,43.3-8.21,5.89-12.22-13.03-16.1-17.48-1.19-1.36-11.39-8.76-12.55-8.56-4.92,3.52-6.44,9.9-9.64,14.48-82.33,118.01-223.19,140.44-335.33,46.86-24.07-20.08-38.56-46.38-53.71-73.36-5.62-1.64-16.52,10.89-18.94,15.5-4.12,7.84-5.52,27.38-8.91,31.21-1.36,1.54-1.65,1.26-3.4.78-10.62-2.89-3.7-25.5-.59-32.87,15.41-36.56,53.19-41.43,87.51-49.46ZM1073.52,1040.39c-26.08-14.61-51.49-14.51-75.5,3.94-32.28-19.1-68.46-10.76-98.23,8.74,46.4,18.12,99.12,15.86,145.94.28,9.07-3.02,20.59-6.75,27.78-12.96Z"/>
          <path d="M1032.09,1103.2c-1.96,13.96-22.7,22.31-35.06,25.74-26.65,7.4-74.22,2.88-99.9-7.72-14.97-6.18-32.69-18.48-38.78-34.05,1.09-1.09,23.58,13.84,26.7,15.39,44.11,21.93,102.18,19.04,147.04.65Z"/>
          <path class="cls-3" d="M1073.52,1040.39c-7.19,6.21-18.71,9.95-27.78,12.96-46.82,15.58-99.54,17.84-145.94-.28,29.76-19.5,65.95-27.85,98.23-8.74,24.01-18.45,49.42-18.55,75.5-3.94Z"/>
        </g>
        <path class="cls-2" d="M883.34,1045.62s-51.37-25.36-85.83-74.77c0,0,87.13,51.37,178.16,39.66,91.03-11.7,169.71-33.81,169.71-33.81,0,0-42.91,49.42-61.12,58.52,0,0-46.17-37.71-87.13-1.3,0,0-72.17-26.01-113.79,11.7Z"/>
      </g>
      <rect class="cls-4" width="2048.06" height="2048.2"/>
    </g>
  </g>
</svg>