<?xml version="1.0" encoding="UTF-8"?>
<svg id="Layer_2" data-name="Layer 2" xmlns="http://www.w3.org/2000/svg" viewBox="0 0 2048.06 2048.2">
  <defs>
    <style>
      .cls-1 {
        fill: #eeca98;
      }

      .cls-2 {
        opacity: 0;
      }
    </style>
  </defs>
  <g id="gap">
    <g>
      <g>
        <path d="M1131.06,885l-34.88,2.48c-7.88,7.91,6.89,11.18,13.15,11.8,30.77,3.03,52.77-9.4,68.52,26.23,2.6,5.87,9.91,34.5,12.14,35.9,5.58,3.49,6.53-6.81,6.77-10.68,2.58-41.96-25.54-66.73-65.71-65.71ZM756.51,939.16c-2.45-4.22,12.52-16.54,15.97-19.08,3.71-2.73,9.09-6.06,13.17-8.18,1.66-.86,28.96-9.92,14.06-12.62-25.49-4.6-54.08,19.79-63.61,41.8-7.37,17-9.4,36.26-5.09,54.27,4.15.68,4.47-1.07,5.99-3.99,6.85-13.12,4.19-31.49,13.33-44.04,46.16,35.29,108.97,46.27,166.02,48.17,4.67,16.44,17.53,53.26,34.11,59.96,24.63,9.96,61.95.58,83.02-14.54,2.89-.27,7.01,7.32,11.04,8.56,11.25,3.47,41.82-3.51,52.62-8.91,18.9-9.45,19.86-25.13,20.9-44.48.92-17.09-.05-34.61-2.1-51.51,3.88-3.07,12.45-4.39,16.65-1.87,5.89,3.52,12.17,35.54,20.09,30.73,4.83-5.45,1.31-14.58-.39-21.07-4.41-16.91-8.03-27.34-27.97-24.72-16.14,2.12-14.95,8.93-24.34,17.02-9.27,7.99-42.57,22.09-55.06,26.34-48.28,16.43-113.22,12.96-163.65,6.83-43.97-5.35-87.52-13.64-124.78-38.69ZM889.8,1064.77l9.95,12.06c43.13,42.27,148.8,64.95,190.19,11.26,2.36-3.06,9.59-14.45,2.05-15.03-1.52-.12-20.8,15.26-24.81,17.63-46.75,27.58-108.44,8.43-152.92-15.01-8.01-4.22-14.94-12.23-24.45-10.9Z"/>
        <path d="M756.51,939.16c37.25,25.05,80.8,33.34,124.78,38.69,50.43,6.13,115.38,9.6,163.65-6.83,12.49-4.25,45.79-18.35,55.06-26.34,9.39-8.09,8.2-14.9,24.34-17.02,19.94-2.62,23.56,7.81,27.97,24.72,1.69,6.49,5.22,15.62.39,21.07-7.92,4.81-14.2-27.21-20.09-30.73-4.2-2.51-12.77-1.2-16.65,1.87,2.05,16.89,3.02,34.41,2.1,51.51-1.04,19.36-2.01,35.03-20.9,44.48-10.8,5.4-41.37,12.38-52.62,8.91-4.04-1.24-8.15-8.83-11.04-8.56-21.06,15.12-58.38,24.5-83.02,14.54-16.58-6.7-29.44-43.52-34.11-59.96-57.05-1.91-119.86-12.88-166.02-48.17-9.14,12.55-6.49,30.91-13.33,44.04-1.53,2.92-1.84,4.67-5.99,3.99-4.31-18.01-2.28-37.27,5.09-54.27,9.54-22.01,38.12-46.4,63.61-41.8,14.9,2.69-12.4,11.75-14.06,12.62-4.08,2.12-9.46,5.46-13.17,8.18-3.45,2.54-18.42,14.86-15.97,19.08ZM1103.31,959.34c-23.79,11.65-47.22,24.77-73.37,30.72l20,43.4c15.77,1.36,44.37,2.03,50.33-16.46,5.63-17.5,4.39-39.58,3.04-57.67ZM1015.23,994.03c-5.49.47-11.14,2.41-16.62,2.73-19.5,1.14-44.36-2.58-62.8-.05-1.88.26-2.28-.75-1.94,1.96.55,4.44,6.86,19.54,9.08,24.3,6.73,14.42,10.63,20.43,27.61,21.77,19.25,1.52,41.81-4.53,57.44-15.96l-12.77-34.74Z"/>
        <path d="M889.8,1064.77c9.51-1.33,16.45,6.68,24.45,10.9,44.48,23.44,106.17,42.6,152.92,15.01,4.01-2.37,23.29-17.75,24.81-17.63,7.54.58.31,11.98-2.05,15.03-41.39,53.69-147.05,31.01-190.19-11.26l-9.95-12.06Z"/>
        <path d="M1131.06,885c40.17-1.02,68.29,23.75,65.71,65.71-.24,3.87-1.19,14.17-6.77,10.68-2.23-1.4-9.55-30.02-12.14-35.9-15.75-35.63-37.75-23.19-68.52-26.23-6.27-.62-21.03-3.89-13.15-11.8l34.88-2.48Z"/>
        <path class="cls-1" d="M1103.31,959.34c1.35,18.09,2.59,40.16-3.04,57.67-5.95,18.49-34.55,17.82-50.33,16.46l-20-43.4c26.15-5.95,49.57-19.08,73.37-30.72Z"/>
        <path class="cls-1" d="M1015.23,994.03l12.77,34.74c-15.63,11.43-38.19,17.48-57.44,15.96-16.98-1.34-20.88-7.34-27.61-21.77-2.22-4.76-8.54-19.86-9.08-24.3-.33-2.71.06-1.7,1.94-1.96,18.44-2.52,43.31,1.19,62.8.05,5.48-.32,11.14-2.25,16.62-2.73Z"/>
      </g>
      <rect class="cls-2" width="2048.06" height="2048.2"/>
    </g>
  </g>
</svg>