<?xml version="1.0" encoding="UTF-8"?>
<svg id="Layer_2" data-name="Layer 2" xmlns="http://www.w3.org/2000/svg" viewBox="0 0 2048.06 2048.2">
  <defs>
    <style>
      .cls-1 {
        fill: #6c111d;
      }

      .cls-2 {
        fill: #c24136;
      }

      .cls-3 {
        opacity: 0;
      }
    </style>
  </defs>
  <g id="glad">
    <g>
      <g>
        <g>
          <path d="M810.95,875.27c-7.22,3.81-13.85,1.92-21.38,2.96-13.71,1.91-36.96,15.92-45.74,26.68-12.4,15.19-19.79,46.89-4.62,62.5l.8-18.92c3.26-26.15,17.66-42.37,39.45-55.35,10.23-6.1,23.14-9.64,31.49-17.87ZM1202.01,967.43c18.14-13.44,15.85-38.7,3.17-55.19-13.78-17.92-45.3-26.15-66.38-31.7,1.33,4.23,5.88,3.5,8.82,4.99,22.32,11.31,52.8,26.92,55.52,55.07.88,9.11-2.06,17.73-1.13,26.83ZM801.3,920.54c-11.59.2-17.11,3.76-20.24,15.02-8.92,32.06,27.18,65.42,51.87,80.33,88.05,53.14,251.39,44.94,320.31-37.31,10.48-12.5,27.15-36.81,6.23-48.29-20.51-11.25-78.69,4.41-103.19,7.95-68.9,9.95-131.17,8.48-199.27-5.69-16.58-3.45-39.45-12.3-55.72-12.01ZM1045.3,1071.44c-31.79,12.66-70.37,16.69-104.65,14.47-40.04-2.6-71.59-19.89-107.31-35.54.44,6.38,6.56,11.84,11.22,15.76,41.7,35.12,146.43,49.04,191.44,16.41,1.57-1.14,10.73-9.58,9.29-11.1Z"/>
          <path d="M801.3,920.54c16.27-.28,39.14,8.56,55.72,12.01,68.1,14.17,130.37,15.64,199.27,5.69,24.5-3.54,82.68-19.2,103.19-7.95,20.92,11.48,4.24,35.79-6.23,48.29-68.92,82.24-232.26,90.45-320.31,37.31-24.7-14.91-60.79-48.26-51.87-80.33,3.13-11.26,8.65-14.82,20.24-15.02ZM980.8,995.09c-15.65-2.2-35.47.49-50.62,5.33-11.41,3.65-21.7,8.84-22.82,21.7.32,2.7,24.11,7.36,28.43,8.1,44.04,7.54,110.41,2.68,151.22-16.48,1.5-.71,8.33-3.75,8.31-4.83-32.83-32.56-82.02-19.64-119.06-2.01l-3.05-5.95,7.58-5.85Z"/>
          <path d="M1045.3,1071.44c1.44,1.52-7.72,9.96-9.29,11.1-45.01,32.64-149.75,18.71-191.44-16.41-4.66-3.92-10.77-9.38-11.22-15.76,35.72,15.64,67.27,32.94,107.31,35.54,34.28,2.22,72.86-1.81,104.65-14.47Z"/>
          <path d="M810.95,875.27c-8.36,8.23-21.26,11.77-31.49,17.87-21.79,12.98-36.19,29.2-39.45,55.35l-.8,18.92c-15.17-15.61-7.78-47.31,4.62-62.5,8.78-10.76,32.03-24.77,45.74-26.68,7.53-1.05,14.17.85,21.38-2.96Z"/>
          <path d="M1202.01,967.43c-.93-9.1,2.02-17.72,1.13-26.83-2.72-28.14-33.2-43.76-55.52-55.07-2.94-1.49-7.5-.76-8.82-4.99,21.08,5.54,52.6,13.78,66.38,31.7,12.68,16.49,14.97,41.75-3.17,55.19Z"/>
          <path class="cls-2" d="M980.8,995.09l-7.58,5.85,3.05,5.95c37.04-17.63,86.23-30.55,119.06,2.01.03,1.08-6.8,4.13-8.31,4.83-40.82,19.16-107.19,24.01-151.22,16.48-4.32-.74-28.1-5.4-28.43-8.1,1.12-12.86,11.4-18.05,22.82-21.7,15.15-4.84,34.96-7.52,50.62-5.33Z"/>
        </g>
        <path class="cls-1" d="M881.88,1018.08s-55.5-29.15-70.08-49.33c-14.58-20.18-2.8-30.27,20.18-21.86,22.98,8.41,124.45,20.74,169.3,17.38,44.85-3.36,109.88-13.45,122.21-16.82s35.88,5.05,17.94,20.18c-17.94,15.14-37.56,31.95-37.56,31.95,0,0-28.03-21.3-58.3-19.62-30.27,1.68-52.7,11.21-52.7,11.21,0,0-76.24-25.23-111,26.91Z"/>
      </g>
      <rect class="cls-3" width="2048.06" height="2048.2"/>
    </g>
  </g>
</svg>