<?xml version="1.0" encoding="UTF-8"?>
<svg id="Layer_2" data-name="Layer 2" xmlns="http://www.w3.org/2000/svg" viewBox="0 0 2048.06 2048.2">
  <defs>
    <style>
      .cls-1 {
        fill: #eeca98;
      }

      .cls-2 {
        fill: #c24136;
      }

      .cls-3 {
        fill: #691b1f;
      }

      .cls-4 {
        opacity: 0;
      }
    </style>
  </defs>
  <g id="grin">
    <g>
      <g>
        <path d="M1161.55,953.32c-2.16,3.38-7.02-1.41-8.45.13-17.73,24.11-12.9,56.31-18.14,84.21-1.97,10.51-6.94,20.19-7.71,30.79,27.78.48,56.63-13.47,77.57-31.06,5.5-4.62,12.52-10.1,14.47-17.15,3.98-.72,4.88,1.51,4.51,5.01-.44,4.16-9.98,15.31-13.18,19.09-72.51,85.53-165.29,8.36-254.44,19.16-71.91,8.71-156.11,68.33-225.21,20.15-8.24-5.74-30.72-27.51-33.64-36.48-.24-.74-.23-1.94.55-1.7,10.61,5.68,18.14,14.66,28.55,20.88,25.68,15.34,48.65,20.19,78.34,20.55,4.86.06,19.51-.14,17.65-7.23-13.51-38.04-19.54-78.1-28.79-117.28-8.81-15.02-16.95-4.12-29.04-.81-3.52.04,4.55-12.32,5.17-13.22,63.16-90.87,241.32-107.87,334.14-59.4,15.59,8.14,53.89,34.58,59.27,51.1.75,2.29-.64,11.74-1.61,13.25ZM959.4,892.62c3.31,41.21,49.34,58.56,73.61,21.28,5.03-7.73,5.69-16.98,12.04-23.56,1.21-.04,3.42,12.79,4.28,15.23,11.57,33.02,48.04,27.29,62.76.25-.01-3.64-27.81-14.98-32.53-16.67-58.41-20.98-126.86-18.26-186.16-2.19-26.12,7.08-51.23,17.47-75.08,30.08l-.95,5.44c9.38,6.69,17.07,15.6,27.43,20.92,4.51,2.31,15.5,7.64,19.85,4.45.62-.46,8.2-10.74,8.77-11.91,4.35-8.84,5.4-23.23,7.83-32.98l5.94,13c24.97,32.59,58.52,27.48,68.5-13.85.84-3.48-1.45-9.54,3.71-9.49ZM1153.49,934.16c-4.25-1.15-25.26-18.2-27.38-16.25l6.82,27.07c8.14,2.46,14.18-4.05,20.53-7.72l.02-3.1ZM813.41,923.65l-11.85,7.1c-1.36,2.3-13.03,7.59-12.27,9.54.64,1.65,8.33,6.28,10.35,6.89,12.31,3.71,15.03-14.92,13.78-23.54ZM1063.74,1057.8c2.74-2.58,5.62-19.98,6.02-24.42,4.08-44.51-25-73.85-66.81-46.11-16.12,10.7-27.39,28.17-41.82,40.94-4.37,1.8,1.18-8.14,1.55-8.8,2.82-4.98,6.41-8.55,10.52-12.45-15.88-17.9-41.12-29.98-62.6-13.19-13.68,10.69-33,48.01-12.16,59.22,16.94,9.11,33.84-.75,51.23-2.91,10.56-1.32,26.33-2.67,36.82-2.36,23.11.68,49.12,10.87,71.4,11.45,1.93.05,4.38.01,5.85-1.37ZM1089.32,1065.01c-.17-10.49-1.89-25.35-15.94-20.53l-3.61,19.38,19.55,1.15ZM854.81,1075.34l24.82-8c-5.55-31.13-26.25-15.34-24.82,8Z"/>
        <path d="M1188.2,938.58c19.35,16.76.44,48.69-23.03,44.27-1.73-1.25-1.28-2.36-.53-4.03,2.15-4.71,11.89-13,15.48-17.86,4.97-6.73,9-13.62,8.08-22.39Z"/>
        <path class="cls-1" d="M959.4,892.62c-5.15-.05-2.87,6.02-3.71,9.49-9.98,41.33-43.53,46.44-68.5,13.85l-5.94-13c-2.42,9.75-3.48,24.14-7.83,32.98-.58,1.17-8.15,11.45-8.77,11.91-4.35,3.19-15.34-2.14-19.85-4.45-10.36-5.32-18.05-14.23-27.43-20.92l.95-5.44c23.85-12.62,48.96-23,75.08-30.08,59.3-16.08,127.75-18.79,186.16,2.19,4.72,1.7,32.52,13.04,32.53,16.67-14.72,27.05-51.18,32.77-62.76-.25-.86-2.45-3.07-15.27-4.28-15.23-6.35,6.59-7.01,15.84-12.04,23.56-24.27,37.27-70.31,19.92-73.61-21.28Z"/>
        <path class="cls-2" d="M1063.74,1057.8c-1.47,1.39-3.93,1.42-5.85,1.37-22.28-.59-48.29-10.77-71.4-11.45-10.49-.31-26.26,1.04-36.82,2.36-17.4,2.17-34.29,12.02-51.23,2.91-20.84-11.21-1.53-48.53,12.16-59.22,21.49-16.79,46.72-4.71,62.6,13.19-4.11,3.91-7.69,7.47-10.52,12.45-.37.66-5.92,10.6-1.55,8.8,14.43-12.77,25.7-30.24,41.82-40.94,41.81-27.74,70.89,1.59,66.81,46.11-.41,4.44-3.29,21.84-6.02,24.42Z"/>
        <path class="cls-1" d="M854.81,1075.34c-1.43-23.33,19.26-39.13,24.82-8l-24.82,8Z"/>
        <path class="cls-1" d="M1153.49,934.16l-.02,3.1c-6.35,3.67-12.4,10.18-20.53,7.72l-6.82-27.07c2.12-1.95,23.13,15.11,27.38,16.25Z"/>
        <path class="cls-1" d="M1089.32,1065.01l-19.55-1.15,3.61-19.38c14.06-4.82,15.77,10.04,15.94,20.53Z"/>
        <path class="cls-1" d="M813.41,923.65c1.26,8.61-1.47,27.25-13.78,23.54-2.02-.61-9.71-5.24-10.35-6.89-.76-1.95,10.91-7.25,12.27-9.54l11.85-7.1Z"/>
        <path class="cls-3" d="M801.47,958.14s23.36,98.35,23.92,101.05c.56,2.7,3.99,15.51,11.02,16.15,7.03.64,9.85-6.69,13.23-18.53,3.38-11.84,13.67-21.43,17.55-20.3,3.88,1.13,16.28,13.48,16.28,13.48,0,0,.86-28.7,5.79-38.28,4.92-9.59,12.82-26,26.35-29.35,13.53-3.35,31.22-2.22,44.93,6.8,13.71,9.02,15.97,12.4,15.97,12.4,0,0,20.86-20.3,30.45-25.09,9.59-4.79,24.81-8.74,40.6-4.23,15.79,4.51,23.12,20.3,25.37,33.83,2.26,13.53,2.82,31.57,2.82,31.57,0,0,7.33-3.95,10.71,1.13,3.38,5.07,10.15,10.58,10.71,23.9,0,0,12.4,7.15,19.73,2.34,0,0,6.59-15.52,9.22-24.55,2.62-9.02,3.75-38.9,4.31-48.49.56-9.59,6.35-34.39,9.38-36.65,3.03-2.26-8.81,1.69-10.5,0-1.69-1.69-7.33-9.04-10.15-23.69-2.82-14.65-5.07-9.01-14.66-3.94-9.59,5.07-29.79,9.94-34.35,10.89-4.56.95-18.65-11.09-22.04-14.93s-4.51-8.36-4.51-8.36c0,0-11.28,15.93-23.12,20.37-11.84,4.44-24.24,6.48-36.65,2.93-12.4-3.56-23.3-14.93-23.3-14.93,0,0-11.66,9.47-22.37,14.93-10.71,5.46-23.12,8.85-35.52,3.21-12.4-5.64-16.35-10.16-16.35-10.16,0,0-15.65,17.49-19.1,23.69-3.45,6.2-10.78,5.64-23.75-2.26-12.97-7.89-21.43-14.48-21.43-14.48,0,0,4.03,29.14-20.54,19.56Z"/>
      </g>
      <rect class="cls-4" width="2048.06" height="2048.2"/>
    </g>
  </g>
</svg>