<?xml version="1.0" encoding="UTF-8"?>
<svg id="Layer_2" data-name="Layer 2" xmlns="http://www.w3.org/2000/svg" viewBox="0 0 2048.06 2048.2">
  <defs>
    <style>
      .cls-1 {
        fill: #eeca98;
      }

      .cls-2 {
        opacity: 0;
      }
    </style>
  </defs>
  <g id="gums">
    <g>
      <g>
        <path d="M1041.77,939.88c.4-15.95,6.31-32.33,3.27-48.27-1.26-6.6-2.23-7.38-8.01-10.5-8.36-4.51-20.28-7.87-29.76-6.43-2.77,1.32-5.66,15.25-6.47,18.77-1.29,5.61-6.62,31.93-4.89,35.5l45.86,10.93ZM931.44,928.01c2.2-2.59-5.17-24.69-6.84-28.73-1.33-3.22-4.4-10.45-7.59-11.76-3.89-1.59-6.52.23-10.29.26-4.11.04-7.17-1.41-11.6-.7-3.6.58-17.96,6.16-20,8.83-5.36,7.03,2.07,33.03,2.63,42.21,12.15-1.79,23.79-6.15,35.91-8.11,2.72-.44,17.01-1.11,17.77-2ZM795.55,972.61l35.76-18.13,31.95-11.35s-9.94-42.71,4.32-58.35c10.16-11.15,46.68-18.83,59.19-10.38,10.89,7.36,16.41,38.68,19.99,51.1l33.58.93c-.31-5.62.01-10.53,1.25-16,2.43-10.71,9.69-41.03,16.84-47.94,7.26-7.02,25.56-2.1,34.28,1.05,27.2,9.83,27.66,23.27,25.79,49.75-.17,2.41-1.46,4.81-1.62,7.63-.23,3.94-.49,24.36,1.09,26.31l12.39,4.43c2.21-8.06,8.79-17.58,13.97-24.33,9.57-12.47,14.93-15.59,31.08-11.02,10.36,2.93,18.76,8.52,24.11,17.96,12.62,22.25-1.24,39.36-9.25,59.66.64,3.09,15.54,16.37,18.8,19.97,16.47,18.14,37.56,44.89,39.1,70.27.33,5.4-.77,16.55-7.98,13.87-32.87-80.73-106.17-140.89-193.66-152.15-92.97-11.96-200.03,32.22-253.78,109.48-7.35,10.56-12.97,26.02-20.61,34.87-.51.59.03,1.59-1.92,1.07-5.68-17.49,4.56-36.07,13.94-50.4,9.13-13.94,21.06-26.13,33.16-37.52,3.12-2.93,20.24-16.53,20.89-18.67l17.33-12.1M1100.43,928.28c-3.33,1-20.3,26.86-19.81,29.57l35.51,24.88c11.03-9.82,18.7-33.55,8.13-45.8-3.8-4.4-18.29-10.3-23.83-8.64Z"/>
        <path d="M1098.15,1098.87l-5.6-4.91c-52.97-41.52-115.26-56.16-182.46-52.29-28.66,1.65-69.34,17.02-94.7,30.68-10.45,5.63-19.78,13.01-29.73,19.08-2.3,1.4-11.65,10.11-11.57,2.81.03-2.48,8.64-10.51,11.01-12.63,76.91-68.74,213.23-82.14,292.87-10.94,7.82,6.99,18.11,17.84,20.18,28.19Z"/>
        <path class="cls-1" d="M1041.77,939.88l-45.86-10.93c-1.73-3.56,3.6-29.89,4.89-35.5.81-3.52,3.7-17.45,6.47-18.77,9.47-1.44,21.4,1.92,29.76,6.43,5.78,3.12,6.75,3.9,8.01,10.5,3.05,15.93-2.86,32.32-3.27,48.27Z"/>
        <path class="cls-1" d="M931.44,928.01c-.76.89-15.05,1.56-17.77,2-12.13,1.97-23.76,6.32-35.91,8.11-.55-9.17-7.98-35.18-2.63-42.21,2.03-2.67,16.4-8.26,20-8.83,4.42-.71,7.48.74,11.6.7,3.77-.04,6.4-1.85,10.29-.26,3.19,1.3,6.26,8.54,7.59,11.76,1.67,4.04,9.04,26.14,6.84,28.73Z"/>
        <path class="cls-1" d="M1100.43,928.28c5.53-1.65,20.03,4.24,23.83,8.64,10.57,12.26,2.9,35.98-8.13,45.8l-35.51-24.88c-.49-2.7,16.48-28.57,19.81-29.57Z"/>
      </g>
      <rect class="cls-2" width="2048.06" height="2048.2"/>
    </g>
  </g>
</svg>