<?xml version="1.0" encoding="UTF-8"?>
<svg id="Layer_2" data-name="Layer 2" xmlns="http://www.w3.org/2000/svg" viewBox="0 0 2048.06 2048.2">
  <defs>
    <style>
      .cls-1 {
        fill: #eeca98;
      }

      .cls-2 {
        fill: #691b1f;
      }

      .cls-3 {
        opacity: 0;
      }
    </style>
  </defs>
  <g id="happy">
    <g>
      <g>
        <path d="M763.77,928.39c-1.55-2.67-7.16-3.76-10.02-4.42-43.78-10.07-43.52,38.47-22.01,62.23,3.33.24,1.28-.53.89-2.15-2.96-12.33-5.3-21.87-4.1-34.97,2.02-21.98,16.99-21.57,35.24-20.69ZM1141.77,922.48c-20.65,2.1-46.17,14.9-66.64,21.33-65.62,20.6-140.21,29.62-208.73,20.82-31.01-3.98-109.48-33.3-102.49,23.32,3.21,26,40.89,54.84,62.32,67.12,86.99,49.86,192.71,44.74,279.38-2.86,30.08-16.52,67.27-48.5,79.38-81.47,12.1-32.93-11.39-51.49-43.23-48.25Z"/>
        <path d="M1141.77,922.48c31.84-3.23,55.33,15.32,43.23,48.25-12.11,32.97-49.3,64.95-79.38,81.47-86.67,47.6-192.39,52.72-279.38,2.86-21.43-12.28-59.11-41.12-62.32-67.12-6.99-56.62,71.48-27.3,102.49-23.32,68.52,8.8,143.12-.22,208.73-20.82,20.47-6.42,45.99-19.23,66.64-21.33ZM982.43,973.65c-38.71,4.93-78.51,5.56-117.33,1.09-21.11-2.43-43.95-9.3-64.41-10.99-24.03-1.98-29.11,8.91-20.41,30.46,17.08,42.28,90.12,71.52,131.76,79.36,75.25,14.18,158.36-5.81,218.59-52.91,17.85-13.96,57.07-56.65,40.32-80.33-9.51-13.44-25.86-8.56-38.96-5.02-21.95,5.93-42.85,16.13-65.22,20.86,1.62,22.37-6.13,46.88-26.62,58.21-29.39,16.24-62.3-8.47-57.71-40.73ZM991.33,972.48c-1.25,23.04,23.62,44.05,44.51,28.81,12.89-9.41,19.04-25.73,16.95-41.47l-61.46,12.66Z"/>
        <path d="M763.77,928.39c-18.25-.88-33.22-1.29-35.24,20.69-1.2,13.1,1.14,22.64,4.1,34.97.39,1.62,2.44,2.38-.89,2.15-21.5-23.77-21.76-72.31,22.01-62.23,2.86.66,8.47,1.76,10.02,4.42Z"/>
        <path class="cls-2" d="M982.43,973.65c-4.6,32.26,28.32,56.97,57.71,40.73,20.49-11.32,28.24-35.84,26.62-58.21,22.37-4.73,43.27-14.92,65.22-20.86,13.1-3.54,29.46-8.43,38.96,5.02,16.75,23.68-22.47,66.37-40.32,80.33-60.23,47.1-143.33,67.09-218.59,52.91-41.63-7.85-114.68-37.09-131.76-79.36-8.71-21.56-3.62-32.44,20.41-30.46,20.46,1.69,43.3,8.55,64.41,10.99,38.83,4.47,78.63,3.84,117.33-1.09Z"/>
        <path class="cls-1" d="M991.33,972.48l61.46-12.66c2.09,15.74-4.07,32.06-16.95,41.47-20.88,15.24-45.76-5.77-44.51-28.81Z"/>
      </g>
      <rect class="cls-3" width="2048.06" height="2048.2"/>
    </g>
  </g>
</svg>