<?xml version="1.0" encoding="UTF-8"?>
<svg id="Layer_2" data-name="Layer 2" xmlns="http://www.w3.org/2000/svg" viewBox="0 0 2048.06 2048.2">
  <defs>
    <style>
      .cls-1 {
        fill: #eeca98;
      }

      .cls-2 {
        fill: #b43d26;
      }

      .cls-3 {
        fill: #fff;
      }

      .cls-4 {
        fill: #c24136;
      }

      .cls-5 {
        fill: #691b1f;
      }

      .cls-6 {
        fill: #f2ad4a;
      }

      .cls-7 {
        fill: #ea9e57;
      }

      .cls-8 {
        opacity: 0;
      }
    </style>
  </defs>
  <g id="hotdog">
    <g>
      <g>
        <g>
          <path class="cls-3" d="M711.26,1106.04c-13.3,12.02-27.47,23.13-42.12,33.44-39.88,28.06-115.28,59.97-105.32,119.92,5.04,30.35,35.17,54,65.98,51.49"/>
          <path d="M629.8,1310.89c-30.81,2.51-60.94-21.14-65.98-51.49-9.96-59.95,65.44-91.86,105.32-119.92,14.65-10.31,28.83-21.42,42.12-33.44l28.35-26.56c33.52-28.35,56.94-68,94.52-91.41,23.1-132.06,211.89-192.37,308.67-101.06,37.98,35.84,91.02,138.81,40.71,181.27-38.48,32.47-87.17.79-126.34-10.64-32.7-9.54-67.72-12.38-101.53-8.27l-2.36,5.3c30.17,9.65,22.57,43.79,14.49,67.03-25.01,71.98-112.98,144.34-177.79,181.1-31.73,18-75.77,39.9-112.58,25.99-12.11-4.58-17.42-11.69-23.57-22.54-5.49,4.5-24.02,4.62-24.02,4.62ZM934.4,904.17c.97-7.19-.71-16.18,0-23.61l-2.34-1.19c-4.93,3.19-32.76,19.72-33.12,23.61,3.72,28,31.33,31.78,35.46,1.19ZM1119.75,887.05v17.12c0,2.39,4.44,13.8,6.1,16.33,8.32,12.73,19.61,13.09,29.26,1.38-6.19-7.13-11.82-14.95-18.44-21.7-1.98-2.01-15.35-14.87-16.92-13.13ZM653.14,1291.72c17.3-53.14,72.97-77.81,115.16-108.56,34.37-25.05,54.98-46.54,84.02-76.54,24.28-25.08,53.07-54.19,90.4-54.81,6.2-19.03,5.19-42.5-7.84-58.41-27.05-33.02-90.72-2.49-116.18,20.57l17.07-4.18c18.57-3.62,41.52,11.75,33.38,32.2-5.95,14.93-27.87,7.42-30.99,12.69-1.87,3.17-.04,27.36-.6,33.64-3.06,34.32-28.03,45.62-59.59,46.73-5.35.19-15.68-3.28-20.1,1.08-1.83,1.8-9.23,32.58-11.81,38.96-5.66,14.02-9.14,19.21-23.57,24.84-20.83,8.13-32.06,3.71-51.98,5.87-5.29.57-9.86,3.98-14.23,4.66-16.94,2.62-25.97-5.74-23.99-22.82.49-4.24,2.43-6.47,3.39-9.6.5-1.64-.13-2.1-1.74-1.74-8.48,7.13-18.47,12.01-27.14,18.91-24.58,19.57-43.06,49.81-23.54,80.14,16.42,25.52,43.62,27.04,69.87,16.36ZM982.81,1035.8c13.13-2.1,29.49-.56,42.92,1.34,32.21,4.55,55.27,17.35,84.85,26.13,25.84,7.67,54.31,10.68,71.55-14.07-9.84-17.1-31.04-32.74-48.6-41.93-48.88-25.59-113.51-19.94-148.96,24.98-.94,1.19-2.28,1.52-1.75,3.55ZM832.56,1021.92c-13.98,2.2-24.26,14.87-25.65,28.66-2.42,23.94,9.89,47.71-23.18,51.2-12.85,1.36-23.2-2.52-36.13,1.65-21.28,6.87-17.75,27.57-23.33,45.14-11.75,36.99-41.6,12.8-66.13,23.59-7.82,3.44-19.83,16.5-13.02,24.83,5.76,7.05,17.93-2.74,25.72-3.86,21.29-3.07,50.12,6.01,63.06-18.4,8-15.09,7-49.35,26.36-51.56,18.98-2.16,38.32,2.95,54.91-11.2,17.1-14.59,9.53-41.09,11.77-60.25,2.2-18.84,40.29-3.58,30.56-22.26-4.28-8.22-16.89-8.81-24.94-7.54ZM743.14,1093.64c6.44-1.81,12.93-3.81,19.63-4.56,6.18-.69,27.71.44,31.24-4.18,5.79-7.59-1.05-37.61,4.61-47.92l-55.48,56.66ZM937.74,1064.43c-39.93,1.43-79.68,57.84-106.62,83.56-17.77,16.97-38.15,32.63-58.1,46.97-27.52,19.78-101.62,61.23-106.52,96.54-4.81,34.68,43.29,30.85,64.82,24.69,68.4-19.56,172.74-105.3,209.17-166.26,12.31-20.6,44.91-87.22-2.76-85.5ZM719.53,1116.09l-61.38,46.03c5.47-2.74,14.66-4.69,20.71-4.76,7.81-.1,19.75,3.82,27.14-1.09,7.95-5.28,7.92-31.77,13.53-40.18Z"/>
          <path class="cls-3" d="M1120.93,1100.74c-.41,2.39,1.52,3.36,3.14,4.52,33.31,23.85,83.14,2.39,86.57-38.76-9.26,9.97-15.8,20.98-27.7,28.36-19.91,12.35-40.04,8.8-62,5.88Z"/>
          <path class="cls-7" d="M937.74,1064.43c47.67-1.71,15.07,64.91,2.76,85.5-36.42,60.96-140.77,146.7-209.17,166.26-21.53,6.16-69.63,9.99-64.82-24.69,4.89-35.3,78.99-76.76,106.52-96.54,19.95-14.34,40.33-30,58.1-46.97,26.94-25.72,66.69-82.13,106.62-83.56Z"/>
          <path class="cls-2" d="M653.14,1291.72c-26.25,10.68-53.44,9.16-69.87-16.36-19.52-30.33-1.04-60.57,23.54-80.14,8.67-6.9,18.66-11.78,27.14-18.91,1.61-.37,2.24.1,1.74,1.74-.96,3.13-2.9,5.36-3.39,9.6-1.98,17.08,7.06,25.44,23.99,22.82,4.37-.68,8.94-4.08,14.23-4.66,19.92-2.16,31.15,2.26,51.98-5.87,14.43-5.63,17.91-10.82,23.57-24.84,2.57-6.38,9.98-37.16,11.81-38.96,4.42-4.36,14.75-.89,20.1-1.08,31.56-1.11,56.53-12.42,59.59-46.73.56-6.28-1.28-30.47.6-33.64,3.12-5.27,25.04,2.24,30.99-12.69,8.14-20.45-14.81-35.82-33.38-32.2l-17.07,4.18c25.46-23.05,89.14-53.59,116.18-20.57,13.03,15.91,14.04,39.38,7.84,58.41-37.32.62-66.11,29.73-90.4,54.81-29.05,30-49.65,51.49-84.02,76.54-42.2,30.75-97.86,55.42-115.16,108.56Z"/>
          <path class="cls-4" d="M982.81,1035.8c-.53-2.03.81-2.36,1.75-3.55,35.45-44.92,100.08-50.57,148.96-24.98,17.56,9.19,38.76,24.84,48.6,41.93-17.24,24.74-45.71,21.73-71.55,14.07-29.58-8.78-52.64-21.58-84.85-26.13-13.43-1.9-29.79-3.45-42.92-1.34Z"/>
          <path class="cls-6" d="M832.56,1021.92c8.05-1.27,20.66-.68,24.94,7.54,9.73,18.68-28.36,3.42-30.56,22.26-2.24,19.16,5.33,45.66-11.77,60.25-16.59,14.15-35.93,9.04-54.91,11.2-19.36,2.2-18.36,36.47-26.36,51.56-12.94,24.41-41.77,15.33-63.06,18.4-7.8,1.12-19.96,10.91-25.72,3.86-6.82-8.34,5.2-21.39,13.02-24.83,24.53-10.79,54.39,13.4,66.13-23.59,5.58-17.57,2.05-38.28,23.33-45.14,12.93-4.17,23.28-.3,36.13-1.65,33.07-3.49,20.76-27.25,23.18-51.2,1.39-13.78,11.67-26.46,25.65-28.66Z"/>
          <path class="cls-2" d="M743.14,1093.64l55.48-56.66c-5.66,10.31,1.19,40.33-4.61,47.92-3.53,4.62-25.06,3.49-31.24,4.18-6.7.75-13.19,2.75-19.63,4.56Z"/>
          <path class="cls-1" d="M934.4,904.17c-4.13,30.59-31.73,26.8-35.46-1.19.35-3.89,28.19-20.42,33.12-23.61l2.34,1.19c-.71,7.43.97,16.42,0,23.61Z"/>
          <path class="cls-2" d="M719.53,1116.09c-5.61,8.41-5.58,34.89-13.53,40.18-7.39,4.91-19.33.99-27.14,1.09-6.05.07-15.24,2.03-20.71,4.76l61.38-46.03Z"/>
          <path class="cls-1" d="M1119.75,887.05c1.56-1.74,14.94,11.12,16.92,13.13,6.62,6.75,12.26,14.57,18.44,21.7-9.65,11.71-20.94,11.35-29.26-1.38-1.66-2.53-6.1-13.94-6.1-16.33v-17.12Z"/>
          <path d="M1120.93,1100.74c21.97,2.92,42.1,6.47,62-5.88,11.91-7.38,18.44-18.39,27.7-28.36-3.42,41.16-53.26,62.61-86.57,38.76-1.62-1.16-3.55-2.13-3.14-4.52Z"/>
        </g>
        <path class="cls-5" d="M852.05,979.81s15.34-44.03,29.35-60.04,14.01-3.34,14.01-3.34c0,0,9.34,23.35,26.69,17.35s23.35-16.68,23.35-31.36-2-24.68,16.68-33.36c18.68-8.67,90.06-27.35,141.43,4.67,0,0,8.01,10.01,6.67,22.68s2.67,24.02,14.01,35.36c11.34,11.34,26.02,7.34,36.03,2.67,0,0,24.02,21.35,29.35,53.37,5.34,32.02-.67,52.7-.67,52.7,0,0-36.69-46.03-72.05-52.7-35.36-6.67-65.38-9.34-92.73,4-27.35,13.34-51.37,37.36-53.37,41.36-2,4-12.01.67-12.01.67,0,0-2-42.03-22.02-53.37-20.01-11.34-35.36-17.35-84.73-.67Z"/>
      </g>
      <rect class="cls-8" width="2048.06" height="2048.2"/>
    </g>
  </g>
</svg>