<?xml version="1.0" encoding="UTF-8"?>
<svg id="Layer_2" data-name="Layer 2" xmlns="http://www.w3.org/2000/svg" viewBox="0 0 2048.06 2048.2">
  <defs>
    <style>
      .cls-1 {
        fill: #eeca98;
      }

      .cls-2 {
        fill: #fff;
      }

      .cls-3 {
        fill: #c24136;
      }

      .cls-4 {
        fill: #691b1f;
      }

      .cls-5 {
        opacity: 0;
      }
    </style>
  </defs>
  <g id="joy">
    <g>
      <g>
        <g>
          <path class="cls-2" d="M1126.24,881.87c-2.34.29-14.02,2.08-9.39,6.29,32.25,7.07,50.59,10.84,69.36,39.38,1.13,1.72,6.56,15.82,9.8,10.82,3.63-5.61-6.13-27.01-9.81-32.55-12.13-18.22-38.81-26.58-59.96-23.94ZM738.35,960.94c1.6-1.6,2.67-7.15,4.15-9.72,11.95-20.8,25.84-31.39,46.24-43.17.87-.5,10.81-3.14,6.73-5.4-25.58-3.45-53.55,18.19-60.37,42.38-1.55,5.48-4.02,12.92.53,17.42.69-.84,2.07-.86,2.73-1.51ZM1142.59,1022.05c22.55-24.75,33.55-48.11,31.1-83.19-4.18-59.69-74.16-24.58-105.46-14.73-63.08,19.85-126.51,26.95-191.85,13.59-35.36-7.23-116.64-39.9-112.4,26.61,3.88,60.83,77.23,102.41,129.33,117.15,84.35,23.87,189.05,6.64,249.27-59.44ZM1041.92,1109.89c-40.17,14.14-81.33,19.7-123.25,9.07-14.54-3.68-28.01-10.68-42.27-15.12-.09,1.65-.19,3.28.59,4.84,1.93,3.85,25.99,17.32,31.2,19.54,34.48,14.71,83.59,14.08,117.25-2.8,3.18-1.59,20.73-10.99,16.47-15.53Z"/>
          <path d="M1142.59,1022.05c-60.22,66.08-164.93,83.31-249.27,59.44-52.1-14.75-125.45-56.32-129.33-117.15-4.24-66.51,77.04-33.85,112.4-26.61,65.33,13.37,128.77,6.26,191.85-13.59,31.3-9.85,101.27-44.96,105.46,14.73,2.46,35.08-8.54,58.44-31.1,83.19ZM1120.47,918.98l-62.24,21.73c-1.56,26.04,5.76,49.28,36.87,40.5,14.8-4.18,25.37-14.43,25.37-30.21v-32.02ZM818.4,935.9v33.23c0,12.62,17.63,22.85,28.71,24.45,31.51,4.55,37.72-14.48,36.54-41.98-22.17-2.48-44.16-8.45-65.25-15.7ZM1043.14,944.36l-68.95,12.78c1.76,19.03,4.39,37.55,26.6,41.04,12.09,1.9,31.95-2.11,38.55-13.53.74-1.28,3.8-9.85,3.8-10.7v-29.6ZM898.14,955.23v33.23c0,1.61,5.02,7.6,6.62,9.09,11.37,10.55,38.24,11.1,49.02-.58,8.4-9.1,7.81-26.83,8.23-38.55l-1.58-1.67c-20.61,2.81-41.56-1.05-62.28-1.51ZM1063.68,1060.34c-18.66-39.55-70.25-41.39-102.07-15.67-2.57,2.08-13.31,14.54-14.53,14.44-4.58-.38.58-10.25,3.01-11.45-21.51-17.25-60.03-12.65-67.72,16.81,58,21.14,124.2,18.75,181.32-4.13Z"/>
          <path d="M1041.92,1109.89c4.25,4.54-13.3,13.94-16.47,15.53-33.66,16.89-82.77,17.51-117.25,2.8-5.22-2.23-29.28-15.7-31.2-19.54-.78-1.55-.68-3.18-.59-4.84,14.26,4.43,27.73,11.43,42.27,15.12,41.93,10.62,83.09,5.06,123.25-9.07Z"/>
          <path d="M1126.24,881.87c21.15-2.65,47.83,5.72,59.96,23.94,3.68,5.54,13.45,26.94,9.81,32.55-3.24,5-8.67-9.1-9.8-10.82-18.77-28.54-37.11-32.32-69.36-39.38-4.63-4.21,7.04-6,9.39-6.29Z"/>
          <path d="M738.35,960.94c-.65.66-2.04.68-2.73,1.51-4.55-4.51-2.07-11.94-.53-17.42,6.82-24.19,34.78-45.82,60.37-42.38,4.08,2.26-5.86,4.89-6.73,5.4-20.4,11.78-34.29,22.37-46.24,43.17-1.47,2.57-2.55,8.12-4.15,9.72Z"/>
          <path class="cls-3" d="M1063.68,1060.34c-57.12,22.88-123.33,25.27-181.32,4.13,7.69-29.46,46.21-34.06,67.72-16.81-2.42,1.2-7.59,11.07-3.01,11.45,1.22.1,11.96-12.36,14.53-14.44,31.83-25.72,83.42-23.88,102.07,15.67Z"/>
          <path class="cls-1" d="M1120.47,918.98v32.02c0,15.78-10.57,26.03-25.37,30.21-31.11,8.78-38.43-14.47-36.87-40.5l62.24-21.73Z"/>
          <path class="cls-1" d="M818.4,935.9c21.09,7.25,43.08,13.22,65.25,15.7,1.18,27.5-5.04,46.53-36.54,41.98-11.08-1.6-28.71-11.84-28.71-24.45v-33.23Z"/>
          <path class="cls-1" d="M1043.14,944.36v29.6c0,.84-3.06,9.42-3.8,10.7-6.6,11.42-26.46,15.43-38.55,13.53-22.21-3.5-24.84-22.02-26.6-41.04l68.95-12.78Z"/>
          <path class="cls-1" d="M898.14,955.23c20.72.47,41.67,4.33,62.28,1.51l1.58,1.67c-.41,11.72.17,29.45-8.23,38.55-10.78,11.68-37.64,11.13-49.02.58-1.6-1.48-6.62-7.48-6.62-9.09v-33.23Z"/>
        </g>
        <path class="cls-4" d="M870.05,1059.64s-59.46-30.35-74.94-58.22c-15.48-27.87-11.15-47.07-8.05-50.79s13.63-4.34,16.1-4.34,3.72,25.39,3.72,25.39c2.48,8.67,14.25,25.39,32.83,30.35,18.58,4.95,36.54,7.43,47.69-11.77,0,0,10.53,24.15,45.21,24.15s37.78-17.96,37.78-17.96c0,0,26.63,14.86,52.64,9.91,26.01-4.95,30.35-21.06,31.59-23.54,1.24-2.48,20.44,15.48,43.35,8.67s32.21-20.44,31.59-44.59c-.62-24.15,8.67-28.49,13.63-28.49s21.68,7.43,18.58,32.21c-3.1,24.77-12.39,55.74-34.68,73.08-22.3,17.34-49.55,30.35-51.41,31.59s-17.34-23.54-38.4-30.35c-21.06-6.81-58.22-6.19-69.99,4.34l-10.53,8.67s-16.1-9.29-29.11-8.67c-13.01.62-48.31,1.24-57.6,30.35Z"/>
      </g>
      <rect class="cls-5" width="2048.06" height="2048.2"/>
    </g>
  </g>
</svg>