<?xml version="1.0" encoding="UTF-8"?>
<svg id="Layer_2" data-name="Layer 2" xmlns="http://www.w3.org/2000/svg" viewBox="0 0 2048.06 2048.2">
  <defs>
    <style>
      .cls-1 {
        fill: #c24136;
      }

      .cls-2 {
        opacity: 0;
      }
    </style>
  </defs>
  <g id="lick">
    <g>
      <g>
        <path d="M912.55,875.33c81.85-5.45,179.79,21.84,221.35,98.1,14.29,26.23,19.62,51.33,23.18,80.74.62,5.09,4.33,9.33-1.07,13.69-3.21,2.59-5.74,1.73-7.79-1.71-3.9-6.53-6.47-29.69-9.66-39.18-30.44-90.52-138.75-79.22-185.06-7.82-36.43,56.17-22.2,157.64-104.09,178.57-92.74,23.71-126.59-68.05-120.56-143.42,8.58-107.29,77.51-171.9,183.7-178.97ZM915.88,904.13c-33.51-1.44-74.39-1.34-103.2,17.85-61.91,41.24-78.59,124.73-65.88,194.35,9.97,54.6,57.63,88.53,110.92,62.68,60.12-29.17,50.66-113.18,80.19-164.02,21.36-36.77,54.65-56.78,95.38-65.69,7.51-1.64,14.98.08,18.95-8.07,3.52-7.22,2.2-10.05-3.43-14.68-17.55-14.47-66.48-28.03-88.77-25.55-55.51,6.18-104.66,83.44-121.1,131.42-2.64,7.72-8.41,33.93-12.34,38.37-2.4,2.71-5.83-2.29-5.05-4.78,5.11-32.1,12.51-59.52,28.68-87.77,16.27-28.42,39.15-54.97,65.65-74.11Z"/>
        <path d="M989.66,1010.12c-5.97,21.61-12.07,43.95-19.47,65.22-3.66,10.52-16.83,45.23-25.33,50.53-.94.58-4.4,2.19-5.08,1.66,14-25.44,18.3-55.45,28.59-82.07,4.55-11.77,11.01-23.07,15.99-34.67l5.3-.67Z"/>
        <path class="cls-1" d="M915.88,904.13c-26.5,19.14-49.38,45.7-65.65,74.11-16.17,28.24-23.57,55.67-28.68,87.77-.78,2.48,2.65,7.48,5.05,4.78,3.94-4.44,9.7-30.64,12.34-38.37,16.44-47.99,65.59-125.25,121.1-131.42,22.28-2.48,71.22,11.09,88.77,25.55,5.62,4.64,6.95,7.46,3.43,14.68-3.97,8.15-11.44,6.43-18.95,8.07-40.72,8.91-74.02,28.92-95.38,65.69-29.53,50.84-20.07,134.85-80.19,164.02-53.28,25.85-100.94-8.08-110.92-62.68-12.72-69.62,3.97-153.11,65.88-194.35,28.81-19.19,69.7-19.29,103.2-17.85Z"/>
      </g>
      <rect class="cls-2" width="2048.06" height="2048.2"/>
    </g>
  </g>
</svg>