<?xml version="1.0" encoding="UTF-8"?>
<svg id="Layer_2" data-name="Layer 2" xmlns="http://www.w3.org/2000/svg" viewBox="0 0 2048.06 2048.2">
  <defs>
    <style>
      .cls-1 {
        fill: #6c111d;
      }

      .cls-2 {
        fill: #c24136;
      }

      .cls-3 {
        opacity: 0;
      }
    </style>
  </defs>
  <g id="open">
    <g>
      <g>
        <path d="M986.84,817.42c103.27-8.49,147.07,88.18,162.04,174.37,13.34,76.8,8.81,148.57-73.31,179.33-79.31,29.71-207.65,14.3-229.83-82.87-20.41-89.41,33.4-261.97,141.1-270.82ZM1138.61,1044.97c-5.76-72.73-26.42-182.58-107.3-206.95-96.37-29.04-149.4,67.82-166.49,146.74-10.75,49.66-13.89,109.96,24.72,148.71,4.16,4.17,13.25,12.47,19.07,11.67-2.3-2.82-9.63-5.81-8.85-9.8,1.4-7.17,10.08-24.71,13.75-31.94,36.01-70.98,126.04-106.54,200.04-72.05,3.47,1.62,23.69,14.84,25.06,13.62ZM1039.83,1031.51c-54.59,4.29-101.98,38.24-121.69,89.22-1.43,3.7-9.34,26.29-8.02,28.14,1.18,1.66,24.67,9.78,28.43,10.84,67.75,19.19,178.8,7.97,197.43-74.46.68-3.02,3.82-20.83,3.21-22.23-24.43-25.48-64.99-34.22-99.35-31.52Z"/>
        <path class="cls-1" d="M1138.61,1044.97c-1.37,1.22-21.58-12-25.06-13.62-74-34.49-164.03,1.07-200.04,72.05-3.67,7.23-12.35,24.77-13.75,31.94-.78,3.99,6.55,6.98,8.85,9.8-5.81.8-14.91-7.5-19.07-11.67-38.61-38.75-35.47-99.05-24.72-148.71,17.09-78.92,70.12-175.77,166.49-146.74,80.88,24.37,101.54,134.21,107.3,206.95Z"/>
        <path class="cls-2" d="M1039.83,1031.51c34.36-2.7,74.92,6.04,99.35,31.52.62,1.4-2.53,19.21-3.21,22.23-18.63,82.43-129.69,93.65-197.43,74.46-3.76-1.07-27.24-9.18-28.43-10.84-1.32-1.85,6.59-24.44,8.02-28.14,19.72-50.99,67.11-84.94,121.69-89.22Z"/>
      </g>
      <rect class="cls-3" width="2048.06" height="2048.2"/>
    </g>
  </g>
</svg>