<?xml version="1.0" encoding="UTF-8"?>
<svg id="Layer_2" data-name="Layer 2" xmlns="http://www.w3.org/2000/svg" viewBox="0 0 2048.06 2048.2">
  <defs>
    <style>
      .cls-1 {
        fill: #eeca98;
      }

      .cls-2 {
        fill: #c24136;
      }

      .cls-3 {
        fill: #691b1f;
      }

      .cls-4 {
        opacity: 0;
      }
    </style>
  </defs>
  <g id="out">
    <g>
      <g>
        <g>
          <path d="M1022.61,1080.79c47.17,2.72,87.66,34.75,131.24-.22,60.29-48.37,34.02-134.13-17.16-178.24-95.26-82.09-274.24-51.09-336.11,58.97-24.12,42.92-19.63,86.09,16.53,120.18-10.71,23.35-25.14,46.39-27.29,72.78-10.57,129.55,160.27,151.55,205.73,40.56,14.85-36.27,11.98-77.7,27.05-114.03ZM770.54,1035.87c-1.26-11.9.93-25.73,0-37.85-2.43,1.35-3.84,7.32-4.52,9.93-5.47,21.12-1.44,53.57,12.18,71.18.89,1.15,8.35,9.45,7.5,3.53-1.05-7.28-9.1-22.23-11.42-31.26-1.03-4-3.37-11.99-3.74-15.53Z"/>
          <path d="M1022.61,1080.79c-15.07,36.33-12.19,77.76-27.05,114.03-45.46,110.99-216.31,88.99-205.73-40.56,2.15-26.38,16.58-49.43,27.29-72.78-36.16-34.09-40.65-77.27-16.53-120.18,61.86-110.06,240.84-141.06,336.11-58.97,51.18,44.1,77.45,129.87,17.16,178.24-43.58,34.97-84.06,2.94-131.24.22ZM994.77,868.77l-39.79,2.61c-1.69,18.96,9.96,54.36,34.33,36.39,12.55-9.25,8.37-25.95,5.46-39ZM1005.91,868.63c1.04,22.57,8.94,56.37,38.92,46.49,12.91-4.26,19.57-24.55,19.7-36.93-18.86-6.37-38.82-8.41-58.62-9.56ZM939.84,875.53c-19.14,2.6-36.31,11.55-53.59,19.37,3.14,17.26,27.04,47.87,44.56,27.34,10.11-11.85,7.04-32.82,9.03-46.7ZM1071.99,881.01c-.44,14.05-6.38,30.72,6.97,40.52,3.63,2.67,12.59,6.38,17.01,6.18,10.37-.45,21.01-18.48,16.63-27.44-1.82-3.72-38.34-21.6-40.6-19.26ZM1099.51,1036.56h-25.46c-6.38,0-23.99,9.03-29.47,13.2-2.26,1.71-17.96,17.49-15.25,19.83,39.67,3.17,82.8,31.3,117.93-.64-20.58-49.45-63.19-86.55-119.84-77.65-70.1,11.01-103.03,78.38-126.8,137.47.13-18.04,6.95-36.83,14.22-53.22,13.67-30.83,34.28-55.45,59.42-77.52-24.72-4.56-48.3-5.21-71.14,6.61-37.53,19.43-77.84,82.97-90.93,122.42-44.32,133.53,133.56,170.61,174.13,55.76,19.68-55.71,9.56-164.48,101.41-151.68l11.78,5.42Z"/>
          <path d="M770.54,1035.87c.38,3.54,2.71,11.53,3.74,15.53,2.32,9.03,10.37,23.99,11.42,31.26.85,5.92-6.61-2.37-7.5-3.53-13.62-17.61-17.66-50.06-12.18-71.18.68-2.62,2.09-8.58,4.52-9.93.93,12.12-1.26,25.95,0,37.85Z"/>
          <path class="cls-2" d="M1099.51,1036.56l-11.78-5.42c-91.86-12.8-81.74,95.97-101.41,151.68-40.57,114.85-218.45,77.77-174.13-55.76,13.09-39.44,53.4-102.99,90.93-122.42,22.84-11.82,46.42-11.17,71.14-6.61-25.14,22.07-45.76,46.68-59.42,77.52-7.27,16.4-14.09,35.18-14.22,53.22,23.78-59.1,56.71-126.46,126.8-137.47,56.65-8.9,99.26,28.19,119.84,77.65-35.13,31.94-78.27,3.81-117.93.64-2.71-2.35,13-18.12,15.25-19.83,5.49-4.17,23.09-13.2,29.47-13.2h25.46Z"/>
          <path class="cls-1" d="M1005.91,868.63c19.8,1.14,39.76,3.18,58.62,9.56-.14,12.38-6.79,32.67-19.7,36.93-29.98,9.88-37.87-23.91-38.92-46.49Z"/>
          <path class="cls-1" d="M939.84,875.53c-1.99,13.89,1.08,34.86-9.03,46.7-17.52,20.53-41.41-10.08-44.56-27.34,17.28-7.81,34.44-16.76,53.59-19.37Z"/>
          <path class="cls-1" d="M994.77,868.77c2.91,13.05,7.09,29.74-5.46,39-24.37,17.97-36.02-17.43-34.33-36.39l39.79-2.61Z"/>
          <path class="cls-1" d="M1071.99,881.01c2.26-2.33,38.79,15.55,40.6,19.26,4.38,8.96-6.26,26.99-16.63,27.44-4.42.19-13.38-3.52-17.01-6.18-13.35-9.8-7.41-26.47-6.97-40.52Z"/>
        </g>
        <path class="cls-3" d="M823.95,1064.64s-37.57-27.24-17.85-77.02c19.72-49.78,73.26-81.72,73.26-81.72,0,0,21.6,41.33,44.14,31.93,22.54-9.39,25.36-22.54,27.24-31s10.33,18.79,26.3,17.85c15.97-.94,24.42-7.51,27.24-18.79,2.82-11.27,1.88,20.66,25.36,20.66s28.18-5.64,32.87-14.09c4.7-8.45,1.88,14.09,15.03,19.72,13.15,5.64,32.87,2.82,39.45-5.64s7.51-20.66,18.79-10.33,49.78,67.63,42.27,96.74c-7.51,29.12-21.6,45.08-21.6,45.08,0,0-28.18-59.17-59.17-67.63-31-8.45-74.23-16.99-98.62-4.7,0,0-47.9-12.21-66.69-6.57-18.79,5.64-66.69,7.51-108.01,85.47Z"/>
      </g>
      <rect class="cls-4" width="2048.06" height="2048.2"/>
    </g>
  </g>
</svg>