<?xml version="1.0" encoding="UTF-8"?>
<svg id="Layer_2" data-name="Layer 2" xmlns="http://www.w3.org/2000/svg" viewBox="0 0 2048.06 2048.2">
  <defs>
    <style>
      .cls-1 {
        fill: #bd6b23;
      }

      .cls-2 {
        fill: #eeca98;
      }

      .cls-3 {
        fill: #ba752b;
      }

      .cls-4 {
        fill: #fff;
      }

      .cls-5 {
        fill: #a35419;
      }

      .cls-6 {
        fill: #6c111d;
      }

      .cls-7 {
        fill: #b53b20;
      }

      .cls-8 {
        fill: #c24136;
      }

      .cls-9 {
        fill: #b73d1f;
      }

      .cls-10 {
        opacity: 0;
      }

      .cls-11 {
        fill: #df9a3b;
      }
    </style>
  </defs>
  <g id="pizza">
    <g>
      <rect class="cls-10" width="2048.06" height="2048.2"/>
      <g>
        <g id="xMXzYc.tif">
          <g>
            <path class="cls-4" d="M890.38,1492.77c34.27-7.23,19.68-56.73,17.62-81.52-3-36.12,6.81-50.1,11.85-82.27,4.23-27.02-4.76-40.03-9.12-64.43-2.64-14.78,5.4-22.38,9.36-36.12,5.84-20.3,7.11-42.56,12.83-63.59,7.25-26.67,18.72-52.15,26.57-78.64,25.11-8.46,53.65-6.57,79.38-1.86,28.6,5.23,49.86,17.91,77.66.55,51.05-31.89,42.41-100.23,12.74-144.11-50.05-74.03-153.85-80.96-231.23-50.03-60.86,24.33-140.97,92.6-103.23,165.23,1.24,2.38,4.88,4.17,3.05,7.01-23.48,14.88-51.14,26.27-73.1,43.2-22.17,17.09-38.64,39.69-59.28,58.11-10.95,9.78-23.39,18.01-34.87,27.15-6.25,4.97-11.9,11.89-17.95,16.39-1.8,1.34-16.55,10.08-17.59,10.18-3.01.3-9.4-4.39-13.35-5.43-41.56-10.95-87.57,38.79-69.3,79.28,24.37,54,141.48,85,194.88,98.6,34.27,8.73,81.74,23.03,115.05,6.05,2.28-1.16,18.29-13.41,19.18-12.37.19,19.78,5.34,40.75,4.48,60.4-1.26,28.63-18.85,85.91-1.15,109.6,6.04,8.09,15.99,10.51,25.52,7.79,9.75-2.79,14.16-11.68,16.85-20.8,4.68-15.83,3.14-32.18,3.15-48.35Z"/>
            <path d="M890.38,1492.77c0,16.17,1.53,32.53-3.15,48.35-2.69,9.11-7.1,18.01-16.85,20.8-9.53,2.72-19.47.3-25.52-7.79-17.69-23.69-.1-80.97,1.15-109.6.86-19.65-4.29-40.62-4.48-60.4-.89-1.04-16.9,11.21-19.18,12.37-33.31,16.98-80.78,2.68-115.05-6.05-53.4-13.6-170.51-44.59-194.88-98.6-18.27-40.49,27.74-90.23,69.3-79.28,3.94,1.04,10.34,5.72,13.35,5.43,1.03-.1,15.79-8.84,17.59-10.18,6.05-4.5,11.7-11.41,17.95-16.39,11.48-9.14,23.92-17.37,34.87-27.15,20.63-18.43,37.11-41.02,59.28-58.11,21.96-16.93,49.62-28.32,73.1-43.2,1.83-2.84-1.81-4.63-3.05-7.01-37.74-72.63,42.37-140.9,103.23-165.23,77.38-30.94,181.18-24,231.23,50.03,29.67,43.88,38.31,112.23-12.74,144.11-27.8,17.36-49.05,4.68-77.66-.55-25.73-4.7-54.28-6.6-79.38,1.86-7.85,26.48-19.33,51.97-26.57,78.64-5.72,21.03-6.99,43.29-12.83,63.59-3.95,13.75-12,21.34-9.36,36.12,4.36,24.4,13.35,37.4,9.12,64.43-5.03,32.17-14.84,46.15-11.85,82.27,2.06,24.79,16.65,74.29-17.62,81.52ZM974.2,886.07c-15.53.45-31.58,3.19-46.31,7.94-2.26,2.2.74,16.68,2.04,20.18,4.67,12.51,14.02,14.18,26.28,13.68,27.22-1.11,44.65-8,40.22-39.21-.37-1.43-1.34-1.6-2.61-1.82-5.81-1.02-13.65-.95-19.61-.78ZM1008.76,887.96v29.35c0,6.31,21.01,10.2,25.98,10.56,20.58,1.53,27.97-1.26,31.18-22.8-1.12-6.94-49.26-17.03-57.16-17.11ZM883.62,911.21c-2.9-2.84-28.89,14.59-32.91,17.48-6.28,4.52-19.96,12.48-2.95,14.52,23.78,2.84,38.74-6.5,35.86-31.99ZM906.87,1236.82c10.06-61.92,24.28-125.86,53.7-181.65,10.16-19.26,22.16-38.71,42.64-48.15-14.44-6.18-33.62-5.58-48.95-2.47-36.56,7.43-57.51,41.97-75.07,71.68l-2.21-.56c5.74-24.98,22.35-46.75,39.88-64.77-25.68,5.19-48.59,17.14-70.78,30.54-36.11,21.8-84,51.41-116.88,76.93-20.67,16.04-36.7,36.61-55.95,53.68-21.84,19.37-50.12,32.6-66.47,57.59,21.6,28.57,44.34,42.34,80.31,45.94,37.69,3.77,68.17,5.35,105.76,13.84,35.77,8.08,79.92,14.68,64.73,63.65-1.75,5.65-10.42,19.13-10.57,21.63-.29,4.88,4.47,19.12,5.47,25.64,1.57,10.22,3.16,23.89,3.53,34.13,1.13,31.53-9.26,63.02-6.73,95.33,2.19,27.87,22.7,28.78,28.55.79,9.07-43.36-4.35-93.4-6.35-137.06-.19-4.21-.8-17.79.14-20.88.24-.79.96-1.25,1.51-1.79,3.24,0,8.34,27.85,9.06,31.89,2.52,13.98,4.59,28.71,5.88,42.85,1.13,12.34.45,24.91,2.23,37.09,5.94-2.57,9.09-10,9.83-16.18,3.27-27.4-5.15-58.15-2.07-86.25,2.6-23.71,14.85-41.28,13.32-66.51-2.2-36.19-28.79-87.55-18.34-122.35.97-3.24,5.3-11.98,8.93-6.68,1.07,1.56.58,22.18.54,26.13-.09,10.27-.9,12.27,2.5,22.89.37,1.16.28,3.34,1.87,3.08ZM1060.81,1009.77c-.47-1.9-2.56-2.46-4.17-3.02-37.81-13.09-78.45,29.83-88.85,62.83,22-3.28,44.7-3.27,66.67.33,22.96,3.77,50.79,17.99,72.79,5.7,25.77-14.39,6.79-44.63-12.46-54.95-15.85-8.5-37.02-7.57-50.08,5.7-2.52,2.56-16.06,25.44-20.44,21.08,4.81-18.22,18.41-32.13,36.54-37.66ZM569.86,1222.86c-31.64-.52-59.65,36.18-44.52,66.07,17.87,35.3,99.19,63.56,135.7,74.71,22.54,6.88,46.76,13.72,69.75,18.85,37.37,8.34,90.89,20.65,112.06-21.97,13.46-27.1,8.64-45.7-21.43-54.27-27.44-7.83-63.77-13.45-92.28-16.24-35.63-3.49-72.54-.45-102.96-23.29-18.52-13.91-29.96-43.42-56.32-43.85Z"/>
            <path class="cls-11" d="M906.87,1236.82c-1.59.26-1.5-1.92-1.87-3.08-3.4-10.62-2.59-12.62-2.5-22.89.04-3.94.53-24.56-.54-26.13-3.63-5.3-7.96,3.44-8.93,6.68-10.46,34.8,16.14,86.16,18.34,122.35,1.53,25.24-10.72,42.8-13.32,66.51-3.08,28.09,5.35,58.85,2.07,86.25-.74,6.18-3.89,13.62-9.83,16.18-1.78-12.19-1.11-24.75-2.23-37.09-1.29-14.14-3.36-28.87-5.88-42.85-.73-4.04-5.83-31.89-9.06-31.89-.55.54-1.27,1-1.51,1.79-.94,3.09-.33,16.67-.14,20.88,2,43.67,15.42,93.7,6.35,137.06-5.85,27.99-26.37,27.08-28.55-.79-2.53-32.32,7.86-63.8,6.73-95.33-.37-10.24-1.95-23.91-3.53-34.13-1-6.52-5.76-20.76-5.47-25.64.15-2.5,8.81-15.98,10.57-21.63,15.19-48.97-28.95-55.58-64.73-63.65-37.6-8.49-68.07-10.07-105.76-13.84-35.97-3.6-58.7-17.36-80.31-45.94,16.35-25,44.63-38.22,66.47-57.59,19.25-17.08,35.29-37.64,55.95-53.68,32.87-25.51,80.77-55.13,116.88-76.93,22.19-13.39,45.1-25.35,70.78-30.54-17.53,18.02-34.14,39.78-39.88,64.77l2.21.56c17.56-29.7,38.51-64.25,75.07-71.68,15.33-3.12,34.52-3.71,48.95,2.47-20.47,9.44-32.48,28.89-42.64,48.15-29.42,55.79-43.63,119.73-53.7,181.65ZM873.66,1048.56c-8.16.68-13.58,8.18-17.72,14.38,7.79-.06,13.68-8.46,17.72-14.38ZM829.13,1084.32c-40.81,4.2-86.02,57.93-46.3,89.95,38.58,31.09,113.11-6.9,107.44-57.61-3.15-28.21-37.99-34.72-61.14-32.34ZM695.12,1188.4c-30.1.65-78.59,30.87-51.78,64.46,23.89,29.93,88.9,22.27,104.27-13.07,15.76-36.22-22.7-52.04-52.49-51.4Z"/>
            <path class="cls-1" d="M569.86,1222.86c26.36.44,37.8,29.95,56.32,43.85,30.42,22.84,67.33,19.8,102.96,23.29,28.52,2.79,64.84,8.42,92.28,16.24,30.07,8.57,34.89,27.17,21.43,54.27-21.17,42.62-74.69,30.31-112.06,21.97-22.99-5.13-47.2-11.96-69.75-18.85-36.51-11.15-117.84-39.41-135.7-74.71-15.13-29.89,12.88-66.59,44.52-66.07ZM808.73,1320.65c-1.08-1.7-.92-4.32-3.32-4.99-29.82,6.84-53.96,58.67-12.24,66.32l1.86-3.37c-32.02-11-7.74-50.23,15.49-56.52.46-1.71-1.34-.72-1.79-1.44Z"/>
            <path class="cls-8" d="M1060.81,1009.77c-18.13,5.53-31.73,19.44-36.54,37.66,4.38,4.36,17.92-18.52,20.44-21.08,13.06-13.27,34.23-14.2,50.08-5.7,19.25,10.33,38.23,40.56,12.46,54.95-22,12.29-49.82-1.93-72.79-5.7-21.98-3.6-44.67-3.61-66.67-.33,10.4-33,51.04-75.92,88.85-62.83,1.61.56,3.69,1.12,4.17,3.02Z"/>
            <path class="cls-2" d="M974.2,886.07c5.97-.17,13.81-.24,19.61.78,1.27.22,2.24.39,2.61,1.82,4.43,31.21-13,38.1-40.22,39.21-12.26.5-21.61-1.17-26.28-13.68-1.3-3.5-4.3-17.98-2.04-20.18,14.73-4.76,30.79-7.49,46.31-7.94Z"/>
            <path class="cls-2" d="M1008.76,887.96c7.9.08,56.04,10.17,57.16,17.11-3.21,21.54-10.6,24.33-31.18,22.8-4.98-.37-25.98-4.25-25.98-10.56v-29.35Z"/>
            <path class="cls-2" d="M883.62,911.21c2.88,25.49-12.08,34.83-35.86,31.99-17.01-2.03-3.33-10,2.95-14.52,4.02-2.89,30.01-20.32,32.91-17.48Z"/>
            <path d="M829.13,1084.32c23.15-2.38,57.99,4.13,61.14,32.34,5.67,50.71-68.86,88.7-107.44,57.61-39.73-32.02,5.49-85.75,46.3-89.95ZM834.68,1093.17c-27.9.77-65.19,27.25-56.86,58.43,11.93,44.67,100.47,20.48,103.63-27.14,1.75-26.36-25.89-31.87-46.76-31.29Z"/>
            <path d="M695.12,1188.4c29.79-.65,68.25,15.18,52.49,51.4-15.37,35.34-80.38,43-104.27,13.07-26.82-33.59,21.68-63.81,51.78-64.46ZM687.37,1198.37c-21.92,2.62-57.48,26.99-35.77,50.66,19.4,21.15,73.4,14.47,86.98-11.63,17.5-33.64-27.29-41.89-51.21-39.03Z"/>
            <path d="M873.66,1048.56c-4.04,5.91-9.93,14.32-17.72,14.38,4.14-6.2,9.56-13.69,17.72-14.38Z"/>
            <path class="cls-7" d="M834.68,1093.17c20.87-.57,48.51,4.94,46.76,31.29-3.16,47.61-91.7,71.81-103.63,27.14-8.33-31.18,28.96-57.66,56.86-58.43Z"/>
            <path class="cls-9" d="M687.37,1198.37c23.92-2.86,68.71,5.4,51.21,39.03-13.58,26.1-67.58,32.78-86.98,11.63-21.71-23.67,13.85-48.04,35.77-50.66Z"/>
            <path d="M808.73,1320.65c.46.72,2.25-.27,1.79,1.44-23.24,6.29-47.51,45.52-15.49,56.52l-1.86,3.37c-41.72-7.65-17.58-59.48,12.24-66.32,2.4.67,2.24,3.29,3.32,4.99Z"/>
          </g>
        </g>
        <path class="cls-6" d="M807.08,1052.25s-18.69-41.11-.75-67.27c17.94-26.16,26.91-33.64,26.91-33.64,0,0,29.15,5.98,46.34-3.74,17.19-9.72,19.43-32.89,18.69-41.11,0,0,6.26-3.97,17.94-8.22,0,0-1.49,22.42,16.44,33.64,17.94,11.21,53.82,5.23,66.53-9.72,0,0,21.68,17.94,44.85,15.7s27.66-13.45,32.14-26.91c0,0,58.3,35.13,61.29,82.22,2.99,47.09-4.48,55.31-4.48,55.31,0,0-27.66-39.62-44.1-41.11s-17.19-1.49-17.19-1.49c0,0-35.88-21.68-58.3-4.48,0,0-54.57-25.41-86.71,2.99,0,0-36.63-12.71-119.6,47.84Z"/>
      </g>
      <g>
        <path class="cls-3" d="M1003.18,1007.1c-14.44-6.18-33.62-5.58-48.95-2.47-13.76,2.79-25.3,9.43-35.29,18.2,25.98-2.93,53.39-4.41,62.36.8h0c6.12-6.78,13.25-12.55,21.88-16.53Z"/>
        <path class="cls-3" d="M904.49,1024.62c3.97-4.75,8.12-9.3,12.34-13.63-18.53,3.75-35.62,11.02-52.03,19.81.31-.06,18-3.29,39.69-6.18Z"/>
      </g>
      <path class="cls-3" d="M841.58,1217.04s3.75-11.03-6.42,1.21c-3.43,4.13-6.34,8.48-10.17,12.24-3.83,3.76-7.17,9.27-5.15,14.25.48,1.18,1.38,2.33,2.63,2.54,1.5.25,2.84-.9,3.9-2"/>
      <path class="cls-5" d="M794.97,1378.64s44.55-11.19,54.69-46.89l.16.55c.91,8.02-1.54,17.48-6.92,28.31-15.74,31.68-49.35,33.01-80.92,28.18h0c-10.9-1.67-21.55-4.07-31.14-6.21-5.75-1.28-11.57-2.67-17.43-4.14-16.89-4.24-34.02-9.15-50.34-14.11-.66-.2-1.32-.4-1.98-.6-1.89-.58-3.91-1.2-6.03-1.87-1.08-.34-2.17-.69-3.3-1.05-1.51-.48-3.06-.99-4.65-1.51-3.89-1.28-8.01-2.67-12.31-4.18-1.77-.62-3.56-1.26-5.38-1.91-1.61-.58-3.24-1.18-4.89-1.79-1.65-.61-3.31-1.23-4.98-1.87-1.67-.64-3.36-1.29-5.06-1.96-.85-.33-1.7-.67-2.55-1.01-5.11-2.04-10.29-4.19-15.45-6.46-3.44-1.51-6.86-3.07-10.26-4.68-5.93-2.82-11.76-5.78-17.33-8.87-4.77-2.65-9.36-5.4-13.68-8.23-13.66-8.98-24.55-18.83-29.86-29.31-.41-.82-.79-1.64-1.14-2.47-.03-.07-.06-.14-.09-.21-.33-.79-.62-1.58-.9-2.38-.04-.11-.08-.21-.11-.32-.26-.78-.49-1.56-.7-2.34-.03-.12-.06-.24-.1-.37-.2-.78-.37-1.56-.52-2.35-.02-.12-.04-.23-.06-.35-.14-.8-.26-1.59-.35-2.39-.01-.09-.02-.19-.03-.28-.09-.83-.15-1.65-.19-2.48,0-.04,0-.09,0-.13-.07-1.74-.03-3.48.13-5.21,0-.03,0-.06,0-.09.08-.84.18-1.69.31-2.52,0-.06.02-.12.03-.17.13-.83.28-1.65.46-2.47.01-.06.03-.13.04-.19.18-.82.38-1.64.61-2.45.01-.05.03-.1.04-.15.24-.83.49-1.65.77-2.47,0-.02.01-.03.02-.05,1.17-3.39,2.73-6.66,4.63-9.75,0,0,0,0,0,0l2.38-.53c12.11,11.27,24.22,22.53,36.33,33.8,12.09,11.25,24.48,22.71,39.56,29.46,8.77,3.93,18.19,6.15,27.48,8.64,21.65,5.8,42.87,13.19,63.44,22.08,10.34,4.47,20.65,9.36,31.73,11.39,14.78,2.7,30.5-.03,43.51-7.55-.31,1.95-.58,3.99-.75,6.07-1.72,6.96-1.37,13.82,1.85,19.41,0,0,3.57,6.46,10.48,9.08,0,0,5.07,2.25,8.93,2.71l1.8-3.35Z"/>
      <path class="cls-3" d="M849.37,1529.81c2.19,27.87,22.7,28.78,28.55.79,1.19-5.68,1.98-11.48,2.47-17.36-3.63,27.33-17.71,15.76-19.94,9.2-2.23-6.57,2.78-86.45,2.78-98.49s-5.56-70.88-5.56-70.88c-1.75,5.65-10.42,19.13-10.57,21.63-.29,4.88,4.47,19.12,5.47,25.64,1.57,10.22,3.16,23.89,3.53,34.13,1.13,31.53-9.26,63.02-6.73,95.33Z"/>
    </g>
  </g>
</svg>