<?xml version="1.0" encoding="UTF-8"?>
<svg id="Layer_2" data-name="Layer 2" xmlns="http://www.w3.org/2000/svg" viewBox="0 0 2048.06 2048.2">
  <defs>
    <style>
      .cls-1 {
        fill: #be7727;
      }

      .cls-2 {
        fill: #ab7221;
      }

      .cls-3 {
        fill: #d79b2f;
      }

      .cls-4 {
        opacity: 0;
      }
    </style>
  </defs>
  <g id="potato">
    <g>
      <g>
        <path d="M1130.14,896.86l15.91,8.38c6.4-8.75,15.25-17.83,25.69-21.45,4.18-1.45,7-2.82,9.69,1.37-24.7,23.16-47.81,53.65-53.8,87.83-5.89,33.57,8.02,71.86,29.49,97.6,3.18,3.82,8.22,7.18,11.05,11.17,1.63,2.3,2.99,3.56.06,5.48l-23.54-13.83c-14.94,6.06-30.11,9.75-46.03,12.28-6.15.98-14.78.58-20.41,1.81-5.8,1.27-19.35,10.41-28.71,12.95-58.14,15.83-192.08-2.68-231.94-52.82-3.04-3.83-5.04-9.49-8.29-12.54-3.81-3.58-12.89-7.41-18.01-11.15-46.92-34.3-49.27-90.37-3.56-126.95,32.8-26.24,78.26-40.49,119.99-41.81,0,0,112.24-9.42,222.4,41.68ZM1092.58,1074.72l44.43-9.73-7.66-12.46c-26.21-46.29-22.41-93.48,7.64-136.84-37.1-19.71-75.54-36.13-117.47-42.2-50.36-7.29-109.73-11.97-158.87,1.93-43.05,12.18-109.07,48.73-88.17,103.46,5.11,13.38,9.9,15.17,18.77,24.28,1.57,1.61,11.4,15.51,13.85,13.22-1.05-2.49-2.32-4.98-2.67-7.73-.45-3.5-.87-22.13,1.22-23.57l4.22-.64c1.62,23.06,8.67,46.04,27.11,61.09,5.22,4.26,11.1,5.29,14.92,8.33,28.23,22.52,95.76,34.4,132.21,36.2,32.25,1.59,69.62,2.3,95.13-18.88,7.93-6.58,14.65-15.77,20.89-23.83,1.93-2.49,1.5-6.58,6.25-7.37,2.44-.4,2.14.07,2.14,2.13"/>
        <path d="M966.18,1145.56c.44,3.9-4.32,5.03-7.22,5.97-47.3,15.21-119.2-13.33-150.43-50.38-1.77-2.1-6.86-7.93-6.22-10.43l3.71-.97c28.93,22.4,61.44,39.71,97.08,48.76,20.69,5.25,41.75,7.5,63.08,7.06Z"/>
        <path class="cls-3" d="M1106.5,1042.11c.27-2.04.29-2.53-2.14-2.13-4.75.78-4.32,4.88-6.25,7.37-6.24,8.06-12.96,17.25-20.89,23.83-25.51,21.17-62.88,20.47-95.13,18.88-36.44-1.8-103.98-13.68-132.21-36.2-3.82-3.05-9.69-4.07-14.92-8.33-18.45-15.05-25.5-38.03-27.11-61.09l-4.22.64c-2.1,1.44-1.67,20.06-1.22,23.57.35,2.75,1.62,5.24,2.67,7.73-2.45,2.29-12.28-11.6-13.85-13.22-8.87-9.11-13.66-10.9-18.77-24.28-20.9-54.73,45.12-91.28,88.17-103.46,49.14-13.9,108.51-9.21,158.87-1.93,41.93,6.07,80.37,22.49,117.47,42.2-30.05,43.36-33.85,90.54-7.64,136.84l7.66,12.46-44.43,9.73s13.33-28.02,13.93-32.61ZM897.46,886.39c-9.67-.34-11.16,13.8,1.37,11.99,5.77-.83,4.83-11.78-1.37-11.99ZM1043.63,923.02c4.23-8.85-4.74-13.06-11.97-7.83l1.16,7.48c3.44,2.51,7.22,2.7,10.81.34ZM837.13,928.79c4.55,3.09,16.47-8.9,8.24-13.11-4.69-2.4-9.81,2.23-9.85,6.93,0,1.06,1.27,5.95,1.61,6.18ZM1079.01,932.74c4.18,4.18,15.37.37,11.5-6.64-5.53-7.76-17.48.67-11.5,6.64ZM870.65,946.56c3.66,4.78,12.48-2.21,11.88-8.43-.82-8.51-17.1-6.61-15,3.76.19.94,2.03.81,2.37,1.38.67,1.11.31,2.71.75,3.29ZM974.01,948.52c-5.04,1.03-4.95,10.28,1.02,10.83l5.12-6.16c.16-2.45-4.32-5.05-6.14-4.67ZM925.72,999.93c-5.2-.66-9.32-1.62-9.37,4.67-.07,7.68,7.13,5.48,12.35,4.85l-2.98-9.51ZM890.67,1038.79c-6.86,5.34-2.96,18.71,6.11,15.93,10.8-3.31,5.13-19.5-6.11-15.93ZM971.32,1042.97c-7.48,2.09-3.23,17.42,6.01,14.53,11.03-3.45,2.33-16.87-6.01-14.53ZM1032.35,1059.64c-.91.19-3.94,3.09-4.41,3.99-3.29,6.36,12.41,18.25,13.33,6.27.57-7.37-2.44-8.31-8.92-10.27Z"/>
        <path class="cls-2" d="M890.67,1038.79c11.25-3.56,16.91,12.63,6.11,15.93-9.07,2.78-12.97-10.59-6.11-15.93Z"/>
        <path class="cls-2" d="M971.32,1042.97c8.34-2.33,17.04,11.08,6.01,14.53-9.25,2.89-13.49-12.44-6.01-14.53Z"/>
        <path class="cls-2" d="M870.65,946.56c-.45-.58-.09-2.18-.75-3.29-.34-.57-2.18-.44-2.37-1.38-2.1-10.37,14.18-12.27,15-3.76.6,6.22-8.22,13.2-11.88,8.43Z"/>
        <path class="cls-2" d="M1032.35,1059.64c6.48,1.96,9.49,2.9,8.92,10.27-.92,11.98-16.62.09-13.33-6.27.47-.9,3.5-3.8,4.41-3.99Z"/>
        <path class="cls-2" d="M837.13,928.79c-.33-.23-1.61-5.11-1.61-6.18.03-4.7,5.16-9.33,9.85-6.93,8.22,4.21-3.69,16.2-8.24,13.11Z"/>
        <path class="cls-2" d="M1043.63,923.02c-3.6,2.36-7.37,2.17-10.81-.34l-1.16-7.48c7.23-5.24,16.2-1.03,11.97,7.83Z"/>
        <path class="cls-2" d="M897.46,886.39c6.2.22,7.14,11.16,1.37,11.99-12.53,1.81-11.04-12.33-1.37-11.99Z"/>
        <path class="cls-2" d="M1079.01,932.74c-5.97-5.97,5.97-14.4,11.5-6.64,3.87,7.01-7.32,10.82-11.5,6.64Z"/>
        <path class="cls-2" d="M925.72,999.93l2.98,9.51c-5.22.64-12.42,2.83-12.35-4.85.06-6.29,4.17-5.33,9.37-4.67Z"/>
        <path class="cls-2" d="M974.01,948.52c1.82-.37,6.3,2.22,6.14,4.67l-5.12,6.16c-5.97-.56-6.06-9.8-1.02-10.83Z"/>
        <path class="cls-2" d="M1070.8,974.27c1.83.63,2.42,3.88,3.07,5.7s.59,3.84.14,5.73c-.25,1.07-.76,2.24-1.81,2.55-.63.19-1.3,0-1.93-.19-1.88-.59-3.7-1.35-5.45-2.26-1.14-.59-2.28-1.28-3.07-2.29-1.68-2.16-1.41-5.29-.38-7.83.36-.89.82-1.76,1.53-2.4s1.72-1.02,2.64-.77l5.25,1.76Z"/>
        <path class="cls-1" d="M1092.58,1074.72l44.43-9.73-7.66-12.46c-20.64-36.46-22.67-73.47-7.92-108.73-.25-.08-.51-.14-.79-.18-2.04-.26-3.96.98-5.56,2.28-12.19,9.91-18.22,26.83-15.05,42.22,1.26,6.12,3.86,12.24,2.74,18.38-1.12,6.14-8.49,11.57-13.55,7.91-3.74-2.71-5.65-9.5-10.11-8.29-4.39,10.78-4.65,22.84-8.58,33.8-3.93,10.96-13.77,21.51-25.32,20-8.98-1.18-15.69-9.2-24.49-11.35-10.88-2.65-21.51,4.12-32.19,7.5-26.25,8.32-54.14-4.02-78.9-16.08-18.01-8.77-37.49-19.06-44.99-37.63-5.5-13.63-6.28-32.99-20.5-36.71-9.56-2.5-18.94,4.64-28.79,5.38-18.41,1.38-45.67-12.77-43.47-31.09-4.4,11.67-4.86,24.69.58,38.94,5.11,13.38,9.9,15.17,18.77,24.28,1.57,1.61,11.4,15.51,13.85,13.22-1.05-2.49-2.32-4.98-2.67-7.73-.45-3.5-.87-22.13,1.22-23.57l4.22-.64c1.62,23.06,8.67,46.04,27.11,61.09,5.22,4.26,11.1,5.29,14.92,8.33,28.23,22.52,95.76,34.4,132.21,36.2,32.25,1.59,69.62,2.3,95.13-18.88,7.93-6.58,14.65-15.77,20.89-23.83,1.93-2.49,1.5-6.58,6.25-7.37,2.44-.4,2.41.09,2.14,2.13-.6,4.59-13.93,32.61-13.93,32.61ZM896.78,1054.72c-9.07,2.78-12.97-10.59-6.11-15.93,11.25-3.56,16.91,12.63,6.11,15.93ZM1041.27,1069.9c-.92,11.98-16.62.09-13.33-6.27.47-.9,3.5-3.8,4.41-3.99,6.48,1.96,9.49,2.9,8.92,10.27Z"/>
      </g>
      <rect class="cls-4" width="2048.06" height="2048.2"/>
    </g>
  </g>
</svg>