<?xml version="1.0" encoding="UTF-8"?>
<svg id="Layer_2" data-name="Layer 2" xmlns="http://www.w3.org/2000/svg" viewBox="0 0 2048.06 2048.2">
  <defs>
    <style>
      .cls-1 {
        opacity: 0;
      }
    </style>
  </defs>
  <g id="sad">
    <g>
      <g>
        <path d="M928.95,886.42c-70.61,5.2-165.63,51.5-189.89,122.42-2.2,6.43-5.63,22.24,5.33,12.31,5.63-5.1,13.88-18.67,20.02-25.35,109.39-119,268.68-104.9,375.17,8.72,6.2,6.61,18.33,25.21,25.25,28.85,10.44,5.49,2.33-19.79.87-23.56-32.37-83.86-152.84-129.57-236.74-123.39ZM1211.96,1013.28h-5.21c-3.28,14.89.5,27.08-6.69,41.32-6.51,12.87-16.6,15.68-29.98,18.02-.83,10.43,16.28,11.12,24.1,9.24,23.31-5.61,28.46-34.43,22.09-54.59-1.14-3.61-4.25-6.35-5.03-8.75-.58-1.79,1.14-4.91.71-5.24ZM876.97,1077.81c1.62,2.41,43.62-.44,51.44.04,11.89.73,24.98,4.67,36.58,5.28,2.96.16,14.13.95,14.9-2.7-13.87-20.04-55.56-21.94-77.45-18.11-4.55.8-30.9,7.42-25.48,15.49Z"/>
        <path d="M928.95,886.42c83.9-6.18,204.37,39.53,236.74,123.39,1.46,3.77,9.57,29.05-.87,23.56-6.92-3.64-19.05-22.23-25.25-28.85-106.5-113.62-265.79-127.72-375.17-8.72-6.13,6.67-14.38,20.24-20.02,25.35-10.96,9.93-7.53-5.88-5.33-12.31,24.26-70.91,119.28-117.22,189.89-122.42Z"/>
        <path d="M876.97,1077.81c-5.42-8.07,20.93-14.7,25.48-15.49,21.89-3.83,63.58-1.94,77.45,18.11-.77,3.65-11.94,2.86-14.9,2.7-11.6-.61-24.69-4.55-36.58-5.28-7.82-.48-49.83,2.37-51.44-.04Z"/>
        <path d="M1211.96,1013.28c.42.34-1.3,3.45-.71,5.24.78,2.4,3.89,5.15,5.03,8.75,6.37,20.16,1.22,48.98-22.09,54.59-7.82,1.88-24.93,1.19-24.1-9.24,13.38-2.34,23.47-5.15,29.98-18.02,7.2-14.24,3.41-26.43,6.69-41.32h5.21Z"/>
      </g>
      <rect class="cls-1" width="2048.06" height="2048.2"/>
    </g>
  </g>
</svg>