<?xml version="1.0" encoding="UTF-8"?>
<svg id="Layer_2" data-name="Layer 2" xmlns="http://www.w3.org/2000/svg" viewBox="0 0 2048.06 2048.2">
  <defs>
    <style>
      .cls-1 {
        opacity: 0;
      }
    </style>
  </defs>
  <g id="scared">
    <g>
      <g>
        <path d="M832.16,977.91c-29.28,22.75-39.88,56.52-67.24,79.19-44.76,37.08-71.04-8.37-52.6-37.83.92-1.47,8.84-11.61,11.72-9.63.33,2.2-2.18,4.05-2.61,6.01-1.47,6.78-1.67,22.67.17,29.36,6.85,24.87,36.62-3.72,44.61-12.78,29.6-33.55,58.91-105.54,135.41-82.47,31.07,9.37,40.67,37.43,81.48,20.75,18.19-7.44,30.1-19.41,51.07-24.89,80.9-21.13,88.78,59.65,124.28,89.18,6.2,5.16,23.66,17.19,30.59,6.53,6.4-9.85,1.31-23.12,2.17-33.18.08-.9.71-1.9,1.43-2.64,3.61-1.81,7.77,5.99,8.71,7.75,6.14,11.47,7.68,30.55-3.35,40.71-5.99,5.52-12.79,7.39-22.66,6.62-19.91-1.55-40.86-26.36-49.5-37.95-20.96-28.11-30.88-77.55-92.93-59.03-31.01,9.25-43.66,30.95-82.54,28.4-27.8-1.82-39.37-27.35-71.27-29.47-20.84-1.39-33.77,5.14-46.95,15.38Z"/>
        <path d="M978.38,1073.78c-27.84-5.26-22.99-31.66-19.56-47.17l4.21,2.36c3.24,15.23,5.98,30.76,15.35,44.8Z"/>
        <path d="M941.04,1026.61c3.94-.06,2.79,4.48,2.43,6.44-2.09,11.11-10.14,22.76-12.4,34-4.71,3.61-6.54-2.19-6.93-4.91-1.9-13.29,8.93-24.29,16.9-35.53Z"/>
      </g>
      <rect class="cls-1" width="2048.06" height="2048.2"/>
    </g>
  </g>
</svg>