<?xml version="1.0" encoding="UTF-8"?>
<svg id="Layer_2" data-name="Layer 2" xmlns="http://www.w3.org/2000/svg" viewBox="0 0 2048.06 2048.2">
  <defs>
    <style>
      .cls-1 {
        fill: #eeca98;
      }

      .cls-2 {
        opacity: 0;
      }
    </style>
  </defs>
  <g id="silly">
    <g>
      <g>
        <path d="M1162.27,941.56c2.55-.11,4.14-1.11,6.87-.69,5.55.87,21.65,10.92,26.22,14.93,2.67,2.35,17.04,21.75,15.9,8.13-.35-4.17-13.15-21.89-16.65-24.47-14.92-11.02-43.76-10.26-60.83-5.3-3.03.88-7.51,2.22-9.12,5.12,13.27-.97,25.48-2.62,38.77.02l-1.16,2.26ZM1166.84,995.14c-23.61-23.77-59.75-22.94-87.8-39.3-10.68-6.23-18.49-14.56-27.9-22.27-2.82-.66-1.84,3.2-1.45,4.88,3.83,16.46,16.8,23.73,28.23,33.89-12.85,3.23-24.66,9.73-37.38,13.37-49.28,14.09-154.03,8.28-199.78-16.18-5.01-2.68-9.49-6.47-14.79-8.59l24.95-17.78,4.67-7.29c-13.62,3.15-25.1,11.74-38.47,16.81-19.26,7.3-40.1,12.12-60.7,8.27-.68,4.92,4.76,6.68,8.61,7.91,20.53,6.58,41.62-1.18,57.6,16.5l18.05,9.89c-3.33,16.74-6.53,31.84-2.8,48.96,7.87,36.12,56.99,51.74,83.27,25.05,16.2,20.27,44.58,21.83,66.05,9.03,22.71,30.02,81.13,21.12,84.99-19.9,1.86-19.76-2.3-36.66-8.89-54.96l.89-2.01,32.55-16.62,59.43,12.57c4.84.68,5.34-4.63,10.66-2.25Z"/>
        <path class="cls-1" d="M919.44,1011.13l-66.1-12.56c-7.94,34.84,2.74,73.52,46.07,66.04,8.33-1.44,13.16-3.7,15.19-12.17,2.97-12.42,2.97-28.45,4.84-41.31ZM996.97,1015.68c4,14.01-2.22,29.2-1.18,42.8,1.18,15.42,20.38,20.93,33.65,19.88,38.36-3.04,31.22-46.16,20.01-71.31l-52.49,8.63ZM930.84,1014.53c-1.19,13.01-2.77,40.99,9.86,48.86,9.55,5.95,33.25,7.41,39.39-3.59,3.57-6.4,7.16-37.74,2.65-41.87-4.52-4.13-43.22-1.8-51.9-3.4Z"/>
      </g>
      <rect class="cls-2" width="2048.06" height="2048.2"/>
    </g>
  </g>
</svg>