<?xml version="1.0" encoding="UTF-8"?>
<svg id="Layer_2" data-name="Layer 2" xmlns="http://www.w3.org/2000/svg" viewBox="0 0 2048.06 2048.2">
  <defs>
    <style>
      .cls-1 {
        fill: #eeca98;
      }

      .cls-2 {
        fill: #fff;
      }

      .cls-3 {
        fill: #c24136;
      }

      .cls-4 {
        fill: #691b1f;
      }

      .cls-5 {
        opacity: 0;
      }
    </style>
  </defs>
  <g id="snarl">
    <g>
      <g>
        <path class="cls-2" d="M986.72,863.62c-65.31,5.51-125.51,62.59-161.99,113.61-44.43,62.14-55.16,135.26,45.66,130.45,29.92-1.43,56.64-5.8,87.62-4.21,50.26,2.57,100.31,20.07,148.35,22.66,88.22,4.75,82.14-91.43,53.83-148.52-33.86-68.27-92.58-120.81-173.48-113.99Z"/>
        <path d="M986.72,863.62c80.9-6.82,139.62,45.72,173.48,113.99,28.31,57.09,34.39,153.27-53.83,148.52-48.04-2.59-98.09-20.09-148.35-22.66-30.99-1.59-57.71,2.78-87.62,4.21-100.82,4.81-90.09-68.31-45.66-130.45,36.48-51.01,96.67-108.1,161.99-113.61ZM985.27,879.13c-3.6.55-7.41.71-8.17,4.54-2.86,14.45,10.77,38.34,21.18,48.11,12.46,11.69,18.17,4.54,27.61-6.38,9.3-10.75,16.01-24.43,17.55-38.69-1.05-3.22-28.43-7.6-33.13-7.94-6.95-.51-18.29-.67-25.04.36ZM970.04,882.99c-1.61-1.52-19.23,5.07-22.56,6.4-5.45,2.18-27.41,12.09-28.32,16.9-3.28,17.26,8.25,36.83,25.48,24.06,14.72-10.91,22.58-29.7,25.4-47.37ZM1105.71,921.17c-10-6.63-18.81-14.84-29.24-20.95-3.21-1.88-27.35-14.27-28.69-12.99,3.13,17.13,3.71,31.67,13.24,46.81,7.65,12.16,9.07,15.58,21.97,7.47,4.32-2.72,16.37-11.95,19.93-15.4,1.5-1.46,3.29-2.45,2.8-4.94ZM916.33,907.02l-28.12,20.62-2.96,4.8c16.84,2.79,26.23-11.48,31.08-25.42ZM1163.67,1059.65v-21.91c0-22.73-20.39-63.57-33.34-82.55-2.94-4.3-17.11-23.26-20.38-24.94-1.65-.85-2.35-.66-3.58.69-5.69,8.6-25.57,29.39-36.52,25.39-2.51-.92-1.67-3.85-2.67-5.1s-7.68-3.65-10.2-6.07c-8.1-7.75-11.53-23.2-12.72-33.9-5.05,9.3-20.09,39.48-32.46,38.2-.97-.1-12.49-8.44-14.22-9.9-10.04-8.44-18.04-18.96-25.4-29.69-11.48,27.24-33.08,52.9-56.55,18.36l-8.45,9.89c-10.69,7.93-18.24,2.73-28.84-1.32-15.94,20.83-37.24,38.65-50.75,61.65-12.92,22.01-26.93,60.14-10.16,83.1,5.28,7.24,14.08,11.86,23.14,11.89,1.65-.4,4.13-16.15,5.46-20.02,6.93-20.11,23.79-44.1,44.74-50.41,3.1,6.01,8.08,9.77,12.04,15.57,7.11,10.42,11.39,22.05,15.66,33.79,31.67-64.42,125.12-86.04,187.78-57.74,23.73,10.72,37.62,23.93,54.2,43.23.87,1.02-.07,2.65,3.24,1.8ZM1128.34,1109.1c13.83,3.12,33.28-23.22,32.21-34.27-1.12-11.59-23.05-30.26-32.6-36.7-47.52-32.06-111.78-29.22-162.14-5.31-.4,1.96-.29,1.8.9,2.92,4.18,3.95,9.25,7.01,13.2,11.93,6.97,8.68,13.62,21.99,14.17,33.18,2.08,2.47,10.06-11.91,11.33-13.39,9.27-10.86,22.27-22.86,36.68-25.55,12.78,13.56,20.74,30.57,24.08,48.83l8.23-17.89c8.16-13.41,19.47-25.37,34.12-31.56,11.76,19.9,24.51,43.91,19.82,67.82ZM851.32,1093.56l60.07-5.64,3.5-2.12c-8.52-17.13-11.9-37.66-26.85-50.98l-1.82-.43c-20.24,13.34-32.94,34.88-34.89,59.17ZM992.66,1092.14c-7.27-19.44-15.28-38.82-32.01-52.07-5.85-1.14-26.33,21.03-29.94,26.18-2.5,3.57-7.96,16.21-8.95,17.13M1119.82,1108.2c-1.25-6.04-.68-15.05-2.01-21.79-2.3-11.7-8.69-22.32-10.69-33.85-12.65,3.19-22.6,18.46-29.4,29.25-2.35,3.72-10.39,25.74-17.29,19.46-2.2-2-4.54-16.98-6.32-21.84-3.79-10.31-11.24-19.98-16.29-29.66-4.71-3.26-36.21,34.31-40.24,39.53-1.1,1.42-2.73,1.81-2.1,4.25"/>
        <path class="cls-4" d="M1163.67,1059.65c-3.31.85-2.37-.78-3.24-1.8-16.58-19.3-30.47-32.51-54.2-43.23-62.65-28.31-156.11-6.68-187.78,57.74-4.27-11.74-8.55-23.37-15.66-33.79-3.95-5.8-8.93-9.55-12.04-15.57-20.95,6.31-37.81,30.3-44.74,50.41-1.33,3.87-3.81,19.63-5.46,20.02-9.06-.03-17.86-4.65-23.14-11.89-16.76-22.97-2.75-61.1,10.16-83.1,13.5-23.01,34.81-40.83,50.75-61.65,10.6,4.05,18.14,9.26,28.84,1.32l8.45-9.89c23.47,34.54,45.07,8.89,56.55-18.36,7.36,10.73,15.36,21.25,25.4,29.69,1.74,1.46,13.25,9.8,14.22,9.9,12.37,1.28,27.41-28.9,32.46-38.2,1.2,10.7,4.62,26.15,12.72,33.9,2.52,2.41,9.25,4.88,10.2,6.07s.16,4.18,2.67,5.1c10.94,4,30.83-16.79,36.52-25.39,1.24-1.35,1.93-1.54,3.58-.69,3.27,1.68,17.44,20.64,20.38,24.94,12.96,18.98,33.34,59.82,33.34,82.55v21.91Z"/>
        <path class="cls-3" d="M1128.34,1109.1c4.69-23.91-8.05-47.92-19.82-67.82-14.65,6.19-25.96,18.16-34.12,31.56l-8.23,17.89c-3.34-18.27-11.29-35.28-24.08-48.83-14.41,2.7-27.41,14.7-36.68,25.55-1.27,1.48-9.25,15.86-11.33,13.39-.55-11.18-7.2-24.49-14.17-33.18-3.94-4.91-9.02-7.98-13.2-11.93-1.19-1.12-1.3-.97-.9-2.92,50.36-23.91,114.62-26.75,162.14,5.31,9.55,6.44,31.48,25.11,32.6,36.7,1.06,11.06-18.39,37.39-32.21,34.27Z"/>
        <path class="cls-1" d="M1119.82,1108.2c-1.25-6.04-.68-15.05-2.01-21.79-2.3-11.7-8.69-22.32-10.69-33.85-12.65,3.19-22.6,18.46-29.4,29.25-2.35,3.72-10.39,25.74-17.29,19.46-2.2-2-4.54-16.98-6.32-21.84-3.79-10.31-11.24-19.98-16.29-29.66-4.71-3.26-36.21,34.31-40.24,39.53-1.1,1.42-2.73,1.81-2.1,4.25,42.21,1.99,82.08,19.48,124.53,18.46l-.2-3.81Z"/>
        <path class="cls-1" d="M985.27,879.13c6.75-1.03,18.09-.87,25.04-.36,4.7.34,32.07,4.73,33.13,7.94-1.54,14.26-8.25,27.94-17.55,38.69-9.44,10.91-15.15,18.07-27.61,6.38-10.41-9.76-24.04-33.66-21.18-48.11.76-3.84,4.57-3.99,8.17-4.54Z"/>
        <path class="cls-1" d="M851.32,1093.56c1.95-24.28,14.65-45.82,34.89-59.17l1.82.43c14.95,13.32,18.33,33.85,26.85,50.98l-3.5,2.12-60.07,5.64Z"/>
        <path class="cls-1" d="M921.76,1083.38c.99-.93,6.45-13.56,8.95-17.13,3.61-5.15,24.08-27.32,29.94-26.18,16.73,13.25,24.74,32.63,32.01,52.07-24.18-3.03-48.38-4.95-72.79-4.34l1.9-4.42Z"/>
        <path class="cls-1" d="M1105.71,921.17c.5,2.49-1.3,3.48-2.8,4.94-3.56,3.45-15.61,12.68-19.93,15.4-12.9,8.12-14.32,4.69-21.97-7.47-9.53-15.14-10.11-29.68-13.24-46.81,1.34-1.29,25.48,11.1,28.69,12.99,10.43,6.11,19.24,14.32,29.24,20.95Z"/>
        <path class="cls-1" d="M970.04,882.99c-2.82,17.67-10.68,36.46-25.4,47.37-17.23,12.77-28.76-6.81-25.48-24.06.91-4.81,22.87-14.73,28.32-16.9,3.32-1.33,20.95-7.92,22.56-6.4Z"/>
        <path class="cls-1" d="M916.33,907.02c-4.85,13.95-14.24,28.21-31.08,25.42l2.96-4.8,28.12-20.62Z"/>
      </g>
      <rect class="cls-5" width="2048.06" height="2048.2"/>
    </g>
  </g>
</svg>