<?xml version="1.0" encoding="UTF-8"?>
<svg id="Layer_2" data-name="Layer 2" xmlns="http://www.w3.org/2000/svg" viewBox="0 0 2048.06 2048.2">
  <defs>
    <style>
      .cls-1 {
        opacity: 0;
      }
    </style>
  </defs>
  <g id="snouter">
    <g>
      <g>
        <path d="M959.68,984.75c-68.62,1.88-160.14,4.83-223.25,32.64-7.82,3.45-15.71,6.22-18.87,14.78,1.25,1.91,2.61,1.91,4.65,2.11,10.33,1.01,54.64-15.03,69.38-18.3,56.76-12.56,117.62-15.52,175.72-16.88,67.57-1.57,144.7,3.42,206.36,32.14,5.28,2.46,21.19,15.09,25.41,6.98,2.5-4.8-8.88-12.03-12.44-14.57-43.92-31.37-133.86-38.4-186.9-39.36l-40.06.45ZM1017.87,1058.41c-.47-2.57-2.8-2.24-4.65-2.74-27.18-7.33-76.62-5.75-104.95-2.47-10.4,1.21-20.96,2.92-30.48,7.24,11.8,1.54,23.88.28,35.76.62,28.18.81,57.88,3.45,86.2,1.46,6.08-.43,12.7-1.52,18.12-4.11Z"/>
        <path d="M959.68,984.75l40.06-.45c53.04.96,142.98,7.99,186.9,39.36,3.55,2.54,14.94,9.77,12.44,14.57-4.23,8.12-20.14-4.52-25.41-6.98-61.66-28.72-138.78-33.71-206.36-32.14-58.09,1.35-118.96,4.31-175.72,16.88-14.74,3.26-59.05,19.31-69.38,18.3-2.04-.2-3.4-.2-4.65-2.11,3.15-8.56,11.05-11.33,18.87-14.78,63.11-27.82,154.63-30.76,223.25-32.64Z"/>
        <path d="M1017.87,1058.41c-5.42,2.59-12.04,3.69-18.12,4.11-28.31,2-58.01-.65-86.2-1.46-11.88-.34-23.96.92-35.76-.62,9.52-4.32,20.08-6.04,30.48-7.24,28.33-3.29,77.77-4.86,104.95,2.47,1.85.5,4.18.17,4.65,2.74Z"/>
      </g>
      <rect class="cls-1" width="2048.06" height="2048.2"/>
    </g>
  </g>
</svg>