<?xml version="1.0" encoding="UTF-8"?>
<svg id="Layer_2" data-name="Layer 2" xmlns="http://www.w3.org/2000/svg" viewBox="0 0 2048.06 2048.2">
  <defs>
    <style>
      .cls-1 {
        fill: #eeca98;
      }

      .cls-2 {
        fill: #6c111d;
      }

      .cls-3 {
        fill: #c24136;
      }

      .cls-4 {
        opacity: 0;
      }
    </style>
  </defs>
  <g id="spaguetti">
    <g>
      <g>
        <g>
          <path d="M867.17,1051.97c.03-.51,1.54-1.59,1.11-2.73-28.96-9.14-53.33-32.65-56.47-64.04-12.05-120.32,142.74-137.24,228.57-119.83,55.14,11.18,103.39,52.96,99.91,113.36-4.83,83.94-104.97,84.53-167.07,82.63-9.43-.29-19.15,1.09-28.34-1.06,1.54,4.78-2.73,22.67-.02,24.99,2.99,2.57,29.24,1.89,35.02,1.7,18.87-.62,37.91-3.2,56.61-5.55l7.17.5c-28.9,17.83-66.82,21.93-99.89,17.23-3.12,47.67,5.92,94.44,9.98,141.58,4.03,46.84,3.88,89.39-11.05,134.4-6.91,20.83-17.78,40.27-26.09,60.51-12.15,29.57-20.74,52.33-9.21,84.65,8.03,22.51,22.83,41.76,24.09,66.93,1.97,39.31-27.44,80.3-63.74,93.82-20.44,7.61-52.85,9.23-48.32-21.12-15.83,1.6-32.47-2.17-48.33-1.16-15.18.97-34.94,9.63-47.13-3.85-10.44-11.55-8.58-28.22,4.53-36.55,29.66-18.85,75.09,8.72,103.04-13.52,22-17.5.28-52.81-6.24-73.51-21.66-68.74,5.73-103.94,32.07-162.72,38.19-85.24,7.53-174.39,7.52-264.52,0-5.45,1.91-11.65-.52-17.15-1.85-4.2-15.18-13.49-18.29-18.34l21.09,3.89c.31-6.8-.43-13.75,0-20.54ZM958.19,965.9c-12.53-21.79-34.82-14.46-48.87,1.65-30.38,34.85-31.85,124.01-30.43,168.81,2.37,74.55,26.87,150.1-2.31,222.63-20.64,51.31-56.66,92.46-43.29,152.16,6.21,27.71,27.14,57.36,18.64,86.36-8.53,29.07-45.93,30.27-70.84,29.16-11.5-.51-50.71-8.97-51.5,10.6-.85,20.98,34.27,8.53,45.95,8.19,30.17-.88,42.26,7.23,71.67-9.37,62.78-35.45,18-80.48,7.6-128.68-11.99-55.58,29.44-99.51,45.7-148.91,21.73-66.02,5.82-123.84-.04-189.93-4.5-50.82-6.66-137.15,20.62-181.46,8.79-14.29,19.64-21.86,37.1-21.2ZM947.91,979.5c-34.85,5.88-40.86,84.09-41.94,111.29-3.64,91.97,33.75,185.97,2.29,274.34-15.7,44.09-49.49,81.19-45.51,130.99,3.6,45.12,53.27,87.34,14.98,132.73-9.95,11.8-40.66,23.7-44.82,31.77-9.1,17.65,20.75,12.35,29.8,8.72,37.75-15.15,63.76-55.13,52.74-96.03-11.78-43.75-34.84-56.88-23.11-109.73,11.04-49.71,42.21-84.73,48.07-140.69,9.48-90.53-29.17-192.07-4.98-280.37,7.06-25.75,22.95-43.06,47.15-53.86-10.41-6.38-22.13-11.29-34.68-9.17ZM948.2,1044.74c3.22-.29,6.22.94,9.39,1.16,39.67,2.83,103,2.54,137.88-17.62,12.08-6.99,19.03-13.65,5.17-24.43-40.9-31.82-138.15-15.32-152.44,40.89Z"/>
          <path class="cls-1" d="M947.91,979.5c12.55-2.12,24.27,2.79,34.68,9.17-24.2,10.8-40.09,28.11-47.15,53.86-24.19,88.3,14.46,189.84,4.98,280.37-5.86,55.96-37.03,90.98-48.07,140.69-11.74,52.85,11.32,65.98,23.11,109.73,11.02,40.9-14.99,80.88-52.74,96.03-9.05,3.63-38.91,8.93-29.8-8.72,4.16-8.07,34.87-19.97,44.82-31.77,38.29-45.39-11.38-87.61-14.98-132.73-3.97-49.8,29.81-86.91,45.51-130.99,31.47-88.37-5.92-182.37-2.29-274.34,1.08-27.2,7.09-105.41,41.94-111.29Z"/>
          <path class="cls-1" d="M958.19,965.9c-17.46-.66-28.3,6.91-37.1,21.2-27.27,44.31-25.12,130.64-20.62,181.46,5.85,66.1,21.77,123.91.04,189.93-16.26,49.4-57.7,93.33-45.7,148.91,10.4,48.21,55.18,93.24-7.6,128.68-29.41,16.61-41.5,8.49-71.67,9.37-11.68.34-46.8,12.79-45.95-8.19.79-19.57,40-11.11,51.5-10.6,24.91,1.1,62.32-.1,70.84-29.16,8.51-29-12.43-58.65-18.64-86.36-13.37-59.7,22.64-100.85,43.29-152.16,29.18-72.53,4.68-148.08,2.31-222.63-1.42-44.8.05-133.96,30.43-168.81,14.04-16.11,36.34-23.44,48.87-1.65Z"/>
          <path class="cls-3" d="M948.2,1044.74c14.29-56.21,111.54-72.71,152.44-40.89,13.86,10.78,6.92,17.44-5.17,24.43-34.88,20.16-98.21,20.45-137.88,17.62-3.16-.23-6.17-1.45-9.39-1.16Z"/>
        </g>
        <path class="cls-2" d="M871.04,1025.34s-45.04-10.84-41.71-52.55c3.34-41.71,35.03-83.41,97.59-90.09,62.56-6.67,137.63,0,159.32,22.52,21.69,22.52,50.05,48.38,30.86,94.26,0,0-56.72-52.55-114.28-19.19,0,0-10.01-15.01-24.19-14.18,0,0-22.52-29.2-43.38-24.19-20.85,5-56.72,17.52-64.23,83.41Z"/>
      </g>
      <rect class="cls-4" width="2048.06" height="2048.2"/>
    </g>
  </g>
</svg>