<?xml version="1.0" encoding="UTF-8"?>
<svg id="Layer_2" data-name="Layer 2" xmlns="http://www.w3.org/2000/svg" viewBox="0 0 2048.06 2048.2">
  <defs>
    <style>
      .cls-1 {
        opacity: 0;
      }
    </style>
  </defs>
  <g id="stitch">
    <g>
      <g>
        <path d="M917.52,928.78c20.57-.92,40.88,1.28,61.23,3.87,1.92-.47,7.66-24.87,14.08-25.33.76-.05,4.04.99,4.3,1.38,3.31,5.17-9.1,24.47-7.42,26.4l46.81,11.39c1.59-5.41,12.09-23.3,18.28-21.45,8.36,2.49-7.5,22.4-6.25,24.03l39.35,13.5c4.08-.43,10.63-23.96,17.45-22.27,10.75,2.67-6.36,26.47-5.45,27.71l40.32,15.05c1.08-4.79,17.77-30.49,22.83-22.45,4.32,6.81-16.22,27.33-13.76,30.21,7.82,2.25,30.59,13.3,34.64,19.33,2.35,3.49,4.82,10.18-1.76,7.96-6.51-2.19-34.72-19.36-38.38-18.31-5.98,8.05-8.36,19.71-18.55,23.96l8.82-30.35-43.02-15.25c-.59,4.62-7.4,22.01-13.27,20.26-7.21-2.15,6.53-23.08,5.66-24.05-11.3-.49-31.28-12.85-41.21-12.77-1.83.02-2.37.21-3.74,1.37-2.49,2.11-10.76,17.84-12.29,18.71-.98.56-4.11.62-5.22.32-7.05-1.86,9.4-19.94,7.45-24.17-1.3-1.64-36.43-9.89-40.67-10.1-2.44-.12-4.22-.33-6.36,1.21-6.11,4.4-8.49,24.4-17.46,21.51-7.73-2.49,6.97-21.54,9.32-25.21l-55.72-6.35v28.5l-5.18,2.6c-7.36-1.6-5.16-23.45-6.21-29.84-17.76.98-36,1-53.15,6.42-1.63,2.22,8.09,21.87,8.6,26.21.23,1.91.26,3.25-1.87,3.95-11.46,3.78-15.34-26.53-17.65-26.47l-51.15,15.31,8.64,23.57c.44,4.45-8.53,2.7-11.23,2.96,1.65-8.49-4.11-13.95-6.42-21.45-2.08-1.51-30.99,13.12-34.16,10.78-6.03-4.46,3.61-10.4,6.81-12.34,6.82-4.14,14.77-6.46,22.38-8.67-2.7-9.95-6.79-20.2-4.76-30.77.55-2.87,3.16-5.58,6.02-4.13,5.07,2.58,4.2,25.29,8.22,31.1,16.7-7.55,34.64-12.42,52.52-16.5,1.21-4.98-4.87-20.86,2.2-22.61,6.75-1.67,7.21,14.82,8.02,18.84l56.97-6.3c.03-5.49-.82-26.68,6.98-26.67,1.83,0,4.41,3.5,4.41,4.5v20.9Z"/>
        <path d="M1184.14,965.51c1.6-.33,8.89,7.27,10.03,8.94,5.99,8.79,11.3,30.29,3.88,39.15-1.91-1.7-2.84-4.04-3.77-6.34-2.69-6.67-11-30.31-11.82-36.38-.24-1.77-.42-4.94,1.67-5.37Z"/>
        <path d="M755.38,930.08c4.68,3.19-11.53,20.88-14.52,24.05-3.37,3.58-9.22,8.99-8-.33.82-6.29,16.68-27.71,22.52-23.72Z"/>
        <path d="M731.36,985.78c8.92-3.35,24.39,23.59,19.08,27.31-7.88,2.45-4.7-2.1-5.81-4.44-2.73-5.8-15.87-12.97-13.27-22.87Z"/>
        <path d="M1164.54,1054.12l-1.1-7.33,19.41-16.67c1.68,1.35,2.25,1.87,1.66,4.14-1.09,4.2-15.16,23.17-19.97,19.86Z"/>
      </g>
      <rect class="cls-1" width="2048.06" height="2048.2"/>
    </g>
  </g>
</svg>