<?xml version="1.0" encoding="UTF-8"?>
<svg id="Layer_2" data-name="Layer 2" xmlns="http://www.w3.org/2000/svg" viewBox="0 0 2048.06 2048.2">
  <defs>
    <style>
      .cls-1 {
        fill: #6c111d;
      }

      .cls-2 {
        fill: #c24136;
      }

      .cls-3 {
        opacity: 0;
      }
    </style>
  </defs>
  <g id="thirsty">
    <g>
      <g>
        <g>
          <path d="M1075.64,1093.22c-2.11,33.8,1.03,73.63-27.3,97.78-35.76,30.49-89.84,22.04-122.93-8.18-30.94-28.25-38.38-70.24-31.11-110.35-18.01-.16-36.09,1.09-53.91,3.43-8.71,1.14-19.47,4.66-27.61,5.22-2.11.15-3.36.48-4.75-1.55,28.22-10.36,57.93-18.82,88.3-15.99,3.55-14.05,8.29-26.13,16.54-38.07-26.2-3.98-52.15,4.79-78.11,6.53-34.8,2.34-87.01,2.36-84.63-46.4,3.03-62.06,95.74-78.32,143.58-80.35,69.12-2.94,196.86.28,251.25,47.05,33.37,28.7,46.34,88.45-9,99.07-19.38,3.72-27.74-3.46-44.62-5.06-8.72-.83-8.89,3.73-11.03,10.59-1.46,4.68-5.2,20.67-4.71,24.75.71,5.86,19.14,3.88,17.51,12.06-.97,4.88-16.85-1.17-17.47-.52ZM981.69,1062.09c-.61,6.06.45,12.95,0,19.12l-4.26-21.18c2.23-27.41,16.72-53.25,39.19-68.94-.02-2.29-11.28-3.56-13.65-3.81-73.85-7.8-102.05,60.5-97.8,124.01,3.81,56.83,56.88,99.83,113.12,82.45,68.92-21.31,28.46-115.77,56.85-156.16,6.26-8.9,11.72-8.25,21.48-6.32,8.08,1.6,38.88,15.18,24.24-4.58-16.13-21.77-64.42-35.23-90.29-31.49-26.3,3.81-46.47,42.94-48.89,66.89Z"/>
          <path class="cls-2" d="M981.69,1062.09c2.43-23.96,22.59-63.09,48.89-66.89,25.86-3.74,74.16,9.72,90.29,31.49,14.64,19.76-16.16,6.17-24.24,4.58-9.76-1.93-15.21-2.58-21.48,6.32-28.4,40.38,12.06,134.85-56.85,156.16-56.24,17.39-109.31-25.62-113.12-82.45-4.26-63.51,23.94-131.82,97.8-124.01,2.36.25,13.63,1.52,13.65,3.81-22.47,15.68-36.96,41.52-39.19,68.94l4.26,21.18c.45-6.16-.61-13.05,0-19.12Z"/>
        </g>
        <path class="cls-1" d="M916.63,1011.59s-27.65-2.77-51.15,2.07c-23.5,4.84-76.73,12.44-91.25-7.6-14.52-20.05-2.77-51.15,22.12-62.21,24.89-11.06,101.62-26.27,161.75-20.74,60.14,5.53,126.5,8.99,159.68,34.56,33.18,25.58,42.17,57.37,34.56,67.74-7.6,10.37-14.52,8.99-14.52,8.99,0,0-5.53-22.81-29.03-34.56-23.5-11.75-55.3-22.12-71.2-16.59,0,0-91.25-27.65-120.97,28.34Z"/>
      </g>
      <rect class="cls-3" width="2048.06" height="2048.2"/>
    </g>
  </g>
</svg>