<?xml version="1.0" encoding="UTF-8"?>
<svg id="Layer_2" data-name="Layer 2" xmlns="http://www.w3.org/2000/svg" viewBox="0 0 2048.06 2048.2">
  <defs>
    <style>
      .cls-1 {
        fill: #eeca98;
      }

      .cls-2 {
        opacity: 0;
      }
    </style>
  </defs>
  <g id="threeteeth">
    <g>
      <g>
        <path d="M1179.8,1087.97c1.47,3.55,3.45,7.1.45,10.49-6.96-2.15-21.19-25.76-27.31-32.79-78.74-90.33-207.66-118.62-314.43-60.32-37.8,20.64-80.66,53.74-94.72,95.85-5.95-4.79-1.88-15.99.34-22.21,10.76-30.08,41.14-51.26,65.04-70.28-.56-22.46-20.11-35.16-3.23-56.42,13.48-16.97,39.84-22.43,51.52-.94,3.77,6.93,7.89,19.45,5.18,26.9l27.14-7c4.75-20.84.67-49.96,18.65-65.35,13.44-11.5,39.3-12.23,49.18,4.03,10.24,16.83,1.65,34.11.64,51.95l19.13,1.37c1-32.94,17.37-68.33,56.38-54.34,14.72,5.28,24.49,17.38,25.45,33.36.58,9.71-9.08,29.86-4.07,36.79,1.81,2.51,14.89,7.63,18.78,9.9,15.86,9.25,30.44,18.94,44.81,30.32,27.54,21.84,61.07,68.68,61.07,68.68ZM900.89,937.98c-1.13,9.55.83,20.96,0,30.73l46.44-5.47c1.18-17.31,12.63-34.22-2-49.22-17.34-17.78-42.01,3.48-44.44,23.95ZM1040.22,975.54c1.41-19.14,15.68-42.62-8.14-54-29.39-14.05-46.81,17.83-40.41,43.14l48.54,10.86ZM818.95,1002.86c4.95-4.45,32.6-15.88,33.86-20.07,2.23-7.38-1.78-21.05-6.56-27.06-6.96-8.74-14.45-7.11-23.7-3.21-24.58,10.35-8.24,32.52-3.6,50.34Z"/>
        <path d="M1037.48,1067.06c-57.96-27.72-116.99-34.71-178.27-12.32-22.36,8.17-42.09,21.29-63.49,31.43-2.27-2.31,12.25-15.91,14.38-17.71,48.28-40.85,154.84-54.7,208.99-20.57,2.71,1.71,21.61,15.67,18.39,19.16Z"/>
        <path class="cls-1" d="M900.89,937.98c2.43-20.47,27.1-41.73,44.44-23.95,14.63,15,3.18,31.91,2,49.22l-46.44,5.47c.83-9.77-1.13-21.19,0-30.73Z"/>
        <path class="cls-1" d="M1040.22,975.54l-48.54-10.86c-6.4-25.31,11.01-57.19,40.41-43.14,23.82,11.39,9.54,34.86,8.14,54Z"/>
        <path class="cls-1" d="M818.95,1002.86c-4.64-17.81-20.98-39.98,3.6-50.34,9.25-3.89,16.74-5.53,23.7,3.21,4.78,6.01,8.79,19.68,6.56,27.06-1.26,4.18-28.91,15.62-33.86,20.07Z"/>
      </g>
      <rect class="cls-2" width="2048.06" height="2048.2"/>
    </g>
  </g>
</svg>