<?xml version="1.0" encoding="UTF-8"?>
<svg id="Layer_2" data-name="Layer 2" xmlns="http://www.w3.org/2000/svg" viewBox="0 0 2048.06 2048.2">
  <defs>
    <style>
      .cls-1 {
        fill: #eeca98;
      }

      .cls-2 {
        opacity: 0;
      }
    </style>
  </defs>
  <g id="tooth">
    <g>
      <g>
        <path d="M1194.52,1065.49c-3.38-2.82-9.02-17.76-12.02-22.78-11.63-19.47-25.47-32.58-45.47-43.45-11.45,36.1-47.65,78.58-89.5,58.38-33.18-16.02-32.29-63.77-22.38-93.95-46.8-4.17-93.26-5.35-139.58,3.42-47.42,8.97-113.98,33.01-146.41,69.97-6.42,7.31-11.21,21.8-23.84,19.35-10.35-7.53,18.29-39.65,24.6-45.27,96.24-85.73,342.1-93.93,437.91-5.25,12.63,11.68,31.79,38.1,27.8,56.01-1.34,6-6.53,7.39-11.1,3.59ZM1125.82,991.96c-20.35-7.86-40.54-16.62-61.81-21.94-5.43-1.36-27.95-8.08-29.74-2.42-2.01,6.34-2.19,23.9-1.76,30.96,1.42,23.71,12.92,50.08,40.79,48.1,23.71-1.69,46.4-33.75,52.53-54.7Z"/>
        <path class="cls-1" d="M1125.82,991.96c-6.13,20.95-28.82,53.01-52.53,54.7-27.87,1.98-39.36-24.39-40.79-48.1-.42-7.06-.25-24.62,1.76-30.96,1.79-5.66,24.31,1.07,29.74,2.42,21.27,5.31,41.46,14.07,61.81,21.94Z"/>
      </g>
      <rect class="cls-2" width="2048.06" height="2048.2"/>
    </g>
  </g>
</svg>