<?xml version="1.0" encoding="UTF-8"?>
<svg id="Layer_2" data-name="Layer 2" xmlns="http://www.w3.org/2000/svg" viewBox="0 0 2048.06 2048.2">
  <defs>
    <style>
      .cls-1 {
        opacity: 0;
      }
    </style>
  </defs>
  <g id="trace">
    <g>
      <g>
        <path d="M1171.77,1036.58c-8.5,3.05-16.18-5.05-23.76-8.4-28.99-12.83-59.44-22.31-90.37-29.37-67.96-15.52-204.23-33.29-266.6-2.3-9.06,4.5-49,35.84-53.27,34.59-7.3-2.13,5.08-16.94,7.46-19.84,16.93-20.6,45.93-34.11,71.51-39.97,78.84-18.07,261.03,3.43,333.12,42.65,4.92,2.68,26.35,15.5,21.9,22.64Z"/>
        <path d="M1163.74,1072.33c-3.21-5.17,12.4-11.2,15.78-19.05,10.15-23.56-4.31-42.97-15.66-61.6-.73-1.2-2.97-3.56-.94-4.57,28.38,7.23,52.04,57.66,28.87,79.83-5,4.79-24.67,10.86-28.06,5.39Z"/>
      </g>
      <rect class="cls-1" width="2048.06" height="2048.2"/>
    </g>
  </g>
</svg>