<?xml version="1.0" encoding="UTF-8"?>
<svg id="Layer_2" data-name="Layer 2" xmlns="http://www.w3.org/2000/svg" viewBox="0 0 2048.06 2048.2">
  <defs>
    <style>
      .cls-1 {
        fill: #eeca98;
      }

      .cls-2 {
        fill: #691b1f;
      }

      .cls-3 {
        fill: #0f0706;
      }

      .cls-4 {
        opacity: 0;
      }
    </style>
  </defs>
  <g id="wavy">
    <g>
      <g>
        <path class="cls-2" d="M1080.54,881.41c-24.03-13.9-34-1.25-47.91,17.73-2.28,3.11-8.52,15.21-10.47,16.4-9.41,5.76-17.95-17.62-22.2-23.85-7.96-11.67-22.84-26.24-38.2-23.85-23.32,3.64-22.47,49.21-40.01,48.25-4.77-.26-11.79-20.72-14.88-25.91-10.54-17.67-21.94-24.91-41.95-14.35-31.97,16.87-66.17,77.68-79.83,110.74-16.05,38.85-32.89,95.58,7.85,125.13,26.61,19.3,56.1,7.9,80.07-8.97,18.07-12.72,47.41-47.73,69.41-48.31,11.22-.29,22.5,24.26,35.64,24.25,13.4,0,22.84-27.59,37.73-23.74,11.97,3.09,28.54,29.16,39.73,38.31,41.86,34.22,103.71,19.23,107.22-39.55,2.91-48.72-38.83-147.18-82.21-172.29Z"/>
        <path class="cls-3" d="M867.2,1107.9c-2.52.53-5.05.91-7.52,1.15-3.33.32-6.56-.73-9.1-2.96-5.72-5.03-6.49-14.69-6.79-24.16-.02-.56-.03-1.06-.05-1.47-1.03-23.13,4.61-43.3,16.3-58.35l1.95-2.51,3.12-.64c7.9-1.62,12.29,5.83,20.67,21.46,5.35,9.97,11.35,22.11,15.73,30.97,2.42,4.9,4.51,9.13,5.33,10.62l-4.49-1.1-1.12,6.5c-1.73.8-6.61,7.19-8.34,8-9.57,4.53-14.63,10.18-25.69,12.48Z"/>
        <path class="cls-1" d="M896.24,1083.64c-11.62,5.38-23.06,11.56-36.13,12.81-5.74.55-5.64-13.78-5.83-18.24-.74-16.74,2.55-33.69,12.96-47.09,3.52-.72,25.5,46.12,29.01,52.51Z"/>
        <path d="M1150.65,953.37c-18.28-39.93-41.5-70.2-63.7-83.04-8.85-5.12-16.86-7.61-24.47-7.61-19.04,0-30.28,15.33-40.19,28.85-1.12,1.53-2.34,3.58-4.15,6.7-1.33-2.34-2.58-4.75-3.36-6.25-1.53-2.96-2.85-5.51-4.24-7.54-4.99-7.31-11.23-14.06-17.59-19.01-9.13-7.1-18.48-10.7-27.8-10.7-1.8,0-3.6.14-5.36.41-19.33,3.01-27.09,21.68-32.75,35.31-.79,1.9-1.81,4.36-2.86,6.66-.76-1.67-1.45-3.26-1.97-4.43-1.69-3.84-3.02-6.88-4.34-9.1-6.53-10.95-17.4-25.51-36.25-25.51-7.11,0-14.53,2.09-22.68,6.39-39.1,20.63-75.11,91.58-85.69,117.17-11.51,27.86-17.33,50.2-18.33,70.31-1.52,30.73,8.74,54.3,30.5,70.08,11.47,8.31,24.21,12.53,37.88,12.53,17.7,0,36.91-7.2,57.08-21.4,6.12-4.31,12.99-10.53,20.25-17.11,9.13-8.28,21.66-19.63,31.89-25.32l6.85-2.98c.85-.24,1.67-.42,2.44-.5,1.92,1.18,5.47,4.89,7.89,7.41,7.18,7.48,16.11,16.78,28.36,16.78,11.83,0,19.89-8.86,26.38-15.97,2.28-2.51,6.42-7.05,8.48-8.04,4.21,1.94,13.43,12.77,18.46,18.68,5.62,6.6,10.92,12.83,16.03,17,16.54,13.53,36.67,20.98,56.68,20.98h0c18.39,0,35.53-6.37,48.26-17.92,13.89-12.6,21.9-30.5,23.17-51.76,1.55-25.89-7.76-63.68-24.88-101.1ZM1162.75,1053.7c-3.51,58.78-65.37,73.77-107.22,39.55-11.19-9.15-27.76-35.22-39.73-38.31-14.89-3.85-24.33,23.74-37.73,23.74-13.13,0-24.41-24.55-35.64-24.25-6.29.16-13.18,3.15-20.24,7.62-19.63,11.05-57.96,36.44-73.7,45.44-19.66,11.23-55.54,4.23-55.54,4.23h0s0,0,0,0c-40.74-29.54-23.9-86.28-7.85-125.13,13.66-33.05,47.85-93.87,79.83-110.74,20.01-10.56,31.41-3.32,41.95,14.35,3.09,5.18,10.12,25.65,14.88,25.91,17.54.96,16.69-44.62,40.01-48.25,15.36-2.39,30.24,12.17,38.2,23.85,4.24,6.22,12.79,29.61,22.2,23.85,1.95-1.19,8.19-13.29,10.47-16.4,13.91-18.97,23.88-31.63,47.91-17.73,43.39,25.1,85.12,123.57,82.21,172.29Z"/>
        <path class="cls-3" d="M1033.91,1085.42l.6,2.6c.98,4.26,4.25,6.46,11.47,10.47,4.18,2.32,9.87,5.25,16.02,8.25,24.12,11.77,27.64,11.77,29.34,11.77.33,0,.65-.02.97-.05,3.41-.35,6.41-2.18,8.46-5.17,2.38-3.47,4.87-10.03,2.96-30.11-1.05-11.08-2.98-21.45-3.94-24.97-1.3-4.72-7.52-16.97-11.38-24.05,0,0-12.29-18.1-16.01-20.81-3.72-2.71-7.46-.5-10.16,4.91-2.71,5.41-30.26,63.11-28.32,67.16Z"/>
        <path class="cls-1" d="M1069.36,1025.32c3.36.02,18.81,30.1,20.26,35.36,1.71,6.21,7.65,42.87.02,43.65-3.15.32-42.37-18.67-42.9-21.01l22.63-58Z"/>
      </g>
      <rect class="cls-4" width="2048.06" height="2048.2"/>
    </g>
  </g>
</svg>