<?xml version="1.0" encoding="UTF-8"?>
<svg id="Layer_2" data-name="Layer 2" xmlns="http://www.w3.org/2000/svg" viewBox="0 0 2048.06 2048.2">
  <defs>
    <style>
      .cls-1 {
        fill: #c24136;
      }

      .cls-2 {
        opacity: 0;
      }
    </style>
  </defs>
  <g id="yumi">
    <g>
      <g>
        <path d="M1101.86,991.33c24.97-6.18,49.41-17.12,67.28-35.99-4.47-3.22-12.78-8.34-7.75-14.48,4.39-5.36,11.74-2.11,16.59.94,9.54,5.99,27.5,28,25.43,39.73-1.72,9.71-13.48-4.8-15.7-7.74s-3.76-6.44-6.11-9.35c-9.55,10.11-21.28,19.02-33.53,25.67-5.81,3.15-14.92,5.59-18.91,10.69s-6.39,11.08-11.48,16.78c-66.82,74.97-235.4,72.88-300.15-4.04-7.12-8.46-9.39-18.27-15-26.71-4.35-6.55-26.27-17.55-34.1-23.77-6.34-5.04-11.67-11.28-17.85-16.5-1.24-.79-1.98.62-2.58,1.49-2.76,4.03-6.08,19.72-10.69,20.98-6.08,1.66-7.23-9.07-6.91-13.02.83-10.06,12.26-26.61,21.05-31.42,14.78-8.09,19.82,4.2,7.89,13.26,32.33,27.73,70.68,48.87,111.85,60.39,3.65,1.02,13.69,4.32,16.83,3.73,2.61-.48,10.32-6.88,12.63-8.95,19.88-17.84,24.77-43.43,40.09-64.2,50.5-68.46,167.26-41.51,162.45,50.05-.11,2.01-1.96,11.59-1.33,12.45ZM972.65,1058.6c24.41-1.81,49.95-5.36,72.84-14.29,19.04-7.42,31.36-17.64,39.19-36.84,28.01-68.7-32.02-125.14-99.6-98.9-35.36,13.73-42.3,43.56-59.67,72.87-11.13,18.77-27.05,34.81-49.38,38.78-1.06,1.42,2.91,8.7,3.89,10.33,13.49,22.51,49.16,30.06,73.22,24.35,35.3-8.38,63.57-42.67,68.56-78.12.99-7,.23-17.82,2.13-24.1,1-3.3,2.81-1.08,3.67.97,10.4,24.71-6.3,63.56-23.87,81.76-9.28,9.61-20.18,15.66-30.97,23.19Z"/>
        <path d="M1032.54,1088.88c2.8,2.72-10.2,8.56-11.87,9.32-41.34,18.74-110.96,14.55-148.78-11.19-6.82-4.64-15.93-11.68-18.35-19.66,1.65-1.07,13.94,7.55,16.37,8.85,39.1,21.01,87.74,24.68,131.24,18.63,10.57-1.47,20.88-4.22,31.38-5.95Z"/>
        <path class="cls-1" d="M972.65,1058.6c10.79-7.53,21.69-13.58,30.97-23.19,17.58-18.2,34.28-57.05,23.87-81.76-.86-2.05-2.67-4.27-3.67-.97-1.9,6.29-1.15,17.1-2.13,24.1-4.99,35.45-33.26,69.74-68.56,78.12-24.06,5.71-59.73-1.84-73.22-24.35-.98-1.63-4.95-8.91-3.89-10.33,22.33-3.97,38.26-20.01,49.38-38.78,17.37-29.31,24.31-59.14,59.67-72.87,67.58-26.24,127.61,30.19,99.6,98.9-7.83,19.2-20.15,29.42-39.19,36.84-22.89,8.93-48.44,12.48-72.84,14.29Z"/>
      </g>
      <rect class="cls-2" width="2048.06" height="2048.2"/>
    </g>
  </g>
</svg>