<?xml version="1.0" encoding="UTF-8"?>
<svg id="Layer_2" data-name="Layer 2" xmlns="http://www.w3.org/2000/svg" viewBox="0 0 2048.06 2048.2">
  <defs>
    <style>
      .cls-1 {
        fill: #fff;
      }

      .cls-2 {
        opacity: .3;
      }

      .cls-3 {
        opacity: 0;
      }
    </style>
  </defs>
  <g id="booorr">
    <g>
      <g>
        <path d="M1440.61,711.68c-90.58,94.63-228.72,83.54-302.32-25.81-4.25-6.31-7.39-13.36-12.15-19.28.11,4.69.48,10.28,1.78,14.76,5.32,18.27,21.03,39.88,33.7,53.58,19.69,21.29,67.12,47.64,95.29,52.83,26.89,4.96,70.05,4.94,95.88-3.22,47.21-14.92,84.1-43.06,107.33-88.84,2.48-4.89,5.97-10.19,5.36-15.82-9.52,9.76-15.28,21.78-24.88,31.81Z"/>
        <path d="M1398.1,782.77c-29.37,19.6-73.49,29.22-108.32,27.17-10.73-.63-21.07-3.39-31.52-5.54-1.05-.22-2.86-.67-2.1,1.21,1.8,4.46,14.77,12.51,19.37,14.24,40.48,15.19,94.33-2.47,124.97-31.76,2.03-1.94,13.57-12.82,11.5-15.21-.62-.72-12.35,8.84-13.91,9.88Z"/>
        <path d="M1137.65,733.97c-1.76-1.74-4.9-2.41-5.09-5.69-5.95,1.12-1.26,8.81.46,12.35,5.66,11.65,16.49,22.95,26.92,30.18,7.14,4.95,26.16,16.69,28.82,2.14-6.09-2.72-13.69-6.19-18.82-10.54-10.89-9.24-22.02-18.3-32.3-28.45Z"/>
        <path class="cls-1" d="M1461.57,625.47c-56.31,145.6-287.02,135.53-329.13-14.68-1.63-5.8-7.85-28.76-3.3-32.53,3.78-3.13,22-5.73,27.59-6.47,23.59-3.1,46.8-8.16,70.25-8.32,0,0,69.43-2.4,69.91,2.54-2.94,16.29.57,37.27,14.84,46.89,24.32,16.4,56.34,4.08,67.13-22.81,0,0,3.83-6,12.28-3.7,14.8,4.03,27.77,8.28,42.14,13.73,4.79,1.82,29.71,11.36,30.73,14.93.76,2.66-1.42,7.72-2.46,10.41Z"/>
        <path d="M1486.3,602.49c-.67-3.76-.63-9.2,1.88-12.26,3.86-4.73,4.45-13.46,3.76-16.67-.69-3.21-8.66-5.35-9.33-8.2s-1.4-19.97-1.4-19.97c-4.16-39.93-41.99-77.37-41.99-77.37-57.67-46.53-98.19-61.77-187.8-42.3-89.62,19.47-111.44,98.46-118.48,100.86-7.04,2.41-9.32,2.41-17.11,17.65-7.79,15.24-1.2,17.92-1.2,17.92-11.74,2.12-26.12,6.44-35.44,14.3-5.48,4.62-13.02,13.35-8.17,20.92,4.47.14,8.39-2.09,12.55-3.17.93-.24,1.06-1.21,2.09.23,1.62,7.13-.86,14.11-.37,21.27.34,4.95,2.05,11.7,3.09,16.74,4.06,19.6,10.77,36.92,26.76,49.34.97-.69.45-3.01.34-4.15-1.91-19.67-10.94-41.27-11.03-61.81-.02-4.34,1.34-8.38,1.03-13.32-.48-7.71-5.75-15.29,5.49-17.52,2.45,25.47,8.67,51.07,21.75,73,30.5,51.12,88.55,80.89,145.64,86.43,32.24,3.13,59.21-2.65,89.92-9.94,24.3-5.77,63.21-35.36,79.77-54.57,14.74-17.1,24.31-35.39,31.95-56.8,6.48-1.04,12.77,3.28,19.11.68,4.05-9.97-11.86-16.05-12.8-21.29ZM1461.57,625.47c-56.31,145.6-287.02,135.53-329.13-14.68-1.63-5.8-7.85-28.76-3.3-32.53,3.78-3.13,22-5.73,27.59-6.47,23.59-3.1,46.8-8.16,70.25-8.32,0,0,69.43-2.4,69.91,2.54-2.94,16.29.57,37.27,14.84,46.89,24.32,16.4,56.34,4.08,67.13-22.81,0,0,3.83-6,12.28-3.7,14.8,4.03,27.77,8.28,42.14,13.73,4.79,1.82,29.71,11.36,30.73,14.93.76,2.66-1.42,7.72-2.46,10.41ZM1481.42,586.09c-.87,2.78-1.73,5.56-2.6,8.34-.16.5-.4.96-.65,1.42-4.34,8.01-50.19-17.65-50.19-17.65-64.34-25.83-124.37-29.79-192.48-30.55-16.3-.18-81.9,9.67-81.9,9.67-2.94.44-20.94,7.23-20.94,7.23-.61.08-1.21.02-1.77-.28-1.24-.67-1.72-2.22-2.04-3.62-.68-3.02-1.11-6.1-1.31-9.2-.07-1.07-.1-2.18.32-3.16.43-1.01,1.3-1.75,2.13-2.45,1.45-1.22,2.92-2.45,4.42-3.64.46-.27,1.03-.71,1.76-1.35,0,0,0,0,0,0,.52-.39,1.04-.77,1.57-1.14,10.12-6.24,38.98-5.92,55.58-10.61,21.73-6.14-29.22-2.3-48.25-.72,14.69-28.98,40.78-59.57,64.17-75.11,65.26-43.37,162.94-34.6,220,19.71,20.91,19.9,37.39,49.69,43.22,78.43.29,1.43.57,2.91.85,4.41-6.65,1.07-19.46,6.13-14.01,7.08,6.75,1.17,17.38,5.82,17.38,5.82,3.17,3.21,6.03,7.3,5.9,11.88-.06,1.88-.62,3.71-1.18,5.5Z"/>
        <g class="cls-2">
          <path d="M1128.86,560.67c.31,1.41.8,2.96,2.04,3.62.55.3,1.16.36,1.77.28,0,0,18-6.79,20.94-7.23,0,0,65.6-9.85,81.9-9.67,68.11.75,128.13,4.72,192.48,30.55,0,0,45.85,25.66,50.19,17.65.25-.46.49-.92.65-1.42.87-2.78,1.73-5.56,2.6-8.34.56-1.79,1.12-3.62,1.18-5.5.13-4.58-2.73-8.67-5.9-11.88,0,0-10.62-4.64-17.38-5.82-5.46-.95,7.36-6.01,14.01-7.08-.28-1.5-.56-2.98-.85-4.41-5.83-28.74-22.31-58.53-43.22-78.43-57.06-54.31-154.74-63.08-220-19.71-23.39,15.55-49.48,46.14-64.17,75.11,19.03-1.58,69.98-5.42,48.25.72-16.6,4.69-45.46,4.38-55.58,10.61-.53.37-1.05.75-1.57,1.14,0,0,0,0,0,0-.72.65-1.3,1.08-1.76,1.35-1.5,1.19-2.97,2.41-4.42,3.64-.83.7-1.69,1.44-2.13,2.45-.42.98-.39,2.09-.32,3.16.2,3.1.64,6.18,1.31,9.2Z"/>
        </g>
      </g>
      <rect class="cls-3" width="2048.06" height="2048.2"/>
    </g>
  </g>
</svg>