<?xml version="1.0" encoding="UTF-8"?>
<svg id="Layer_2" data-name="Layer 2" xmlns="http://www.w3.org/2000/svg" viewBox="0 0 2048.06 2048.2">
  <defs>
    <style>
      .cls-1 {
        fill: #fff;
      }

      .cls-2 {
        opacity: .3;
      }

      .cls-3 {
        opacity: 0;
      }
    </style>
  </defs>
  <g id="daaah">
    <g>
      <g>
        <path d="M1503.44,592.91c-4.12,3.93-11.5,3.25-16.68,3.51-5.64,21.82-19.59,41.41-33.95,58.44-56.09,66.52-148.35,94.57-230.73,61.04-65.59-26.7-104.76-90.61-104.05-161.01-14.94,4.25-27.93-5-20.39-20.9,2.68-5.65,6.91-6.38,10.33-9.86,4.86-4.94,12.87-40.65,18.6-52.08,73.71-147.09,311.2-125.63,360.31,30.57,4.53,14.4,6.9,29.89,11.35,44.19,4.09,13.15,17.99,33.91,5.21,46.1ZM1490.65,545.8c-8.93-124.86-167.02-201.42-275.34-146.57-35.18,17.81-78.27,58.79-89.22,97.59-2.83,10.03-.45,21.07-7.06,28.28-3.23,3.52-14.65,10.31-13.18,16.09,4.26,2.53,9.61,1.06,14.24.11,15.52-3.19,30.84-11.19,46.2-15.4,76.95-21.09,193.64-6.88,266.16,26.11,16.99,7.73,32.37,18.61,49.1,26.63,5.12,2.46,15.66,9.11,17.11-.08,2.62-16.59-15.16-32.35-26.18-42.35,3.53-2.3,17.54,10.43,18.16,9.6ZM1298.74,535.75c-42.34-1.73-85.28-6.38-127.38,1.28-13.74,2.5-28.81,6.48-40.22,14.53-4.45,128.25,130.06,197.87,241.72,147.56,34.17-15.39,70.35-47.8,89.94-79.7,2.36-3.85,13.75-24.23,12.26-27.18-24.32-15.82-51.11-28.58-78.86-37.45l-1.3.26c-21.43,47.25-92.93,30.73-96.16-19.31Z"/>
        <path d="M1107.54,629.94c8.34,32.33,25.74,65.02,47.49,90.34,58.81,68.45,163.47,89.35,245.03,50.18,5.34-2.56,16.68-10.89,21.02-11.31,1.49-.14,2.96-.58,2.53,1.52-43,42.54-113.27,48.4-169.65,34.35-64.1-15.98-117.9-61.8-140.1-124.45-2.99-8.44-8.78-25.82-9.28-34.23-.07-1.16.85-8.93,2.96-6.41Z"/>
        <path d="M1253.36,745.7c-.26-1.72,2.41-1.08,3.51-.99,46.5,3.93,110.68,4.35,150.3-23.42,13.27-9.3,36.5-30.48,47.17-42.7,11.31-12.95,19.42-31.1,31.27-43.94-4.58,22.94-19.3,44.54-34.81,61.6-42.45,46.7-89.11,64.04-152.54,60.61-15.27-.83-31.52-3.49-44.89-11.16Z"/>
        <path d="M1125.11,647.77c17.55,20.62,30.24,45.8,50.47,64.13,3.57,3.24,9.61,6.62,12.62,9.59,3.2,3.15-2.72,4.14-5,4.08-15.96-.48-35.97-33.08-43.13-45.82-5.74-10.2-11.31-20.82-14.96-31.98Z"/>
        <path d="M1236.43,757.35l3.27-.75,59.31,14.39c-1.21,1.76-2.58,1.63-4.48,1.55-8.85-.39-24.15-2.47-32.69-4.74-8.94-2.37-16.5-8.05-25.41-10.45Z"/>
        <path class="cls-1" d="M1298.74,535.75c3.23,50.04,74.73,66.56,96.16,19.31l1.3-.26c27.75,8.88,54.54,21.63,78.86,37.45,1.5,2.95-9.89,23.33-12.26,27.18-19.59,31.9-55.77,64.31-89.94,79.7-111.67,50.31-246.18-19.31-241.72-147.56,11.41-8.06,26.49-12.03,40.22-14.53,42.1-7.66,85.04-3.01,127.38-1.28Z"/>
        <path class="cls-2" d="M1490.65,545.8c-.62.84-14.63-11.9-18.16-9.6,11.02,9.99,28.8,25.76,26.18,42.35-1.45,9.19-11.99,2.54-17.11.08-16.73-8.03-32.1-18.91-49.1-26.63-72.52-32.98-189.21-47.2-266.16-26.11-15.36,4.21-30.68,12.21-46.2,15.4-4.63.95-9.98,2.42-14.24-.11-1.47-5.79,9.96-12.58,13.18-16.09,6.61-7.21,4.23-18.25,7.06-28.28,10.95-38.79,54.04-79.77,89.22-97.59,108.31-54.84,266.41,21.71,275.34,146.57Z"/>
      </g>
      <rect class="cls-3" width="2048.06" height="2048.2"/>
    </g>
  </g>
</svg>