<?xml version="1.0" encoding="UTF-8"?>
<svg id="Layer_2" data-name="Layer 2" xmlns="http://www.w3.org/2000/svg" viewBox="0 0 2048.06 2048.2">
  <defs>
    <style>
      .cls-1 {
        fill: #fff;
      }

      .cls-2 {
        opacity: .3;
      }

      .cls-3 {
        opacity: 0;
      }
    </style>
  </defs>
  <g id="ddduu">
    <g>
      <g>
        <g>
          <path d="M1486.86,552.09c4.82.35,9.47,4.49,9.47,4.49,2.17,0,5.78,38.84-1.44,40.39-7.22,1.55-11.56.78-15.17,11.65s-4.31,64.02-52.01,98.04c-81.61,58.21-205.67,50.42-273.35-25.79l-18.54-29.52c8.48,31.97,23.59,64.8,48.41,84.64,24.44,19.53,76.24,43.78,106.4,46.9,12.91,1.34,29.24,0,42.62,0,1.3,0,10.1-5.24,11.07-.02-45.44,16.96-92.94,6.98-135.27-14.9-60.69-31.37-82.9-86.84-89.12-159.34,0,0-.96-8.03-6.5-6.73s-12.76-27.97-12.52-34.96c0,0,.96-7.51,11.32-10.62,10.36-3.11,20.01-9.73,20.01-9.73,47.73-85.96,158.95-105.64,243.15-80.27,0,0,59.6,14.09,85.55,46.76,16.46,20.72,21.11,38.67,25.93,39.01ZM1221.97,485.46c-29.77,8.32-61.03,39.36-70.67,49.02-9.63,9.67-16.38,18.64,8.67,9.67s60.05-4.49,59.08-1.73-28.26,4.14-47.52,8.29c-19.27,4.14-40.14,8.63-48.81,14.85-8.67,6.21-2.89,17.95-2.89,17.95,2.25,10.36,3.85,13.12,14.45,7.94,10.6-5.18,42.62-11.48,42.62-11.48,71.44-13.24,176-11.9,248.15-2.11,0,0,42.38,7.72,47.68,8.75,0,0,10.11,2.59,12.04-2.59s.96-20.2-3.37-21.23c-4.33-1.04-21.67-6.21-26.49-7.77s5.78-7.25,14.93-6.73c9.15.52-65.61-113.76-247.86-62.83ZM1470.27,601.62l-70.57-7.51-79.24-1.85c-2.65,46.11-75.96,49.93-78.43,1.84-11.95-3.19-108.14,11.8-109.23,17.64,14.2,87.74,111.07,126.62,185.17,121.73,68.87-4.55,148.65-49.47,152.3-131.85Z"/>
          <path class="cls-1" d="M1470.27,601.62c-3.66,82.38-83.43,127.31-152.3,131.85-74.1,4.89-170.97-33.98-185.17-121.73,1.09-5.85,97.28-20.84,109.23-17.64,2.47,48.09,75.78,44.27,78.43-1.84l79.24,1.85,70.57,7.51Z"/>
          <path d="M1323.86,821.39c1.01,4.86-2,3.7-5.05,4.54-43.72,11.99-91.06-6.56-126.05-34.95-9.15-7.42-19.56-16.56-24-28.24,3.12-.73,4.72,1.05,7.07,2.46,11.65,6.94,23.51,18.04,36.09,25.34,35.22,20.43,71.59,31.14,111.94,30.86Z"/>
        </g>
        <g class="cls-2">
          <path d="M1484.81,584.05c1.93-5.18.96-20.2-3.37-21.23-4.33-1.04-21.67-6.21-26.49-7.77-4.82-1.55,5.78-7.25,14.93-6.73,9.15.52-65.61-113.76-247.86-62.83-29.77,8.32-61.03,39.36-70.67,49.02-9.63,9.67-16.38,18.64,8.67,9.67,25.05-8.98,60.05-4.49,59.08-1.73-.96,2.76-28.26,4.14-47.52,8.29-19.27,4.14-40.14,8.63-48.81,14.85-8.67,6.21-2.89,17.95-2.89,17.95,2.25,10.36,3.85,13.12,14.45,7.94,10.6-5.18,42.62-11.48,42.62-11.48,71.44-13.24,176-11.9,248.15-2.11,0,0,42.38,7.72,47.68,8.75,0,0,10.11,2.59,12.04-2.59Z"/>
        </g>
      </g>
      <rect class="cls-3" width="2048.06" height="2048.2"/>
    </g>
  </g>
</svg>