<?xml version="1.0" encoding="UTF-8"?>
<svg id="Layer_2" data-name="Layer 2" xmlns="http://www.w3.org/2000/svg" viewBox="0 0 2048.06 2048.2">
  <defs>
    <style>
      .cls-1 {
        fill: #fff;
      }

      .cls-2 {
        opacity: .3;
      }

      .cls-3 {
        opacity: 0;
      }
    </style>
  </defs>
  <g id="duuun">
    <g>
      <g>
        <path class="cls-1" d="M1341.35,585.91c18.85,3.2,37.97,4.57,56.82,8.01,18.07,3.3,36.18,8.05,53.84,13.44-5.29,39-27.68,74.57-54.62,97.52-58.48,49.81-142.09,45.85-199.74-3.87-29.38-25.34-55.63-67.08-56.39-111.21l66.96-7.76c5.92,1.11,32.66-2.24,34.83,1.85,7.59,58.84,88.63,60.33,98.3,2.03Z"/>
        <path d="M1146.22,690.54c20.98,51.56,69.66,84.07,117.02,92.48,28.65,5.08,55.36,1.73,82.89-8.41,2.58-.95,4-2.09,3.47,2.12-54.76,44.44-152.81,17.26-190.83-43.72-5.61-9-15.46-28.68-15.87-39.55-.15-3.86.33-3.09,3.33-2.92Z"/>
        <path d="M1479.53,573.91c0-5.69-5.82-9.46-9.83-12.23-1.87-44.7-17.65-78.23-44.06-114.24-76.56-104.37-225.78-80.04-274.44,44.51-2.3,3.11-1.79-1.99-1.34-3.48,3.02-10.19,8.6-23.65,11.84-34.01,7.96-25.51,52.11-51.09,15.31-38.05-36.8,13.05-54.96,125.42-55.89,134.12-.93,8.7-3.03,14.79-9.21,17.01-6.19,2.21-6.46,16.9-2.13,21.62,4.33,4.71,8.59,1.58,13,.71,12.47-2.45,7.47,4.43,10.39,13.11,4.23,41.76,36.65,99.8,66.12,121.33,77.71,56.75,187.66,42.89,243.62-45.53,13.32-21.05,21.51-43.78,25.27-67.05,12.93,2.12,11.36-29.37,11.36-37.81ZM1397.4,704.88c-58.48,49.81-142.09,45.85-199.74-3.87-29.38-25.34-55.63-67.08-56.39-111.21l66.96-7.76c5.92,1.11,32.66-2.24,34.83,1.85,7.59,58.84,88.63,60.33,98.3,2.03,18.85,3.2,37.97,4.57,56.82,8.01,18.07,3.3,36.18,8.05,53.84,13.44-5.29,39-27.68,74.57-54.62,97.52ZM1443.81,586.12c-25.68-6.28-52.72-12.52-78.74-16.23-73.84-10.53-148.64-6.99-222.21,3.67.09-5.04.44-10.14,1.01-15.24.01,0,21.18-8.87,42.79-9.22,21.62-.35,8.15-7.8-4.96-7.8-9.14,0-24.81-2.23-34.79-1.55,1.88-8.83,4.34-17.47,7.23-25.65,60.9-172.56,279.88-144.36,301.22,44.27-9.95-3.44-26.27,4.16-18.52,3.83,6.52-.27,14.75,4.47,18.6,6.2,0,0,9.34,4.06,9.17,8.03-.12,2.96.25,6.95-.14,9.67-.58,4.1-7.57,3.2-20.66,0Z"/>
        <g class="cls-2">
          <path d="M1365.07,569.89c26.02,3.71,53.06,9.95,78.74,16.23,13.09,3.2,20.08,4.1,20.66,0,.38-2.72.01-6.71.14-9.67.16-3.98-9.17-8.03-9.17-8.03-3.85-1.74-12.09-6.47-18.6-6.2-7.74.32,8.58-7.28,18.52-3.83-21.34-188.63-240.32-216.83-301.22-44.27-2.89,8.18-5.35,16.82-7.23,25.65,9.98-.68,25.66,1.55,34.79,1.55,13.11,0,26.58,7.44,4.96,7.8-21.61.35-42.77,9.22-42.79,9.22-.57,5.1-.92,10.2-1.01,15.24,73.56-10.67,148.36-14.21,222.21-3.67Z"/>
        </g>
      </g>
      <rect class="cls-3" width="2048.06" height="2048.2"/>
    </g>
  </g>
</svg>