<?xml version="1.0" encoding="UTF-8"?>
<svg id="Layer_2" data-name="Layer 2" xmlns="http://www.w3.org/2000/svg" viewBox="0 0 2048.06 2048.2">
  <defs>
    <style>
      .cls-1 {
        fill: #fff;
      }

      .cls-2 {
        opacity: .3;
      }

      .cls-3 {
        opacity: 0;
      }
    </style>
  </defs>
  <g id="eeeerr">
    <g>
      <g>
        <path d="M1420.93,734.09c2.53,3.41-14.54,21.09-17.69,23.83-18.66,16.27-47.7,28.29-71.68,32.62-59.93,10.8-136.51-5.86-169.48-63.03,0-2.19,9.34,3.25,10.15,3.74,10.9,6.56,19.94,15.78,31.52,22.28,50.52,28.36,114.73,31.57,167.95,9.42,17.62-7.33,33.23-18.53,49.23-28.86Z"/>
        <path class="cls-1" d="M1335.31,588.11c45.15,8.85,91.94,16.09,132.74,39.01-48.62,137.91-292.6,142.02-327.34-7.37-1.28-5.52-2.92-12.7-2.38-18.01,1.8-2.08,40.29-9.29,46.2-10.26,16.49-2.72,33.02-4.66,49.75-5.25,1.95.67,2.16,10.05,2.89,13.24,12.49,54.57,96.65,44,98.14-11.36Z"/>
        <path d="M1502.68,573.7c-1.63-12.92-16.85-12.36-16.85-12.36-4.23-2.93-5.44-22.12-5.44-22.12-2.07-16.76-36.96-149.24-177.25-139.16-144.49,10.38-162.28,133.84-162.28,133.84,0,0-.72,7.09-4.35,7.84s-11.23,6.72-14.13,10.45c-2.9,3.73-4.67,18.23-3.6,29.83-1.97-15.33-3.31-31.12-8.92-45.57-4.67-.81-5.67,5.3-6.54,8.87-10.81,44.51-4.46,104.32,24.34,140.58,1.02,1.28,6.33,7.92,6.86,8.15,4.01,1.74.49-13.76.13-15.35-2.6-11.72-8.13-22.83-10.69-34.61-1.02-4.69-5.42-34.47-4.08-36.59l7.74-2.16c1.02,42.67,24.09,80.48,56.78,105.24,4.26,3.23,8.99,6.11,13.49,8.82,50.83,30.58,110.23,36.04,166.46,18.76,38.45-11.82,84.18-38.44,102.71-76.68,0,0,10.87-19.5,14.4-24.26,0,0,4.89-15.4,8.7-15.96,0,0,4.89-1.68,10.33-11.76,5.44-10.08,3.8-22.88,2.17-35.8ZM1140.72,619.74c-1.28-5.52-2.92-12.7-2.38-18.01,1.8-2.08,40.28-9.29,46.2-10.26,16.49-2.72,33.02-4.66,49.75-5.25,1.95.67,2.16,10.05,2.89,13.24,12.49,54.57,96.65,44,98.14-11.36,45.15,8.85,91.94,16.09,132.74,39.01-48.62,137.91-292.6,142.02-327.34-7.37ZM1486.37,605.58c-2.17,1.68-12.28-2.27-12.28-2.27-52.76-23.03-109.32-39.9-166.84-44.59-56.17-4.59-112.28,3.93-166.82,16.21,0,0-9.71,3.02-11.52,1.9s-2.9-15.68,0-19.79c2.9-4.11,3.79-2.99,9.32-5.23,0,0,59.53-16.43,88.51-17.55,28.99-1.12,28.99-11.57,6.52-9.71-20.43,1.7-69.61,4.63-81.64,6.27,14.18-39.67,36.37-72,72.55-95.22,78.36-50.29,182.55-30.24,227.79,55.14,6.74,12.72,22.12,53.06,22.12,66.42,0,0,0,.23,0,.62-4.27-3.05-10.95-6.26-24.14-8.98-19.93-4.11-21.74,2.61-8.7,6.72,13.04,4.11,44.66,18.14,44.66,18.15,3.63,4.35,4.26,12.24,4.26,15.64,0,4.48-1.63,14.56-3.8,16.24Z"/>
        <g class="cls-2">
          <path d="M1307.25,558.72c57.51,4.7,114.08,21.56,166.84,44.6,0,0,10.11,3.95,12.28,2.27s3.8-11.76,3.8-16.24c0-3.4-.63-11.29-4.26-15.64,0,0-31.61-14.04-44.66-18.15-13.05-4.11-11.23-10.83,8.7-6.72,13.19,2.72,19.87,5.93,24.14,8.98-.01-.39,0-.62,0-.62,0-13.36-15.38-53.7-22.12-66.42-45.24-85.38-149.43-105.43-227.79-55.14-36.17,23.22-58.37,55.55-72.55,95.22,12.02-1.64,61.21-4.57,81.64-6.27,22.47-1.87,22.47,8.59-6.52,9.71-28.99,1.12-88.51,17.55-88.51,17.55-5.54,2.24-6.42,1.12-9.32,5.23-2.9,4.11-1.81,18.67,0,19.79s11.52-1.9,11.52-1.9c54.54-12.28,110.65-20.8,166.82-16.21Z"/>
        </g>
      </g>
      <rect class="cls-3" width="2048.06" height="2048.2"/>
    </g>
  </g>
</svg>