<?xml version="1.0" encoding="UTF-8"?>
<svg id="Layer_2" data-name="Layer 2" xmlns="http://www.w3.org/2000/svg" viewBox="0 0 2048.06 2048.2">
  <defs>
    <style>
      .cls-1 {
        fill: #fff;
      }

      .cls-2 {
        opacity: .3;
      }

      .cls-3 {
        opacity: 0;
      }
    </style>
  </defs>
  <g id="gggn">
    <g>
      <g>
        <g class="cls-2">
          <path d="M1120.4,574.48c-4.46,3.68-4.5,3.19-6.3,6.04-1.8,2.85.65,9.2,3.66,10.71,2.69,1.35,5.84-.28,8.43-1.81,3.3-1.95,6.66-3.79,10.06-5.53,8.18-2.57,16.93-3.96,25.35-5.2,63.9-9.37,138.04-8.82,201.86,1.52,33.98,5.51,67.56,14.86,99.2,28.68,0,0,10.15,4.29,13.38-1.24,1.74-2.97,3.94-5.76,2.68-8.96-1.26-3.2-3.79-5.79-6.56-7.83-11.74-8.65-51.14-22.54-51.14-22.54,13.27-3.75,27.55-3.83,40.88-.33-3.64-43.54-16.95-85.46-45.4-119.01-52.91-62.39-142.34-73.5-207.96-25.58-42.07,30.72-66.28,80.77-72.6,133.14,18.43-2.42,36.31-8.61,54.38-13.28,21.04-5.44,43.68-8.75,64.22-1.66-36.08,1.35-71.84,8.08-106.04,19.59,0,0-23.13,9.2-28.12,13.3Z"/>
        </g>
        <path d="M1356.19,748.27c3.66,3.35-16.17,9.44-17.59,9.88-52.53,16.26-113.67,7.41-157.94-26.31-11.22-8.54-22.33-18.91-28.26-32.31,2.47-.51,3.87,1.27,5.7,2.44,11.87,7.58,22.59,18.26,35.32,25.75,50.55,29.73,106.62,31.79,162.78,20.54Z"/>
        <path class="cls-1" d="M1450.04,623.41l-17.64,28.12c-25.39,31.43-73.42,56-112.32,61.51-79.76,11.3-178.39-16.69-191.25-111.59,29.86-7.55,61-10.15,91.75-10.04l2.18.78c19.81,30.35,61.3,28.03,82.17-.04,49.55,1.9,98.36,14.39,145.11,31.26Z"/>
        <path d="M1491.32,602.57c-1.05-18.9-22.21-11.71-19.95-34.48s-7.01-50.17-7.01-50.17c-31.54-122.46-160.93-180.07-266.33-111.48-44.96,29.26-71.99,79.32-80.83,133.05-.8,4.45-2.14,19.07-4.45,30.66-2.26,4.31-6.42,7.96-10.4,11.01-4.14,3.17-8.81,7.27-8.2,12.44.26,2.22,1.5,4.19,2.77,6.03,1.72,2.51,3.71,5.08,6.57,6.13,3.1,1.14,6.58.25,9.57-1.15,1.46-.68,2.84-1.48,4.15-2.37.21,10.35,2.57,28.38,2.57,28.38,30.78,97.49,157.24,116.05,239.73,88.21,32.99-11.14,63.68-31.6,86.19-58.95l-23.44,98.97c3.08.58,4.05-2.07,5.61-4.06,0,0,21.1-46.14,25.44-56.39,11.34-26.77,13.86-67.47,13.86-67.47,17.06,7.59,25.2-9.45,24.15-28.35ZM1432.48,651.45c-25.39,31.43-73.42,56-112.32,61.51-79.76,11.3-178.39-16.69-191.25-111.59,29.86-7.55,61-10.15,91.75-10.04l2.18.78c19.81,30.35,61.3,28.03,82.17-.04,49.55,1.9,98.36,14.39,145.11,31.26l-17.64,28.12ZM1476.05,607.66c-3.23,5.53-13.38,1.24-13.38,1.24-31.64-13.82-65.22-23.17-99.2-28.68-63.82-10.35-137.96-10.89-201.86-1.52-8.42,1.23-17.17,2.63-25.35,5.2-3.41,1.74-6.77,3.59-10.06,5.53-2.59,1.53-5.75,3.16-8.43,1.81-3.01-1.51-5.46-7.87-3.66-10.71,1.8-2.85,1.84-2.36,6.3-6.04,4.98-4.1,28.12-13.3,28.12-13.3,34.2-11.51,69.96-18.25,106.04-19.59-20.54-7.09-43.18-3.77-64.22,1.66-18.08,4.67-35.95,10.87-54.38,13.28,6.32-52.37,30.53-102.42,72.6-133.14,65.63-47.92,155.06-36.8,207.96,25.58,28.45,33.55,41.76,75.48,45.4,119.01-13.34-3.5-27.61-3.42-40.88.33,0,0,39.4,13.89,51.14,22.54,2.77,2.04,5.3,4.63,6.56,7.83,1.26,3.2-.94,5.99-2.68,8.96Z"/>
      </g>
      <rect class="cls-3" width="2048.06" height="2048.2"/>
    </g>
  </g>
</svg>