<?xml version="1.0" encoding="UTF-8"?>
<svg id="Layer_2" data-name="Layer 2" xmlns="http://www.w3.org/2000/svg" viewBox="0 0 2048.06 2048.2">
  <defs>
    <style>
      .cls-1 {
        fill: #fff;
      }

      .cls-2 {
        opacity: 0;
      }
    </style>
  </defs>
  <g id="ggrrw">
    <g>
      <g>
        <g>
          <path d="M1309.51,417.39c-30.01-.97-67.44,10.27-90.58,29.47l-.11.09c-29.18,24.35-50.56,59.65-55.77,97.43-16.04,112.98,107.06,211.02,208.74,146.31,123.71-74.34,79.95-269.63-62.28-273.3Z"/>
          <path class="cls-1" d="M1459.85,606.89c-25.29,80.89-77.45,104.57-77.45,104.57-122.8,68.55-260.08-35.12-241.57-169.54,1.67-12.14,5.59-24.07,9.69-35.53-8.12,4.27-15.4,10.21-23.99,13.61,0,0-4.08-8.57,18.06-28.7,0,0,61.56-86.03,136.22-94.98,120.9-14.49,215.69,93.36,179.04,210.57Z"/>
        </g>
        <path d="M1144.58,491.3c-22.15,20.13-18.06,28.7-18.06,28.7,8.59-3.39,15.87-9.34,23.99-13.61-4.1,11.46-8.02,23.39-9.69,35.53-18.51,134.42,118.77,238.09,241.57,169.54,0,0,52.16-23.68,77.45-104.57,36.65-117.22-58.14-225.06-179.04-210.57-74.66,8.95-136.22,94.98-136.22,94.98ZM1371.79,690.7c-101.68,64.71-224.78-33.33-208.74-146.31,5.21-37.78,26.59-73.08,55.77-97.43l.11-.09c23.14-19.2,60.57-30.44,90.58-29.47,142.23,3.67,185.99,198.97,62.28,273.3Z"/>
        <path d="M1391.46,724.35c2.44,2.59-10.73,14.89-13.06,16.91-42.89,37.09-108.49,39.25-154.1,5.78-2.92-2.14-13.78-10.85-14.91-13.44-.59-1.36.13-1.92,1.56-1.57,12.98,3.13,27.69,11.45,41.2,15.5,37.75,11.32,74.52,7.72,110.26-8.08l29.04-15.1Z"/>
        <path d="M1273.38,538.26c12.32-2.06,25.33,2.89,33.99,12.19,10.01,10.46,13.88,26.2,11.77,40.49-3.09,25.39-25.9,48.38-52.11,39.11-17.31-5.99-28.58-23.84-29.12-42.24-1.12-22.04,13.27-46.06,35.33-49.52l.14-.02Z"/>
      </g>
      <rect class="cls-2" width="2048.06" height="2048.2"/>
    </g>
  </g>
</svg>