<?xml version="1.0" encoding="UTF-8"?>
<svg id="Layer_2" data-name="Layer 2" xmlns="http://www.w3.org/2000/svg" viewBox="0 0 2048.06 2048.2">
  <defs>
    <style>
      .cls-1 {
        fill: #fff;
      }

      .cls-2 {
        opacity: .3;
      }

      .cls-3 {
        opacity: 0;
      }
    </style>
  </defs>
  <g id="heeeem">
    <g>
      <g>
        <path d="M1130.77,635.57l18.08,28.75c12.49,13.23,23.98,27.54,38.06,39.17,87.17,71.95,220.2,47.72,280.01-46.39,1.96-3.08,4.38-8.89,6.29-11.22,1.46-1.77,2.51-.02,2.6,1.53.17,3.29-8.96,20.9-11.2,24.88-34.6,61.48-105.03,94.26-174.73,87.84-70.29-6.47-145.92-50.46-159.12-124.57Z"/>
        <path d="M1424.28,738.54c-35.65,47.69-108.47,74.93-160.66,36.54,9.42-1.06,18.94,2.61,28.33,3.59,36.24,3.8,75.03-5.83,106.89-22.84l25.43-17.29Z"/>
        <path d="M1195.64,746.75c-20.48,2.82-41.58-11.91-51.92-28.9-2.9-4.77-6.07-10.84-6.77-16.39l58.69,45.29Z"/>
        <path class="cls-1" d="M1232.51,541.15c13.12-.31,26.3-.81,39.4.18l.71,1.02c-3.15,19.56,1.31,39.91,20.87,48.42,25.42,11.05,52.23-3.75,60.45-29.11.65-2.02.89-8.92,2.83-9.29,37.41,11.47,77.96,17.01,111.68,37.54-20.35,64.09-77.64,103.77-143.58,110.51-85.4,8.73-185.57-42.7-195.04-135.49-1.42-13.91,10.29-13.88,21.51-16.38,26.36-5.86,54.22-6.77,81.16-7.41Z"/>
        <path d="M1490.19,546.51c-5.52-3.51-3.01-21.08-3.01-21.08-17.56-84.31-85.54-117.95-85.54-117.95-99.89-54.11-246.41-8.58-280.89,104.31-1.26,4.13-8.44,8.12-13.46,11.47-5.02,3.35-9.03,6.69-8.7,12.71.33,6.02,7.03,14.05,10.37,15.05s6.34,10.41,6.34,10.41c4.88,125.07,150.14,181.49,256.7,142.85,0,0,87.58-27.3,106.65-109.6,0,0,2.51-10.54,9.03-10.04,6.52.5,10.54-15.05,12.04-23.08,1.51-8.03-4.01-11.54-9.53-15.05ZM1324.88,700.42c-85.4,8.73-185.57-42.7-195.04-135.49-1.42-13.91,10.29-13.88,21.51-16.38,26.36-5.86,54.22-6.77,81.16-7.41,13.12-.31,26.3-.8,39.4.18l.71,1.02c-3.15,19.56,1.31,39.91,20.87,48.42,25.42,11.05,52.23-3.75,60.45-29.11.65-2.02.89-8.92,2.83-9.29,37.41,11.47,77.96,17.01,111.68,37.54-20.35,64.09-77.64,103.77-143.58,110.51ZM1482.16,561.87c-.99,2.44-1.72,4.97-2.19,7.56-.1.55-.37,1.04-.56,1.57-.56,1.57-8.79-3.55-8.79-3.55-15.21-6.25-30.09-13.2-45.58-18.84-86.81-31.59-177.86-43.6-268.06-21.12-.11.05-6.08,1.62-6.19,1.67-3.09,1.45-2.18.66-5.19,2.26l-2.71,1.03c-7.46,3.49-15.33,6.07-23.4,7.68-.49.1-1,.19-1.49.08-.74-.17-1.28-.76-1.79-1.32-1.15-1.3-2.33-2.63-2.99-4.23-.66-1.6-.74-3.56.26-4.99.5-.72,1.24-1.25,1.96-1.76,3.94-2.79,7.97-5.46,12.08-8.01,0,0,11.65-5.47,24.53-10.15,13.02-4.74-1.35-10.53-8.54-9.28,23.13-47,66.52-85.04,117.62-97.16,64.91-15.39,152.58,10.41,189.55,68.17,5.92,9.25,24.29,48.64,24.29,58.09v3.97c-22.19-5.55-44.52-3.48-37.89-1.41,7.57,2.37,39.18,12.45,39.18,12.45,3.48,1.88,7.32,4.23,8.09,8.1.63,3.13-.99,6.21-2.19,9.17Z"/>
        <g class="cls-2">
          <path d="M1476.25,544.6s-31.61-10.09-39.18-12.45c-6.63-2.07,15.7-4.14,37.89,1.41v-3.97c0-9.44-18.37-48.83-24.29-58.09-36.97-57.77-124.63-83.57-189.55-68.17-51.11,12.12-94.49,50.15-117.62,97.16,7.18-1.25,21.56,4.55,8.54,9.28-12.88,4.68-24.53,10.15-24.53,10.15-4.11,2.54-8.14,5.21-12.08,8.01-.72.51-1.45,1.04-1.96,1.76-.99,1.42-.92,3.38-.26,4.99.66,1.6,1.84,2.93,2.99,4.23.5.56,1.05,1.16,1.79,1.32.49.11,1,.02,1.49-.08,8.07-1.61,15.95-4.19,23.4-7.68l2.71-1.03c3.01-1.6,2.1-.81,5.19-2.26.11-.05,6.08-1.62,6.19-1.67,90.2-22.48,181.25-10.47,268.06,21.12,15.49,5.64,30.37,12.59,45.58,18.84,0,0,8.23,5.11,8.79,3.55.19-.53.46-1.01.56-1.57.47-2.59,1.2-5.13,2.19-7.56,1.2-2.96,2.82-6.04,2.19-9.17-.78-3.87-4.62-6.22-8.09-8.1Z"/>
        </g>
      </g>
      <rect class="cls-3" width="2048.06" height="2048.2"/>
    </g>
  </g>
</svg>