<?xml version="1.0" encoding="UTF-8"?>
<svg id="Layer_2" data-name="Layer 2" xmlns="http://www.w3.org/2000/svg" viewBox="0 0 2048.06 2048.2">
  <defs>
    <style>
      .cls-1 {
        fill: #fff;
      }

      .cls-2 {
        opacity: .3;
      }

      .cls-3 {
        opacity: 0;
      }
    </style>
  </defs>
  <g id="heeec">
    <g>
      <g>
        <path class="cls-1" d="M1317.22,546.85c53.24-2.38,103.28,2.19,153.67,19.81,3.72,2.2,2.69,18.47,2.43,23.41-2.66,50.26-32.31,101.39-75.35,127.54-109.74,66.67-250.48-7.27-251.68-135.95,1.15-3.32,22.57-9.86,27.25-11.32,43.88-13.71,97.74-21.43,143.68-23.49ZM1281.08,557.25c-41.58.07-38.62,48.16-4.26,50.61,21.43,1.53,26.94-18.43,24.82-36.27-1.59-13.42-7.82-14.36-20.56-14.34Z"/>
        <path d="M1163.74,707.34c15.78,15.87,34.01,27.8,49.48,42.68,2.66,2.56,6.42,5.01,5.69,9.3-22.25-2.83-42.33-24.75-53.45-42.99-2.16-3.54-6.61-8.79-4.42-12.73,1.25.98,1.61,2.64,2.69,3.73Z"/>
        <path d="M1281.08,557.25c12.74-.02,18.97.93,20.56,14.34,2.11,17.84-3.39,37.79-24.82,36.27-34.36-2.45-37.32-50.54,4.26-50.61Z"/>
        <path d="M1495.02,541.03c2.1-20.49-9.48-29.42-9.48-29.42-14.73-8.41-27.3-23.45-27.3-23.45-26.27-78.1-102.15-96.75-102.15-96.75-175.71-38.24-212.07,102.34-221.52,124.41-9.46,22.07-9.46,12.61-25.3,25.22-15.84,12.61-15.69,30.48-7.28,41.56,8.41,11.08,31.53,14.43,31.53,14.43,23.12,191.55,222.89,156.18,222.89,156.18,22.82-6.05,52.66-19.64,70.38-35.36,5.21-4.62,8.86-10.76,14.31-14.24l10.95-12.41c38.99-60.02,26.07-128.09,33.5-128.09,4.71,0,7.38-1.58,9.48-22.07ZM1473.32,590.06c-2.66,50.26-32.31,101.39-75.35,127.54-109.74,66.67-250.48-7.27-251.68-135.95,1.15-3.32,22.57-9.86,27.25-11.32,43.88-13.71,97.74-21.43,143.68-23.49,53.24-2.38,103.28,2.19,153.67,19.81,3.72,2.2,2.69,18.47,2.43,23.41ZM1483.47,545.5c-2.41,2.86-6.54,3.58-10.26,3.18-270.33-28.66-336.79,28.55-336.79,28.55-5.13,3.86-11.81,6.74-17.89,4.67-7.97-2.72-11.08-13.21-8.21-21.12,2.87-7.91,9.99-13.49,17.33-17.61,10.32-5.78,21.63-9.52,32.86-13.22,9.54-3.14,19.08-6.29,28.61-9.43,0,0-40.7,6-50.86,10.56,0,0,24.54-59.57,31.08-68.61,45.35-62.72,116.47-83.23,189.28-58.62,56.77,19.19,100.34,102.71,100.34,102.71-10.51-1.58-38.36,2.1-21.02,3.68,17.34,1.58,28.19,7.33,28.19,7.33,3.94,2.32,7.68,4.99,11.15,7.96,2.95,2.53,5.78,5.37,7.27,8.95,1.5,3.58,1.42,8.05-1.09,11.01Z"/>
        <g class="cls-2">
          <path d="M1473.21,548.68c3.72.39,7.84-.32,10.26-3.18,2.5-2.97,2.59-7.43,1.09-11.01-1.5-3.58-4.33-6.43-7.27-8.95-3.47-2.98-7.21-5.64-11.15-7.96,0,0-10.85-5.75-28.19-7.33-17.34-1.58,10.51-5.25,21.02-3.68,0,0-43.58-83.52-100.34-102.71-72.81-24.61-143.93-4.1-189.28,58.62-6.54,9.04-31.08,68.62-31.08,68.62,10.16-4.55,50.86-10.56,50.86-10.56-9.54,3.14-19.08,6.29-28.61,9.43-11.23,3.7-22.54,7.44-32.86,13.22-7.34,4.11-14.46,9.69-17.33,17.61-2.87,7.91.25,18.4,8.22,21.12,6.07,2.07,12.76-.81,17.89-4.67,0,0,66.46-57.22,336.79-28.55Z"/>
        </g>
      </g>
      <rect class="cls-3" width="2048.06" height="2048.2"/>
    </g>
  </g>
</svg>