<?xml version="1.0" encoding="UTF-8"?>
<svg id="Layer_2" data-name="Layer 2" xmlns="http://www.w3.org/2000/svg" viewBox="0 0 2048.06 2048.2">
  <defs>
    <style>
      .cls-1 {
        fill: #fff;
      }

      .cls-2 {
        opacity: .3;
      }

      .cls-3 {
        opacity: 0;
      }
    </style>
  </defs>
  <g id="hhhr">
    <g>
      <g>
        <path d="M1141.86,469.09c-3.51,10.68-2.9,31.02-2.9,31.02,3.02,14.31,4.01,1.93,11.46-14.31,7.45-16.25,60.78-62.98,66.55-66.29,72.63-41.6,152.07-33.79,210.91,26.62,31.85,32.7,46.71,76.05,49.65,121.87,1.39,21.68-3.23,44.74.11,66.61,1.6,10.47,9.92,20.16,8.52,30.53-1.89,13.95-17.07-.32-23.17-3.81-27.72,51.87-76.56,87.45-134.1,97.21-43.84,7.44-90.91-9.93-132.99-39.88-38.72-27.56-65.28-98.14-66.01-155.88,0,0-8.32,9.29-13.61,7.74s-12.47-29.02-12.47-44.49,2.27-4.26,9.07,4.26c0,0,6.43,12.38,9.45,8.51,3.02-3.87,4.92-44.81,8.32-60.74,3.67-17.19,14.73-19.65,11.22-8.97ZM1428.6,525.88c7.1,8.92,9.99,13.41,17.23,21.57l13.28,18.31c-1.39-37.4-5.63-47.95-15.52-73.63-25.51-66.26-121.44-91-177.91-75.32-64.81,17.99-97.25,70.26-88.46,66.33s28.56-7.87,47.67-7.87,28.12,7.87,8.9,6.75-27.42,2.4-27.42,2.4c-13.77.41-52.73,20.69-55.3,35.15-.2,1.15-6.04,29.02-4.06,28.22,54.76-34.94,133.43-31.64,192.23-8.99,33.1,12.75,80.5,46.96,103.25,74.73,4.96,6.05,15.32,15.56,15.93,23.64,1.47-1.02.11-26,.22-27.54,2.2-29.75-36.75-72.02-58.26-89.84-25.35-21-53.54-29.82-84.13-39.71,0,0-8.32-6.48,13.1-2.54,21.42,3.93,78.96,22.9,99.25,48.36Z"/>
        <path class="cls-1" d="M1430.28,622.2c4.74,5.09,16.24,18.18,18.26,25.63,5.34,19.67-28.92,45.97-47.23,64.08-83.63,82.67-261.32,11.66-259.44-136.6.21-16.61,12.49-21.43,26.02-27.48,91.31-40.83,198,5.21,262.39,74.37ZM1259.66,577.71c-54.85,6.77-41.1,93.7,15.39,82.47,46.97-9.34,40.84-89.4-15.39-82.47Z"/>
        <path d="M1259.66,577.71c56.23-6.93,62.36,73.13,15.39,82.47-56.49,11.23-70.24-75.7-15.39-82.47Z"/>
        <g class="cls-2">
          <path d="M1329.36,477.52c21.42,3.93,78.96,22.9,99.25,48.36,7.1,8.92,9.99,13.41,17.23,21.57l13.28,18.31c-1.39-37.4-5.63-47.95-15.52-73.63-25.51-66.26-121.44-91-177.91-75.32-64.81,18-97.25,70.26-88.46,66.33,8.79-3.93,28.56-7.87,47.67-7.87s28.12,7.87,8.9,6.75c-19.22-1.12-27.42,2.4-27.42,2.4-13.77.41-52.73,20.69-55.3,35.15-.2,1.15-6.04,29.02-4.06,28.22,54.76-34.94,133.43-31.64,192.23-8.99,33.1,12.75,80.5,46.96,103.25,74.73,4.96,6.05,15.32,15.56,15.93,23.64,1.47-1.02.11-26,.22-27.54,2.2-29.75-36.75-72.02-58.26-89.84-25.35-21-53.54-29.82-84.13-39.71,0,0-8.32-6.48,13.1-2.54Z"/>
        </g>
        <path d="M1153.34,713.21c4.96,12.99,13.72,24.43,24.86,32.47,5.98,4.31,12.57,7.64,19.14,10.94,4.15,2.09,8.31,4.18,12.46,6.27,6.14,3.09,12.4,6.22,19.16,7.34,7.85,1.29,17.88.92,21.26,8.29-20.28,5.27-42.51.82-60.15-10.7-17.64-11.52-30.73-29.73-37.59-49.96-.37-1.09-.72-2.28-.34-3.36.38-1.08,1.83-1.8,2.67-1.04"/>
      </g>
      <rect class="cls-3" width="2048.06" height="2048.2"/>
    </g>
  </g>
</svg>