<?xml version="1.0" encoding="UTF-8"?>
<svg id="Layer_2" data-name="Layer 2" xmlns="http://www.w3.org/2000/svg" viewBox="0 0 2048.06 2048.2">
  <defs>
    <style>
      .cls-1 {
        fill: #fff;
      }

      .cls-2 {
        opacity: .3;
      }

      .cls-3 {
        opacity: 0;
      }
    </style>
  </defs>
  <g id="hhuuhh">
    <g>
      <g>
        <path d="M1470.97,596.92c-1.35,1.54-8.28,21.38-10.67,26.06-72.98,143.29-276.29,114.98-333.39-26.52-2.63-6.52-6.89-25.19-8.89-28.27-1.84-2.84-11.5-2.28-14.14-10.81-3.99-12.89,7.66-15.54,10.86-23.61,2.39-6.02,2.29-14.94,4.31-21.82,51.33-174.49,285.82-170.03,355.06-9.62,8.39,19.43,7.97,32.95,13.1,50.58.68,2.32,6,6.54,7.88,10.08,6.34,11.92,4.61,26.95-9.79,31.12-3.86,1.12-12.09.24-14.35,2.81ZM1472.18,540.98c-11.23-40.27-31.49-79.58-65.44-105.17-61.44-46.32-147.42-59.75-211.98-11.43-34,25.44-57.33,57.9-65.44,100.28l51.42-7.83,12.24,2.92c-11.86.03-82.12,20.52-79.92,33.3,7.62,10.61,12.84,3.09,21.5.54,83.99-24.66,228.93-18.55,309.85,16,11.89,5.08,26.17,19.82,38.18,13.63,13.07-6.73-2.16-17.39-3.78-26.81-18.18-15.26-40.12-24.1-60.5-35.84,19.02.2,37.69,11.02,53.86,20.42ZM1222.22,550.95c-31.48-1.26-62.62,6.11-92.93,13.71l-1.49,1.84c31.22,98.44,134.93,160.14,236.26,125.14,48.56-16.77,79.08-55.57,96.5-102.53-36.59-22.09-80.66-27.18-122.25-33.45-8.53,65.82-105.92,56.7-116.09-4.72Z"/>
        <path d="M1419.95,709.18c-53.71,76.68-173.85,70.95-240.04,13.88-26.46-22.82-50.61-62.04-53.85-97.16,3.35-.7,3.79,1.66,5.21,3.76,8.99,13.31,14.54,31.18,24.48,45.73,47.29,69.22,146.13,102.07,221.63,58.95,14.33-8.18,26.12-21.21,42.58-25.16Z"/>
        <path d="M1335.04,787.55c-2.54,5.6-8.99,6.5-14.33,7.7-25.36,5.67-66.91.68-91.02-9.31-5.81-2.41-10.2-2.66-10.58-9.81,20.46,3.18,40.42,10,61.25,11.4,17.81,1.2,36.75-.86,54.68.03Z"/>
        <path class="cls-2" d="M1472.18,540.98c-16.17-9.39-34.84-20.22-53.86-20.42,20.38,11.74,42.31,20.58,60.5,35.84,1.61,9.42,16.84,20.08,3.78,26.81-12.01,6.19-26.29-8.56-38.18-13.63-80.92-34.55-225.86-40.66-309.85-16-8.66,2.54-13.88,10.07-21.5-.54-2.21-12.79,68.06-33.27,79.92-33.3l-12.24-2.92-51.42,7.83c8.11-42.38,31.44-74.83,65.44-100.28,64.56-48.32,150.54-34.89,211.98,11.43,33.95,25.6,54.21,64.91,65.44,105.17Z"/>
        <path class="cls-1" d="M1222.22,550.95c10.18,61.43,107.57,70.55,116.09,4.72,41.58,6.27,85.65,11.36,122.25,33.45-17.42,46.95-47.94,85.75-96.5,102.53-101.33,35-205.04-26.7-236.26-125.14l1.49-1.84c30.31-7.6,61.45-14.98,92.93-13.71Z"/>
      </g>
      <rect class="cls-3" width="2048.06" height="2048.2"/>
    </g>
  </g>
</svg>