<?xml version="1.0" encoding="UTF-8"?>
<svg id="Layer_2" data-name="Layer 2" xmlns="http://www.w3.org/2000/svg" viewBox="0 0 2048.06 2048.2">
  <defs>
    <style>
      .cls-1 {
        opacity: 0;
      }

      .cls-2 {
        fill: #fdfdfd;
      }
    </style>
  </defs>
  <g id="huuh">
    <g>
      <g>
        <path d="M1292.18,375.19c61.67-4.42,121.36,37.05,147.37,91.39,42.47,88.73,9.2,203.64-75.89,253.2-136.68,79.61-285.4-65.41-238.03-207.33,23.08-69.15,92.11-131.93,166.55-137.26ZM1292.18,389.51c-72.65,3.19-135.99,67.17-154.76,134.73-21.2,76.29,17.66,163.26,90.86,194.53,99.31,42.43,192.7-37.44,212.12-132.97,19.38-95.35-43.54-200.89-148.22-196.29Z"/>
        <path d="M1323.07,766.67c.56,3.11-.93,1.57-2.41,2.14-38.33,14.6-87.68,2.72-114.2-29.25-.96-1.15-2.48-1.65-2.04-3.58.59-.6,12.09,7.11,13.93,8.05,22.35,11.46,53.56,23.81,78.6,24.72,8.79.32,17.68.42,26.12-2.08Z"/>
        <path class="cls-2" d="M1292.18,389.51c104.67-4.6,167.6,100.95,148.22,196.29-19.42,95.52-112.81,175.4-212.12,132.97-73.2-31.27-112.06-118.24-90.86-194.53,18.77-67.56,82.11-131.54,154.76-134.73ZM1241.97,541.84c-10.58,2.39-17.47,26.46-16.86,35.78.68,10.47,8.4,28.68,19.38,31.85,24.59,7.1,32.12-23.05,29.24-41.52-2.22-14.29-16.23-29.63-31.76-26.11Z"/>
        <path d="M1241.97,541.84c15.53-3.51,29.54,11.82,31.76,26.11,2.87,18.47-4.66,48.62-29.24,41.52-10.98-3.17-18.7-21.38-19.38-31.85-.6-9.32,6.29-33.39,16.86-35.78Z"/>
      </g>
      <rect class="cls-1" width="2048.06" height="2048.2"/>
    </g>
  </g>
</svg>