<?xml version="1.0" encoding="UTF-8"?>
<svg id="Layer_2" data-name="Layer 2" xmlns="http://www.w3.org/2000/svg" viewBox="0 0 2048.06 2048.2">
  <defs>
    <style>
      .cls-1 {
        fill: #fff;
      }

      .cls-2 {
        opacity: .3;
      }

      .cls-3 {
        opacity: 0;
      }
    </style>
  </defs>
  <g id="naaaah">
    <g>
      <g>
        <g>
          <path d="M1115.39,568.7c-3.4-6.62-.95-13.56,0-20.34l-7.89.89c-4.6-7.52.32-11.41,7.67-12.09,12.88-116.5,111.9-170.76,228.55-149.06,69.6,12.95,131.06,59.97,139.58,139.31.97,9,.33,32.27,2.03,37.13.93,2.65,8.85,5.07,7.58,10.42l-8,.92-2.96,14.71c4.91.7,9.17,2.8,7.66,8.42-1.3,4-7.83,2.97-9.37,5.15-1.85,2.6-14.58,31.22-17.51,36.25-79.33,136.22-297.13,150.44-341.83-30.99-1.22-4.96-4.77-28.36-5.84-29.4,0,0-8.91-.15-10.08-1.98-1.16-1.83-3.16-8.15-1.16-9.65s11.59.29,11.59.29ZM1474.1,560.88c13.02-110.56-97.98-182.91-207.97-168.6-63.31,8.23-114.25,47.12-134.23,107.58-1.03,3.11-10.1,34.27-6.3,34.43,85.48-12.94,175.76-9.79,260.83,5.42,29.67,5.3,58.86,12.56,87.68,21.18ZM1253.23,545.23c-42.58-3.81-84.88.13-127.44,1.77-4.99,1.63-1.6,18.51-2.58,23.29l145.68,15.64-9.34-8.65c-7.14-9.08-10.05-20.83-6.32-32.06ZM1306.5,589.06l162.15,3.17c5.43-.98,7.82-16.64,2.81-18.52-8.83-3.31-30.22-5.65-40.92-7.64-34.37-6.39-68.97-11.85-103.67-16.16,1.96,17.32-7.92,28.97-20.37,39.15ZM1469.4,604.75c-78.96,11.15-161.23,5.42-240.22-4.93-34.98-4.58-69.55-11.66-104.38-17,13.37,102.39,88.23,176.58,210.68,145.17,60.71-15.57,112.86-59.39,133.92-123.24Z"/>
          <path d="M1319.02,777.06c.61,4.66-5.6,5.32-9.03,5.84-45.28,6.86-110.96-20.6-145.21-49.75-7.12-6.06-17.1-12.61-14.92-23.44l34.59,25.71c40.43,25.86,87.58,35.44,134.57,41.65Z"/>
          <path class="cls-1" d="M1306.5,589.06c12.45-10.18,22.33-21.83,20.37-39.15,34.7,4.3,69.3,9.77,103.67,16.16,10.7,1.99,32.09,4.33,40.92,7.64,5,1.87,2.61,17.54-2.81,18.52l-162.15-3.17Z"/>
          <path class="cls-1" d="M1253.23,545.23c-3.74,11.23-.82,22.98,6.32,32.06l9.34,8.65-145.68-15.64c.98-4.78-2.41-21.65,2.58-23.29,42.56-1.64,84.87-5.58,127.44-1.77Z"/>
        </g>
        <path class="cls-2" d="M1125.6,534.28c85.48-12.94,175.76-9.79,260.83,5.42,29.67,5.3,58.86,12.56,87.68,21.18,13.02-110.56-97.98-182.91-207.97-168.6-63.31,8.23-114.25,47.12-134.23,107.58-1.03,3.11-10.1,34.27-6.3,34.43Z"/>
        <g class="cls-2">
          <path d="M1229.18,596.83c-34.98-4.58-69.55-11.66-104.38-17,13.37,102.39,88.23,176.58,210.68,145.17,60.71-15.57,112.86-59.39,133.92-123.24-78.96,11.15-161.23,5.42-240.22-4.93Z"/>
        </g>
      </g>
      <rect class="cls-3" width="2048.06" height="2048.2"/>
    </g>
  </g>
</svg>