<?xml version="1.0" encoding="UTF-8"?>
<svg id="Layer_2" data-name="Layer 2" xmlns="http://www.w3.org/2000/svg" viewBox="0 0 2048.06 2048.2">
  <defs>
    <style>
      .cls-1 {
        fill: #fff;
      }

      .cls-2 {
        opacity: .3;
      }

      .cls-3 {
        opacity: 0;
      }
    </style>
  </defs>
  <g id="naah">
    <g>
      <g>
        <path d="M1484.34,588.74l-21.66-1.26c-4.05,26.6-25.15,52.91-45.3,70.05-91.36,77.69-270.6,51.09-301.6-75.63-2.35-9.62-2.16-19.19-3.95-27.92-.69-3.36-9.99-15.68-8.64-17.47,11.45-.52,9.05-12.08,11.57-20.95,37.31-131.61,210.97-177.04,309.06-82.33,33.92,32.75,55.4,87.76,45.7,134.56,5.72,6.1,14.05,11.8,14.82,20.96ZM1456.29,561.98c4.69-65.48-28.79-121.6-88.77-147.65-88.76-38.56-186.51-7.89-229.54,79.84-1.24,2.53-15.14,34.86-11.18,34.7,79.56-23.37,160.83-20.68,240.55.34,31.24,8.24,59.36,20.3,88.95,32.77ZM1262.54,533.94c-45.82-.58-92.17-.46-136.47,12.21.27,59.72,46.21,109.08,99.52,129.88,86.39,33.69,195.11-2.58,225.05-94.3l-1.72-3.15c-34.08-16.29-70.86-25.21-107.34-34.44-.13,32.55-40.64,52.95-66.33,32.53-5.11-4.06-12.72-15.23-12.72-21.7v-21.03Z"/>
        <path d="M1453.73,641c-.22,6.32-4.37,13.1-7.42,18.7-21.16,38.92-59.18,67.76-101.92,79.07-85.65,22.68-196.06-19.93-218.24-111.79,7.55,4.88,10.04,14.25,15,21.32,63.09,89.96,192.61,110.92,276.3,36.07,14.62-13.08,23.97-28.44,36.28-43.37Z"/>
        <path d="M1407.85,722.57c.94.94-6.52,9.65-7.61,10.86-32.07,35.79-86.87,54.63-132.59,34.36-2.43-1.08-13.23-7.32-14.03-8.92-1.25-2.51,1.56-1.74,2.87-1.6,9.85,1.01,20.68,4.2,30.91,4.79,32.34,1.86,68.23-5.94,96.13-22.39l24.32-17.1Z"/>
        <path d="M1189.88,730.23c2.59,3.69-13.1,1.2-14.34.93-21.34-4.69-37.47-24.37-44.3-44.27.89-.89,9.55,6.56,10.8,7.67,5.93,5.23,10.87,10.85,17.35,15.79,9.59,7.31,20.65,12.91,30.48,19.89Z"/>
        <path class="cls-1" d="M1262.54,533.94v21.03c0,6.46,7.61,17.64,12.72,21.7,25.69,20.42,66.2.02,66.33-32.53,36.48,9.22,73.26,18.15,107.34,34.44l1.72,3.15c-29.94,91.72-138.66,128-225.05,94.3-53.31-20.79-99.25-70.16-99.52-129.88,44.3-12.67,90.65-12.79,136.47-12.21Z"/>
        <path class="cls-2" d="M1456.29,561.98c-29.59-12.47-57.71-24.53-88.95-32.77-79.71-21.02-160.98-23.71-240.55-.34-3.96.15,9.94-32.17,11.18-34.7,43.03-87.73,140.78-118.4,229.54-79.84,59.97,26.05,93.46,82.17,88.77,147.65Z"/>
      </g>
      <rect class="cls-3" width="2048.06" height="2048.2"/>
    </g>
  </g>
</svg>