<?xml version="1.0" encoding="UTF-8"?>
<svg id="Layer_2" data-name="Layer 2" xmlns="http://www.w3.org/2000/svg" viewBox="0 0 2048.06 2048.2">
  <defs>
    <style>
      .cls-1 {
        fill: #fff;
      }

      .cls-2 {
        opacity: .3;
      }

      .cls-3 {
        opacity: 0;
      }
    </style>
  </defs>
  <g id="neeh">
    <g>
      <g>
        <path d="M1449.93,722.29c-10.5,7-19.43,17.09-32.73,18.43,5.77-13.73,20.74-20.6,29.8-31.95,9.82-12.29,4.62-19.32,4.42-33.52l-17.36,14.62c-64.96,49.18-168.49,50.88-241.1,18.37-49.21-22.03-71.75-64.16-83.88-114.8,0,0-1.61-11.9-9.11-13.31s-5.67-5.22-5.67-5.22c7.79-23.93,10.55-48.96,19.67-72.68,67.74-176.36,308.13-178.05,371.71,8.53,6.45,18.93,15.75,44.2,11.5,63.64-4.59,20.99-11.27,45.3-21.69,64.63-4.76,8.83-11.43,16.13-16.34,24.79,0,0,16.02,41.65-9.22,58.47ZM1470.76,520.46c-20-57.71-61.87-115.03-124.73-129-96.72-21.49-180.89,33.5-219.3,120.56-2.53,5.72-9.5,21.83-10.16,27.07-.24,1.93.09,3.01,2.2,2.19,6.44-2.5,13.66-7.84,20.8-10.46,1.42-.52,13.11-4.99,11.21-.7-3.15,7.1-30.96,17.9-38.31,23.45l-4.82,16.01c9.39-3.57,19.62-5.12,29.47-6.97,91.34-17.2,187.89-32.19,280.37-16.39l63.68,15.92c-3.16-7.08.65-19.42-3.79-25.22-4.14-5.4-27.83-15.68-34.89-19.45-3.63-3.69,6.42-3.11,8.16-2.93,7.39.73,13.11,4.41,20.1,5.93ZM1354.68,556.2c-40.35-1.9-81.04-2.88-121.27,1.49-36.63,3.98-75,12.15-110.91,20.2,6.6,18.94,10.2,48.12,21.7,64.52,35.31,50.34,116.03,69.13,174.01,65.56,79.12-4.87,151.26-50.72,156.38-135.47l-35.08-7.39c-.35,30.9-26.72,53.19-57.77,45.13-17.66-4.58-32.53-36.98-27.07-54.04Z"/>
        <path class="cls-2" d="M1470.76,520.46c-6.99-1.52-12.71-5.2-20.1-5.93-1.75-.17-11.79-.76-8.16,2.93,7.06,3.77,30.75,14.04,34.89,19.45,4.44,5.79.63,18.14,3.79,25.22l-63.68-15.92c-92.48-15.79-189.03-.8-280.37,16.39-9.85,1.85-20.08,3.4-29.47,6.97l4.82-16.01c7.35-5.55,35.16-16.34,38.31-23.45,1.9-4.29-9.79.18-11.21.7-7.14,2.62-14.36,7.96-20.8,10.46-2.12.82-2.44-.26-2.2-2.19.66-5.24,7.63-21.35,10.16-27.07,38.41-87.07,122.59-142.06,219.3-120.56,62.86,13.97,104.73,71.29,124.73,129Z"/>
        <path class="cls-1" d="M1354.68,556.2c-5.46,17.06,9.41,49.45,27.07,54.04,31.05,8.06,57.42-14.22,57.77-45.13l35.08,7.39c-5.12,84.76-77.27,130.61-156.38,135.47-57.98,3.57-138.7-15.22-174.01-65.56-11.5-16.39-15.1-45.58-21.7-64.52,35.91-8.05,74.28-16.22,110.91-20.2,40.24-4.37,80.93-3.38,121.27-1.49Z"/>
        <path d="M1123.99,642.51c.66.67,5.16,13.79,7.21,17.37,19.81,34.57,57.93,73.63,92.65,93.38,10.71,6.09,23.19,8.7,32.62,15.73-28.89-.57-61.72-22.51-82.64-41.62-15.39-14.05-46.46-54.17-51.16-73.85-.32-1.35-2.85-15.2,1.32-11.01Z"/>
        <path d="M1438.03,703.54c-22.98,37.57-66.39,43.98-107.15,46.11-.72-4.48,1.09-2.39,3.61-3.01,18.6-4.55,37.94-6.33,55.45-14.56,14.59-6.86,28.23-20.3,41.64-26.82,2.12-1.03,3.92-2.2,6.45-1.72Z"/>
      </g>
      <rect class="cls-3" width="2048.06" height="2048.2"/>
    </g>
  </g>
</svg>