<?xml version="1.0" encoding="UTF-8"?>
<svg id="Layer_2" data-name="Layer 2" xmlns="http://www.w3.org/2000/svg" viewBox="0 0 2048.06 2048.2">
  <defs>
    <style>
      .cls-1 {
        fill: #fff;
      }

      .cls-2 {
        opacity: .3;
      }

      .cls-3 {
        opacity: 0;
      }
    </style>
  </defs>
  <g id="nnnm">
    <g>
      <g>
        <path class="cls-1" d="M1233.91,562.16c-1.64,25.65,16.19,51.03,42.61,53.83,40.84,4.33,56.46-34.62,53.17-69.19,14.96-1.82,30.29-4.13,45.36-4.79,14.18-.62,79.09-1.13,87.36,6.93,6.64,6.48,4.06,38.04,2.97,47.9-21.05,190.93-317.62,217.89-342.37,30.69-1.84-13.88-6.41-28.4,7.54-35.25,9.64-4.74,99.7-34.09,103.36-30.12Z"/>
        <path class="cls-2" d="M1462.31,534.37c-51.45-11.59-108.91-4.91-161.03,1.78-60.79,7.81-121.97,20.76-178.47,44.51l3.39-16.66,44.57-20.93c.84-4.97-14.57-1.14-16.22-.44-8.32,3.56-17.93,3.45-24.78,9.21,10.36-84.59,83.16-167.38,175.71-160.78,76.73,5.47,142.38,69,156.84,143.31Z"/>
        <path d="M1485.47,533.97c-9.87-6.58-41.61-102.92-98.74-134.66-136.06-75.58-265.77,48.04-280.91,181.36-33,6.41-17.59,26.3-13.65,28.94,3.95,2.63,14.92-3.31,14.92-3.31-4.51,77.02,42.06,131.77,113.29,156.9,68.54,24.18,154.5,1.22,206.42-48.26,0,0,61.96-50.09,52.09-159.27,0,0,1.97-2.63,11.18-1.97,9.21.66,5.26-13.15-4.6-19.73ZM1126.2,564l44.57-20.93c.84-4.97-14.57-1.14-16.22-.44-8.32,3.56-17.93,3.45-24.78,9.21,10.36-84.59,83.16-167.38,175.71-160.78,76.73,5.47,142.38,69,156.84,143.31-51.45-11.59-108.91-4.91-161.03,1.78-60.79,7.81-121.97,20.76-178.47,44.51l3.39-16.66ZM1465.38,596.85c-21.05,190.93-317.62,217.89-342.37,30.69-1.84-13.88-6.41-28.4,7.54-35.25,9.64-4.74,99.7-34.09,103.36-30.12-1.64,25.65,16.19,51.03,42.61,53.83,40.84,4.33,56.46-34.62,53.17-69.19,14.96-1.82,30.29-4.13,45.36-4.79,14.18-.62,79.09-1.13,87.36,6.93,6.64,6.48,4.06,38.04,2.97,47.9Z"/>
        <path d="M1386.7,781.08c-57.93,57.16-148.28,50.08-205.27-5.4-2.75-2.68-14.08-12.28-10.78-16.22l27.92,22.22c51.74,34.42,108.9,34.93,165.39,11.35,8-3.34,15.15-7.94,22.74-11.96Z"/>
        <path d="M1362.36,770.42c1.54,7.17-2.81,5.58-7.51,7.24-25.61,9.05-70.16,14.28-97.03,11.86-4.8-.43-8.78.78-12.02-4.2l116.56-14.9Z"/>
      </g>
      <rect class="cls-3" width="2048.06" height="2048.2"/>
    </g>
  </g>
</svg>