<?xml version="1.0" encoding="UTF-8"?>
<svg id="Layer_2" data-name="Layer 2" xmlns="http://www.w3.org/2000/svg" viewBox="0 0 2048.06 2048.2">
  <defs>
    <style>
      .cls-1 {
        fill: #fff;
      }

      .cls-2 {
        opacity: 0;
      }
    </style>
  </defs>
  <g id="ohhh">
    <g>
      <g>
        <path d="M1289.99,382.12c125.75-7.15,221.7,113.3,190.34,234.74-12.4,48.02-37.39,79.54-80.62,103.41-119.35,65.87-278.59-24.65-271.44-163.53.99-19.14,9.06-44.24,14.3-63.12,17.29-62.27,84.33-107.91,147.42-111.49ZM1288.08,401.15c-86.49,5.48-152.38,94.4-144.56,178.43,13.73,147.49,219.63,202.92,299.16,74.51,71.39-115.26-21.55-261.38-154.61-252.95Z"/>
        <path d="M1281.87,760.13c.59,3.81-3,4.29-5.86,5.24-28.61,9.5-78.69-11.41-93.47-37.59-1.07-1.9-2.29-4.25-2.84-6.36,27.57,25.55,64.76,38.06,102.17,38.71Z"/>
        <path class="cls-1" d="M1288.08,401.15c133.06-8.43,226,137.69,154.61,252.95-79.54,128.4-285.44,72.97-299.16-74.51-7.82-84.04,58.07-172.95,144.56-178.43ZM1267.78,460.17c-99.08,6.92-136.35,126.15-73.81,197.17,86.96,98.75,235.14,19.85,200.18-107.52-15.46-56.31-67.82-93.74-126.37-89.65Z"/>
        <path d="M1267.78,460.17c58.55-4.09,110.91,33.34,126.37,89.65,34.96,127.37-113.22,206.26-200.18,107.52-62.54-71.01-25.27-190.25,73.81-197.17ZM1239.22,495.7c-39.13,3.99-52.98,64.56-4.71,60.65,39.18-3.18,55.94-65.88,4.71-60.65Z"/>
        <path class="cls-1" d="M1239.22,495.7c51.23-5.23,34.47,57.47-4.71,60.65-48.27,3.91-34.42-56.66,4.71-60.65Z"/>
      </g>
      <rect class="cls-2" width="2048.06" height="2048.2"/>
    </g>
  </g>
</svg>