<?xml version="1.0" encoding="UTF-8"?>
<svg id="Layer_2" data-name="Layer 2" xmlns="http://www.w3.org/2000/svg" viewBox="0 0 2048.06 2048.2">
  <defs>
    <style>
      .cls-1 {
        fill: #020202;
      }

      .cls-2 {
        opacity: 0;
      }

      .cls-3 {
        fill: #fdfdfd;
      }
    </style>
  </defs>
  <g id="ommg">
    <g>
      <g>
        <g>
          <path d="M1269.5,396.76c58.93-4.22,115.96,35.4,140.81,87.33,40.58,84.78,8.79,194.58-72.51,241.94-130.59,76.07-272.7-62.5-227.44-198.11,22.05-66.07,88.01-126.06,159.14-131.15ZM1269.5,410.44c-69.42,3.05-129.94,64.18-147.88,128.73-20.26,72.9,16.87,155.99,86.82,185.87,94.89,40.54,184.12-35.78,202.68-127.05,18.52-91.1-41.6-191.95-141.62-187.56Z"/>
          <path class="cls-3" d="M1269.5,410.44c100.02-4.39,160.14,96.45,141.62,187.56-18.56,91.27-107.79,167.59-202.68,127.05-69.95-29.88-107.08-112.98-86.82-185.87,17.94-64.55,78.46-125.68,147.88-128.73ZM1273.39,621.12c10.1-2.29,16.58-24.97,15.97-33.73-.69-9.85-8.14-26.95-18.65-29.89-23.52-6.58-30.59,21.82-27.77,39.18,2.18,13.44,15.63,27.81,30.45,24.44Z"/>
          <path class="cls-1" d="M1273.39,621.12c-14.82,3.37-28.27-11-30.45-24.44-2.82-17.36,4.25-45.76,27.77-39.18,10.51,2.94,17.96,20.04,18.65,29.89.61,8.76-5.87,31.44-15.97,33.73Z"/>
        </g>
        <path d="M1289.55,373.7c118.97,12.68,190.86,119.15,156.25,233.85-2,6.62-5.15,12.85-6.58,19.62,3.24-2.71,6.97-6.11,9.38-9.57,9.81-14.1,15.98-37.62,18.33-54.49,3.64-26.22-5.15-75.41-17.75-98.76-12.02-22.29-36.94-53.6-57.6-67.77-37.76-25.89-78.88-36.89-124.56-28.09-4.88.94-10.63,1.38-14.25,4.98,12.38,1.44,24.17-1.12,36.78.22Z"/>
        <path d="M1364.19,364.7c30.76,10.33,63,36.95,81.65,63.37"/>
        <path d="M1151.4,717.76c5.64,10.54,14.44,19.36,24.96,25.03,5.65,3.05,11.73,5.19,17.78,7.31,3.83,1.35,7.66,2.69,11.49,4.04,5.66,1.99,11.43,4,17.43,4.25,6.97.28,20.91,5.63,24.59,11.55-17.13,6.59-42.17-1.58-58.71-9.54-16.54-7.96-29.79-22.09-37.82-38.59-.43-.89-.86-1.86-.64-2.82.22-.96,1.41-1.73,2.22-1.16"/>
      </g>
      <rect class="cls-2" width="2048.06" height="2048.2"/>
    </g>
  </g>
</svg>