<?xml version="1.0" encoding="UTF-8"?>
<svg id="Layer_2" data-name="Layer 2" xmlns="http://www.w3.org/2000/svg" viewBox="0 0 2048.06 2048.2">
  <defs>
    <style>
      .cls-1 {
        fill: #fff;
      }

      .cls-2 {
        opacity: .3;
      }

      .cls-3 {
        opacity: 0;
      }
    </style>
  </defs>
  <g id="raaaaii">
    <g>
      <g>
        <path d="M1284.84,374.1c91.65-6.03,173.57,67.38,179.18,158.76.91,14.9-2.65,32.49-.68,46.75.65,4.73,5.11,9.03,6.87,13.52,3.79,9.67,2.84,22.98-7,28.78-7.79,4.59-8.9.1-13.91,11.02-5.1,11.13-6.4,19.14-13.68,30.13-41.14,62.12-106.25,85.61-179.36,72.21-49.6-9.09-107.61-46.83-124.22-96.34-2.76-8.23-4.15-25.97-9.45-31.34-2.76-2.79-7.36-4.7-9.85-8.28-2.7-3.87-2.72-9.79-2.25-14.35,1.09-10.67,11.59-14.85,11.38-26.45-1.67-90.68,70.4-178.32,162.96-184.42ZM1447.41,572.5c-.3-16.32,1.22-32.13-2.03-48.2-16.44-81.43-82.47-142.81-168.97-131.44-83.21,10.94-137.24,87.3-141.74,167.55,63.64-28.54,136.06-35.1,204.98-25.57,5.51.76,29.15,4.03,32.23,7.05,1,.98.77,2.19.74,3.41-69.72-11.09-142.2-11.66-209.83,10.38-17.56,5.72-38.54,13.5-37.94,35.69,80.53-21.36,165.33-23.71,247.16-8.07,13.86,2.65,28.8,5.87,42.33,9.8,10.32,3,20.82,7.95,30.99,10.56,2.89.74,5.94,2.04,8.93.98l.6-.91c1.15-6.76-1.7-13.57-6.32-18.39-2.25-2.36-14.31-10.14-14.72-10.96-.61-1.22.86-1.25,1.51-1.47,4.22-1.46,7.76-.14,12.09-.4ZM1234.28,592.98c-23.59-.57-47.89,1.72-71.05,6.18-4.21.81-18.93,3.56-21.42,5.77-2.52,2.23.65,11.86,1.54,15.14,23.55,86.39,126.79,121.01,206.58,94,42.81-14.5,75.45-53.78,87.68-96.61-35.79-12.02-73.17-18.8-110.7-23.13-3.34.21-3.89,5.96-5.51,8.9-19.92,36.15-76.51,29.79-87.12-10.23Z"/>
        <path d="M1217.5,734.44c31.88,14.17,85.72,25.25,120.38,15.91,4.38-1.18,16.5-8,19.93-5.6.69.48,1.31.84,1.26,1.81-4.51,6.6-13.56,10.54-21,13.04-54.91,18.49-149.09-9.98-178.79-61.81-1.13-1.97-6.62-12.11-1.57-12.06,2.38.03,14.74,17.49,17.37,20.43,11.2,12.5,27.23,21.52,42.42,28.27Z"/>
        <path class="cls-2" d="M1447.41,572.5c-4.33.26-7.87-1.06-12.09.4-.65.23-2.12.25-1.51,1.47.41.82,12.47,8.61,14.72,10.96,4.62,4.83,7.47,11.63,6.32,18.39l-.6.91c-3,1.06-6.04-.24-8.93-.98-10.17-2.6-20.67-7.56-30.99-10.56-13.52-3.93-28.47-7.15-42.33-9.8-81.83-15.64-166.63-13.29-247.16,8.07-.59-22.19,20.38-29.97,37.94-35.69,67.63-22.04,140.11-21.47,209.83-10.38.03-1.22.26-2.43-.74-3.41-3.08-3.02-26.72-6.29-32.23-7.05-68.92-9.53-141.34-2.97-204.98,25.57,4.5-80.25,58.53-156.61,141.74-167.55,86.5-11.37,152.53,50.01,168.97,131.44,3.25,16.07,1.73,31.88,2.03,48.2Z"/>
        <path class="cls-1" d="M1234.28,592.98c10.61,40.02,67.2,46.39,87.12,10.23,1.62-2.94,2.17-8.69,5.51-8.9,37.53,4.33,74.91,11.11,110.7,23.13-12.22,42.83-44.86,82.12-87.68,96.61-79.78,27.01-183.02-7.61-206.58-94-.89-3.28-4.06-12.9-1.54-15.14,2.49-2.21,17.21-4.96,21.42-5.77,23.15-4.46,47.46-6.74,71.05-6.18Z"/>
      </g>
      <rect class="cls-3" width="2048.06" height="2048.2"/>
    </g>
  </g>
</svg>