<?xml version="1.0" encoding="UTF-8"?>
<svg id="Layer_2" data-name="Layer 2" xmlns="http://www.w3.org/2000/svg" viewBox="0 0 2048.06 2048.2">
  <defs>
    <style>
      .cls-1 {
        fill: #fff;
      }

      .cls-2 {
        fill: #8bc7bd;
      }

      .cls-3 {
        opacity: .3;
      }

      .cls-4 {
        opacity: 0;
      }
    </style>
  </defs>
  <g id="riipppp">
    <g>
      <g>
        <path d="M1116.85,503.93c-6.29,3.67-12.05,8.38-13.1,15.2-1.05,6.81,8.91,28.3,13.1,27.25s5.24-6.81,4.72,12.58c-.52,19.39,4.72,37.21,4.72,37.21,5.52,23.67,8.91,35.72,24.63,54.5,2.07,2.47,4.62,13.96,5.64,16.03,1.29,2.61.54,7.25,1.27,10.8,7.71,37.44,56.16,55.88,88.19,66.01,31,9.8,55.87,7.24,60.04,47.23,4.44,42.51-16.99,104.97,5.56,141.96,12.23,20.07,41.89,21.23,56.66,3.47,34.96-42.03-21.16-126.24-10.69-175.65,3.85-18.16,36.35-27.54,45.52-44.32,3.66-6.69,4.51-18.34,14.2-18.64l8.32-7.4c25.79-27.07,26.62-63.06,29.24-70.4s1.57-20.44,8.38-14.67c6.81,5.76,11.53,4.72,22.01-4.19,10.48-8.91,5.83-16.21-2.1-25.15-20.44-23.06-12.58-9.96-24.11-49.26-11.53-39.3-41.4-79.65-41.4-79.65-54.81-69.26-135.39-84.43-214.86-40.35-74.13,41.12-79.65,93.8-85.94,97.47ZM1397.64,688c-4.82-3.24-10.07-5.97-16.09-6.11-35.97-.87-69.34,16.8-105.55,11.51-11.99-1.75-25.04-5.99-36.14-10.79-15.1-6.53-45.17-26.1-59.26-27.89-3.73-.47-8.48.66-11.74-.32-.44-.13-6.96-5.14-7.24-5.5-1.34-1.78-3-5.07-4.97-7.77-19.94-27.35-29.45-60.33-24.67-94.23,1.16-4.02,21.11-11.34,25.88-13,69.31-24.15,157.11-12.7,221.49,21.25,26.53,13.99,51.23,31.93,71.02,54.5-7.54,31.1-26.16,60.38-52.73,78.36ZM1446.99,514.41c8.91,18.87,15.2,29.35-6.29,19.91-21.49-9.43-47.16-11-18.34,2.62s56.07,39.3,49.78,48.74c-6.29,9.43-8.91,9.96-13.1,5.76-4.19-4.19-19.06-15.93-19.06-15.93-79.3-64.51-191.06-93.16-289.6-57.72-4.85,1.75-10.85,3.57-14.72,6.73,0,0-7.82,6.38-10.18,7.17s-8.91-12.05-8.91-15.46c0,0,31.7-21.22,75.72-23.84,44.02-2.62,5.24-12.05-2.1-11-7.34,1.05-49.78,8.38-53.98,9.43s28.13-71.92,110.66-92.41c131.62-32.66,191.18,97.12,200.09,115.99Z"/>
        <path d="M1336.38,1012.88c-4.66,1.55-7.88,23.61-9.56,29.33-9.41,31.92-26.76,63.58-9.45,96.61,14.78,28.2,48.36,23.2,58.43-6.04,10.58-30.72-7.45-77.81-21.67-105.84-3.42-6.75-8.52-17.13-17.75-14.06Z"/>
        <path class="cls-2" d="M1174.01,670.3c2.87-.79,6.63,1.17,9.37,2.27,36.38,14.6,56.76,34.5,100.24,36.52,30.66,1.42,72.74-17.86,98.33-9.86,3.46,1.08,9.94,3.96,11.73,7.09,3.96,6.95-34.88,28.9-40.31,34.86-14.72,16.12-10.34,38.34-7.19,58.21,4.78,30.15,27.18,90.82,17.93,117.49-7.13,20.56-27.3,29.28-42.2,10.05-23.58-30.44.31-99.26-5.5-137.99-8.01-53.34-44.78-46.91-85.65-61.84-20.35-7.43-50.02-21.92-58.86-43.05-1.65-3.95-3.37-12.24,2.11-13.76Z"/>
        <path class="cls-2" d="M1341.95,1035.96l5.6,9.8c9.13,26.25,28.54,59.82,16.09,87.67-11.73,26.23-38.24,11.77-40.48-12.31-2.88-30.9,12.74-56.14,18.79-85.17Z"/>
        <path class="cls-3" d="M1150.39,517.8c98.54-35.45,210.29-6.79,289.6,57.72,0,0,14.86,11.73,19.06,15.93,4.19,4.19,6.81,3.67,13.1-5.76,6.29-9.43-20.96-35.11-49.78-48.74-28.82-13.62-3.14-12.05,18.34-2.62,21.49,9.43,15.2-1.05,6.29-19.91-8.91-18.87-68.47-148.65-200.09-115.99-82.53,20.48-114.85,93.45-110.66,92.41s46.64-8.38,53.98-9.43,46.12,8.38,2.1,11c-44.02,2.62-75.72,23.84-75.72,23.84,0,3.41,6.55,16.25,8.91,15.46,2.36-.79,10.18-7.17,10.18-7.17,3.87-3.16,9.87-4.99,14.72-6.73Z"/>
        <path class="cls-1" d="M1381.54,681.88c6.02.15,11.28,2.87,16.09,6.11,26.57-17.97,45.19-47.26,52.73-78.36-19.79-22.57-44.49-40.51-71.02-54.5-64.37-33.95-152.18-45.39-221.49-21.25-4.77,1.66-24.72,8.98-25.88,13-4.79,33.9,4.72,66.87,24.67,94.23,1.97,2.7,3.64,5.98,4.97,7.77.27.36,6.8,5.37,7.24,5.5,3.27.99,8.02-.15,11.74.32,14.09,1.79,44.16,21.36,59.26,27.89,11.09,4.8,24.15,9.04,36.14,10.79,36.21,5.28,69.58-12.39,105.55-11.51Z"/>
        <path d="M1318.07,545.36c-7.84-5.66-17.21-.66-24,4.09-3.92,2.75-13.3,13.06-16.82,12.72-3.6-.35-20.09-19.76-24.82-23.57-8.27-6.66-22.35-10.06-24.96,3.35-2.12,10.85,18.74,24.65,24.94,32.88,5.59,7.42-.47,10.08-6.1,15.4-1.11,1.05-1.48,3.04-2.32,3.67-1.14.86-3.18.6-5.06,2.3-6.88,6.23-15.77,15.01-9.89,24.8,7.22,12.03,23.65-2.11,30.72-7.97,3.52-2.91,12.22-14.77,16.8-11.45l21.5,26.82c5.35,4.63,15.61,6.58,19.85-.1,9.41-14.81-15.62-33.69-22.33-45.45,6.09-7.74,38.37-26.02,22.48-37.49Z"/>
      </g>
      <rect class="cls-4" width="2048.06" height="2048.2"/>
    </g>
  </g>
</svg>