<?xml version="1.0" encoding="UTF-8"?>
<svg id="Layer_2" data-name="Layer 2" xmlns="http://www.w3.org/2000/svg" viewBox="0 0 2048.06 2048.2">
  <defs>
    <style>
      .cls-1 {
        fill: #fff;
      }

      .cls-2 {
        opacity: 0;
      }
    </style>
  </defs>
  <g id="riippp">
    <g>
      <g>
        <path d="M1287.36,392.22c-106.5,4.74-191.66,120.63-162.1,219.2,34.67,115.62,209.77,153.02,289.78,61.11,87.85-100.92,12.52-286.55-127.68-280.31Z"/>
        <path d="M1108.82,523.32c36.04-126.83,186.48-200.6,298.06-103.25,71.47,62.36,88.26,180.63,27.35,255.09-12.62,15.42-38.34,36.21-38.34,36.21-12.99,5.53-24.59,13.24-38,18.09-87.78,31.79-203.54-4.73-240.2-91.05-8.62-20.31-15.95-45.91-16.42-67.75-.93-17.35,7.55-47.34,7.55-47.34Z"/>
        <path class="cls-1" d="M1287.36,392.22c140.2-6.24,215.53,179.4,127.68,280.31-80.01,91.91-255.11,54.51-289.78-61.11-29.56-98.58,55.6-214.47,162.1-219.2ZM1218.79,499.9c-6.29.52-13.16,6.64-14.43,12.55-3.03,14.13,22.2,32.87,28.27,45.49-.48,5.64-30.92,29.44-34.36,38.07-3.6,9.03,3.56,22.38,14.57,21.91,5.37-.23,24.7-15.48,30.22-19.68,9.67-7.35,9.3-15.43,22-5.25,12.16,9.75,27.84,41.21,45.81,26.93,3.75-2.98,5.99-12.28,4.95-16.42-1.42-5.71-20.38-22.98-25.21-29.76-4.33-6.07-9.09-11.09-2.97-18.19l39.86-40.67c3.52-4.61-2.17-12.9-7.03-14.49-23.44-7.66-56.07,35.9-63.45,34.57-8.56-6.49-27.65-35.92-38.22-35.05Z"/>
        <path d="M1310.93,760.02c5.63,4.55-21.92,9.03-23.99,9.18-35.43,2.61-69.16-5.18-97.22-26.34-8.02-6.05-22.37-16.9-18.54-27.56,9.18,5.72,16.37,13.68,25.6,19.47,32.38,20.3,75.8,29.39,114.15,25.24Z"/>
        <path d="M1218.79,499.9c10.57-.87,29.66,28.56,38.22,35.05,7.39,1.33,40.02-42.23,63.45-34.57,4.87,1.59,10.55,9.88,7.03,14.49l-39.86,40.67c-6.12,7.1-1.35,12.12,2.97,18.19,4.83,6.78,23.79,24.05,25.21,29.76,1.03,4.14-1.21,13.45-4.95,16.42-17.98,14.28-33.65-17.18-45.81-26.93-12.69-10.18-12.33-2.1-22,5.25-5.53,4.2-24.86,19.45-30.22,19.68-11.01.47-18.16-12.87-14.57-21.91,3.44-8.64,33.88-32.43,34.36-38.07-6.08-12.62-31.3-31.36-28.27-45.49,1.27-5.91,8.14-12.03,14.43-12.55Z"/>
      </g>
      <rect class="cls-2" width="2048.06" height="2048.2"/>
    </g>
  </g>
</svg>