<?xml version="1.0" encoding="UTF-8"?>
<svg id="Layer_2" data-name="Layer 2" xmlns="http://www.w3.org/2000/svg" viewBox="0 0 2048.06 2048.2">
  <defs>
    <style>
      .cls-1 {
        fill: #fff;
      }

      .cls-2 {
        opacity: .3;
      }

      .cls-3 {
        opacity: 0;
      }
    </style>
  </defs>
  <g id="rrriiippp">
    <g>
      <g>
        <path d="M1390.21,779.53c-60.58,32.8-140.89,27.43-195.52-14.91-9.56-7.41-17.61-16.78-27.54-23.75,29.99,71.69,154.29,96.42,212.68,49.84l10.38-11.17Z"/>
        <g>
          <path d="M1479.6,615.96c2.41-14.47,1.61-32.15,10.45-28.93,8.84,3.21,10.45-3.21,15.27-23.31,4.82-20.09-6.43-29.73-13.66-33.75-7.23-4.02-12.57-18.52-12.57-18.52-41.86-111.2-167.24-152.12-275.23-94.53-30.63,16.33-61.79,69.66-67.42,84.93-5.63,15.27-15.27,28.93-24.11,33.75-8.84,4.82-16.07,8.04-8.04,26.52,8.04,18.48,17.68,15.27,23.31,18.48,5.63,3.21,0,31.34,0,31.34,13.66,105.28,94.05,142.08,94.05,142.08,70.46,30.2,101.26,27.52,167.13-1.44,73.13-32.15,88.4-122.15,90.81-136.62ZM1463.82,651.6c-41.47,101.85-162.58,141.85-255.5,80.05-46.75-31.09-76.43-90.56-71.69-146.97,32.79-16.64,70.8-26.43,107.29-31.02,78.32-9.85,162.13-1.88,230.84,38.71l-10.94,59.23ZM1462.73,511.49c-7.23,2.41-12.86,11.25,5.63,15.27,18.48,4.02,24.91,20.09,23.31,29.73-1.61,9.64-4.02,16.88-12.86,12.05-8.84-4.82-30.82-12.42-30.82-12.42-80.08-34.49-187.55-33.39-269.85-7.57,0,0-39.28,8.75-46.51,17.59-7.23,8.84-16.88-3.21-17.68-9.64-.8-6.43,7.23-19.29,36.16-26.52,28.93-7.23,74.74-12.05,87.6-16.07,12.86-4.02-10.45-8.04-30.54-2.41-20.09,5.63-71.52,18.48-65.9,3.21,5.63-15.27,21.92-36.13,21.92-36.13,41.14-62.36,105.81-90.34,179.72-73.19,100.39,23.28,127.05,103.69,119.81,106.11Z"/>
          <path d="M1263.08,569.76c-4.26-.11-8.31,2.08-8.04,6.75.43,7.48,21.62,22.5,26.64,29.73.87,1.26,2.07,1.47,1.46,3.72-11.18,5.2-41.63,14.29-49.47,22.26-4.37,4.45-4.12,13.49,3,14.69,11.68,1.97,45.87-20.64,59.06-23.59,5.46.55,33.76,36.95,41.74,43.13,3.76,2.91,9.26,7.11,13.72,2.65.92-.92,1.85-3.68,1.83-4.97-.16-11.17-31.83-38.68-38.64-48.9,1.04-4.22,41.8-19.16,42.82-30.03.64-6.83-7.51-9.56-13.41-7.65-7.11,2.29-40.16,23.73-43.27,23.27-10.9-5.7-24.62-30.71-37.44-31.06Z"/>
        </g>
        <path class="cls-1" d="M1243.92,553.65c-36.49,4.59-74.5,14.38-107.29,31.02-4.74,56.41,24.94,115.88,71.69,146.97,92.92,61.8,214.02,21.79,255.5-80.05l10.94-59.23c-68.7-40.59-152.51-48.57-230.84-38.71Z"/>
        <path class="cls-2" d="M1468.35,526.76c-18.48-4.02-12.86-12.86-5.63-15.27,7.23-2.41-19.43-82.82-119.81-106.11-73.91-17.14-138.58,10.83-179.72,73.19,0,0-16.29,20.86-21.92,36.13-5.63,15.27,45.81,2.41,65.9-3.21,20.09-5.63,43.4-1.61,30.54,2.41-12.86,4.02-58.67,8.84-87.6,16.07-28.93,7.23-36.97,20.09-36.16,26.52.8,6.43,10.45,18.48,17.68,9.64,7.23-8.84,46.51-17.59,46.51-17.59,82.3-25.81,189.76-26.91,269.85,7.57,0,0,21.98,7.6,30.82,12.42,8.84,4.82,11.25-2.41,12.86-12.05,1.61-9.64-4.82-25.72-23.31-29.73Z"/>
        <path d="M1351.19,669.1c-4.46,4.46-9.95.26-13.72-2.65-7.99-6.19-36.28-42.58-41.74-43.13-13.19,2.95-47.39,25.57-59.06,23.59-7.12-1.2-7.37-10.24-3-14.69,7.84-7.97,38.3-17.06,49.47-22.26.61-2.25-.59-2.46-1.46-3.72-5.02-7.23-26.21-22.25-26.64-29.73-.27-4.67,3.78-6.86,8.04-6.75,12.82.34,26.54,25.36,37.44,31.06,3.11.47,36.16-20.97,43.27-23.27,5.89-1.9,14.05.83,13.41,7.65-1.02,10.87-41.78,25.81-42.82,30.03,6.81,10.21,38.48,37.72,38.64,48.9.02,1.29-.9,4.05-1.83,4.97Z"/>
      </g>
      <rect class="cls-3" width="2048.06" height="2048.2"/>
    </g>
  </g>
</svg>