<?xml version="1.0" encoding="UTF-8"?>
<svg id="Layer_2" data-name="Layer 2" xmlns="http://www.w3.org/2000/svg" viewBox="0 0 2048.06 2048.2">
  <defs>
    <style>
      .cls-1 {
        fill: #fff;
      }

      .cls-2 {
        opacity: .3;
      }

      .cls-3 {
        fill: #c24136;
      }

      .cls-4 {
        fill: #9ac7c4;
      }

      .cls-5 {
        opacity: 0;
      }
    </style>
  </defs>
  <g id="saaaa">
    <g>
      <g>
        <g>
          <path d="M1122,525.29c3.2,3.63,2.65.22,3.59-1.63,77.67-153.57,285.09-145.93,343.54,14.15,6.87,18.82,6.21,37.23,11.18,52.81,1.75,5.48,8.17,5.37,3.5,16.35-3.75,8.82-12.15,4.22-14.08,5.8-1.24,1.01-7.62,24.92-10.22,30.42-54.72,115.69-235.69,135.05-316.83,37.76,0,0-17.79-13.59-28.08-97.97,0,0-7.15-5.65-12.08-12.49,0,0-4.54-9.8-2.69-32.2,2.13-25.86,7.38,10.02,13.44,14.5,6.42,4.74-18.79-26.56,14.1-80.47,14.47-23.72-9.2,22.59-5.38,53ZM1466.08,581.46c-13.2-121.17-145.73-196.75-255.35-135.18-37.44,21.03-80.66,70.8-83.6,115.31-.19,2.82-.35,2.86,2.49,2.49,38.77-5.11,74.46-13.54,114.24-11.99,81.3,3.16,145.35,20.89,221.4,44.92.88.28,2.82.47,2.55-.83l-24.19-21.61,22.45,6.9ZM1204.9,567.71l-81.06,10.43c5.83,42.33,18.62,82.82,52.65,110.5,84.42,68.66,211.55,48.02,265.05-47.86,3.15-5.65,16.77-29.8,10.76-34.28-51.3-17.13-104.57-26.58-158.15-33.72-13.8,34.78-83.14,33.33-89.25-5.06Z"/>
          <path class="cls-1" d="M1324.29,778.62c-60.93-2.14-130.7-20.07-172.97-66.55-12.29-13.52-21.14-30.13-32.79-44.14,23.27,80.48,114.06,119.76,192.78,114.12l12.98-3.42ZM1385.24,754.79c-8.4,22.48-18.28,44.77-24.49,68.04-6.86,25.73-15.87,66.97,9.38,85.45,16.29,11.93,44.67,9.02,54.15-9.82,17.85-35.5-10.08-89.86-22.19-124.16-1.86-5.27-4.19-18.76-6-21.67-1.86-2.99-7.97,2.35-10.84,2.16Z"/>
          <path class="cls-1" d="M1204.9,567.71c6.11,38.4,75.45,39.85,89.25,5.06,53.58,7.14,106.85,16.59,158.15,33.72,6.01,4.48-7.61,28.63-10.76,34.28-53.5,95.88-180.64,116.51-265.05,47.86-34.03-27.68-46.82-68.16-52.65-110.5l81.06-10.43Z"/>
          <path class="cls-2" d="M1466.08,581.46l-22.45-6.9,24.19,21.61c.27,1.3-1.67,1.11-2.55.83-76.05-24.03-140.1-41.75-221.4-44.92-39.78-1.55-75.47,6.89-114.24,11.99-2.84.37-2.68.33-2.49-2.49,2.94-44.51,46.15-94.28,83.6-115.31,109.62-61.57,242.15,14.02,255.35,135.18Z"/>
          <path d="M1385.24,754.79c2.88.19,8.98-5.15,10.84-2.16,1.81,2.91,4.14,16.4,6,21.67,12.11,34.3,40.05,88.66,22.19,124.16-9.48,18.84-37.85,21.75-54.15,9.82-25.25-18.48-16.24-59.72-9.38-85.45,6.21-23.27,16.09-45.56,24.49-68.04ZM1391.73,776.86c-4.44-.69-2.69.4-3.61,2.44-9.35,20.6-22.8,69.91-20.57,91.79,1.11,10.85,7.4,26.4,18.95,29.47,42.08,11.15,26.49-56.33,20.31-77.37-4.49-15.26-12.86-30.62-15.07-46.33Z"/>
          <path d="M1324.29,778.62l-12.98,3.42c-78.72,5.65-169.51-33.63-192.78-114.12,11.66,14.01,20.5,30.62,32.79,44.14,42.26,46.48,112.04,64.42,172.97,66.55Z"/>
          <path class="cls-4" d="M1391.73,776.86c2.22,15.71,10.58,31.07,15.07,46.33,6.19,21.03,21.77,88.52-20.31,77.37-11.55-3.06-17.84-18.62-18.95-29.47-2.23-21.88,11.21-71.19,20.57-91.79.92-2.03-.83-3.13,3.61-2.44Z"/>
        </g>
        <g>
          <path class="cls-3" d="M1438.48,646.04c-11.2-16.75-31.02-18.59-47.94-27.41l-22.93-5.58c17.1-1.78,36.11,5.96,51.33,13.49,9.03,4.47,14.88,8.63,21.6,15.99l-2.06,3.5Z"/>
          <path class="cls-3" d="M1386.32,700.45c1.88-9.8-18.64-12-24.56-15-14.38-7.29-16.07-25.01-16.63-39.55l5.56,17.76c2.92,6.71,6.25,14.44,12.83,18.3,9.11,5.35,24.85,2.28,24.74,17.19l-1.95,1.3Z"/>
          <path class="cls-3" d="M1179.91,689.04c-.34-21.19,19.82-50.44,42.42-51.78l-14.66,8.67c-16.37,12.84-20.01,27.74-26.09,46.66-.62-.43-.82-.58-1.42-1.04-.47-.36-.25-2.5-.25-2.5Z"/>
          <path class="cls-3" d="M1133.36,622.15l7.99-16.61c8.51-12.11,24.62-12.07,37.76-14.97-3.25,4.99-11.27,4.33-16.76,6.57-6.99,2.85-15.13,7.12-19.28,13.58-1.17,1.83-8.12,15.3-8.06,16.37,0,0-1.27-3.77-1.64-4.94Z"/>
          <path class="cls-3" d="M1275.95,693.45c1.59,7.78,10.56,11.88,10.53,25.95,0,2.25.55,9.66-2.27,9.57-.75-.03-1.82-.07-3.06-.08,7.98-18.72-13.38-27.64-10.18-45.61l4.98-21.83c1.31,9.4-1.79,23.26,0,31.99Z"/>
        </g>
      </g>
      <rect class="cls-5" width="2048.06" height="2048.2"/>
    </g>
  </g>
</svg>