<?xml version="1.0" encoding="UTF-8"?>
<svg id="Layer_2" data-name="Layer 2" xmlns="http://www.w3.org/2000/svg" viewBox="0 0 2048.06 2048.2">
  <defs>
    <style>
      .cls-1 {
        fill: #fff;
      }

      .cls-2 {
        opacity: .3;
      }

      .cls-3 {
        fill: #c24136;
      }

      .cls-4 {
        opacity: 0;
      }
    </style>
  </defs>
  <g id="saaaaap">
    <g>
      <g>
        <g>
          <path d="M1126.24,515.33c3.28,3.77,2.71.23,3.68-1.7,79.63-159.58,292.29-151.64,352.22,14.7,7.05,19.56,6.37,38.69,11.46,54.88,1.79,5.7,8.37,5.58,3.59,16.99-3.84,9.17-12.45,4.39-14.43,6.03-1.27,1.05-7.81,25.9-10.47,31.61-56.1,120.23-241.64,140.34-324.83,39.24,0,0-18.24-14.13-28.79-101.81,0,0-7.33-5.88-12.38-12.98,0,0-4.65-10.18-2.76-33.46,2.18-26.87,7.57,10.41,13.78,15.06,6.58,4.93-19.26-27.6,14.46-83.62,14.84-24.65-9.43,23.47-5.52,55.07ZM1479.02,573.71c-13.54-125.91-149.41-204.46-261.8-140.48-38.39,21.85-82.69,73.57-85.71,119.82-.19,2.93-.36,2.98,2.55,2.59,39.75-5.31,76.34-14.07,117.13-12.46,83.35,3.29,149.02,21.71,227,46.68.91.29,2.89.49,2.62-.86l-24.8-22.45,23.02,7.17ZM1211.23,559.41l-83.11,10.83c5.98,43.99,19.09,86.06,53.98,114.82,86.55,71.35,216.89,49.9,271.75-49.73,3.23-5.87,17.19-30.97,11.03-35.62-52.6-17.8-107.21-27.62-162.14-35.04-14.15,36.15-85.24,34.64-91.51-5.26Z"/>
          <path class="cls-1" d="M1333.64,778.59c-62.47-2.22-134.01-20.86-177.34-69.16-12.6-14.05-21.67-31.31-33.62-45.87,23.86,83.63,116.95,124.45,197.65,118.58l13.31-3.56Z"/>
          <path class="cls-1" d="M1211.23,559.41c6.26,39.9,77.35,41.41,91.51,5.26,54.93,7.42,109.55,17.24,162.14,35.04,6.16,4.65-7.8,29.75-11.03,35.62-54.85,99.63-185.2,121.08-271.75,49.73-34.89-28.76-48-70.83-53.98-114.82l83.11-10.83Z"/>
          <path class="cls-2" d="M1479.02,573.71l-23.02-7.17,24.8,22.45c.28,1.36-1.71,1.15-2.62.86-77.97-24.97-143.64-43.39-227-46.68-40.78-1.61-77.38,7.16-117.13,12.46-2.91.39-2.74.35-2.55-2.59,3.01-46.25,47.32-97.97,85.71-119.82,112.39-63.98,248.27,14.56,261.8,140.48Z"/>
          <path d="M1333.64,778.59l-13.31,3.56c-80.7,5.87-173.79-34.95-197.65-118.58,11.95,14.56,21.02,31.82,33.62,45.87,43.33,48.3,114.87,66.94,177.34,69.16Z"/>
        </g>
        <g>
          <path class="cls-3" d="M1450.72,640.82c-11.48-17.4-31.81-19.32-49.16-28.48l-23.51-5.8c17.53-1.85,37.02,6.19,52.63,14.02,9.26,4.65,15.25,8.97,22.15,16.62l-2.11,3.64Z"/>
          <path class="cls-3" d="M1397.24,697.36c1.93-10.18-19.12-12.47-25.18-15.59-14.74-7.58-16.48-25.99-17.05-41.1l5.7,18.46c2.99,6.97,6.41,15,13.16,19.01,9.35,5.56,25.48,2.37,25.37,17.86l-2,1.36Z"/>
          <path class="cls-3" d="M1185.62,685.5c-.35-22.02,20.32-52.42,43.49-53.81l-15.03,9.01c-16.78,13.34-20.52,28.83-26.75,48.48-.64-.45-.84-.61-1.46-1.09-.49-.38-.25-2.6-.25-2.6Z"/>
          <path class="cls-3" d="M1137.89,615.99l8.19-17.26c8.73-12.59,25.25-12.54,38.71-15.56-3.34,5.19-11.55,4.5-17.18,6.83-7.16,2.96-15.51,7.4-19.76,14.11-1.2,1.9-8.32,15.9-8.27,17.01,0,0-1.3-3.92-1.69-5.13Z"/>
          <path class="cls-3" d="M1284.08,690.08c1.63,8.08,10.82,12.34,10.79,26.97,0,2.34.56,10.04-2.32,9.94-.77-.03-1.87-.07-3.14-.08,8.19-19.45-13.71-28.72-10.44-47.39l5.11-22.68c1.34,9.77-1.83,24.17,0,33.25Z"/>
        </g>
      </g>
      <rect class="cls-4" width="2048.06" height="2048.2"/>
    </g>
  </g>
</svg>