<?xml version="1.0" encoding="UTF-8"?>
<svg id="Layer_2" data-name="Layer 2" xmlns="http://www.w3.org/2000/svg" viewBox="0 0 2048.06 2048.2">
  <defs>
    <style>
      .cls-1 {
        opacity: .3;
      }

      .cls-2 {
        fill: #252423;
      }

      .cls-3 {
        fill: #fefefe;
      }

      .cls-4 {
        opacity: 0;
      }
    </style>
  </defs>
  <g id="sshh">
    <g>
      <g>
        <path d="M1388.55,754.37c-6.28-.98-12.57,2.07-18.7,3.07-10.71,1.75-21.14-.61-31.79.12-3.5.24-7.43,1.3-10.96,1.62-48.19,4.39-87.64-5.73-127.56-33.16-10.25-7.04-24.76-20.8-35.21-25.42-1.1-.49-4.32-2.14-4.86-.29-.18,1.55.84,3.34,1.61,4.66,6.71,11.4,25.02,26.62,35.84,34.37,24.42,17.5,53.4,32.69,83.6,35.28,29.58,2.54,78.66-.86,104.73-16.44,1.44-.86,3.64-1.85,3.31-3.83Z"/>
        <path class="cls-2" d="M1351.96,561.43c-3.9,18.15-16.42,34.59-33.15,42.18-17.24,7.82-38.71,6.18-54.41-4.46-15.38-10.42-24.89-25.28-26.6-44.33-.09-.43-.35-.7-.76-.82-1.34-.39-6.55-.16-8.33-.09-18.23.73-37.16,4.41-55.41,5.9-10.65.87-21.29.68-31.87,2.17-1.74.25-10.56,1.75-11.23,2.69-.36,4.96,1.08,10.07,2.28,14.86,3.23,12.89,8.48,28.19,13.77,40.34,41.11,94.47,161.92,123.9,246.84,72.76,7.58-4.56,13.14-10.37,19.78-16.09,2.74-2.36,5.94-4.27,8.64-6.65,7.41-6.54,16.41-16.64,22.48-24.54,13.68-17.83,23.52-39.18,25.07-62.05l-117.1-21.86Z"/>
        <path d="M1388.55,754.37c.34,1.97-1.87,2.97-3.31,3.83-26.06,15.58-75.15,18.98-104.73,16.44-30.2-2.6-59.18-17.78-83.6-35.28-10.82-7.76-29.13-22.97-35.84-34.37-.78-1.32-1.79-3.11-1.61-4.66.53-1.85,3.76-.2,4.86.29,10.45,4.62,24.97,18.38,35.21,25.42,39.92,27.42,79.37,37.54,127.56,33.16,3.53-.32,7.46-1.38,10.96-1.62,10.65-.73,21.08,1.63,31.79-.12,6.13-1,12.41-4.05,18.7-3.07Z"/>
        <g>
          <path d="M1506.46,549.99c-.45-14.35-14.53-18.05-25.89-23.6-11.35-5.55-11.81-20.36-19.98-43.54-8.17-23.18-25.89-54.1-78.57-73.54-52.68-19.44-116.26-3.95-116.26-3.95-99.91,13.18-143.51,108.53-145.32,108.53s-13.62,3.24-18.17,10.64c-4.54,7.4,0,32.86,5.03,33.78,5.03.93,10.86,7.87,10.86,7.87,0,0,10.85,57.85,41.27,96.25,30.43,38.41,82.5,62.16,143.26,62.63,60.76.46,85.23-20.98,122.01-46.89,36.79-25.91,52.23-80.98,54.95-88.85,2.72-7.87,12.72-7.87,17.26-7.87s9.99-17.12,9.54-31.47ZM1492.69,574.38c-4.77,1.16-68.3-16.35-68.3-16.35-90.79-16.13-188.69-14.54-280.31-7.52l-26.6,2.04c-9.39,3.15-11.04-7.77-9.68-16.1,1.36-8.33,18.17-7.87,18.17-7.87,12.49-16.58,14.24-27.01,28.06-42.56,12.41-13.97,27.21-30.26,42.67-40.75,2.61-1.77,4.44-3.53,6.75-5.11,8.2-5.61,19.87-11.71,29.16-15.33,4.01-1.56,8.25-2.61,12.17-4.39,0,0,17.96-4.76,39.09-7.35,4.69-.57,12.69-1.78,17.66-2.26,31.68-3.09,54.27-1.68,84.25,9.59,25.09,9.44,38.96,19.88,54.56,41.95,1.16,1.64,3.59,6.35,4.8,7.1l8.99,17.76c6.14,12.26,8.16,25.76,11.55,38.87,2.21,8.57,7.32,8.7,13.82,12.57,0,0,20.24,4.94,20.02,10.03,0,0-2.04,24.53-6.81,25.68Z"/>
          <path d="M1381.95,519.18c-56.4-14.87-119.09-18.46-176.61-9.69-17.76,2.71-35.19,7.09-52.13,13.02-.55,3.63,3.05,1.91,4.98,1.84,4.13-.15,8.48.28,12.57.02,10.07-.64,20.66-2.94,30.84-3.75,49.21-3.94,104.01-3.98,152.61,4.96,15.81,2.91,30.8,7.77,46.43,11.32,11.66,2.65,23.57,4.87,35.58,4.52-4.04-3.83-9.57-7.01-14.65-9.32-11.76-5.34-27.07-9.61-39.63-12.92Z"/>
        </g>
        <path class="cls-3" d="M1351.96,561.43l117.1,21.86c-1.55,22.87-11.39,44.23-25.07,62.05-6.06,7.9-15.06,18-22.48,24.54-2.7,2.38-5.9,4.29-8.64,6.65-6.64,5.72-12.2,11.53-19.78,16.09-84.92,51.13-205.73,21.7-246.84-72.76-5.29-12.15-10.54-27.45-13.77-40.34-1.2-4.79-2.64-9.9-2.28-14.86.66-.94,9.48-2.44,11.23-2.69,10.59-1.49,21.23-1.3,31.87-2.17,18.26-1.49,37.18-5.17,55.41-5.9,1.78-.07,6.99-.3,8.33.09.41.12.67.39.76.82,1.7,19.05,11.21,33.9,26.6,44.33,15.7,10.64,37.17,12.27,54.41,4.46,16.73-7.58,29.25-24.02,33.15-42.18Z"/>
        <g class="cls-1">
          <path d="M1492.69,574.38c4.77-1.16,6.81-25.68,6.81-25.68.23-5.09-20.02-10.03-20.02-10.03-6.5-3.87-11.61-4-13.82-12.57-3.38-13.12-5.41-26.62-11.55-38.87l-8.99-17.76c-1.21-.76-3.64-5.46-4.8-7.1-15.6-22.07-29.47-32.51-54.56-41.95-29.98-11.27-52.57-12.69-84.25-9.59-4.97.49-12.97,1.69-17.66,2.26-21.13,2.58-39.09,7.35-39.09,7.35-3.92,1.78-8.16,2.83-12.17,4.39-9.28,3.62-20.95,9.72-29.16,15.33-2.31,1.58-4.15,3.34-6.75,5.11-15.46,10.49-30.26,26.78-42.67,40.75-13.82,15.55-15.57,25.98-28.06,42.56,0,0-16.8-.46-18.17,7.87-1.36,8.33.29,19.25,9.68,16.1l26.6-2.04c91.62-7.02,189.52-8.61,280.31,7.52,0,0,63.53,17.51,68.3,16.35ZM1400.65,536.91c-15.63-3.56-30.62-8.41-46.43-11.32-48.6-8.94-103.4-8.9-152.61-4.96-10.18.82-20.77,3.11-30.84,3.75-4.09.26-8.44-.17-12.57-.02-1.93.07-5.53,1.79-4.98-1.84,16.94-5.94,34.37-10.31,52.13-13.02,57.52-8.78,120.21-5.18,176.61,9.69,12.56,3.31,27.87,7.58,39.63,12.92,5.08,2.31,10.62,5.49,14.65,9.32-12.01.35-23.92-1.86-35.58-4.52Z"/>
        </g>
      </g>
      <rect class="cls-4" width="2048.06" height="2048.2"/>
    </g>
  </g>
</svg>