<?xml version="1.0" encoding="UTF-8"?>
<svg id="Layer_2" data-name="Layer 2" xmlns="http://www.w3.org/2000/svg" viewBox="0 0 2048.06 2048.2">
  <defs>
    <style>
      .cls-1 {
        fill: #fff;
      }

      .cls-2 {
        opacity: .3;
      }

      .cls-3 {
        opacity: 0;
      }
    </style>
  </defs>
  <g id="sssseeer">
    <g>
      <g>
        <path d="M1352.73,777.16c-6.7,9.55-19.74,14.18-30.63,17.38-60.25,17.72-125.55-2.33-166.35-49.38-6.6-7.62-13.86-16.97-17.37-26.46,16.53,15.94,33.19,31.78,52.99,43.73,34.26,20.69,73.25,28.88,113.17,24.3l48.19-9.56Z"/>
        <path class="cls-2" d="M1468.26,593.41c-13.88-.62-23.39-7.85-35.24-12.77-30.2-12.54-60.51-25.58-93.49-29.02-4.08-.03-1.49,1.78.29,2.52,24.68,10.22,50.88,16.56,75.14,27.86l43.58,26.01c4.03,3.11-2.97,21-6.26,21.26-24.94-12.22-51.08-21.99-78.07-28.79-65.36-16.46-145.17-20.29-211.07-5.26-8.43,1.92-41.47,14.06-47.13,10.12-6.29-18.45,14.69-28.39,28.38-34.43,29.21-12.89,62.56-19.26,94.22-22.7,2.13-1.15.77-2.88-.91-3.31-3.04-.79-10.22-.39-13.79-.25-18.01.75-41.39,4.04-58.45,9.75-8.92,2.99-16.82,8.19-25.7,11.18,10.68-60.35,51.41-117.99,104.85-147.77,39.29-21.9,83.76-25.18,127.61-15.78,93.04,19.94,94.08,113.58,96.02,191.39Z"/>
        <path class="cls-1" d="M1232.84,606.12c9.77,45.42,65.12,48.39,89.03,11.41,1.73-2.68,1.17-7.23,5.08-7.46,40.77,6.58,80.35,17.73,118.9,32.19-1.19,18.55-13.05,40.55-24.96,54.81-82.06,98.22-283.57,59.39-288.02-81.32,33.16-4.24,66.36-11.18,99.97-9.62Z"/>
        <path d="M1407.95,399.71c-107.19-58.57-231.37,8.33-272.01,115.42-4.86,12.81-9.01,38.4-14.27,48.02-.68,1.24-12.36,7.27-15.31,10.1-10.28,9.87-14.44,27.16-6.18,39.56,4.95,7.42,11.02,7.12,18.02,11.21,9.6,126.45,150.29,174.92,256.33,128.32,42.71-18.77,77.45-56.74,86.82-103.21,0,0,.81-14.02,3.21-11.96,2.4,2.06,7.21.69,9.61-4.12,2.4-4.81,3.78-15.79,5.15-21.63,1.37-5.84-3.46-10.36-2.75-17.85,13.73-143.49-68.64-193.86-68.64-193.86ZM1420.9,697.07c-82.06,98.22-283.57,59.39-288.02-81.32,33.16-4.24,66.36-11.18,99.97-9.62,9.77,45.42,65.12,48.39,89.03,11.41,1.73-2.68,1.17-7.23,5.08-7.46,40.77,6.58,80.35,17.73,118.9,32.19-1.19,18.55-13.05,40.55-24.96,54.81ZM1452.28,629.27c-24.94-12.22-51.08-21.99-78.07-28.79-65.36-16.46-145.17-20.29-211.07-5.26-8.43,1.92-41.47,14.06-47.13,10.12-6.29-18.45,14.69-28.39,28.38-34.43,29.21-12.89,62.56-19.26,94.22-22.7,2.13-1.15.77-2.88-.91-3.31-3.04-.79-10.21-.39-13.79-.25-18.01.75-41.39,4.04-58.45,9.75-8.92,2.99-16.82,8.19-25.7,11.18,10.68-60.35,51.41-117.99,104.85-147.77,39.29-21.9,83.76-25.18,127.61-15.78,93.04,19.94,94.08,113.58,96.02,191.39-13.88-.62-23.39-7.85-35.24-12.77-30.2-12.54-60.51-25.58-93.49-29.02-4.08-.03-1.49,1.78.29,2.52,24.68,10.22,50.88,16.56,75.14,27.86l43.58,26.01c4.03,3.11-2.97,21-6.26,21.26Z"/>
      </g>
      <rect class="cls-3" width="2048.06" height="2048.2"/>
    </g>
  </g>
</svg>