<?xml version="1.0" encoding="UTF-8"?>
<svg id="Layer_2" data-name="Layer 2" xmlns="http://www.w3.org/2000/svg" viewBox="0 0 2048.06 2048.2">
  <defs>
    <style>
      .cls-1 {
        fill: #fff;
      }

      .cls-2 {
        opacity: 0;
      }
    </style>
  </defs>
  <g id="ssssoos">
    <g>
      <g>
        <path class="cls-1" d="M1241,387.46c-92.64,31.76-146.69,151.36-96.61,239.44,55.13,96.96,196.39,99.79,276.55,32.62,80.88-67.78,91.68-186.03-5.34-244.67-35.33-21.36-138.95-54.92-178.03-45.17-6.83,1.7-16.06,3.42-12.74,12.86l16.17,4.93ZM1129.15,639.67c-1.44-.83-3.19-.26-4.74-.38-3.8,3.76,11.21,30.56,14.51,35.33,32.49,47.03,104.02,74.58,159.51,60.91l.05-4.96c-30.82-5.33-59.92-7.6-89.02-20.01-31.44-13.41-53.66-32.45-73.91-59.6-1.55-2.08-5.71-10.9-6.4-11.29Z"/>
        <path d="M1241,387.46l-16.17-4.93c-3.32-9.43,5.91-11.15,12.74-12.86,39.09-9.75,142.7,23.81,178.03,45.17,97.03,58.65,86.23,176.89,5.34,244.67-80.16,67.18-221.42,64.35-276.55-32.62-50.09-88.09,3.96-207.68,96.61-239.44ZM1277.83,391.21c-13.43,1.04-45.66,17.57-57.62,25.32-84.46,54.81-114.96,174.74-24.64,240.32,104.57,75.93,280.9-3.72,268.5-138.37-6.53-70.9-77.88-98.76-136.5-115.31-9.77-2.76-41.92-12.57-49.74-11.96Z"/>
        <path d="M1129.15,639.67c.69.4,4.85,9.22,6.4,11.29,20.25,27.15,42.46,46.19,73.91,59.6,29.1,12.41,58.2,14.68,89.02,20.01l-.05,4.96c-55.49,13.67-127.02-13.89-159.51-60.91-3.3-4.77-18.31-31.57-14.51-35.33,1.54.12,3.3-.46,4.74.38Z"/>
        <path class="cls-1" d="M1277.83,391.21c7.81-.61,39.97,9.21,49.74,11.96,58.62,16.55,129.96,44.41,136.5,115.31,12.41,134.65-163.93,214.3-268.5,138.37-90.31-65.58-59.82-185.5,24.64-240.32,11.95-7.76,44.19-24.28,57.62-25.32ZM1226.28,519.51c-41.49,2.31-46.47,69.17.5,62.27,39.99-5.87,36.89-64.35-.5-62.27Z"/>
        <path d="M1226.28,519.51c37.38-2.08,40.48,56.4.5,62.27-46.97,6.9-41.98-59.97-.5-62.27Z"/>
      </g>
      <rect class="cls-2" width="2048.06" height="2048.2"/>
    </g>
  </g>
</svg>