<?xml version="1.0" encoding="UTF-8"?>
<svg id="Layer_2" data-name="Layer 2" xmlns="http://www.w3.org/2000/svg" viewBox="0 0 2048.06 2048.2">
  <defs>
    <style>
      .cls-1 {
        fill: #fff;
      }

      .cls-2 {
        opacity: .3;
      }

      .cls-3 {
        opacity: 0;
      }
    </style>
  </defs>
  <g id="uuups">
    <g>
      <g>
        <g>
          <path d="M1456.17,601.84s24.8,18.58-9.38-54.57c0,0-5.02-17.34-12.89-29.14-7.87-11.81-3.17-24.43,23.81,14.62l7.11,20.23c.24-178.4-207.14-228.5-296.69-102,18.88-10.57,40.49-14.35,61.38-15.65,16.89-1.05-3.4,9.77-3.4,9.77-16.78,2.15-31.82,8.8-46.56,18.05-10.47,6.57-53.16,40.29-54.86,53.55-.35,2.71-2.02,13.01.49,12.16,0,0,65.06-51.51,171.42-33.27,0,0,88.83,9.12,159.57,106.25ZM1488.28,620.62c1.07,5.37-1.07,9.66-4.83,14.49-3.76,4.83-6.44,1.07-11.27,1.07s-6.91,8.59-6.91,8.59c-40.18,120.2-169.81,119.99-169.81,119.99-89.56-9.78-121.92-35.55-153.47-83.5-31.55-47.95-26.92-111.54-26.92-111.54,0,0,.8-24.75,2.41-30.66,0,0-5.37,3.22-7.51,0s-7.04-33.4,8.76-36.59c0,0,13.51-11.9,16.81-19.75,0,0,47.4-109.24,169.74-108.93,89.81.23,123.8,42.06,155.79,107.86,0,0,19.37,64.5,16.3,130.18,0,0,9.81,3.43,10.89,8.8ZM1218.9,504.18c-20.35,1.55-72.05,13.77-85.86,31.12-6.76,8.5-7.14,57.31-5.64,69.43,18.23,147.61,192.38,195.49,286.3,104.21,12.73-12.37,44.39-59.09,42.38-79.21-2.15-21.46-46.47-61.92-53.66-69.21-58.74-59.56-120.2-61.17-183.52-56.34Z"/>
          <path d="M1257.31,577.29c-49.22,6.91-37.85,87.93,9.1,81.19,44.97-6.45,37.86-87.79-9.1-81.19Z"/>
        </g>
        <path class="cls-1" d="M1413.71,708.94c12.73-12.37,44.39-59.09,42.38-79.21-2.15-21.46-46.47-61.92-53.66-69.21-58.74-59.56-120.2-61.17-183.52-56.34-20.35,1.55-72.05,13.77-85.86,31.12-6.76,8.5-7.14,57.31-5.64,69.43,18.23,147.61,192.38,195.49,286.3,104.21ZM1257.31,577.29c46.96-6.59,54.08,74.74,9.1,81.19-46.96,6.74-58.33-74.28-9.1-81.19Z"/>
        <g class="cls-2">
          <path d="M1433.9,518.13c-7.87-11.81-3.17-24.43,23.81,14.62l7.11,20.23c.24-178.4-207.14-228.5-296.69-102,18.88-10.57,40.49-14.35,61.38-15.65,16.89-1.05-3.4,9.77-3.4,9.77-16.78,2.15-31.82,8.8-46.56,18.05-10.47,6.57-53.16,40.29-54.86,53.55-.35,2.71-2.02,13.01.49,12.16,0,0,65.07-51.51,171.42-33.27,0,0,88.83,9.12,159.57,106.25,0,0,24.8,18.58-9.38-54.57,0,0-5.02-17.34-12.89-29.14Z"/>
        </g>
      </g>
      <rect class="cls-3" width="2048.06" height="2048.2"/>
    </g>
  </g>
</svg>