<?xml version="1.0" encoding="UTF-8"?>
<svg id="Layer_2" data-name="Layer 2" xmlns="http://www.w3.org/2000/svg" viewBox="0 0 2048.06 2048.2">
  <defs>
    <style>
      .cls-1 {
        opacity: .3;
      }

      .cls-2 {
        opacity: 0;
      }

      .cls-3 {
        fill: #fdfdfd;
      }
    </style>
  </defs>
  <g id="weeei">
    <g>
      <g>
        <path d="M1453.77,719.22c-11.61,15.58-27.79,35.93-46.78,40.64,7.34-18.09,22.93-30.86,33.61-46.86,12.69-19,21.09-40.52,23.91-63.52.66-5.36,4.42-20.94-3.85-18.95-20.62,109.85-136.51,152.79-233.81,121.57-65.52-21.02-101.22-80-110.36-149.83-.7-1.25-8.88-2.21-12.11-3.61-1.88-.82-5.73-15.43-6.56-17.52-2.31-5.89-.05-17.19,2.02-22.99,0,0,4.7-3.86,8.58-6.45,0,0,15.95-.26,22.41-19.61,6.46-19.35,88.2-201.28,264.55-113.02,0,0,70.67,43.95,83.02,149.32,0,0,9.32,2.41,12.35,16.35s-2.27,35.61-4.54,39.48c-2.27,3.87-9.84,6.19-11.35,20.13-1.51,13.93-9.68,59.6-21.07,74.89ZM1468.71,568.37c-6.11-95.52-87.83-174.51-183.54-162.36-70.11,8.9-131.53,73.38-152.41,140.16-.99,3.43,9.87.48,11.56.43,7.75-.21,15.54.32,23.29.02,17.96-.7,36.02-3.62,54.68-5.14,71.93-5.86,138.96-1.96,209.23,14.73,12,2.85,25.29,8.39,37.18,12.16ZM1468.7,583.4c-29.73-9.82-60.61-20.4-91.87-26.1-69.82-12.72-143.14-5.13-213.25.71-13.34,1.11-35.15-1.03-47.56,4.15-1.68.7-2.12.39-2.54,2.59-.76,3.96.42,19.47,5.64,20.2,4.4.62,27.48-7.63,34.65-9.02,73.51-14.26,216.6-4.45,287.12,22.45,11.82,4.51,25.15,13.61,37.49,13.51,0,0,10.58-21.79-9.69-28.49ZM1252.15,591.15c-40.5.77-81.43.94-121.33,8.4,4.76,120.95,124.94,169.48,227.1,131.35,23.9-8.92,44.76-22.2,59.41-43.78,13.15-19.37,20.34-42.28,30.15-63.42l-1.03-2c-34.68-16.02-72.8-20.81-110.3-25.36.71,20.7-10.85,33.29-30.16,36.95-30.45,5.77-59.32-5.87-53.83-42.13Z"/>
        <path d="M1290.6,808.52c4.42,3.61-15.15,7.13-16.71,7.21-61.8,3.44-120.37-50.91-149.67-101.5-3.67-6.33-13.63-21.96,1.95-15.45,35.86,58.91,94.08,106.84,164.43,109.73Z"/>
        <path class="cls-1" d="M1468.71,568.37c-11.89-3.77-25.18-9.31-37.18-12.16-70.27-16.69-137.3-20.59-209.23-14.73-18.66,1.52-36.72,4.44-54.68,5.14-7.75.3-15.54-.23-23.29-.02-1.7.05-12.55,3-11.56-.43,20.88-66.78,82.3-131.26,152.41-140.16,95.71-12.15,177.42,66.84,183.54,162.36Z"/>
        <path class="cls-3" d="M1252.15,591.15c-5.49,36.26,23.39,47.9,53.83,42.13,19.31-3.66,30.87-16.25,30.16-36.95,37.49,4.56,75.62,9.35,110.3,25.36l1.03,2c-9.81,21.14-17,44.06-30.15,63.42-14.65,21.58-35.51,34.86-59.41,43.78-102.16,38.13-222.33-10.4-227.1-131.35,39.89-7.46,80.83-7.63,121.33-8.4Z"/>
        <g class="cls-1">
          <path d="M1468.7,583.4c-29.73-9.82-60.61-20.4-91.87-26.1-69.82-12.72-143.14-5.13-213.25.71-13.34,1.11-35.15-1.03-47.56,4.15-1.68.7-2.12.39-2.54,2.59-.76,3.96.42,19.47,5.64,20.2,4.4.62,27.48-7.63,34.65-9.02,73.51-14.26,216.6-4.45,287.12,22.45,11.82,4.51,25.15,13.61,37.49,13.51,0,0,10.58-21.79-9.69-28.49Z"/>
        </g>
      </g>
      <rect class="cls-2" width="2048.06" height="2048.2"/>
    </g>
  </g>
</svg>