<?xml version="1.0" encoding="UTF-8"?>
<svg id="Layer_2" data-name="Layer 2" xmlns="http://www.w3.org/2000/svg" viewBox="0 0 2048.06 2048.2">
  <defs>
    <style>
      .cls-1 {
        fill: #fff;
      }

      .cls-2 {
        opacity: .3;
      }

      .cls-3 {
        opacity: 0;
      }
    </style>
  </defs>
  <g id="whhhaa">
    <g>
      <g>
        <path d="M1140.48,710.17c15.18,14.68,20.47,28.35,39.4,42.14,48.53,35.35,125.17,42.97,180.59,20.01,4.29-1.78,7.05-7.49,11.23-5.64-31.91,41.01-109.21,39.72-153.11,21.9-21.22-8.61-61.31-36.75-73.41-55.94-3.39-5.38-11.01-20.14-13.4-25.98-.35-.86-.49-3.07.9-2.77,1.92,2.92,5.58,4.14,7.79,6.27Z"/>
        <g>
          <path d="M1463.14,523.42c-94.42-33.51-243.48-51.29-339.28-19.58M1140.48,710.17c-2.21-2.14-5.87-3.35-7.79-6.27-1.4-.3-1.26,1.91-.9,2.77,2.39,5.84,10.01,20.6,13.4,25.98,12.1,19.18,52.19,47.32,73.41,55.94,43.89,17.82,121.19,19.1,153.11-21.9-4.18-1.85-6.93,3.86-11.23,5.64-55.41,22.96-132.05,15.34-180.59-20.01-18.93-13.79-24.23-27.46-39.4-42.14Z"/>
          <path d="M1433.96,682.27c-59.06,70.24-152.12,80.5-232.53,35.12-75.98-42.88-94.02-115.08-77.15-197.41,0,0-6.92,1.06-12.24-5.32-5.32-6.39-6.92-29.27-4.79-33.52,2.13-4.26,12.24-10.64,15.43-12.77,3.19-2.13,32.46-49.49,92.59-64.92,66.98-17.19,159.44-9.85,213.9,36.18,0,0,30.33,28.73,34.05,38.31,3.72,9.58,2.13,6.39,3.72,11.17s5.32,9.58,10.11,11.71c4.79,2.13,1.6,23.41,0,27.67-1.6,4.26-11.71,3.72-12.77,6.39,0,0-3.16,115.08-30.33,147.39ZM1299.86,402.79c-51.48-4.98-117.95,16.2-137.8,37.37-19.73,21.04-23.94,21.28-.53,20.75s26.07,3.72,26.07,3.72c-12.24,1.06-44.7,8.51-54.81,11.71-10.11,3.19-19.69,10.64-17.03,20.75,2.66,10.11,8.1,6.74,8.1,6.74,95.79-31.71,244.86-13.93,339.28,19.58,0,0,6.47-14.09,2.75-20.47-3.72-6.39-18.09-16.5-27.67-18.09s7.98-10.11,14.37-7.98c6.39,2.13-45.76-63.74-152.73-74.08ZM1300.49,713.29c61.56-13.84,106.14-82.37,90.96-144.43-3.35-13.72-22.58-46.75-35.56-52.55-9.87-4.41-37.22-8.03-48.87-9.24-34.27-3.57-68.73-1.73-103.05.02-7.02,1.35-13.85,20.22-16.03,27.08-15.19,47.72-8.18,96.35,44.05,113.53,59.47,19.57,108.05-4.72,100.15-72.03-2.45-20.89-13.27-30.28-32.51-36.85-6.3-2.15-17.85-4.57-24.34-3.57-7.3,1.13-24.67,17.36-28.87,23.66-12.49,18.78-6.09,56.43,21.19,51.2,9.91-1.9,10.96-15.87,3.5-18.4-3.57-1.21-10.92,1.74-11.87-2.16l21.25-7.33c39.4,46.82-49.8,63.24-58.3,13.42-10.95-64.16,78.32-106.75,113.57-49.84,53.94,87.1-27.83,153.17-115.86,117.73-70.02-28.19-67.71-93.98-41.28-154.61l-43.17,8.36c-8.23,33.4-7.38,68.62,1.45,101.78,39.94,150.04,276.71,153.13,311.11.83,3.25-14.37,9.46-68.52,1.41-79.02-5.4-7.04-50.33-15.06-60.83-18.82,37.26,45.17,31.02,113.69-9.38,154.62-21.57,21.86-42.94,32.04-73,37.61-1.94.36-6.15,2.47-5.71-1.03Z"/>
          <path class="cls-1" d="M1300.49,713.29c-.44,3.49,3.77,1.39,5.71,1.03,30.06-5.58,51.43-15.76,73-37.61,40.4-40.94,46.65-109.45,9.38-154.62,10.5,3.75,55.44,11.78,60.83,18.82,8.05,10.5,1.84,64.65-1.41,79.02-34.4,152.3-271.16,149.21-311.11-.83-8.83-33.16-9.68-68.38-1.45-101.78l43.17-8.36c-26.43,60.63-28.73,126.42,41.28,154.61,88.03,35.44,169.8-30.63,115.86-117.73-35.24-56.91-124.52-14.32-113.57,49.84,8.5,49.81,97.7,33.39,58.3-13.42l-21.25,7.33c.94,3.9,8.3.95,11.87,2.16,7.47,2.53,6.41,16.49-3.5,18.4-27.28,5.24-33.69-32.42-21.19-51.2,4.19-6.3,21.56-22.53,28.87-23.66,6.49-1,18.04,1.42,24.34,3.57,19.24,6.57,30.06,15.96,32.51,36.85,7.9,67.32-40.68,91.6-100.15,72.03-52.23-17.19-59.24-65.81-44.05-113.53,2.18-6.86,9.01-25.73,16.03-27.08,34.32-1.75,68.78-3.59,103.05-.02,11.66,1.21,39,4.83,48.87,9.24,12.98,5.8,32.2,38.83,35.56,52.55,15.18,62.06-29.4,130.59-90.96,144.43Z"/>
          <g class="cls-2">
            <path d="M1465.87,502.94c-3.72-6.39-18.09-16.5-27.67-18.09-9.58-1.6,7.98-10.11,14.37-7.98,6.39,2.13-45.76-63.74-152.73-74.08-51.48-4.98-117.95,16.2-137.8,37.37-19.73,21.04-23.94,21.28-.53,20.75,23.41-.53,26.07,3.72,26.07,3.72-12.24,1.06-44.7,8.51-54.81,11.71s-19.69,10.64-17.03,20.75c2.66,10.11,8.1,6.74,8.1,6.74,95.79-31.71,244.86-13.93,339.28,19.58,0,0,6.47-14.09,2.75-20.47Z"/>
          </g>
        </g>
      </g>
      <rect class="cls-3" width="2048.06" height="2048.2"/>
    </g>
  </g>
</svg>