<?xml version="1.0" encoding="UTF-8"?>
<svg id="Layer_2" data-name="Layer 2" xmlns="http://www.w3.org/2000/svg" viewBox="0 0 2048.06 2048.2">
  <defs>
    <style>
      .cls-1 {
        fill: #fff;
      }

      .cls-2 {
        opacity: .3;
      }

      .cls-3 {
        opacity: 0;
      }
    </style>
  </defs>
  <g id="wwwaz">
    <g>
      <g>
        <g>
          <path d="M1466.82,606.06c12.13-51.73-6.53-123.15-6.53-123.15-24.74-69.56-83.2-100.29-169.36-106.73,0,0-34-8.26-86.66,22.72,0,0-52.66,42.85-60.4,67.11-7.74,24.26-22.82,50.64-20.13,55.76,2.49,4.74-21.65-1.66-18.07,14.46,2.69,12.12,14.45,9.29,14.45,9.29,0,0-12.49,76.87,17.87,123,30.35,46.13,79.79,97.63,173.06,91.19,89.51-6.18,150.17-110.5,150.17-110.5,0,0,18.65,6.44,24.25,0,5.6-6.44-18.65-43.14-18.65-43.14ZM1405.55,699.49c-90.36,87.82-257.9,41.75-275.44-100.26-1.44-11.66-2.63-47.3,3.88-55.47,13.29-16.7,56.47-29.49,75.99-31.48,58.75-5.99,126.7,15.28,174.09,55.26,9.84,8.31,57,54.46,58.89,64.42,3.63,19.11-25.16,55.62-37.4,67.52ZM1454.73,549.45l-6.84-19.47c-18.8-32.57-33.85-38.33-42.8-41.77-8.95-3.44-25.12,4.13-7.92,9.29,17.21,5.16,40.21,46.45,40.21,46.45,10.17,18.63,29.25,55.15,15.14,78.21-2.89-.22-5.6-9.52-6.88-13.08-6.1-16.95-43.52-50.42-57.82-61.26-63.46-48.13-145.95-74.95-218.2-41.3-6.85,3.19-31.5,15.86-37.51,17.9-2.41.82,5.66-16.72,5.99-19.32,0,0,68.07-30.31,97.33-27.9,29.25,2.41,20.65-5.85,10.67-6.54-9.98-.69-61.95,6.54-80.54,12.73,0,0-10.33,3.27-15.49,5.33-5.16,2.06,0-36.14,37.17-68.15,37.17-32.01,87.76-44.91,149.71-28.91,61.95,16,83.12,30.46,113.58,94.47,0,0,21.56,68.8,4.21,63.3Z"/>
          <path d="M1301.29,565.83c-47.36,6.65-36.42,84.59,8.76,78.11,43.27-6.21,36.43-84.46-8.76-78.11Z"/>
        </g>
        <path class="cls-1" d="M1384.06,567.55c-47.39-39.99-115.33-61.25-174.09-55.26-19.52,1.99-62.7,14.78-75.99,31.48-6.51,8.18-5.32,43.81-3.88,55.47,17.54,142.01,185.08,188.07,275.44,100.25,12.24-11.9,41.03-48.42,37.4-67.52-1.89-9.96-49.05-56.12-58.89-64.42ZM1310.05,643.94c-45.17,6.48-56.11-71.47-8.76-78.11,45.18-6.34,52.03,71.91,8.76,78.11Z"/>
        <g class="cls-2">
          <path d="M1336.95,391.67c-61.95-16-112.54-3.1-149.71,28.91-37.17,32.01-42.33,70.21-37.17,68.15,5.16-2.07,15.49-5.33,15.49-5.33,18.58-6.2,70.55-13.42,80.54-12.73,9.98.69,18.59,8.95-10.67,6.54-29.25-2.41-97.33,27.9-97.33,27.9-.33,2.6-8.41,20.14-5.99,19.32,6.01-2.04,30.66-14.7,37.51-17.9,72.25-33.65,154.74-6.83,218.2,41.3,14.3,10.85,51.72,44.32,57.82,61.26,1.28,3.56,3.99,12.86,6.88,13.08,14.11-23.06-4.96-59.58-15.14-78.21,0,0-23-41.29-40.21-46.45-17.21-5.16-1.03-12.73,7.92-9.29,8.95,3.44,24,9.2,42.8,41.77l6.84,19.47c17.35,5.49-4.21-63.3-4.21-63.3-30.46-64.02-51.62-78.47-113.58-94.47Z"/>
        </g>
        <path d="M1205.89,769.59c15.78,16.64,41.26,20.88,64.2,22.95,61.35,5.52,124.67-23.32,160.77-73.22,2.75,1.66,1.83,5.84.45,8.74-12.05,25.2-33.38,45.33-58,58.51-24.62,13.18-52.42,19.7-80.27,21.82-18.19,1.38-36.91.87-54.02-5.45-17.11-6.32-32.51-19.18-38.38-36.45,0,0,1.62-.73,5.26,3.11Z"/>
      </g>
      <rect class="cls-3" width="2048.06" height="2048.2"/>
    </g>
  </g>
</svg>