<?xml version="1.0" encoding="UTF-8"?>
<svg id="Layer_2" data-name="Layer 2" xmlns="http://www.w3.org/2000/svg" viewBox="0 0 2048.06 2048.2">
  <defs>
    <style>
      .cls-1 {
        fill: #fff;
      }

      .cls-2 {
        opacity: .3;
      }

      .cls-3 {
        opacity: 0;
      }
    </style>
  </defs>
  <g id="yeeewn">
    <g>
      <g>
        <path d="M1468.47,573.69c1.43-66.21-40.98-133.76-103.65-156.71-60.15-22.03-121-16.52-172.01,23.13-29.1,22.62-53.74,58.12-63.81,93.63,40.45-9,82.07-14.39,123.71-12.34,11.64.57,37.78,2.66,47.65,7.65,2.22,1.12,4.38,1.37,3.74,4.68-7.77,3.52-14.55.12-22.19-.06-52.49-1.24-103.79.33-154.93,12.65-4.51,1.05-5.24,18.09-3.34,18.17,82.93-14.42,171.42-10.3,253.33,9.3,30.35,7.27,58.91,19.36,88.43,29.08-.38-5.36,3.93-11.4-.01-16.13-2.25-2.7-21.63-12.77-26.28-15.19-6.49-3.38-14.07-6.86-20.77-9.95-8.94-4.13-34.86-12.12-40.43-16.41-4.19-3.22,1.84-6.56,5.26-6.65,7.43-.21,36.93,10.93,45.35,14.42,13.87,5.75,27.03,13.16,39.95,20.71ZM1122.58,501.99c63.22-121.64,224.24-159.4,317.5-51.21,41.43,48.06,49.05,106.82,48.44,168.18-.01,1.39-1.06,6.26-1.87,6.75l-5.69.38c-3.46,23.98-12.42,49.01-24.52,69.98,0,0-21.93,29.88-25.63,34.27-2.49,2.96-9.43,13.53-13.08,17.66-1.96,2.23-15.78,17.14-18.38,14.63l14.62-23,29.91-64.55c-18.69,19.79-38.15,36.84-63.47,47.89-102.52,44.73-226.08-3.47-264.45-109.36-2.11-5.81-6.78-29.42-7.69-30.72,0,0-1.68-14.8-5.88-14.45-4.2.35-6.3-4.2-6.3-13.66s0-20.31,8.06-20.31,7.71-1.75,9.81-7c2.1-5.25,6.89-22.13,8.63-25.47ZM1250.18,572.32c-3.73-1.01-7.4-1.55-11.29-1.77-26.07-1.47-63,1.2-88.94,4.9-8.48,1.21-17.35,2.71-25.55,5.14,9.72,28.54,17.42,58.78,38.34,81.48,78.81,85.52,216.68,81.27,282.12-17.5,2.48-3.74,14.93-23.14,12.74-26.17-37.65-16.32-76.78-31.85-118.01-35.31-4.27,16.79-19.23,34.67-37.78,35.26-9.32.29-28.68-3.13-36.65-8-11.91-7.28-15.84-25-14.98-38.02Z"/>
        <path d="M1317.93,754.98c-21.56-2.3-43.33-2.25-64.83-6.62-34.04-6.92-77.2-28.69-101.14-54.01-4.64-4.91-7.77-11.17-12.2-16.2-.61,23.51,22.85,41.78,40.65,53.81,24.05,16.25,49.74,26.22,78.57,30.5l19.8,1.7,38.48-4.5.67-4.68Z"/>
        <path class="cls-2" d="M1468.47,573.69c-12.92-7.56-26.08-14.96-39.95-20.71-8.42-3.49-37.92-14.63-45.35-14.42-3.42.1-9.44,3.43-5.26,6.65,5.57,4.29,31.48,12.28,40.43,16.41,6.7,3.09,14.28,6.57,20.77,9.95,4.65,2.42,24.03,12.49,26.28,15.19,3.95,4.73-.37,10.77.01,16.13-29.52-9.72-58.08-21.82-88.43-29.08-81.9-19.61-170.4-23.72-253.33-9.3-1.91-.08-1.17-17.12,3.34-18.17,51.15-12.32,102.45-13.89,154.93-12.65,7.65.18,14.42,3.58,22.19.06.63-3.31-1.52-3.56-3.74-4.68-9.87-4.99-36.01-7.08-47.65-7.65-41.64-2.04-83.27,3.34-123.71,12.34,10.07-35.51,34.71-71.01,63.81-93.63,51.01-39.66,111.86-45.17,172.01-23.13,62.66,22.96,105.08,90.51,103.65,156.71Z"/>
        <path class="cls-1" d="M1250.18,572.32c-.85,13.02,3.07,30.74,14.98,38.02,7.97,4.87,27.33,8.3,36.65,8,18.55-.58,33.52-18.47,37.78-35.26,41.23,3.46,80.36,18.99,118.01,35.31,2.19,3.02-10.26,22.42-12.74,26.17-65.44,98.77-203.31,103.02-282.12,17.5-20.92-22.7-28.62-52.94-38.34-81.48,8.19-2.43,17.06-3.93,25.55-5.14,25.95-3.7,62.88-6.37,88.94-4.9,3.89.22,7.56.76,11.29,1.77Z"/>
        <path d="M1317.93,754.98l-.67,4.68-38.48,4.5-19.8-1.7c-28.83-4.27-54.52-14.25-78.57-30.5-17.8-12.02-41.26-30.3-40.65-53.81,4.43,5.03,7.56,11.3,12.2,16.2,23.94,25.32,67.1,47.08,101.14,54.01,21.5,4.37,43.26,4.32,64.83,6.62Z"/>
      </g>
      <rect class="cls-3" width="2048.06" height="2048.2"/>
    </g>
  </g>
</svg>