<?xml version="1.0" encoding="UTF-8"?>
<svg id="Layer_2" data-name="Layer 2" xmlns="http://www.w3.org/2000/svg" viewBox="0 0 2048.06 2048.2">
  <defs>
    <style>
      .cls-1 {
        fill: #fff;
      }

      .cls-2 {
        opacity: .3;
      }

      .cls-3 {
        opacity: 0;
      }
    </style>
  </defs>
  <g id="yeeer">
    <g>
      <g>
        <path d="M1105.97,540.97c1.17-7.83,10.24-56.5,14.31-58.65,2.56-.34,2.51-.12,2.34,2.32-1.02,14.09-4.42,28.32-5.79,42.37-.17,1.71-1.84,5.27,1.08,4.96,27.26-115.24,121.2-173.6,233.99-143.24,138.53,37.28,127.72,170.97,136.11,173.16,8.39,2.19,16.05,5.11,13.49,22.25-2.55,17.14-9.12,17.14-16.41,18.97-7.29,1.82-8.44,17.64-8.44,17.64-.9,1.03-5.17,21.66-6.89,26.48-42.3,118.87-196.5,144.58-292.71,74.73,0,0-73.84-57.58-73.11-129.8,0,0-2.55-7.29-6.2-7.29s-7.29-10.58-4.01-17.14c3.28-6.57,5.47-3.65,7.66-6.2,2.19-2.55,4.56-20.56,4.56-20.56ZM1127.85,562.25c-18.46,6.75-23.62,13.1-22.43,15.5,88.15-26.49,196.53-30.3,285.63-9.32,25.39,5.98,49.74,15.34,75.22,20.99,2.47-3.11,2.29-10.65.59-12.59l-26.81-17.32,28.45,5.65c1.61-1.15,1-4.95,1.02-6.75.06-4.75.9-14.11,0-19.33-10.28-59.45-47.55-103.39-103.28-129.01-117.4-53.96-224.94,27.08-247.97,140.18,0,0-1.76,10.18-.84,11.42.93,1.24,36.1-17.14,55.45-17.66,20.42-.55,14.77,5.11-1.32,6.6-14.49,1.34-43.72,11.64-43.72,11.64ZM1335.17,580.1c2.45,15.38-10.97,26.39-24,31.1-28.91,10.44-55.31,1.21-74.58-21.75-3.91-4.66-7.6-15.98-14.11-16.68-5.25-.56-21.09,2.04-27.53,2.89-25.11,3.3-49.88,9.82-74.58,15.12-3.24,2.2,3.52,26.17,4.9,30.86,43.16,147.67,267.84,168.28,328.54,28.26,3.13-7.22,11.76-28.68,9.02-35.2-2.93-6.98-24.24-12.46-31.83-14.83-31.11-9.71-63.56-15.4-95.84-19.77Z"/>
        <path d="M1375.5,780.35c4.46,4.38-13.67,13.96-16.51,15.29-63,29.57-157.62.91-201.52-50.98-4.07-4.81-23.64-32.31-19.37-37.27,4.86-.03,5.56,6.03,8.48,9.35,32.69,37.16,78.91,68.44,129.03,74.27,34.48,4.01,66.23-4.85,99.88-10.66Z"/>
        <path class="cls-1" d="M1335.17,580.1c32.27,4.37,64.73,10.06,95.84,19.77,7.59,2.37,28.9,7.85,31.83,14.83,2.74,6.52-5.89,27.99-9.02,35.2-60.7,140.02-285.39,119.42-328.54-28.26-1.37-4.69-8.14-28.66-4.9-30.86,24.7-5.3,49.47-11.82,74.58-15.12,6.44-.85,22.28-3.45,27.53-2.89,6.51.7,10.19,12.02,14.11,16.68,19.27,22.95,45.67,32.19,74.58,21.75,13.04-4.71,26.45-15.72,24-31.1Z"/>
        <g class="cls-2">
          <path d="M1391.04,568.44c25.39,5.98,49.74,15.34,75.22,20.99,2.47-3.11,2.29-10.65.59-12.59l-26.81-17.32,28.45,5.65c1.61-1.15,1-4.95,1.03-6.75.06-4.75.9-14.11,0-19.33-10.28-59.45-47.55-103.39-103.28-129.01-117.4-53.96-224.94,27.08-247.97,140.18,0,0-1.76,10.18-.84,11.42.93,1.24,36.1-17.14,55.45-17.66,20.42-.55,14.77,5.11-1.32,6.6-14.49,1.34-43.72,11.64-43.72,11.64-18.46,6.75-23.62,13.1-22.43,15.5,88.15-26.48,196.53-30.3,285.63-9.32Z"/>
        </g>
      </g>
      <rect class="cls-3" width="2048.06" height="2048.2"/>
    </g>
  </g>
</svg>