<?xml version="1.0" encoding="UTF-8"?>
<svg id="Layer_2" data-name="Layer 2" xmlns="http://www.w3.org/2000/svg" viewBox="0 0 2048.06 2048.2">
  <defs>
    <style>
      .cls-1 {
        opacity: .3;
      }

      .cls-2 {
        fill: #fcfcfc;
      }

      .cls-3 {
        opacity: 0;
      }
    </style>
  </defs>
  <g id="yoo">
    <g>
      <g>
        <path d="M1465.01,617.51c-35.58,71.26-98.85,95.89-176.88,97.79-67.61,1.64-142.38-50.29-160.17-116.3,0,0-11.58-40.3-6.81-53.56,0,0-.33-9.69-4.92-12.24s-9.18-24.48-5.61-29.07c3.57-4.59,10.71-7.14,17.34-9.18s47.24-75.03,149.96-70.9c80.99,3.26,140.27,5.1,181.08,78.04,0,0,6.12,16.83,11.22,19.89,5.1,3.06,17.85,10.71,19.89,14.79,2.04,4.08-1.02,20.4-3.06,22.44s-11.06,3.54-11.2,8.16c-.49,16.32-10.85,50.14-10.85,50.14ZM1351.4,437.13c-158.79-29.38-212.21,55.78-206.09,54.76s63.25,3.57,51.01,3.57-55.6,8.16-55.6,8.16c-5.61,1.53-12.24,4.59-16.83,6.63-4.59,2.04,3.06,19.89,5.61,22.44,2.55,2.55,16.32-2.33,16.32-2.33,54.68-10.76,101.73-11.96,157.62-9.91,33.14,1.21,73.53,7.57,105.59,15.3,0,0,43.36,11.22,62.23,18.87,0,0,3.57-11.22,4.59-17.34,1.02-6.12-37.24-26.52-50.5-29.07,0,0,18.87-3.06,28.56,3.57,0,0-29.04-61.05-102.51-74.65ZM1352.66,537.57c3.07,15.09,9.73,24.92,7.95,41.31-3.74,34.39-46.22,59.06-76.94,44.71-28.22-13.19-40.42-44.54-30.39-73.91,1.94-5.69,12.73-17.15,4.14-18.62-7.69-1.32-25.59-.41-34.24-.07-19.29.76-45.53,3.21-64.28,7.33-6.37,1.4-22.99,4.55-24.32,11.48-2.34,12.15.52,34.43,3.68,46.68,39.38,152.81,296.43,137.55,324.32-6.8,1.22-6.31,5.01-21.78-.4-26.18"/>
        <path d="M1481.19,666.16c1.86,2.62-9.38,21.32-11.65,24.83-49.15,76.01-153.97,104.74-237.74,73.93-39.11-14.39-80.64-42.53-97.28-81.73-.03-3.91,10.97,3.67,11.95,4.32,16.08,10.68,30.59,27.15,47.79,38.46,64.94,42.69,135.05,43.05,203.44,7.09,31.22-16.41,53.17-41.02,75.43-67.9,1.46-1.32,7.75.54,8.07.99Z"/>
        <path class="cls-2" d="M1462.18,563.5c5.05,4.81,1.62,19.86.4,26.18-27.9,144.35-284.94,159.61-324.32,6.8-3.16-12.25-6.02-34.53-3.68-46.68,1.33-6.94,17.95-10.08,24.32-11.48,18.75-4.12,44.99-6.57,64.28-7.33,8.66-.34,26.55-1.25,34.24.07,8.58,1.47-2.2,12.93-4.14,18.62-10.03,29.37,2.17,60.72,30.39,73.91,30.71,14.35,73.2-10.32,76.94-44.71,1.78-16.39-4.88-26.22-7.95-41.31,0,0,96.88,13.9,109.52,25.94Z"/>
        <g class="cls-1">
          <path d="M1425.34,508.2s18.87-3.06,28.56,3.57c0,0-29.04-61.05-102.51-74.65-158.79-29.38-212.21,55.78-206.09,54.76,6.12-1.02,63.25,3.57,51.01,3.57s-55.6,8.16-55.6,8.16c-5.61,1.53-12.24,4.59-16.83,6.63-4.59,2.04,3.06,19.89,5.61,22.44,2.55,2.55,16.32-2.33,16.32-2.33,54.68-10.76,101.73-11.96,157.62-9.91,33.14,1.21,73.53,7.57,105.59,15.3,0,0,43.36,11.22,62.23,18.87,0,0,3.57-11.22,4.59-17.34,1.02-6.12-37.24-26.52-50.5-29.07Z"/>
        </g>
      </g>
      <rect class="cls-3" width="2048.06" height="2048.2"/>
    </g>
  </g>
</svg>