<?xml version="1.0" encoding="UTF-8"?>
<svg id="Layer_2" data-name="Layer 2" xmlns="http://www.w3.org/2000/svg" viewBox="0 0 2048.06 2048.2">
  <defs>
    <style>
      .cls-1 {
        fill: #fff;
      }

      .cls-2 {
        opacity: .3;
      }

      .cls-3 {
        opacity: 0;
      }
    </style>
  </defs>
  <g id="yooouu">
    <g>
      <g>
        <g>
          <path d="M1420.22,741.36c-51.03,56.62-122.06,69.43-188.26,31.32-25.12-14.46-36.06-33.65-56.29-52.54-1.18-1.1-2.17-1.79-3.87-1.56-.33.3,3.9,7.07,4.4,7.9,9.04,14.93,16.08,26.95,28.92,38.97,51.43,48.15,127.62,56.68,185.04,14.23,14.9-11.02,29.36-25.69,35.44-43.88l-1.02-.27c-.95,1.86-2.9,4.21-4.36,5.83Z"/>
          <path d="M1488.33,573.58c-1.25-1.18-4.46-1.73-4.73-2.53-.86-21-6.79-42.75-14.84-61.98-58.35-139.24-252.39-152.53-322.34-16.6-5.95,11.57-12.21,26.59-15.28,39.29-1.01,4.18-1.32,11.66-2.49,14.9-.3.83-2.71,2.04-3.5,3.27-2.29,3.6-2.87,11.85-3.07,16.15-1.13.2-1.03-.09-1.28-1.03-1.96-7.29-.52-21.03.32-28.82,1.21-11.09,3.33-23.43,5.73-34.32,1.27-5.77,5.11-15.84,5.47-20.82.35-4.79-1.48-5.18-4.63-2.13-11.09,10.72-14.62,37.55-16.83,52.52-.84,5.73-2.73,30.06-4.74,33.23-.89,1.41-2.6,1.9-3.9,4.45-3.08,6.05-5.72,15.93,4.47,14.41-.26,46.63,14.99,95.15,41.33,132.85,2.93,4.19,9.23,13.46,12.78,16.46,1.38,1.16,3.29,2.65,4.84.81-27.16-45.72-43.96-98.69-44.6-152.77h4.61c3.01,35.46,15.12,69.79,36.2,97.91,58.98,78.64,179.05,98.63,257.23,38.61,35.36-27.15,57.19-68.37,63.97-113.17,0,0,7.42,4.06,7.73-17.07-.44-4.36,1.04-10.29-2.47-13.6ZM1457.47,652.23c-76.16,144.72-289.38,97.51-319.77-57.01-.63-3.19-2.26-10.24-2.14-13.1.06-1.36,1.13-2.6,2.26-3.22l24.48-1.72c26.09-.47,52.12-3.06,78.21-3.69,3.59,45.17,78.61,52.08,85.05,4.56.4-.59,4.02-.91,4.93-.89,30.44.55,65.13,6.81,95.19,12.39,15.65,2.9,31.2,6.17,46.54,10.45-.37,18.33-6.37,36.29-14.75,52.22ZM1481.87,595.73c-1.71,1.06-113.26-30.39-202.57-30.74,0,0-83.15-.35-108.13,3.53-24.98,3.89-37.64,7.77-39.69,5.3-2.05-2.47-2.4-12.72-1.03-15.2s28.4-7.42,47.91-8.13c19.5-.71,43.8-4.95,7.87-9.19-35.93-4.24-56.12-14.14-20.87-56.89,35.24-42.76,67.07-81.63,145.77-75.98,88.52,6.36,140.56,82.47,153.64,126.86,4.79,16.26-4.45,13.78-18.82,14.49-14.37.71-25.66,4.24-8.21,8.83,17.45,4.59,42.09,20.14,42.09,20.14,3.42.71,3.76,15.9,2.05,16.96Z"/>
        </g>
        <path class="cls-2" d="M1479.83,578.78s-24.64-15.55-42.09-20.14-6.16-8.13,8.21-8.83,23.61,1.77,18.82-14.49c-13.08-44.4-65.12-120.51-153.64-126.86-78.7-5.65-110.52,33.22-145.77,75.98-35.24,42.76-15.06,52.65,20.87,56.89,35.93,4.24,11.63,8.48-7.87,9.19-19.5.71-46.54,5.65-47.91,8.13s-1.03,12.72,1.03,15.2c2.05,2.47,14.71-1.41,39.69-5.3,24.98-3.89,108.13-3.53,108.13-3.53,89.31.35,200.86,31.8,202.57,30.74,1.71-1.06,1.37-16.26-2.05-16.96Z"/>
        <path class="cls-1" d="M1330.5,577.17c-.91-.02-4.53.3-4.94.89-6.44,47.52-81.46,40.61-85.05-4.56-26.09.62-52.12,3.22-78.21,3.69l-24.48,1.72c-1.13.62-2.2,1.86-2.26,3.22-.12,2.86,1.52,9.91,2.14,13.1,30.39,154.52,243.61,201.72,319.77,57.01,8.39-15.93,14.38-33.89,14.75-52.22-15.34-4.28-30.88-7.55-46.54-10.45-30.06-5.57-64.76-11.84-95.19-12.39Z"/>
      </g>
      <rect class="cls-3" width="2048.06" height="2048.2"/>
    </g>
  </g>
</svg>