<?xml version="1.0" encoding="UTF-8"?>
<svg id="Layer_2" data-name="Layer 2" xmlns="http://www.w3.org/2000/svg" viewBox="0 0 2048.06 2048.2">
  <defs>
    <style>
      .cls-1 {
        opacity: 0;
      }
    </style>
  </defs>
  <g id="zzzz">
    <g>
      <g>
        <path d="M1122.96,592.15c-18.52,3.08,10.48,45.74,16.09,52.45,58.45,70.01,187.04,86.31,267.18,49.17,12.25-5.67,46.55-28.08,48.4-41.62,3.33-24.29-21.93-2.82-29.83.88-83.24,38.98-220.86,29.03-284.88-41.84-3.4-3.76-12.63-19.77-16.97-19.05Z"/>
        <path d="M1349.45,792.95c-82.41,3.87-172.69-24.1-217-97.74-6.14-10.2-11.39-26.56-18.65-34.92-1.7-1.96-1.83-4.03-5.41-3.18-2.15,19.65,7.21,38.36,16.88,54.85,37.09,63.26,118.37,99.93,190.78,94.45,3.07-.23,41-6.81,33.4-13.46Z"/>
        <path d="M1122.96,592.15c4.34-.72,13.57,15.29,16.97,19.05,64.02,70.87,201.64,80.82,284.88,41.84,7.9-3.7,33.16-25.17,29.83-.88-1.86,13.54-36.16,35.94-48.4,41.62-80.14,37.14-208.72,20.84-267.18-49.17-5.61-6.72-34.61-49.37-16.09-52.45Z"/>
        <path d="M1349.45,792.95c7.6,6.65-30.33,13.23-33.4,13.46-72.41,5.48-153.69-31.2-190.78-94.45-9.67-16.49-19.03-35.2-16.88-54.85,3.58-.85,3.7,1.22,5.41,3.18,7.26,8.36,12.52,24.73,18.65,34.92,44.31,73.64,134.59,101.61,217,97.74Z"/>
      </g>
      <rect class="cls-1" width="2048.06" height="2048.2"/>
    </g>
  </g>
</svg>