<?xml version="1.0" encoding="UTF-8"?>
<svg id="Layer_2" data-name="Layer 2" xmlns="http://www.w3.org/2000/svg" viewBox="0 0 2048.06 2048.2">
  <defs>
    <style>
      .cls-1 {
        fill: #fff;
      }

      .cls-2 {
        opacity: 0;
      }
    </style>
  </defs>
  <g id="awww">
    <g>
      <g>
        <path d="M740.57,444.4l8.33-.16c39.57,1.64,81.13,19.21,101.84,54.02s35.2,81.37,25.7,123.36c-21.54,95.14-126.74,168.65-223.32,135.44-69.29-23.82-104.63-91.27-89.54-162.66,16.81-79.54,95.43-146.87,177-150ZM733.21,463.67c-93.3,5.91-173.97,99.56-153.2,193.65,22.48,101.82,150.44,117.58,223.86,58.91,97.34-77.77,75-261.8-70.66-252.56Z"/>
        <path d="M820.6,746.29c-5.48,11.55-16.88,20.72-27.95,26.73-13.83,7.51-38.13,14.42-53.68,11.55-1.62-.3-5.57-1.88-6.2-3.43-.26-1.22.5-.75,1.25-.99,19.66-6.45,44.36-4.69,62.96-18.1l23.63-15.75Z"/>
        <path class="cls-1" d="M733.21,463.67c145.66-9.23,168,174.79,70.66,252.56-73.42,58.66-201.38,42.9-223.86-58.91-20.77-94.08,59.89-187.73,153.2-193.65ZM768.34,509.58c-83.64,1.3-157.8,98.69-109.5,176.02,42.9,68.69,138.55,40.88,176.73-17.57,40.91-62.63,19.52-159.8-67.23-158.46Z"/>
        <path d="M768.34,509.58c86.75-1.35,108.15,95.83,67.23,158.46-38.18,58.45-133.83,86.26-176.73,17.57-48.3-77.34,25.86-174.73,109.5-176.02ZM737.17,544.14c-34.78,3.75-50.84,62.49-5.41,54.66,31.12-5.36,51.33-59.6,5.41-54.66Z"/>
        <path class="cls-1" d="M737.17,544.14c45.92-4.94,25.71,49.29-5.41,54.66-45.43,7.83-29.37-50.91,5.41-54.66Z"/>
      </g>
      <rect class="cls-2" width="2048.06" height="2048.2"/>
    </g>
  </g>
</svg>