<?xml version="1.0" encoding="UTF-8"?>
<svg id="Layer_2" data-name="Layer 2" xmlns="http://www.w3.org/2000/svg" viewBox="0 0 2048.06 2048.2">
  <defs>
    <style>
      .cls-1 {
        fill: #fff;
      }

      .cls-2 {
        opacity: .3;
      }

      .cls-3 {
        opacity: 0;
      }
    </style>
  </defs>
  <g id="dahh">
    <g>
      <g>
        <path d="M581.96,700.36c10.84,29.67,31.32,56.69,58.31,73.41-5.87,5.75-12.98-.24-18.09-4.04-.69.71,5.17,7.54,6.05,8.52,20.22,22.64,51.79,35.23,81.42,39.23-11.72,8.5-25.69,7.29-38.99,3.81-45.5-11.93-74.81-55-93.6-95.44-10.52-22.63-19.32-46.88-23.47-71.54-27.34-5.33-20.6-27.13-10.27-45.36,11.6-20.48,16.65-38.45,26.38-59.08,45.81-97.08,237.31-135.1,301.08-40.27,9.33,13.87,11.94,31.36,20.05,43.3,4,5.89,11.66,8.84,11.95,17.29.34,10.31-9.35,9.93-10.02,12.16,4.07,17.48-.78,40.93-7.95,57.36-12.28,28.16-65.09,79.31-91.77,95.26-31.17,18.64-75.11,23.17-111.08,21.74-39.89-1.59-73.62-29.18-100-56.35ZM880.62,550.54c-4.04-9.4-8.58-19.09-13.91-27.82-60-98.47-246.72-61.69-289.64,36.51-2.77,6.34-7.44,18.43-8.15,25.05-.23,2.12.76,1.64,2.4,1.39,5.94-.93,14.97-8.01,19.68-2.96-18.17,8.56-40.85,28.21-42.27,49.76-.13,1.94-.91,4.7,1.56,4.58,8-.4,22.08-17.53,29.18-23.13,55.22-43.58,198.02-68.79,266.32-58.21,15.28,2.37,29.63,8.53,44.88,10.92,2.04-1.84-9.16-7.63-10.36-8.24-2.48-1.25-5.15-2.11-7.57-3.49l-14.25-4.35h22.12ZM717.7,580.71c-51.13,8.18-103.46,22.29-144.34,55.3,9.41,68.06,68.49,114.81,136.86,111.65,77.34-3.58,165.02-71.85,170.4-152.38,1.08-16.14-2.26-15.67-16.88-19.3-15.85-3.94-33.2-5.02-49.47-6.32-4.63,53.25-80.1,61.89-96.56,11.05Z"/>
        <path d="M684.53,786.83c26.14.17,54.03-2.14,78.68-11.32,28.35-10.55,67.79-38.43,87.21-61.61,11.92-14.23,18.48-32.92,33.21-44.71-.9,4.44-1.9,8.96-3.3,13.28-19.73,61.04-118.94,125.34-182.74,111.91-1.6-.34-16.83-3.92-13.06-7.55Z"/>
        <path d="M733.8,819l1.74-2.77c57.59-11.38,105.23-34.92,140.46-82.77l38.79-59.23c-21.75,77.44-95.54,151.63-180.99,144.78Z"/>
        <path class="cls-1" d="M717.7,580.71c16.46,50.84,91.93,42.19,96.56-11.05,16.28,1.3,33.62,2.38,49.47,6.32,14.61,3.63,17.95,3.16,16.88,19.3-5.38,80.53-93.06,148.8-170.4,152.38-68.36,3.17-127.45-43.59-136.86-111.65,40.88-33.01,93.21-47.11,144.34-55.3Z"/>
        <path class="cls-2" d="M880.62,550.54h-22.12l14.25,4.35c2.42,1.38,5.09,2.25,7.57,3.49,1.2.6,12.4,6.4,10.36,8.24-15.25-2.39-29.6-8.55-44.88-10.92-68.3-10.58-211.1,14.63-266.32,58.21-7.09,5.6-21.18,22.73-29.18,23.13-2.47.12-1.69-2.64-1.56-4.58,1.42-21.55,24.09-41.2,42.27-49.76-4.72-5.05-13.74,2.03-19.68,2.96-1.64.26-2.63.73-2.4-1.39.71-6.62,5.38-18.71,8.15-25.05,42.92-98.2,229.64-134.98,289.64-36.51,5.32,8.73,9.87,18.42,13.91,27.82Z"/>
      </g>
      <rect class="cls-3" width="2048.06" height="2048.2"/>
    </g>
  </g>
</svg>