<?xml version="1.0" encoding="UTF-8"?>
<svg id="Layer_2" data-name="Layer 2" xmlns="http://www.w3.org/2000/svg" viewBox="0 0 2048.06 2048.2">
  <defs>
    <style>
      .cls-1 {
        fill: #5f5f5f;
      }

      .cls-2 {
        fill: #fff;
      }

      .cls-3 {
        opacity: .3;
      }

      .cls-4 {
        opacity: 0;
      }
    </style>
  </defs>
  <g id="duh">
    <g>
      <g>
        <g id="_6IVrXQ.tif" data-name="6IVrXQ.tif">
          <g>
            <path d="M548.95,628.53c-2.43-1.39-5.69-13.4-5.69-13.4.06-.3-1.2-3.12-1.39-4-.98-4.47-1.22-10.28-.92-14.85.38-5.75,2.02-9.63,5.92-12.13,0,0,13.44-8.62,14.17-11.07.69-2.29,3.45-6.44,4.95-8.83,41.16-65.73,127.89-116.69,206.92-107.41,67.98,7.98,113.66,57.42,115.92,124.53,0,0,7.8,0,10.92,7.28,3.12,7.28,1.56,41.08-3.64,42.12,0,0-13,3.12-15.08,11.96-2.08,8.84-4.36,22.83-4.36,22.83-2.24,5.96-5.96,12.8-9.29,18.26-47.73,78.22-176.9,93.48-251.22,47.42-9.24-5.72-17.4-12.97-26.4-19.05,17.52,38.7,58.92,61.27,99.82,66.84,51.51,7.02,89.4-9.44,130.69-37.63,7.32-5,14.28-10.93,21.79-15.6,1.51-.94,9.82-6.13,10.99-4.95.07.69,0,1.31-.19,1.98-1.74,6.33-20.52,24.1-26.18,28.92-48.41,41.27-113.88,55.56-174.65,34.14-63.74-22.46-95.44-85.42-95.46-151.81-.35-3.47-5.2-4.16-7.63-5.55ZM572.32,605.22c15.22-5.98,32.65-9.29,48.86-12.14,66.84-11.78,140.73-12.87,206.2,6.46,15.94,4.7,29.23,11.79,44.46,17.32.94.34,5.47,2.22,6,1.67.37-5.97.93-11.93.8-17.92-.87-3.83-.11-8.4-.81-12.18-.08-.42-.21-.76-.56-1.01-15.08-6.6-31.2-14.56-47.64-16.9-1.03-.15-5.5,0-6.06-.82-1.55-2.26,6.09-4.19,7.44-4.5,8.02-1.83,15.38-.85,23.37.25,6.86.95,13.61,2.41,20.31,4.09-7.19-30.87-23.87-60.23-50.08-78.6-61.03-42.76-151.35-17.22-204.33,27.25-18.57,15.59-33.34,35.01-47.04,54.89-.09.28,1.45.56,1.76.59,7.37.74,16.56.22,24.01-.4,3.5-.29,14.04-2.79,16.34-.2s-4.3,3.42-5.82,3.63c-17.55,2.43-33.26,5.92-50.06,11.72-1.99.73-6.78,4.73-6.97,6.73-.05.54.18,3.6.28,4.28.44,3.07,3.38,8.44,6.87,8.5,0,0,9.35-1.42,12.67-2.72ZM681.07,609.09c-29.8.16-59.5,4.18-88.32,11.44-5.87,1.48-15.03,3.29-20.29,5.68-3.34,1.52-3.25,3.26-3.17,6.7.32,14.27,6.6,33.01,13.72,45.3,51.69,89.25,232.32,84.24,278.26-8.38,3.67-7.4,7-17.07,8.2-25.25.29-1.99.95-4.96-.1-6.75-.83-1.42-15.06-6.2-17.68-7.11-28.82-10.06-58.73-17.7-89.31-20.02-.46.16-.55.5-.62.94-.58,3.53-.33,7.61-.89,11.3-3.82,24.91-33.94,37.62-56.27,29.33-16.53-6.14-29.94-25.41-23.52-43.19Z"/>
            <path class="cls-1" d="M681.07,609.09c-6.42,17.78,6.98,37.05,23.52,43.19,22.32,8.29,52.45-4.42,56.27-29.33.57-3.69.31-7.77.89-11.3.07-.43.16-.78.62-.94,30.58,2.32,60.49,9.96,89.31,20.02,2.62.92,16.85,5.69,17.68,7.11,1.05,1.79.39,4.77.1,6.75-1.2,8.18-4.53,17.86-8.2,25.25-45.95,92.62-226.57,97.63-278.26,8.38-7.12-12.29-13.4-31.03-13.72-45.3-.08-3.45-.17-5.19,3.17-6.7,5.26-2.39,14.43-4.2,20.29-5.68,28.82-7.26,58.52-11.28,88.32-11.44Z"/>
          </g>
        </g>
        <g class="cls-3">
          <path d="M878.1,588.44c-.08-.42-.21-.76-.56-1.01-15.08-6.6-31.2-14.56-47.64-16.9-1.03-.15-5.5,0-6.06-.82-1.55-2.26,6.09-4.19,7.44-4.5,8.01-1.83,15.38-.85,23.37.25,6.86.95,13.61,2.41,20.31,4.09-7.19-30.87-23.87-60.23-50.08-78.6-61.03-42.76-151.35-17.22-204.33,27.25-18.57,15.59-33.34,35.01-47.04,54.89-.09.28,1.45.56,1.76.59,7.37.74,16.56.22,24.01-.4,3.5-.29,14.04-2.79,16.34-.2,2.22,2.51-4.3,3.42-5.82,3.63-17.55,2.43-33.26,5.92-50.06,11.72-1.99.73-6.78,4.73-6.97,6.73-.05.54.18,3.6.28,4.28.44,3.07,3.38,8.44,6.87,8.5,0,0,9.35-1.42,12.67-2.72,15.22-5.98,32.65-9.29,48.86-12.14,66.84-11.78,140.73-12.87,206.2,6.46,15.94,4.7,29.23,11.79,44.46,17.32.94.34,5.47,2.22,6,1.67.37-5.97.93-11.93.8-17.92-.87-3.83-.11-8.4-.81-12.18Z"/>
        </g>
        <path class="cls-2" d="M861.27,669.84c3.67-7.4,7-17.07,8.2-25.25.29-1.99.95-4.96-.1-6.75-.83-1.42-15.06-6.2-17.68-7.11-28.82-10.06-58.73-17.7-89.31-20.02-.46.16-.55.5-.62.94-.58,3.53-.33,7.61-.89,11.3-3.82,24.91-33.94,37.62-56.27,29.33-16.53-6.14-29.94-25.41-23.52-43.19-29.8.16-59.5,4.18-88.32,11.44-5.87,1.48-15.03,3.29-20.29,5.68-3.34,1.52-3.25,3.26-3.17,6.7.32,14.27,6.6,33.01,13.72,45.3,51.69,89.25,232.31,84.24,278.26-8.38Z"/>
      </g>
      <rect class="cls-4" width="2048.06" height="2048.2"/>
    </g>
  </g>
</svg>