<?xml version="1.0" encoding="UTF-8"?>
<svg id="Layer_2" data-name="Layer 2" xmlns="http://www.w3.org/2000/svg" viewBox="0 0 2048.06 2048.2">
  <defs>
    <style>
      .cls-1 {
        fill: #fff;
      }

      .cls-2 {
        opacity: .3;
      }

      .cls-3 {
        opacity: 0;
      }
    </style>
  </defs>
  <g id="duuhh">
    <g>
      <g>
        <g>
          <path d="M580.84,708.42s-13.03-33.72-16.09-42.91-5.36-15.33-11.49-15.33-13.79-35.25-11.49-42.91,13.79-10.73,19.16-14.56,22.93-79.84,101.15-121.08c98.85-52.11,193.2-7.62,211.5,95.02,0,0,2.3,18.39,9.96,21.46s3.28,43.32,1.53,49.04c-.94,3.07-7.24,10.9-10.98,9.54s-10.19,2.73-10.19,2.73c-40.3,93.2-127.35,112.76-127.35,112.76-41.79,9.17-75.84,3.98-115.1-11.2-27.86-13.38-40.59-42.56-40.59-42.56ZM802.87,478.94c-62.19-34.98-136.71-13.07-181.48,36.8-36.84,41.04-60.48,78.5-27.53,66.24,32.95-12.26,181.61-3.83,200.77-2.3,19.16,1.53,25.29,12.26,17.63,11.49-7.66-.77-41.38-3.07-71.27-5.36-29.89-2.3-118.01,6.9-136.4,9.96s-43.68,11.49-48.28,14.56c-4.6,3.07-3.07,25.29,1.53,27.59s14.58-3.44,14.58-3.44c3.42-2.49,7.96-3.74,12.05-4.86,61.27-16.84,136.16-19.38,199.46-13.04,24.99,2.5,50,7.47,73.86,14.92,0,0,9.63,2.58,13.46.29s5.36-19.92,5.36-26.82-6.9-10.73-13.03-12.26c-6.13-1.53-7.66-15.33,0-13.79,7.66,1.53-9.58-71.21-60.73-99.97ZM851.6,644.96c-30.69-8.15-62.37-12.42-94.17-14.35-17.7,15.43-39.47,20.69-61.91,11.13-11.9-5.07-11.88-10.81-26.73-10.29-16.3.57-36.11,3.71-52.32,6.5-5.05.87-43.04,8.31-43.28,10.84,3.29,34.54,20.58,65.15,51.85,83.02,53.6,30.62,118.51,21.07,167.94-12.48,26.86-18.23,48.92-43.86,58.6-74.37Z"/>
          <path d="M818.93,734.55c4,3.84-25.6,29.13-29.68,31.96-29.05,20.21-66.04,27.83-101.7,24.75-5.18-.45-12.64-1.53-16.32-5.2l37.88-2.42c29.25-5,56.9-14.91,81.69-30.57,3.43-2.17,26.09-20.47,28.13-18.52Z"/>
          <path class="cls-1" d="M851.6,644.96c-9.68,30.51-31.74,56.14-58.6,74.37-49.43,33.55-114.34,43.1-167.94,12.48-31.27-17.87-48.56-48.48-51.85-83.02.24-2.53,38.23-9.97,43.28-10.84,16.2-2.79,36.01-5.93,52.32-6.5,14.86-.52,14.83,5.22,26.73,10.29,22.44,9.56,44.21,4.3,61.91-11.13,31.79,1.93,63.47,6.2,94.17,14.35Z"/>
        </g>
        <g class="cls-2">
          <path d="M871.27,631.79c3.83-2.3,5.36-19.92,5.36-26.82s-6.9-10.73-13.03-12.26c-6.13-1.53-7.66-15.33,0-13.79,7.66,1.53-9.58-71.21-60.73-99.97-62.19-34.98-136.71-13.07-181.48,36.8-36.84,41.04-60.48,78.5-27.53,66.24,32.95-12.26,181.61-3.83,200.77-2.3,19.16,1.53,25.29,12.26,17.62,11.49-7.66-.77-41.38-3.07-71.27-5.36-29.89-2.3-118.01,6.9-136.4,9.96-18.39,3.07-43.68,11.49-48.28,14.56s-3.07,25.29,1.53,27.59c4.6,2.3,14.58-3.44,14.58-3.44,3.42-2.49,7.96-3.74,12.05-4.86,61.27-16.84,136.16-19.38,199.46-13.04,24.99,2.5,50,7.47,73.86,14.92,0,0,9.63,2.58,13.46.29Z"/>
        </g>
      </g>
      <rect class="cls-3" width="2048.06" height="2048.2"/>
    </g>
  </g>
</svg>