<?xml version="1.0" encoding="UTF-8"?>
<svg id="Layer_2" data-name="Layer 2" xmlns="http://www.w3.org/2000/svg" viewBox="0 0 2048.06 2048.2">
  <defs>
    <style>
      .cls-1 {
        opacity: 0;
      }

      .cls-2 {
        fill: #fdfdfd;
      }
    </style>
  </defs>
  <g id="ecuuuum">
    <g>
      <g>
        <path d="M670.65,793.69c-23.59-2.65-50.21-25-63.71-43.64-73.17-101.02-31.59-279.49,98.97-307.55,123.57-26.56,187.56,113.75,152.08,216.49-27.85,80.65-121.74,144.31-205.93,105.23-6.43-2.98-12.06-7.83-18.74-9.37,9.32,9.29,21.11,18.42,32.4,25.35,5.68,3.49,15.52,7.11,20.09,10.59,1.16.89,2.08,1.06,1.7,2.9-5.41-.43-11.58.6-16.87,0ZM720.03,452.53c-51.59,4.97-100.98,51.56-121.63,97.15-30.54,67.43-17.4,159.15,50.61,198.18,86.9,49.87,182.5-25.1,201.59-111.6,18.79-85.1-31.12-193.31-130.58-183.73Z"/>
        <path d="M702.86,798.81l62.87-24.55c1.67,1.02-.25,2.28-1.04,3.05-5.34,5.24-32.15,21.49-38.83,21.49h-23Z"/>
        <path class="cls-2" d="M720.03,452.53c99.46-9.58,149.36,98.63,130.58,183.73-19.1,86.5-114.7,161.47-201.59,111.6-68.01-39.03-81.15-130.75-50.61-198.18,20.65-45.6,70.04-92.18,121.63-97.15ZM747.58,584.35c-6.55,1.03-13.32,9.09-15.82,14.86-6.87,15.88-3.65,41.17,12.29,50.54,20.19,11.87,33.48-15.28,32.4-32.4-.89-14.08-12.34-35.61-28.87-33Z"/>
        <path d="M747.58,584.35c16.53-2.61,27.98,18.92,28.87,33,1.08,17.13-12.2,44.27-32.4,32.4-15.94-9.37-19.15-34.66-12.29-50.54,2.5-5.77,9.27-13.83,15.82-14.86Z"/>
      </g>
      <rect class="cls-1" width="2048.06" height="2048.2"/>
    </g>
  </g>
</svg>