<?xml version="1.0" encoding="UTF-8"?>
<svg id="Layer_2" data-name="Layer 2" xmlns="http://www.w3.org/2000/svg" viewBox="0 0 2048.06 2048.2">
  <defs>
    <style>
      .cls-1 {
        opacity: 0;
      }

      .cls-2 {
        fill: #fdfdfd;
      }
    </style>
  </defs>
  <g id="eeecuuu">
    <g>
      <g>
        <g>
          <path d="M696.32,798.43l68.57-23.29c1.82.97-.27,2.16-1.13,2.9-5.83,4.97-35.06,20.4-42.35,20.4h-25.09Z"/>
          <path class="cls-2" d="M715.04,469.81c108.47-9.09,162.91,93.6,142.42,174.36-20.83,82.09-125.1,153.24-219.87,105.91-74.17-37.04-88.51-124.08-55.2-188.07,22.52-43.27,76.39-87.48,132.66-92.2ZM725.23,593.66c-7.23-.02-15.92,6.52-19.6,11.55-10.13,13.85-11.04,38.03,4.51,49.2,19.7,14.15,38.69-9.29,40.48-25.5,1.47-13.33-7.14-35.22-25.39-35.26Z"/>
          <path d="M725.23,593.66c18.25.04,26.86,21.93,25.39,35.26-1.79,16.21-20.78,39.65-40.48,25.5-15.55-11.17-14.65-35.35-4.51-49.2,3.68-5.04,12.37-11.57,19.6-11.55Z"/>
        </g>
        <path d="M699.65,460.3c-23.01,4.3-43.49,12.34-61.31,23.19,93.37-97.96,160.51-64.1,166.82-48.32,4.14,10.36,23.4,8.42,15.33-1.4-8.07-9.83-53.23-53.58-133.92-7.02-70.91,40.93-97.69,97.65-102.45,108.91-43.29,64.8-43.17,155.53,7.59,216.51,14.72,17.69,43.76,38.9,69.49,41.41,5.77.56,12.5-.41,18.4,0,.42-1.75-.59-1.91-1.85-2.75-4.98-3.3-15.71-6.74-21.91-10.05-12.31-6.57-25.18-15.24-35.34-24.06,7.28,1.46,13.42,6.06,20.44,8.89,72.35,29.23,151.26-2.1,196.34-54.14-6.29,23.02-24.28,78.12-56.31,95.73-40.87,22.46-80.59,36.97-80.59,36.97,0,0-5.06,12.6,51.63-9.36,49.67-19.24,90.89-61.38,114.58-171.83,36.31-97.23-33.43-227.65-166.93-202.68ZM637.59,750.09c-74.17-37.04-88.51-124.08-55.2-188.07,22.52-43.27,76.39-87.48,132.66-92.2,108.47-9.09,162.91,93.6,142.42,174.36-20.83,82.09-125.1,153.24-219.87,105.91Z"/>
      </g>
      <rect class="cls-1" width="2048.06" height="2048.2"/>
    </g>
  </g>
</svg>