<?xml version="1.0" encoding="UTF-8"?>
<svg id="Layer_2" data-name="Layer 2" xmlns="http://www.w3.org/2000/svg" viewBox="0 0 2048.06 2048.2">
  <defs>
    <style>
      .cls-1 {
        fill: #fff;
      }

      .cls-2 {
        opacity: .3;
      }

      .cls-3 {
        opacity: 0;
      }
    </style>
  </defs>
  <g id="ehh">
    <g>
      <g>
        <path d="M838.52,694.29c7-1.46,6.86,5.78,5.16,10.57-4.33,12.17-32.64,25.14-44.26,30.64-14.19,6.71-24.91,12.3-41.34,10.93-7.39-.62-1.57-3.74,1.75-5.19,4.57-1.99,9.81-2.94,14.54-4.68,15.61-5.76,40.53-20.69,52.73-32.03,2.99-2.77,7.64-9.46,11.43-10.25Z"/>
        <path d="M874.05,567.38c-1.94-3.12-4.32-3.37-5.58-7.24-2.62-8.08-1.75-18.7-3.34-27.22-6.85-36.7-32.37-62.32-65.23-78.17-74.17-35.76-173.37-16.84-222.6,50.74-10.39,14.26-25.8,41.67-30.12,58.58-3.27,12.83-3.83,27.4-7.48,40.31-2.59,4.17-7.46,7.94-3.12,13.16,3.51,4.22,5.16,3.65,7.77,9.96,5.88,14.24,7.73,32.28,12.3,47.32,7.8,25.63,25.84,60.11,49.45,74.23,7.57,4.53,31.49,7.75,41.18,9.08,8.06,1.11,27.15,4.5,27.26-7.8-8.12.95-17.08-.88-25.13-2.71-23.2-5.28-43.71-17.94-54.45-39.66,8.21,4.43,15.87,11.01,23.94,15.47,7.25,4.01,20.14,6.77,28.45,8.51,51.97,10.93,109.73,7.57,153.29-25.28,31.84-24.01,47-56.13,57.56-94.07l1.72-5.15c1.56-3.43,2.56-3.6,3.9-4.68,17-13.73,10.2-35.41,10.2-35.41ZM846.06,616.58c-4.26,12-10.79,24.3-17.84,34.88-66.22,99.45-213.14,96.83-263.46-15.74-3.01-6.73-7.2-15.31-5.5-22.61,37.64-9.99,76.48-14.92,115.29-17.95,1.56,11.32,8.53,21.36,17.82,27.76,21.47,14.81,56.25,12.69,76.78-2.94,7.67-5.84,12.88-14.65,18.24-22.53,1.32-1.28,12.07-.95,14.58-.86,4.03.15,8.72.62,12.79,1.01,11.51,1.1,22.9,3.45,34.42,4.51.59.18.79.5.8,1.11.04,2.12-3.01,10.81-3.91,13.35ZM866.96,574.87c-.62,4.21-2.45,18.36-5.44,18.77-2.21.31-11.91-4.6-15-5.63-31.22-10.4-71.39-12.03-104.18-12.61-60.5-1.06-123.15,2.53-180.36,22.7-2.23.79-7.85,2.95-9.89,2.88-4.34-.15-6.75-13.41-5.38-16.68.6-1.44,4.77-3.35,6.31-4.04,9.32-4.2,21.4-7.61,31.37-10.02,3.2-.77,14.78-1.91,16.03-4.68,1.11-2.47-4.21-3.28-5.93-3.44-8.13-.77-16.2,2.9-24.41.76-11.95-3.11-4.72-17.83-1.54-25.25,21.43-49.89,70.12-82.33,123.59-88.3,37.6-4.2,89.87,4.47,121.86,25.36,26.94,17.6,42.27,45.15,42.91,77.57-4.07-.9-8.08-2.14-12.21-2.81-10.29-1.67-23.95-2.25-34.35-1.62-1.74.11-5.36.48-6.92.97-.53.16-1.51.15-.72.99.47.49,11.38,1.72,13.39,2.13,10.48,2.15,21.53,6.41,31.43,10.46,5.57,2.28,11.83,5.99,17.26,7.9,0,0,2.82.37,2.19,4.59Z"/>
        <g class="cls-2">
          <path d="M866.96,574.86c.62-4.21-2.19-4.59-2.19-4.59-5.43-1.91-11.69-5.63-17.26-7.9-9.9-4.05-20.95-8.31-31.43-10.46-2.02-.41-12.93-1.64-13.39-2.13-.8-.84.19-.83.72-.99,1.56-.49,5.18-.86,6.92-.97,10.4-.64,24.06-.05,34.35,1.62,4.13.67,8.14,1.91,12.21,2.81-.64-32.42-15.97-59.97-42.91-77.57-31.98-20.89-84.26-29.56-121.86-25.36-53.47,5.98-102.16,38.41-123.59,88.3-3.18,7.41-10.41,22.14,1.54,25.25,8.22,2.14,16.28-1.53,24.41-.76,1.72.16,7.04.96,5.93,3.44-1.25,2.77-12.83,3.91-16.03,4.68-9.97,2.41-22.06,5.82-31.37,10.02-1.54.69-5.7,2.6-6.31,4.04-1.37,3.26,1.04,16.52,5.38,16.68,2.04.07,7.66-2.09,9.89-2.88,57.21-20.17,119.86-23.76,180.36-22.7,32.79.58,72.96,2.21,104.18,12.61,3.1,1.03,12.8,5.94,15,5.63,2.99-.42,4.81-14.56,5.44-18.77Z"/>
        </g>
        <path class="cls-1" d="M828.22,651.46c7.05-10.59,13.58-22.88,17.84-34.88.9-2.54,3.95-11.24,3.91-13.35-.01-.61-.21-.93-.8-1.11-11.52-1.06-22.91-3.41-34.42-4.51-4.07-.39-8.76-.86-12.79-1.01-2.52-.09-13.26-.42-14.58.86-5.36,7.88-10.57,16.68-18.24,22.53-20.53,15.63-55.3,17.75-76.78,2.94-9.28-6.4-16.26-16.44-17.82-27.76-38.81,3.03-77.66,7.96-115.29,17.95-1.69,7.3,2.49,15.88,5.5,22.61,50.33,112.58,197.25,115.19,263.46,15.74Z"/>
      </g>
      <rect class="cls-3" width="2048.06" height="2048.2"/>
    </g>
  </g>
</svg>