<?xml version="1.0" encoding="UTF-8"?>
<svg id="Layer_2" data-name="Layer 2" xmlns="http://www.w3.org/2000/svg" viewBox="0 0 2048.06 2048.2">
  <defs>
    <style>
      .cls-1 {
        fill: #fff;
      }

      .cls-2 {
        opacity: 0;
      }
    </style>
  </defs>
  <g id="emmm">
    <g>
      <g>
        <path d="M553.79,611.79c7.9-37.35,29.03-70.07,56.24-96.17,1.38-1.32,4.29-2.08,4.58-2.48.6-.82-2.19-5.88-1.17-9.57,2.92-10.58,39.29-9.36,48.96-10.52,36.1-4.35,71.76-10.32,107.34-17.67,8.92-1.84,63.53-16.78,66.89-13.57.17,9.23-14.35,11.95-21.21,15.48-1.63.84-2.95-.82-2.22,3.25,40.85,10.7,71.16,44.57,78.96,85.9,27.25,144.29-176.96,262.76-291.98,177.92l-10.41-9.11s-48.53-51.41-35.97-123.46ZM780,488.7c-8.62,1.18-20.98,6.73-30.22,8.92-36.47,8.66-72.4,14.88-110.12,14.88-132.41,91.92-77.35,276.08,95.41,239.17,92.61-19.79,189.42-135.03,119.39-224.1-14.13-17.97-50.99-42.09-74.46-38.86Z"/>
        <path class="cls-1" d="M792.87,768.07c-2.88-2.5-24.21,7.79-28.87,9.39-36.04,12.36-70.55,19.67-108.64,11.71-6.28-1.31-18.32-6.74-22.77-7.05-2.6-.18-3.83.24-5.34,2.38-1.1,5.32,12.13,11.78,16.13,13.52,38.94,16.92,103.83,2.7,139.03-19.34,1.41-.88,13.19-8.24,10.46-10.62Z"/>
        <path class="cls-1" d="M780,488.7c23.48-3.22,60.33,20.89,74.46,38.86,70.03,89.07-26.77,204.31-119.39,224.1-172.76,36.92-227.83-147.24-95.41-239.17,37.72,0,73.65-6.22,110.12-14.88,9.24-2.19,21.59-7.74,30.22-8.92ZM796.52,597.95c-40.61,5.29-33.87,70.69,9.26,55.68,33.48-11.65,26.04-60.28-9.26-55.68Z"/>
        <path d="M792.87,768.07c2.74,2.38-9.04,9.73-10.46,10.62-35.2,22.04-100.09,36.26-139.03,19.34-4.01-1.74-17.23-8.2-16.13-13.52,1.52-2.14,2.74-2.57,5.34-2.38,4.45.31,16.49,5.74,22.77,7.05,38.09,7.97,72.6.65,108.64-11.71,4.66-1.6,26-11.9,28.87-9.39Z"/>
        <path d="M796.52,597.95c35.31-4.6,42.75,44.02,9.26,55.68-43.13,15.01-49.88-50.38-9.26-55.68Z"/>
      </g>
      <rect class="cls-2" width="2048.06" height="2048.2"/>
    </g>
  </g>
</svg>