<?xml version="1.0" encoding="UTF-8"?>
<svg id="Layer_2" data-name="Layer 2" xmlns="http://www.w3.org/2000/svg" viewBox="0 0 2048.06 2048.2">
  <defs>
    <style>
      .cls-1 {
        fill: #fff;
      }

      .cls-2 {
        opacity: .3;
      }

      .cls-3 {
        opacity: 0;
      }
    </style>
  </defs>
  <g id="ennmm">
    <g>
      <g>
        <g>
          <path d="M893.52,573.1c4.52,2.01,8.04,6.03,5.02,20.1s-5.02,17.59-8.54,17.59-7.91,9.77-7.91,9.77c-9.72,23.28-22.25,46.87-36.98,67.39-14.48,20.17-32.19,36.66-53.6,49.43-19.12,11.4-32.87,16.38-54.89,21.03-32.21,6.79-69.47,9.06-101.4-.18-8.39-2.43-15.85-7.49-24.41-8.57-1.44,1.25,9.4,9.82,10.54,10.69,31.16,23.64,76.22,29.1,113.48,18.87,17.06-4.68,40.16-13.46,55.55-22.18,5.1-2.89,23.95-17.38,26.25-18.03,2.59-.74,5.9.14,8.74-.3,7.98-1.26,15.5-3.79,23.15-6.21.48,2-1.16,2-2.07,2.89-35.78,34.66-113.99,66.43-163.78,63.06-18.72-1.27-33.87-8.19-51.07-14.44,1.47,14.85,7.72,25.07,16.29,36.57,2.62,3.52,4.74,6.5,7.17,10,1.29,1.85,13.16,11.56,10.87,13.97-23.69-6.64-37.83-25.25-47.77-46.66-3.61-7.79-7.12-21.45-11.12-27.74-3.51-5.52-11.74-10.32-16.1-15.53-27.24-32.56-35.06-92.55-37.07-101.09s-5.53-3.52-9.55-8.04-2.51-17.08,0-19.6,9.34-11.5,9.34-11.5c4.1-7.34,6.21-21.51,9.7-30.06,2.51-6.16,9.44-20.66,12.7-26.16,45.11-76.13,131.19-94.46,215.96-75.48,100.99,22.61,96.97,88.43,101.49,90.44ZM822.33,503.38c-31.2-14.37-71.39-21.85-105.32-18.5-62.32,6.16-123.87,40.7-139.2,103.46.59.63,12.41-1.68,14.4-2.51,4.84-2.02,16.82-4.01,23.11-5.02l-5.19,6.36c-18.76,10.25-41.87,15.58-52.67,35.05,8.04-1.25,15.37-6.81,22.89-10.09,82.07-35.71,172.2-39.9,259.3-21.25,14.32,3.07,28.36,7.08,42.3,11.47,0,0,3.52-12.17,1.01-16.69s-24.62-17.59-36.68-21.1c-12.06-3.52,9.55-4.02,18.09-2.51s21.61,9.04,14.57-5.02c0,0-25.81-39.45-56.62-53.64ZM872.93,617.71c-15.34-1.72-31.39-7.65-46.67-8.92-5.92-.49-12.1.33-17.95-.13-12.61-.99-25.13-4.82-37.85-5.33-3.04,1.06-2.07,11.01-2.46,13.85-1.41,10.13-15.42,21.82-24.75,24.96-28.05,9.46-51.57-8.56-56.1-36.2-34.25,4.6-69.37,7.74-101.37,21.55-3.51,1.51-27.02,13.12-27.85,14.62-1.91,3.42,3.31,21.32,4.72,25.99,24.06,79.81,121.03,95.48,191.19,71.37,35.01-12.03,57.57-30.07,82.05-57.13,16.17-17.87,32.79-40.47,37.04-64.63Z"/>
          <path d="M734.63,819.22c.52,2.08-.39,1.49-1.14,2.07-5.09,3.96-19.15,8.55-25.54,7.9-3.93-.4-17.68-7.9-17.59-12.25.04-1.3.81-2.02,1.84-2.64,6.29-3.79,21.04,2.74,28.51,3.93,2.04.32,13.2.46,13.91,1Z"/>
        </g>
        <path class="cls-2" d="M839.64,590.97c14.32,3.07,28.36,7.08,42.3,11.47,0,0,3.52-12.17,1.01-16.69-2.51-4.52-24.62-17.59-36.68-21.1-12.06-3.52,9.55-4.02,18.09-2.51,8.54,1.51,21.61,9.04,14.57-5.02,0,0-25.81-39.45-56.62-53.64-31.2-14.37-71.39-21.85-105.32-18.5-62.32,6.16-123.87,40.7-139.2,103.46.59.63,12.41-1.68,14.4-2.51,4.84-2.02,16.82-4.01,23.11-5.02l-5.19,6.36c-18.76,10.25-41.87,15.58-52.67,35.05,8.04-1.25,15.37-6.81,22.89-10.09,82.07-35.71,172.2-39.9,259.3-21.25Z"/>
        <path class="cls-1" d="M753.84,739.47c35.01-12.03,57.57-30.07,82.05-57.13,16.17-17.87,32.79-40.47,37.04-64.63-15.34-1.72-31.39-7.65-46.67-8.92-5.92-.49-12.1.33-17.95-.13-12.61-.99-25.13-4.82-37.85-5.33-3.04,1.06-2.06,11.01-2.46,13.85-1.41,10.13-15.42,21.82-24.75,24.96-28.05,9.46-51.57-8.56-56.09-36.2-34.25,4.6-69.37,7.74-101.37,21.55-3.51,1.51-27.02,13.12-27.85,14.62-1.91,3.42,3.31,21.32,4.72,25.99,24.06,79.81,121.03,95.48,191.19,71.37Z"/>
      </g>
      <rect class="cls-3" width="2048.06" height="2048.2"/>
    </g>
  </g>
</svg>