<?xml version="1.0" encoding="UTF-8"?>
<svg id="Layer_2" data-name="Layer 2" xmlns="http://www.w3.org/2000/svg" viewBox="0 0 2048.06 2048.2">
  <defs>
    <style>
      .cls-1 {
        fill: #fff;
      }

      .cls-2 {
        opacity: .3;
      }

      .cls-3 {
        fill: #c24136;
      }

      .cls-4 {
        opacity: 0;
      }
    </style>
  </defs>
  <g id="grrrr">
    <g>
      <g>
        <g>
          <g>
            <path class="cls-1" d="M558.18,597.23c-1.12,5.89-10.93,9-10.12,16.83.59,5.73,9.67,8.66,10.18,10.53,2.74,10.03,2.65,26.01,5.53,37.91"/>
            <path d="M576.78,559.35c7-9.39,11.51-20.12,18.15-29.87,57.44-84.29,190.7-115.52,257.27-23.96,93.23,128.22-42.66,283.03-186.46,255.56-12.75-2.44-25.05-7.69-36.73-12.97l16.06,15.1,39.55,27c-8.47.98-15.79-1.17-23.56-4.22-2.71-1.07-25.91-17.65-31.9-22.69-5.99-5.04-27.1-32.61-27.1-32.61-27.41-29.3-38.29-68.19-38.29-68.19-2.88-11.9-2.79-27.88-5.53-37.91-.51-1.87-9.59-4.8-10.18-10.53-.81-7.83,9-10.94,10.12-16.83,0,0,15.72-33.76,18.59-37.88ZM864.93,576.2c-14.52-97.26-100.37-140.1-189.87-99.73-46.69,21.06-81.04,63.32-94.88,112.38,2.42,3.52,2.48,1.6,4.54,1.24,7.7-1.32,15.74-3.78,23.63-5.1,3.25-.55,2.03.05,2.12,2.98-14.69,4.07-29.65,13-42.13,21.91,93.14-25.39,193.58-44.12,289.87-26.96-3.35-6.5-10.37-7.6-16.16-9.93-2.32-.93-4.94-.72-1.51-3.56,8.49,2.9,17.15.27,24.4,6.76ZM750.53,591.57c-5.83,31.45-48.64,41-72.55,24.13-3.94-2.78-10.29-12.15-14.3-12.39l-86.97,17.51c-5.34,4,2.6,32.5,4.66,39.24,39.16,128.68,212.46,106.61,267.36-1.49,7.08-13.93,23.84-49.82,10.22-62.06-8.43-7.58-70.32-7.56-84.24-6.9-7.74.37-15.91,2.95-24.18,1.95Z"/>
            <path class="cls-1" d="M743.61,781.81h24.44c7.82,0,32.99-12.05,40.74-16.56,26.36-15.38,49.34-38.49,59.52-67.7-24.81,26.58-46.7,54.82-81.43,69.39l-43.27,14.87ZM701.48,810.47c-20.58-.65-38.73-11.13-57.3-18.53,10.57,16.17,36.13,27.73,54.83,21.93,2.4-.74,2.97,1,2.47-3.41Z"/>
            <path d="M743.61,781.81l43.27-14.87c34.73-14.57,56.62-42.81,81.43-69.39-10.18,29.21-33.17,52.32-59.52,67.7-7.75,4.52-32.92,16.56-40.74,16.56h-24.44Z"/>
            <path d="M701.48,810.47c.5,4.41-.08,2.66-2.47,3.41-18.7,5.8-44.26-5.76-54.83-21.93,18.57,7.4,36.72,17.87,57.3,18.53Z"/>
          </g>
          <path class="cls-1" d="M858.96,596.52c-8.43-7.58-70.32-7.56-84.24-6.9-7.74.37-15.91,2.95-24.18,1.95-5.83,31.45-48.64,41-72.55,24.13-3.94-2.78-10.29-12.15-14.3-12.39l-86.97,17.51c-5.34,4,2.6,32.5,4.66,39.24,39.16,128.68,212.46,106.61,267.36-1.49,7.08-13.93,23.84-49.82,10.22-62.06Z"/>
          <g class="cls-2">
            <path d="M858.22,582.92c-3.35-6.5-10.37-7.6-16.16-9.93-2.32-.93-4.94-.72-1.51-3.56,8.49,2.9,17.15.27,24.4,6.76-14.52-97.26-100.37-140.1-189.87-99.73-46.69,21.06-81.04,63.32-94.88,112.38,2.42,3.52,2.48,1.6,4.54,1.24,7.7-1.32,15.74-3.78,23.63-5.1,3.25-.54,2.03.05,2.12,2.98-14.69,4.07-29.65,13-42.13,21.91,93.14-25.39,193.58-44.12,289.87-26.96Z"/>
          </g>
        </g>
        <path class="cls-3" d="M845.47,664.69c-.86,1.23-1.4,2.44-2.29,3.84-14.1-4.34-29.71,5.22-44.55,4.98l28.25-9.65,18.94-2.13c1.88-.59-.35,2.95-.35,2.95ZM789.05,722.67c-6.57-18.6-34.1-12.99-34.23-32.27l9.49,9.86c8.81,3.46,19.55,7.17,24.97,15.47,0,0,2.37,2.97,2.88,4.97,0,0-1.51.97-3.11,1.97ZM692.35,748.08c-1.21-19.31,10.49-35.95,23.68-49.27l-18.6,37.84-1.3,11.6c-.91-.03-3.78-.17-3.78-.17ZM617.52,718.45c2.22-24.26,21.18-38.86,44.59-41.54l-23.44,12.77c-10.93,8.33-16.53,17.33-18.45,31.09l-2.7-2.32Z"/>
        <path class="cls-3" d="M863.53,618.13l-.88,4.84c-22.68-12.38-42.86-3.34-65.71,1.67.46-2.91,3.35-2.94,5.43-3.82,5.02-2.12,17.72-7.16,22.51-7.82,12.53-1.72,26.44,3.13,38.65,5.13Z"/>
        <path class="cls-3" d="M631.51,638.54l-21.87,5.92c-7.63,2.79-13.32,7.37-18.57,13.45l-6.73,10.94c-.13-.71-.69-1.48-.76-2.07-2.55-20.78,29.6-30.52,47.92-28.24Z"/>
      </g>
      <rect class="cls-4" width="2048.06" height="2048.2"/>
    </g>
  </g>
</svg>