<?xml version="1.0" encoding="UTF-8"?>
<svg id="Layer_2" data-name="Layer 2" xmlns="http://www.w3.org/2000/svg" viewBox="0 0 2048.06 2048.2">
  <defs>
    <style>
      .cls-1 {
        fill: #fff;
      }

      .cls-2 {
        opacity: .3;
      }

      .cls-3 {
        opacity: 0;
      }
    </style>
  </defs>
  <g id="heeeuuum">
    <g>
      <g>
        <path d="M609.21,738.82c-.99,1,7.37,10.74,8.61,12.13,60.09,67.33,150.91,33.34,208.83-17.11,7.2-6.28,13.96-17.37,22.86-19.33,2.99,3.03-12.18,21.13-14.99,24.34-58.38,66.8-177.81,96.4-237.32,15.56-32.51-44.15-35.08-72.92-48.15-123.55-1.03-4-4.31-7.59-4.3-11.53,0-8.62,22.3-29.7,27.32-42.87,9.35-24.5,18.83-46.61,35.11-67.9,85.41-111.67,256.35-81.4,277.69,63.97,1.83,12.47.63,23.7,1.92,35.28.3,2.67,2.6,4.85,2.78,7.33.32,4.3-3.87,7.58-5.4,11.66-8.43,22.49-10.36,37.36-24.9,58.09-51.38,73.26-173.52,106.72-250.05,53.93ZM845.94,585.71c6.75-.94,17.04,0,24.32,0,.31,0,1.62,2.14,2.13,1.43-7.39-78.79-63.99-139.8-146.68-134.58-71.58,4.52-123.87,68.82-145.06,132.46l3.51,2.13,13.59,1.41c-6.45.98-34.82,7.44-32.89,16.45.54,2.51,2.59,1.38,3.96,1.22,14.27-1.64,32.14-7.51,47.27-10.05,60.79-10.18,124.02-13,185.33-6,23.9,2.73,47.45,8.08,70.98,12.69,1.19-5.2-5.07-7.19-9.04-8.83-6.63-2.75-13.96-4.18-20.99-5.49-.52-1.44,2.99-2.76,3.57-2.85ZM683.58,605.74c-38,2.52-77.05,5.05-113.07,18.11-1.59,57.53,35.08,108.15,91.31,121.71,75.44,18.2,164.66-22.46,198.45-92.57,4.82-9.99,10.46-21.52,9.12-32.8-32.24-8.51-65.46-14.7-99.03-14.51-12.56,30.48-49.69,41.4-76.02,20.06-6.05-4.9-11.72-11.6-10.77-20Z"/>
        <path class="cls-1" d="M683.58,605.74c-.95,8.4,4.72,15.09,10.77,20,26.34,21.35,63.46,10.43,76.02-20.06,33.57-.19,66.78,6,99.03,14.51,1.34,11.28-4.3,22.81-9.12,32.8-33.8,70.12-123.01,110.77-198.45,92.57-56.23-13.56-92.91-64.18-91.31-121.71,36.02-13.06,75.07-15.59,113.07-18.11Z"/>
        <path class="cls-2" d="M845.94,585.71c-.58.08-4.09,1.41-3.57,2.85,7.03,1.31,14.35,2.73,20.99,5.49,3.96,1.64,10.23,3.63,9.04,8.83-23.53-4.62-47.08-9.97-70.98-12.69-61.31-7-124.55-4.18-185.33,6-15.13,2.53-33,8.41-47.27,10.05-1.37.16-3.42,1.29-3.96-1.22-1.93-9.01,26.44-15.46,32.89-16.45l-13.59-1.41-3.51-2.13c21.19-63.63,73.48-127.94,145.06-132.46,82.69-5.22,139.29,55.79,146.68,134.58-.51.71-1.83-1.43-2.13-1.43-7.28,0-17.57-.94-24.32,0Z"/>
      </g>
      <rect class="cls-3" width="2048.06" height="2048.2"/>
    </g>
  </g>
</svg>