<?xml version="1.0" encoding="UTF-8"?>
<svg id="Layer_2" data-name="Layer 2" xmlns="http://www.w3.org/2000/svg" viewBox="0 0 2048.06 2048.2">
  <defs>
    <style>
      .cls-1 {
        fill: #fff;
      }

      .cls-2 {
        opacity: .3;
      }

      .cls-3 {
        opacity: 0;
      }
    </style>
  </defs>
  <g id="heeeu">
    <g>
      <g>
        <path class="cls-1" d="M873.99,688.23c-1.07-.73-5.4-.12-6.36,1.82-23.63,37.74-65.03,65.38-103.79,86.15l-54.19,19.75c44.67,2.47,85.84-18.75,120.38-44.88,7.9-5.98,20.19-15.55,26.66-22.66,4.78-5.25,25.29-34.75,17.3-40.19Z"/>
        <path class="cls-1" d="M857.58,637.09c-5.85,41.81-39.9,74.31-75.48,93.44-69.52,37.37-160.81,31.1-203.59-41.76-4.62-7.86-18.34-39.56-16.58-46.99,1.13-4.77,86.64-12.13,97.21-12.1,9.63,40.27,71.97,39.71,79.03-1.86l119.42,9.25Z"/>
        <path d="M870.73,581.78c-3.87,0-12.38-21.67-37.93-44.9-25.54-23.22-58.05-44.9-142.43-37.15-84.37,7.74-133.91,87.47-133.91,87.47-5.42,11.61-12.38,10.84-21.67,13.93-9.29,3.1-13.16,11.61-10.06,23.22,3.1,11.61,5.42,19.35,16.26,20.13,10.84.77,11.61,6.19,24.77,54.18,13.16,47.99,41.63,75.4,41.63,75.4,17.69,11.72,38.99,18.27,60.24,18.24-1.26-2.45-6.1-5.43-8.54-6.96-26.41-16.63-45.28-23.72-65.23-49.83-3.65-4.78-8.8-10.36-10.22-16.25,30.65,32.65,69.38,50.44,114.21,47.56,143.71-9.24,167.46-120.03,167.46-120.03,2.32-14.71,11.61-11.61,18.58-12.38,6.97-.77,6.19-24,6.97-37.15.77-13.16-16.26-15.48-20.13-15.48ZM782.09,730.54c-69.52,37.37-160.81,31.1-203.59-41.76-4.62-7.86-18.34-39.56-16.58-46.99,1.13-4.77,86.64-12.13,97.21-12.1,9.63,40.27,71.97,39.71,79.03-1.86l119.42,9.26c-5.85,41.81-39.9,74.31-75.48,93.44ZM868.92,612.23c-1.55,11.61-6.91,12.54-6.91,12.54-14.68-3.14-29.8-5.68-44.75-7.28,0,0-145.72-5.26-199.13,3.26-53.41,8.51-68.89,17.03-72.76,15.48s-6.19-17.8-.77-20.13,39.48-10.84,47.99-12.38-10.06-6.97-22.45-4.64c-12.38,2.32,34.65-59.94,78.18-75.86,137.57-50.29,205.9,57.28,201.25,58.05-4.64.77-27.09-3.87-37.93-4.64-10.84-.77-1.55,10.84,5.42,10.84s34.83,6.97,39.48,7.74,13.93,5.42,12.38,17.03Z"/>
        <path d="M873.99,688.23c7.98,5.44-12.52,34.94-17.3,40.19-6.47,7.1-18.76,16.68-26.66,22.66-34.54,26.14-75.7,47.35-120.38,44.88l54.19-19.75c38.76-20.77,80.16-48.41,103.79-86.15.96-1.95,5.29-2.55,6.36-1.82Z"/>
        <path class="cls-2" d="M648.32,523.21c-43.53,15.91-90.56,78.18-78.18,75.86s30.96,3.1,22.45,4.64c-8.51,1.55-42.57,10.06-47.99,12.38s-3.1,18.58.77,20.13,19.35-6.97,72.76-15.48c53.41-8.51,199.13-3.26,199.13-3.26,14.95,1.6,30.07,4.14,44.75,7.28,0,0,5.36-.93,6.91-12.54,1.55-11.61-7.74-16.26-12.38-17.03s-32.51-7.74-39.48-7.74-16.26-11.61-5.42-10.84,33.28,5.42,37.93,4.64-63.69-108.34-201.25-58.05Z"/>
      </g>
      <rect class="cls-3" width="2048.06" height="2048.2"/>
    </g>
  </g>
</svg>