<?xml version="1.0" encoding="UTF-8"?>
<svg id="Layer_2" data-name="Layer 2" xmlns="http://www.w3.org/2000/svg" viewBox="0 0 2048.06 2048.2">
  <defs>
    <style>
      .cls-1 {
        fill: #fff;
      }

      .cls-2 {
        opacity: .3;
      }

      .cls-3 {
        opacity: 0;
      }
    </style>
  </defs>
  <g id="heeh">
    <g>
      <g>
        <g>
          <path class="cls-1" d="M570.26,672.97c28.66-18.25,59.67-28.64,92.43-36.98,15.33,40.37,77.8,47.48,100.82,10.46,3.84-6.17,4.78-12.19,8.59-17.93,10.03.05,82.83,10.17,83.29,17.88-39.21,71.28-108.99,116.24-192.09,102.4-39.94-6.65-81.04-36.28-93.04-75.83Z"/>
          <g class="cls-2">
            <path d="M872.2,634.12c1.96-1.97,1.47-14.3-3.43-16.76s-34.3-14.3-41.65-16.27c-7.35-1.97,5.39-8.38,19.6-3.94,14.21,4.44,9.8-7.39,7.84-16.27-1.96-8.87-33.77-60.14-64.65-75.92-40.49-20.68-92.26-21.28-132.69-.56-40.2,20.6-83.12,73.89-88.71,119.74-.27,2.17-.11,3.04,2.31,2.3,5.22-1.59,11-6.23,17.85-7.58,1.63-.32,5.55-1.63,5.16,1.21-13.38,10.09-42.52,15.97-39.62,36.71,17.24-.33,32.25-10.42,48.32-15.98,0,0,59.97-21.96,118.77-23.93s127.39,12.82,133.76,15.77c6.37,2.96,15.19,3.45,17.15,1.48Z"/>
          </g>
        </g>
        <path d="M579.58,719c25,27.34,56.42,41.31,92.93,46.06,48.2,6.28,95.38-9.56,135.19-35.87l23.98-20.54c-3.55,13.55-11.39,34.09-20.72,44.28-15.06,16.45-34.93,25.75-34.93,25.75,0,0-25.09,8.26-17.74,9.74s15.92,5.92,28.17,0c46.38-22.4,49.98-60.14,56.83-79.86,6.86-19.72,16.92-38.19,16.92-38.19,6.64-15.52,12.47-24.91,12.47-24.91,4.41.49,8.82-1.97,11.76-5.92,2.94-3.94,1.96-21.69-.98-23.17-2.94-1.48-9.8-10.35-11.27-12.82-1.47-2.46-6.07-23.74-6.07-23.74-40.68-111.74-153.56-130.41-234.83-73.94-.53-17.41,1.52-27.58,48.35-60.56,51.44-36.23,99.95-19.23,116.85-8.13,16.9,11.09,16.9.74-8.82-18.49s-113.18-5.18-160.95,58.42c-34.89,46.45-43.36,65.43-41.04,73.48-2,2.72-3.94,5.52-5.83,8.38l-12.97,24.42c-6.33,11.74-20.77,53.31-20.77,53.31-1.39,10.36-9.65,16.82-5.33,29.58,2.56,7.56,12.29,10.26,13.42,12.41,2.78,5.27,6.54,26.31,9.46,34.75,0,0-.75,73.51,50.32,120.82,28.91,26.79,33.7,20.53,19.6,6.41-53.4-53.49-54.01-121.68-54.01-121.68ZM663.3,748.8c-39.94-6.65-81.04-36.28-93.04-75.83,28.66-18.25,59.67-28.64,92.43-36.98,15.33,40.37,77.8,47.48,100.82,10.46,3.84-6.17,4.78-12.19,8.59-17.93,10.03.05,82.83,10.17,83.29,17.88-39.21,71.28-108.99,116.24-192.09,102.4ZM872.2,634.12c-1.96,1.97-10.78,1.48-17.15-1.48-6.37-2.96-74.96-17.75-133.76-15.77-58.79,1.97-118.77,23.93-118.77,23.93-16.08,5.56-31.08,15.66-48.32,15.98-2.9-20.74,26.24-26.62,39.62-36.71.39-2.84-3.52-1.53-5.16-1.21-6.85,1.36-12.63,6-17.85,7.58-2.42.73-2.57-.13-2.31-2.3,5.6-45.85,48.51-99.14,88.71-119.74,40.43-20.72,92.2-20.12,132.69.56,30.89,15.77,62.69,67.04,64.65,75.92,1.96,8.87,6.37,20.7-7.84,16.27-14.21-4.44-26.95,1.97-19.6,3.94,7.35,1.97,36.75,13.8,41.65,16.27,4.9,2.46,5.39,14.79,3.43,16.76Z"/>
      </g>
      <rect class="cls-3" width="2048.06" height="2048.2"/>
    </g>
  </g>
</svg>