<?xml version="1.0" encoding="UTF-8"?>
<svg id="Layer_2" data-name="Layer 2" xmlns="http://www.w3.org/2000/svg" viewBox="0 0 2048.06 2048.2">
  <defs>
    <style>
      .cls-1 {
        fill: #606060;
      }

      .cls-2 {
        opacity: .3;
      }

      .cls-3 {
        opacity: 0;
      }

      .cls-4 {
        fill: #fdfdfd;
      }
    </style>
  </defs>
  <g id="heimm">
    <g>
      <g>
        <path class="cls-1" d="M825.66,756.39c-1.35-1.36-11.1,3.71-13.07,4.7-14.21,7.11-27.2,16.86-41.58,23.72-24.95,11.91-63.91,23.17-91.46,19.37-6.07-.84-19.58-5.72-24.64-4.15-.71.22-1.38.88-1.2,1.69.45,2.06,13.4,10.5,15.96,11.62,34.98,15.26,116.01-15.46,144-39.56,2.35-2.03,14.66-14.7,11.99-17.39Z"/>
        <path d="M546.73,625.12c-.3-4.49-1.95-10.4-.98-14.76.76-3.37,4.36-4.26,6.07-6.27,4.31-5.1,8.96-40.52,12.63-50.49,12.92-35.1,58.32-47.68,91.89-51.77,34.42-4.19,71.29-3.65,105.85-2.27,24.07.96,70.81,2.56,90.56,16.09,23.62,16.18,29.82,53.49,35.51,79.49,3.14.89,11.86,6.53,12.71,9.41,1.53,5.18-2.05,13.95-2.71,19.33-6.47,2.56-12.35,6.58-19.54,7.09-10.38,54.59-47.84,112.27-102.25,133.94-75.62,30.11-152.93,21.91-198.05-53.84-14.2-23.84-19.54-46.04-21.73-73.59,0,0-8.98,2.39-9.95-12.36ZM875.72,593.88c.09-23.12-14.98-49.77-32.26-64.59-21.11-18.1-72.01-19.22-99.41-20.3-38.11-1.5-109.64-2.47-142.8,16.84-25.43,14.8-36.34,44.58-34.6,73.13,14.25-4.77,27.42-12.29,41.37-17.75,41.46-16.23,87.09-16.04,130.85-11.18,12.84,1.43,34.74,3.29,45.45,9.69.79.47,1.99.73,2.16,1.82-22.93,2.54-45.76-1.93-68.57-3.62-24.28-1.79-46.19-1.69-70.15,3.12-28.62,5.76-56.44,11.84-83.07,24.31-1.39.65-7.7,3.52-8.22,4.11-2.63,2.94,1.5,11.63,6.06,11.04,33.39-14.91,68.15-21.83,104.6-24.45,46.27-3.32,104.27-1.41,149.25,10.36,15.1,3.95,30.47,10.57,45.68,13.81,7.48,1.59,15.07,1.77,22.65,2.72,3.68-5.53,1.5-10.37-2.44-14.95-6.42-7.46-19.8-8.58-27.21-15.59-.68-.64-3.59-3.89-.78-3.59,6.44.7,14.69,4.24,21.44,5.05ZM662.41,613.47c-1.86-.13-3.56.69-5.41.76-25.72.91-58.39,6.93-82.56,16.11-9.31,3.54-11.23,3.3-10.73,13.99,1.2,25.84,11.41,53.21,27.62,73.22,65.05,80.32,185.79,62.53,245.91-13.79,16.08-20.41,26.69-47.45,31.23-72.88-33.33.18-64.98-12.07-97.95-15.24-2.42,13.85-6.7,28.35-17.8,37.71-30.94,26.06-93.6,4.46-90.31-39.88Z"/>
        <path d="M825.66,756.39c2.67,2.69-9.64,15.36-11.99,17.39-27.99,24.1-109.02,54.82-144,39.56-2.56-1.11-15.51-9.56-15.96-11.62-.18-.8.49-1.46,1.2-1.69,5.06-1.58,18.57,3.31,24.64,4.15,27.54,3.8,66.51-7.47,91.46-19.37,14.38-6.86,27.37-16.61,41.58-23.72,1.97-.99,11.72-6.06,13.07-4.7Z"/>
        <path class="cls-4" d="M662.41,613.47c-3.29,44.34,59.37,65.94,90.31,39.88,11.11-9.35,15.38-23.86,17.8-37.71,32.96,3.17,64.62,15.42,97.95,15.24-4.54,25.44-15.15,52.47-31.23,72.88-60.12,76.32-180.86,94.12-245.91,13.79-16.21-20.01-26.42-47.38-27.62-73.22-.5-10.69,1.42-10.45,10.73-13.99,24.17-9.19,56.84-15.2,82.56-16.11,1.84-.07,3.55-.88,5.41-.76Z"/>
        <path class="cls-2" d="M855.06,592.41c-.68-.64-3.59-3.89-.78-3.59,6.44.7,14.69,4.24,21.44,5.05.09-23.12-14.98-49.77-32.26-64.59-21.11-18.1-72.01-19.22-99.41-20.3-38.11-1.5-109.64-2.47-142.8,16.83-25.43,14.8-36.34,44.58-34.6,73.13,14.25-4.77,27.42-12.29,41.37-17.75,41.46-16.23,87.09-16.04,130.85-11.18,12.84,1.43,34.74,3.29,45.45,9.69.79.47,1.99.73,2.16,1.82-22.93,2.54-45.76-1.93-68.57-3.62-24.28-1.79-46.19-1.69-70.15,3.12-28.62,5.76-56.44,11.84-83.07,24.31-1.39.65-7.7,3.52-8.22,4.11-2.63,2.94,1.5,11.63,6.06,11.04,33.39-14.91,68.15-21.83,104.6-24.45,46.27-3.32,104.27-1.41,149.25,10.35,15.1,3.95,30.47,10.57,45.68,13.82,7.48,1.59,15.07,1.77,22.65,2.72,3.68-5.53,1.5-10.37-2.44-14.95-6.42-7.46-19.8-8.58-27.21-15.59Z"/>
      </g>
      <rect class="cls-3" width="2048.06" height="2048.2"/>
    </g>
  </g>
</svg>