<?xml version="1.0" encoding="UTF-8"?>
<svg id="Layer_2" data-name="Layer 2" xmlns="http://www.w3.org/2000/svg" viewBox="0 0 2048.06 2048.2">
  <defs>
    <style>
      .cls-1 {
        fill: #606060;
      }

      .cls-2 {
        opacity: .3;
      }

      .cls-3 {
        fill: #fefefe;
      }

      .cls-4 {
        opacity: 0;
      }
    </style>
  </defs>
  <g id="hmm">
    <g>
      <g>
        <path class="cls-1" d="M870.25,695.07c-.56-.63-3.68,2.87-4.18,3.42-4.96,5.46-8.44,12.22-12.93,18.04-36.6,47.49-110.47,74.25-169.37,66.09-7.26-1-14.6-3.68-21.86-3.33,10.2,11.42,27.84,16.25,42.75,17.08,63.02,3.5,127.47-25.7,158.86-81.54,3.38-6.02,7.13-12.63,6.73-19.77Z"/>
        <path d="M870.25,695.07c.4,7.14-3.35,13.75-6.73,19.77-31.39,55.84-95.84,85.04-158.86,81.54-14.91-.83-32.54-5.66-42.75-17.08,7.27-.35,14.61,2.32,21.86,3.33,58.89,8.15,132.76-18.6,169.37-66.09,4.49-5.82,7.97-12.58,12.93-18.04.5-.55,3.62-4.05,4.18-3.42Z"/>
        <path class="cls-3" d="M696.54,592.21c-.42,19.68,9.93,35.93,28.99,41.6,21.8,6.48,50.7-1.85,56.73-25.94.71-2.84,1.78-12.82,3.51-14.33,1.89-1.65,14.28-.54,17.56-.27,22.04,1.77,43.78,6.79,65.13,12.04-2.13,37.36-23.32,70.25-53.15,91.77-41.4,29.87-100,40.8-149.74,29.75-53.26-11.83-102.54-53.08-94.94-112.54,41.38-10.16,83.41-17.96,125.9-22.08Z"/>
        <path d="M881.81,549.95c-45.97-127.08-218.05-118.68-289.07-19.84-4.63,6.44-8.51,13.56-12.47,20.07-2.19,3.62-20.23,14.73-27.03,16.09-6.8,1.36-12.23,9.51-11.55,19.03,0,0,2.04,22.09,7.82,24.12,0,0,10.87-1.36,11.55,8.83.68,10.19-14.61,114.08,85.12,182.55,3.15,2.16,8.21,4.16,10.45-.06l-.75-1.24c-23-19.64-43.87-40.03-60.31-65.65-7.77-12.11-14.48-25.58-17.1-39.84.35-.4,4.52,3.23,5,3.66,11.02,9.88,16.49,19.03,29.88,27.84,113.55,74.73,322.21-26.97,268.45-175.57ZM815.31,697.07c-41.4,29.87-100,40.8-149.74,29.75-53.26-11.83-102.54-53.08-94.94-112.54,41.38-10.16,83.41-17.96,125.9-22.08-.42,19.68,9.93,35.93,28.99,41.6,21.8,6.48,50.7-1.85,56.73-25.94.71-2.84,1.78-12.82,3.51-14.34,1.89-1.65,14.28-.54,17.56-.27,22.04,1.77,43.78,6.79,65.13,12.04-2.13,37.36-23.32,70.25-53.15,91.77ZM877.8,589.09c-22.21-5.16-44.5-10.3-67.18-13.09-79.61-9.79-149.68-.68-227.01,16.89-2.76.63-26.86,6.38-28.68,6.34-1.4-.03-2.24-8.61-2.38-9.85-2.18-20,32.4-18.1,47.32-21.15,8.56-1.75,17.19-3.01,25.82-4.37-.06-.43.11-1.42,0-1.56-.42-.5-11.33-2.01-12.86-2.1-4.4-.28-10.3-.27-14.71-.03-2.4.13-9.99,2.92-9.57-1.73.1-1.12,3.06-5.79,3.86-7.13,53.72-89.48,204.91-118.53,261.13-16.67,1.29,2.33,9.42,18.64,8.31,19.77-6.38.15-14.75-.17-20.79,2.05-.55.2-1.53.26-.73,1.09.22.23,5.14.98,6.29,1.32,8.59,2.53,20.72,6.79,28.71,10.65,1.38.67,4.05,1.99,4.35,3.52.39,1.99-.14,15.75-1.88,16.04Z"/>
        <g id="FmiBkb.tif">
          <path class="cls-2" d="M861.89,554.42c-6.38.15-14.75-.17-20.79,2.05-.55.2-1.53.26-.73,1.09.22.23,5.14.98,6.29,1.32,8.59,2.53,20.72,6.79,28.71,10.65,1.38.67,4.05,1.99,4.35,3.52.39,1.99-.14,15.75-1.88,16.04-22.21-5.16-44.5-10.3-67.18-13.09-79.61-9.79-149.68-.68-227.01,16.89-2.76.63-26.86,6.38-28.68,6.34-1.4-.03-2.24-8.61-2.38-9.85-2.18-20,32.4-18.1,47.32-21.15,8.56-1.75,17.19-3.01,25.82-4.37-.06-.43.11-1.42,0-1.56-.42-.5-11.33-2.01-12.86-2.1-4.4-.28-10.3-.27-14.71-.03-2.4.13-9.99,2.92-9.57-1.73.1-1.12,3.06-5.79,3.86-7.13,53.72-89.48,204.91-118.53,261.13-16.67,1.29,2.33,9.42,18.64,8.31,19.77Z"/>
        </g>
      </g>
      <rect class="cls-4" width="2048.06" height="2048.2"/>
    </g>
  </g>
</svg>