<?xml version="1.0" encoding="UTF-8"?>
<svg id="Layer_2" data-name="Layer 2" xmlns="http://www.w3.org/2000/svg" viewBox="0 0 2048.06 2048.2">
  <defs>
    <style>
      .cls-1 {
        fill: #fff;
      }

      .cls-2 {
        opacity: .3;
      }

      .cls-3 {
        opacity: 0;
      }
    </style>
  </defs>
  <g id="huhumm">
    <g>
      <g>
        <path class="cls-1" d="M809.48,743.26c-2.5-.62-3.79.89-5.68,2.1-7.64,4.9-16.35,14.27-24.87,20.15-32.03,22.14-64.86,31.53-102.18,34.31-2.23,11.83,16.8,9.85,23.93,9.39,27.87-1.81,59.95-17.43,82.68-35.48,3.07-2.44,30.24-26.06,26.12-30.48Z"/>
        <path d="M847.14,645.12c-.88,2.32-1.89,2.32-4.41,2.17-2.52-.14-3.53,1.01-5.3,4.92-1.77,3.91-3.32,14.19-3.32,14.19-52.68,150.76-255.27,129.47-279.54-11.46-.78-4.56-4.98-25.37-5.7-26.46-1.58-2.42-7.27.34-7.42-5.67-.11-4.33,4.35-3.56,6.61-3.73l.05-17.22-7.87-.35c-5.74-10.64,6.5-9.14,7.69-13.21.9-3.05-.01-8.28.35-12.16,6.61-70.48,46.22-139.53,146.34-142.17,67.72-1.79,137.38,39.97,145.51,140.11.53,6.55,2.29,25,3.77,29.89,0,0,4.71-.25,5,1.61.38,2.46.63,5.36-.38,8.54-1.01,3.19-5.3,2.25-5.3,2.25l-2.28,16.89,4.9,1.46c3.86,1.15,2.18,8.08,1.29,10.4ZM834.11,601.87v-24.35c0-14.05-11.02-55.39-17.62-67.95-35.6-67.66-131.81-87.74-198.22-45.83-41.46,26.17-59.34,67.02-63.33,121.6,11.64-.73,23.29-4.14,34.92-5.47,56.61-6.44,122.79-2.81,179.03,6.54,21.92,3.64,43.97,8.46,65.23,15.45ZM680.86,597.15l-55.48-1.63-69.81,7.82c-1.48,2.45-.3,15.09,1.7,15.85l137.28,17.23c-10.98-9.77-15.33-23.32-13.68-39.27ZM834.12,614.44l-91.69-12.56c1.87,5.77-.71,12.72-2.47,18.35l-11.2,17.76,101.67-4.68,3.7-18.87ZM827.27,649c-73,13.37-146.62,7.64-219.19-6.79-16.87-3.35-33.67-7.87-50.38-12.06,0,96.64,94.98,149.51,171.06,128.79,42.17-11.49,88.11-44.75,98.51-109.94Z"/>
        <path d="M809.48,743.26c4.12,4.42-23.05,28.04-26.12,30.48-22.73,18.05-54.81,33.67-82.68,35.48-7.13.46-26.17,2.44-23.93-9.39,37.32-2.78,70.15-12.17,102.18-34.31,8.51-5.88,17.22-15.25,24.87-20.15,1.89-1.21,3.18-2.73,5.68-2.1Z"/>
        <path class="cls-1" d="M680.86,597.15c-1.65,15.94,2.69,29.49,13.68,39.27l-137.28-17.23c-2-.77-3.18-13.4-1.7-15.85l69.81-7.82,55.48,1.63Z"/>
        <path class="cls-1" d="M834.12,614.44l-3.7,18.87-101.67,4.68,11.2-17.76c1.77-5.62,4.35-12.58,2.47-18.35l91.69,12.56Z"/>
        <g class="cls-2">
          <path d="M768.85,586.47c21.92,3.64,43.97,8.46,65.23,15.45v-24.35c0-14.05-11.02-55.39-17.62-67.95-35.6-67.66-131.81-87.74-198.22-45.83-41.46,26.17-59.34,67.02-63.33,121.6,11.64-.73,23.29-4.14,34.92-5.47,56.61-6.44,122.79-2.81,179.03,6.54Z"/>
        </g>
        <g class="cls-2">
          <path d="M608.08,642.22c-16.87-3.35-33.67-7.87-50.38-12.06,0,96.64,94.98,149.51,171.06,128.79,42.17-11.49,88.11-44.75,98.51-109.94-73,13.37-146.62,7.64-219.19-6.79Z"/>
        </g>
      </g>
      <rect class="cls-3" width="2048.06" height="2048.2"/>
    </g>
  </g>
</svg>