<?xml version="1.0" encoding="UTF-8"?>
<svg id="Layer_2" data-name="Layer 2" xmlns="http://www.w3.org/2000/svg" viewBox="0 0 2048.06 2048.2">
  <defs>
    <style>
      .cls-1 {
        fill: #fff;
      }

      .cls-2 {
        opacity: .3;
      }

      .cls-3 {
        opacity: 0;
      }
    </style>
  </defs>
  <g id="hum">
    <g>
      <g>
        <g>
          <path d="M867.91,657.24c-48.53,84.85-153.41,133.5-245.37,90.21l18.17,29.4c4.44,10.06,20.99,15.4,16.29,27.15-2.39.61-2.75-.99-4.14-2.06-8.19-6.29-14.21-16.09-22.05-22.77l-25.52-38.86c-48.51-48.88-54.83-102.68-54.83-102.68-2.12,0-5.83.53-9.01-1.06s-3.18-21.73-2.65-29.68c.53-7.95,7.8-11.92,7.8-11.92,35.66-85.59,95.87-151.58,192.52-144.94,48.93,3.36,98.79,37.89,121.89,80.02,0,0,16.96,40.81,19.61,58.29,2.65,17.49,10.6,10.6,11.66,14.84s1.06,22.79-1.59,25.97-4.6,6.31-8.48,7.42-14.31,20.67-14.31,20.67ZM872.2,590.18c-12-75.25-74.16-133.26-152.41-129.64-67.61,3.13-120.34,48.58-146.72,108.47-1.81,4.1-6.51,14.04-7.11,17.73-.34,2.08-.12,2.41,1.94,1.94,4.04-.93,8.84-3.7,12.96-4.99,39.36-12.34,85.1-19.8,126.56-17,2.17.15,11.46.27,10.29,4.19-26.12,1.34-53.16,5.25-78.87,10.1-10.47,1.98-74.95,19.44-81.2,21.68-6.72,2.41-5.46,17.25-4.5,18.55,59.66-19,127.8-23.57,190.16-21.41,27.53.96,59.42,3.67,86.44,8.74,13.7,2.57,32.75,8.89,46.13,12.67,2.85-.48,6.07-14.11,2.38-16.96-6.02-4.67-35.78-13.92-43.95-16.83-9.11-3.25-22.35-5.29-30.01-8.61-1.64-.71-2.69-1.74-3.78-3.09,5.54-5.84,14.2-2.86,20.95-1.66,17.61,3.12,33.92,10.6,50.76,16.13ZM691.5,612.26c-31.49,1.5-62.18,2.65-93.01,9.77-8.55,1.97-30.5,7.39-37.44,10.83-1.25.62-2.74.65-3.25,2.34,6.88,30.17,19.03,57.86,42.63,78.47,69.91,61.05,181.02,34.96,236.61-32.42,11.24-13.63,18.37-26.89,27.11-41.86,1.73-2.97,6.73-4.98,1.89-6.46-14.69-4.49-29.44-9.21-44.59-11.99-17.15-3.14-34.71-3.84-51.99-6-4.18.48-4.39,7.32-5.99,10.67-10.74,22.53-23.12,26.4-47.66,23.72-19.29-2.11-23.66-20.15-24.31-37.08Z"/>
          <path class="cls-1" d="M874.95,682.62c-1.4-1.49-6.49,4.33-7.6,5.49-8.23,8.65-15.15,19.79-24.1,28.31-22.66,21.58-55.89,40.46-85.87,49.32-8.24,2.43-53.16,10.44-54.98,12.61-1.29,1.53-1.5,3.03-1.24,4.94,43.63,5.61,93.8-14.13,127.55-41.4,19.27-15.58,38.01-35.45,46.24-59.27Z"/>
          <path d="M874.95,682.62c-8.23,23.81-26.97,43.69-46.24,59.27-33.75,27.28-83.92,47.01-127.55,41.4-.26-1.92-.04-3.42,1.24-4.94,1.82-2.16,46.74-10.17,54.98-12.61,29.98-8.86,63.2-27.74,85.87-49.32,8.96-8.53,15.87-19.67,24.1-28.31,1.11-1.16,6.19-6.98,7.6-5.49Z"/>
        </g>
        <path class="cls-2" d="M878.24,604.24c-6.02-4.67-35.79-13.92-43.95-16.83-9.11-3.25-22.35-5.29-30.01-8.61-1.64-.71-2.69-1.74-3.78-3.09,5.54-5.84,14.2-2.86,20.95-1.66,17.61,3.12,33.92,10.6,50.76,16.13-12-75.25-74.16-133.26-152.41-129.64-67.61,3.13-120.34,48.58-146.72,108.47-1.81,4.1-6.51,14.04-7.11,17.73-.34,2.08-.12,2.41,1.94,1.94,4.04-.93,8.84-3.7,12.96-4.99,39.36-12.34,85.1-19.8,126.56-17,2.17.15,11.46.27,10.29,4.19-26.12,1.34-53.16,5.25-78.87,10.1-10.47,1.98-74.95,19.44-81.2,21.68-6.72,2.41-5.46,17.25-4.5,18.55,59.66-19,127.8-23.57,190.16-21.41,27.53.96,59.42,3.67,86.44,8.74,13.7,2.57,32.75,8.89,46.13,12.67,2.85-.48,6.07-14.11,2.38-16.96Z"/>
        <path class="cls-1" d="M866.04,632.93c-14.69-4.49-29.44-9.21-44.59-11.99-17.15-3.14-34.71-3.84-51.99-6-4.18.48-4.39,7.32-5.99,10.67-10.74,22.53-23.12,26.4-47.66,23.72-19.29-2.11-23.66-20.15-24.31-37.08-31.49,1.5-62.18,2.65-93.01,9.77-8.55,1.97-30.5,7.39-37.44,10.83-1.25.62-2.74.65-3.25,2.34,6.88,30.17,19.03,57.86,42.63,78.47,69.91,61.05,181.02,34.96,236.61-32.42,11.24-13.63,18.37-26.89,27.11-41.86,1.73-2.97,6.73-4.98,1.89-6.46Z"/>
      </g>
      <rect class="cls-3" width="2048.06" height="2048.2"/>
    </g>
  </g>
</svg>