<?xml version="1.0" encoding="UTF-8"?>
<svg id="Layer_2" data-name="Layer 2" xmlns="http://www.w3.org/2000/svg" viewBox="0 0 2048.06 2048.2">
  <defs>
    <style>
      .cls-1 {
        fill: #fff;
      }

      .cls-2 {
        opacity: .3;
      }

      .cls-3 {
        opacity: 0;
      }
    </style>
  </defs>
  <g id="huum">
    <g>
      <g>
        <path d="M746.44,776.81c95.49-22.93,120.41-115.33,123.94-119.28,0,0,4.01-7.65,9.84-3.65,5.83,4.01,13.49-12.39,18.23-18.96,4.74-6.56-5.47-20.05-10.57-26.97s-6.22-42.65-9.8-55.62c-11.98-43.41-45.43-92.74-108.31-104.77-62.88-12.03-104.98,13.12-143.26,38.27-38.27,25.15-59.05,62.88-59.05,62.88-2.73,8.75-8.2,11.48-8.2,11.48-5.47,1.64-14.76,6.01-17.5,12.03-2.73,6.01,2.19,27.34,6.01,28.98s2.73,12.58,2.73,12.58c0,0,1.64,73.27,45.38,113.18,43.74,39.92,69.99,58.51,147.08,49.76M852.52,672.84c-36.14,80.05-131.75,122.29-216.33,77.39-45.3-24.05-77.07-84.85-74.55-134.25.68-13.3,10.63-12.29,22.24-15.67,23.22-6.77,57.43-10.81,81.65-12.39,59.22-3.86,134.89,9,180.07,47.02,14.26,12,13.55,23.24,6.93,37.91ZM607.36,508.7c44.65-44.37,120.96-74.87,183.05-49.4,0,0,63.38,25.98,79.7,92.96,2.09,8.57,9.84,42.1-4.1,32.26-13.94-9.84-37.18-13.12-37.18-13.12-11.48,1.64-8.2,6.56,3.28,11.48,0,0,64.16,38.55,52.86,51.31-4.98,5.63-4.74,8.38-9.11,7.29s-8.11-6.65-8.11-6.65l-25.6-20.35c-65.74-39.9-151.67-48.28-227.77-34.5,0,0-36.52,7-46.91,11.38-10.39,4.37-13.12,5.47-13.67-1.64s-1.64-17.5,3.28-18.59c0,0,11.48-2.73,24.61-6.01,13.12-3.28,13.67-10.94.55-12.58-13.12-1.64,6.53-25.35,25.14-43.84Z"/>
        <g>
          <path class="cls-1" d="M845.59,634.93c-45.18-38.02-120.85-50.88-180.07-47.02-24.22,1.58-58.43,5.62-81.65,12.39-11.6,3.38-21.56,2.37-22.24,15.67-2.52,49.4,29.26,110.21,74.55,134.25,84.58,44.9,180.19,2.67,216.33-77.39,6.62-14.67,7.34-25.91-6.93-37.91Z"/>
          <path class="cls-2" d="M832.1,582.89c-11.48-4.92-14.76-9.84-3.28-11.48,0,0,23.24,3.28,37.18,13.12,13.94,9.84,6.19-23.69,4.1-32.26-16.31-66.98-79.7-92.96-79.7-92.96-62.09-25.48-138.4,5.02-183.05,49.4-18.61,18.49-38.26,42.2-25.14,43.84,13.12,1.64,12.58,9.3-.55,12.58-13.12,3.28-24.61,6.01-24.61,6.01-4.92,1.09-3.83,11.48-3.28,18.59.55,7.11,3.28,6.01,13.67,1.64s46.91-11.38,46.91-11.38c76.1-13.78,162.03-5.4,227.77,34.5l25.6,20.35s3.73,5.55,8.11,6.65,4.13-1.66,9.11-7.29c11.3-12.76-52.86-51.31-52.86-51.31Z"/>
        </g>
        <path d="M748.87,627.39c-49.28,5.15-42.03,72.73,6.65,69.65,49.35-3.13,46.53-75.2-6.65-69.65Z"/>
      </g>
      <rect class="cls-3" width="2048.06" height="2048.2"/>
    </g>
  </g>
</svg>