<?xml version="1.0" encoding="UTF-8"?>
<svg id="Layer_2" data-name="Layer 2" xmlns="http://www.w3.org/2000/svg" viewBox="0 0 2048.06 2048.2">
  <defs>
    <style>
      .cls-1 {
        fill: #fff;
      }

      .cls-2 {
        opacity: .3;
      }

      .cls-3 {
        opacity: 0;
      }
    </style>
  </defs>
  <g id="mmm">
    <g>
      <g>
        <path d="M777.01,467.31c-56.5-18.81-123.49.6-162.29,43.51-23.29,25.76-42.64,56.66-49.05,91.33,35.46-12.06,73.25-18.22,110.68-20.78,36.06-2.47,78.36-3.13,114.17,1.68,16.13,2.17,35.11,4.95,48.49,14.63-19.05,3.4-39.17-4.49-58.7-5.91-59.7-4.33-148.71,1.75-205.77,20.03-5.77,1.85-31.16,10.42-29.7,17.81,1.34,2.19,2.92,2.07,5.13,2.33,15.22,1.82,61.23-13.43,79.54-17.17,52.26-10.69,115.5-12.05,168.63-6.65,25.06,2.55,49.35,8.31,73.55,14.84,0,0,3.44-3.19,3.44-11.25s-2.51-8.33-8.95-10.75c-6.45-2.42,3.49-7.34,13.97-5.73,10.48,1.61-18.26-99.66-103.15-127.92ZM871.21,634.27c-3.94.72-5.82,4.66-5.82,4.66-3.84,18.57-10.35,35.88-20.95,51.58-42.7,63.23-99.17,132.89-182.76,125.39-2.4-.22-22.06-2.68-18.76-7.22,19.87-2.05,38.16-1.48,57.95-6.69,24.69-6.49,57.72-26.53,75.78-44.55,1.18-1.17,16.08-16.25,14.59-17.77-33.43,17.61-79.86,32.56-117.67,28.21,0,0-54.68-15.06-60.44-18.54-37.67-21.38-62.28-57.45-55.61-102.35-12-2.42-28.37-9.86-25.69-22.96,2.21-10.82,20.51-15.65,23.27-22.18,1.95-4.6,3.36-18.87,5.64-24.98,35.46-95.1,135.4-155.54,235.33-109.61,98.17,45.13,91.34,126.35,96.98,131.19,5.64,4.84,4.51,10.21,2.15,20.42-5.37,23.28-20.06,14.69-24,15.4ZM853.77,634.96l-90.51-13.48c9.13,19.96-10.27,36.43-28.18,40.89-29.92,7.45-62.06-.51-60.96-36.45l-105.57,18.49c-8.79,41.14,26.16,87.18,63.59,101.5,70.77,27.08,163.95-3,203.64-67.53,3.57-5.8,21.08-39.02,18-43.42Z"/>
        <path class="cls-2" d="M777.01,467.31c-56.5-18.81-123.49.6-162.29,43.51-23.29,25.76-42.64,56.66-49.05,91.33,35.46-12.06,73.25-18.22,110.68-20.78,36.06-2.47,78.36-3.13,114.17,1.68,16.13,2.17,35.11,4.95,48.49,14.63-19.05,3.4-39.17-4.49-58.7-5.91-59.7-4.33-148.71,1.75-205.76,20.03-5.77,1.85-31.16,10.42-29.7,17.81,1.34,2.19,2.92,2.07,5.13,2.33,15.22,1.82,61.23-13.43,79.54-17.17,52.26-10.69,115.5-12.05,168.63-6.65,25.06,2.55,49.34,8.31,73.55,14.84,0,0,3.45-3.19,3.45-11.25s-2.51-8.33-8.96-10.75,3.49-7.34,13.97-5.73c10.48,1.61-18.26-99.66-103.15-127.92Z"/>
        <path class="cls-1" d="M763.25,621.48c9.13,19.96-10.27,36.43-28.18,40.89-29.92,7.45-62.06-.51-60.96-36.45l-105.57,18.49c-8.79,41.14,26.16,87.18,63.59,101.5,70.77,27.08,163.95-3,203.64-67.53,3.57-5.8,21.08-39.02,18-43.42l-90.51-13.48Z"/>
      </g>
      <rect class="cls-3" width="2048.06" height="2048.2"/>
    </g>
  </g>
</svg>