<?xml version="1.0" encoding="UTF-8"?>
<svg id="Layer_2" data-name="Layer 2" xmlns="http://www.w3.org/2000/svg" viewBox="0 0 2048.06 2048.2">
  <defs>
    <style>
      .cls-1 {
        fill: #fff;
      }

      .cls-2 {
        opacity: .18;
      }

      .cls-3 {
        opacity: .3;
      }

      .cls-4 {
        opacity: 0;
      }
    </style>
  </defs>
  <g id="mmmhn">
    <g>
      <g>
        <g>
          <path d="M879.92,651.53c-22.02,51.17-43.8,85.96-91.13,116.52-48.75,31.48-104.97,45.27-159.45,18.17l-14.02-9.16c-30.97-18.28-44.96-46.35-56.38-79.19-3.16-9.08-7.24-31.72-10.24-37.39-1.22-2.31-11.76-5.21-14.53-13.35-4.68-13.73,4.27-20.68,5.77-31.82,0,0,15.63-44.72,22.48-57.35l14.04-26.27c80.79-121.77,255.31-126.52,309.86,22.42,0,0,4.98,22.89,6.57,25.54s9.02,12.2,12.2,13.79,4.24,20.68,1.06,24.93-7.96,6.89-12.73,6.36c0,0-6.32,10.1-13.5,26.8ZM803.82,473.59c-43.82-22.24-99.86-22.9-143.63-.6-43.51,22.17-89.97,79.49-96.02,128.82-.29,2.34-.12,3.27,2.5,2.48,5.65-1.71,11.91-6.7,19.32-8.16,1.77-.35,6.01-1.76,5.58,1.3-14.48,10.85-46.02,17.18-42.88,39.49,18.66-.35,34.9-11.21,52.31-17.19,0,0,64.92-23.63,128.56-25.75,63.64-2.12,137.89,13.79,144.78,16.97,6.89,3.18,16.44,3.71,18.56,1.59s1.59-15.38-3.71-18.03-37.12-15.38-45.08-17.5,5.83-9.02,21.21-4.24c15.38,4.77,10.61-7.96,8.49-17.5s-36.55-64.7-69.98-81.67ZM566.07,654.33c12.99,42.54,57.47,74.42,100.71,81.58,89.95,14.89,165.48-33.47,207.92-110.16-.5-8.3-79.29-19.19-90.16-19.24-4.12,6.17-5.15,12.65-9.3,19.29-24.92,39.83-92.54,32.18-109.13-11.25-35.46,8.98-69.03,20.15-100.05,39.79ZM576.15,703.84c18.91,45.39,46.93,74.85,97.14,82.17,55.06,8.03,107.01-19.37,146.55-55.55,11-10.06,25.34-23.18,29.18-37.75l-25.96,22.1c-43.09,28.3-94.16,45.34-146.33,38.59-39.52-5.12-73.52-20.14-100.59-49.56Z"/>
          <path class="cls-1" d="M566.07,654.33c31.02-19.63,64.59-30.81,100.05-39.79,16.6,43.43,84.21,51.08,109.13,11.25,4.15-6.64,5.18-13.12,9.3-19.29,10.86.05,89.66,10.94,90.16,19.24-42.44,76.69-117.97,125.05-207.92,110.16-43.23-7.16-87.72-39.03-100.71-81.58Z"/>
          <path class="cls-2" d="M576.15,703.84c27.06,29.42,61.07,44.44,100.59,49.56,52.17,6.76,103.24-10.28,146.33-38.59l25.96-22.1c-3.84,14.57-18.18,27.69-29.18,37.75-39.55,36.18-91.5,63.58-146.55,55.55-50.21-7.33-78.23-36.79-97.14-82.17Z"/>
        </g>
        <g class="cls-3">
          <path d="M892.89,612.54c2.12-2.12,1.59-15.38-3.71-18.03s-37.12-15.38-45.08-17.5c-7.96-2.12,5.83-9.02,21.21-4.24,15.38,4.77,10.61-7.96,8.49-17.5s-36.55-64.7-69.98-81.67c-43.82-22.24-99.86-22.9-143.63-.6-43.51,22.17-89.97,79.49-96.02,128.82-.29,2.34-.12,3.27,2.5,2.48,5.65-1.71,11.91-6.7,19.32-8.16,1.77-.35,6.01-1.76,5.58,1.3-14.48,10.85-46.02,17.18-42.88,39.49,18.66-.35,34.9-11.21,52.31-17.19,0,0,64.92-23.63,128.56-25.75,63.64-2.12,137.89,13.79,144.78,16.97,6.89,3.18,16.44,3.71,18.56,1.59Z"/>
        </g>
      </g>
      <rect class="cls-4" width="2048.06" height="2048.2"/>
    </g>
  </g>
</svg>