<?xml version="1.0" encoding="UTF-8"?>
<svg id="Layer_2" data-name="Layer 2" xmlns="http://www.w3.org/2000/svg" viewBox="0 0 2048.06 2048.2">
  <defs>
    <style>
      .cls-1 {
        fill: #010101;
      }

      .cls-2 {
        fill: #fff;
      }

      .cls-3 {
        opacity: .3;
      }

      .cls-4 {
        opacity: 0;
      }
    </style>
  </defs>
  <g id="mmmm">
    <g>
      <g>
        <path class="cls-1" d="M644.46,795.07c-11.19-1.26-34.41-18.47-42.09-26.89-20.58-22.55-39.17-54.23-47.23-83.71-4.29-15.68-5.9-32.59-10.19-47.87-1.31-4.67-6.61-9.43-3.89-14.31,1.96-3.53,3.55-2.75,4.5-7.97,2.43-13.31,1.63-26.78,4.59-40.62,26.02-121.47,167.31-199.08,275.06-120.35,38.95,28.46,59,68.35,64.91,115.92,6.15,49.52-13.28,99.86-38.76,141.2-.89,1.45-6.09,10.01-6.78,10.39-2.79,1.52-.97-6.27-.68-7.32,7.24-26.39,22.46-49.73,28.61-77.4.88-3.98,3.13-13.08,3.2-16.68.01-.68-.7-3.63-1.32-3.65l-3.51,13.24c-24.91,86.86-122.16,149.19-211.73,128.35-27.72-6.45-52.9-21.24-72.75-41.43,2.72,7.03,6.53,13.83,10.56,20.23,11.31,17.99,26.27,34.26,42.45,47.96,3.92,3.32,9.08,6.59,12.66,9.94.67.63-.1.98-.59.98-2.17,0-4.94.23-7.01,0ZM563.59,582.66c19.23-61.03,81.54-111.8,144.84-119.98,68.39-8.83,133.54,28.47,156.81,93.67,5.02,14.06,6.81,28.53,9.45,43.16l.87,1.47c.9,0,.91-.67.99-1.34.41-3.63.15-9.87,0-13.67-3.6-88.73-74.02-155.39-163.88-147.1-67.77,6.25-122.11,55.56-143.62,118.66-2.02,5.94-6.07,17.89-5.84,23.79.02.47-.3,1.45.38,1.36ZM869.51,600.79c.27-.86,0-4.56,0-5.85,0-2.98-2.93-8.76-5.48-10.5-1.57-1.07-7.75-3.06-9.91-3.73-2.89-.9-5.94-1.2-8.75-2.36-.89-1.29,2.62-2.7,3.4-2.99,3.58-1.31,7.6-1.78,11.39-1.67-12.45-46.13-48.56-82.33-94.61-94.98-71.84-19.73-148.37,21.27-183.7,83.81-3.57,6.32-6.8,12.92-9.28,19.75,10.28-1.38,20.67-1.51,31-1.93,10.82-.44,22.28-1.56,33.12-.81,1.38.1,10.04,1.39,7.2,4.12-1.83,1.77-12.13,1.46-15.01,1.75-18.39,1.85-38.63,5.46-56.79,9.07-2.87.57-11.82,1.99-13.11,4.42-1.1,2.07-1.78,12.03-.92,14.08.67,1.6,2.31,1.39,3.79,1.27,6.15-.5,16.91-4.81,23.49-6.51,26.33-6.78,54.66-10.53,81.73-13.36,65.94-6.89,133.49-7.85,198.41,6.96.9.03,3.75.41,4.04-.53ZM863.64,613.88c-34.37-7.06-69.48-10.19-104.56-11.36-6.84,22.6-32.92,34.5-54.89,26.43-10.08-3.7-16.32-10.54-20.89-20.03-.47-.98-.73-3.22-1.77-3.24-39.98,4.21-80.11,9.77-118.26,22.64-1.84,43.11,24.58,81.26,60.87,102.12,56.68,32.58,126.05,21.5,176.37-17.45,31.52-24.4,55.55-59.55,63.14-99.11Z"/>
        <path class="cls-1" d="M821.87,724.63c1.12,1.16-.29,4.06-.88,5.35-13.74,30.22-65.63,58.24-97.15,63.8-18.68,3.29-41.35,4.61-56.97-7.88,1.56-3.63,4.13-1.58,6.8-1.33,24.6,2.26,56.38-2.66,79.42-11.42,20.22-7.68,47.28-24.22,61.47-40.64,1.3-1.51,4.96-7.49,5.64-8.02.53-.4,1.22-.32,1.67.14Z"/>
        <g>
          <path d="M820.2,724.49c-.69.53-4.34,6.51-5.64,8.02-14.19,16.42-41.24,32.96-61.47,40.64-23.04,8.75-54.82,13.68-79.42,11.42-2.68-.25-5.25-2.3-6.8,1.33,15.62,12.49,38.29,11.17,56.97,7.88,31.52-5.56,83.41-33.58,97.15-63.8.59-1.29,2-4.19.88-5.35-.45-.47-1.15-.54-1.67-.14Z"/>
          <path d="M890.12,569.27c-5.91-47.58-25.96-87.46-64.91-115.92-107.76-78.73-249.04-1.12-275.06,120.35-2.96,13.84-2.17,27.3-4.59,40.62-.95,5.22-2.54,4.44-4.5,7.97-2.72,4.89,2.58,9.64,3.89,14.31,4.29,15.28,5.9,32.19,10.19,47.87,8.06,29.49,26.66,61.16,47.23,83.71,7.68,8.42,30.91,25.63,42.09,26.89,2.07.23,4.84,0,7.01,0,.49,0,1.26-.35.59-.98-3.58-3.35-8.74-6.62-12.66-9.94-16.18-13.7-31.14-29.97-42.45-47.96-4.02-6.4-7.84-13.19-10.56-20.22,19.85,20.19,45.04,34.98,72.75,41.43,89.57,20.84,186.82-41.48,211.73-128.35l3.51-13.24c.63.02,1.34,2.97,1.32,3.65-.07,3.6-2.32,12.7-3.2,16.68-6.15,27.66-21.37,51.01-28.61,77.4-.29,1.05-2.11,8.84.68,7.32.69-.38,5.89-8.94,6.78-10.39,25.48-41.33,44.91-91.68,38.76-141.2ZM869.51,600.79c-.29.94-3.15.56-4.04.53-64.92-14.81-132.46-13.85-198.41-6.96-27.07,2.83-55.4,6.58-81.73,13.36-6.59,1.7-17.35,6.01-23.49,6.51-1.48.12-3.12.33-3.79-1.27-.86-2.04-.18-12.01.92-14.08,1.3-2.43,10.24-3.85,13.11-4.42,18.17-3.61,38.4-7.22,56.79-9.07,2.88-.29,13.18.02,15.01-1.75,2.84-2.73-5.82-4.02-7.2-4.12-10.85-.75-22.3.37-33.12.81-10.33.42-20.72.55-31,1.93,2.48-6.83,5.72-13.43,9.28-19.75,35.33-62.54,111.86-103.54,183.7-83.81,46.06,12.65,82.16,48.85,94.61,94.98-3.79-.11-7.8.36-11.39,1.67-.78.29-4.29,1.69-3.4,2.99,2.81,1.16,5.86,1.45,8.75,2.35,2.16.67,8.34,2.67,9.91,3.73,2.55,1.73,5.48,7.52,5.48,10.5,0,1.28.27,4.98,0,5.85ZM876.54,599.64c-.08.68-.09,1.34-.99,1.34l-.87-1.47c-2.64-14.64-4.43-29.1-9.45-43.16-23.27-65.19-88.42-102.5-156.81-93.67-63.3,8.18-125.6,58.95-144.84,119.98-.68.09-.36-.88-.38-1.36-.24-5.9,3.81-17.85,5.84-23.79,21.51-63.1,75.84-112.41,143.61-118.66,89.86-8.29,160.29,58.38,163.88,147.1.15,3.81.41,10.05,0,13.67Z"/>
        </g>
        <path class="cls-2" d="M863.64,613.88c-7.59,39.56-31.63,74.72-63.14,99.11-50.32,38.95-119.69,50.03-176.37,17.45-36.29-20.86-62.71-59.01-60.87-102.12,38.15-12.87,78.28-18.43,118.26-22.64,1.05.02,1.3,2.26,1.77,3.24,4.57,9.49,10.81,16.33,20.89,20.03,21.97,8.07,48.05-3.83,54.89-26.43,35.09,1.17,70.2,4.3,104.56,11.36Z"/>
        <g class="cls-3">
          <path d="M864.03,584.44c-1.57-1.07-7.75-3.06-9.91-3.73-2.89-.9-5.94-1.2-8.75-2.35-.89-1.29,2.62-2.7,3.4-2.99,3.58-1.31,7.6-1.78,11.39-1.67-12.45-46.13-48.56-82.33-94.61-94.98-71.84-19.73-148.37,21.27-183.7,83.81-3.57,6.32-6.8,12.92-9.28,19.75,10.28-1.38,20.67-1.51,31-1.93,10.82-.44,22.28-1.56,33.12-.81,1.38.1,10.04,1.39,7.2,4.12-1.83,1.77-12.13,1.46-15.01,1.75-18.39,1.85-38.63,5.46-56.79,9.07-2.87.57-11.82,1.99-13.12,4.42-1.1,2.07-1.78,12.03-.92,14.08.67,1.6,2.31,1.39,3.79,1.27,6.15-.5,16.91-4.81,23.49-6.51,26.33-6.78,54.66-10.53,81.73-13.36,65.94-6.89,133.49-7.85,198.41,6.96.9.03,3.75.41,4.04-.53.27-.86,0-4.56,0-5.85,0-2.98-2.93-8.76-5.48-10.5Z"/>
        </g>
      </g>
      <rect class="cls-4" width="2048.06" height="2048.2"/>
    </g>
  </g>
</svg>