<?xml version="1.0" encoding="UTF-8"?>
<svg id="Layer_2" data-name="Layer 2" xmlns="http://www.w3.org/2000/svg" viewBox="0 0 2048.06 2048.2">
  <defs>
    <style>
      .cls-1 {
        fill: #fff;
      }

      .cls-2 {
        opacity: 0;
      }
    </style>
  </defs>
  <g id="mmmn">
    <g>
      <g>
        <g>
          <path d="M807.68,489.26c-26.02-23.47-55.71-35.52-91.43-33.8-107.2,5.17-170.67,123.98-129.47,219.84,34.38,79.98,125.74,105.68,199.19,59.62,21.93-13.75,48.77-39.89,60.28-63.21,2.59-5.25,12.67-27.54,13.64-31.92,4.39-19.95,11-54.04,8.94-73.81-.15-1.44-2.17-12.15-2.55-12.93-2.24-4.7-8.83-12.26-12.44-16.45-12.83-14.91-31.57-34.18-46.17-47.35Z"/>
          <path class="cls-1" d="M894.76,576.04c-3.69-2.38-3.9-7.91-9.14-7.04,2.45,87.64-44.67,173.77-128.89,205-36.12,13.39-68.67,13.37-105.28.89-14.52-4.95-50.21-30.05-50.21-30.05-25.01-26.68-42.25-60.34-48.65-96.49-11.67-65.97,9.76-128.23,59.57-172.27,39.41-34.85,92.98-42.37,143.93-35.35,0,0,114.13,28.46,147.5,137.86-.72.74-7.51-1.69-8.84-2.55Z"/>
        </g>
        <path d="M903.59,578.58c-.72.74-7.51-1.69-8.84-2.55-3.69-2.38-3.9-7.91-9.14-7.04,2.45,87.64-44.67,173.77-128.89,205-36.12,13.39-68.67,13.37-105.28.89-14.52-4.95-50.21-30.05-50.21-30.05-25.01-26.68-42.25-60.34-48.65-96.49-11.67-65.97,9.76-128.23,59.57-172.27,39.41-34.85,92.98-42.37,143.93-35.35,0,0,114.13,28.46,147.5,137.86ZM716.25,455.47c-107.2,5.17-170.67,123.98-129.47,219.84,34.38,79.98,125.74,105.68,199.19,59.62,21.93-13.75,48.77-39.89,60.28-63.21,2.59-5.25,12.67-27.54,13.64-31.92,4.39-19.95,11-54.04,8.94-73.81-.15-1.44-2.17-12.15-2.55-12.93-2.24-4.7-8.83-12.26-12.44-16.45-12.83-14.91-31.57-34.18-46.17-47.35-26.02-23.47-55.71-35.52-91.43-33.8Z"/>
        <path d="M615.78,787.17c7.17-2.84,7.41,1.98,12.06,5.32,6.81,4.88,17.84,7.31,26.08,8.7,56.37,9.46,111.5-10.88,158.52-40.39-3.46,10.65-14.77,18.63-23.59,24.96-50.16,35.96-127.2,52.9-173.07,1.42Z"/>
        <path d="M733.58,590.77c30.2-5.42,53.26,27.73,48.7,55.81-4.06,30.59-37.1,54.15-65.11,36.13-13.08-8.39-21.35-23.49-22.05-39.16-1.56-23.4,15.55-48.63,38.31-52.75l.15-.03Z"/>
      </g>
      <rect class="cls-2" width="2048.06" height="2048.2"/>
    </g>
  </g>
</svg>