<?xml version="1.0" encoding="UTF-8"?>
<svg id="Layer_2" data-name="Layer 2" xmlns="http://www.w3.org/2000/svg" viewBox="0 0 2048.06 2048.2">
  <defs>
    <style>
      .cls-1 {
        fill: #fff;
      }

      .cls-2 {
        opacity: .3;
      }

      .cls-3 {
        opacity: 0;
      }
    </style>
  </defs>
  <g id="mmn">
    <g>
      <g>
        <g>
          <path d="M629.79,756.1c70.56,35.44,135.3,9.14,183.51-20.13,48.22-29.27,61.99-103.32,61.99-103.32,0,0,10.33,1.72,14.64.86s10.87-21.02-8.09-21.02v-31.09c0-21.25-16.98-60.42-31.87-75.72-95.06-97.69-193.38-38.35-232.98-9.07,0,0-37.96,35.51-46.02,48.4-8.06,12.89-18.53,20.95-24.17,22.56s-12.09,37.06,6.45,42.7c0,0,5.64,4.83,6.45,21.75s6.98,92.38,70.1,124.08ZM659.23,486.06c95.4-52.87,194.66-2.81,203.79,102.2-.65.87-34.1-20.59-37.8-13.59,9.01,8.83,43.47,21.66,37.67,37.81-28.4-10.16-58.15-16.93-88.09-21.01-54.31-7.4-119.66-9.65-173.54.26-9.71,1.79-18.99,4.71-28.52,7.08,0,0-10.62,6.63-16.26,1.79s-3.22-24.17,2.42-25.78,40.28-8.86,49.95-13.7-15.31-4.03-26.59-3.22c-11.28.81,23.42-42.16,76.97-71.84Z"/>
          <path d="M668.2,792.75c-1.59-1.6-1.08-2.79,1.89-2.66,4.62.2,10.83,2.42,15.56,2.66,22.61,1.12,48.5-2.06,70.71-6.51,21.54-4.31,42.7-10.38,60.31-23.77,4.51,5.15-22.54,20.11-25.93,21.78-31.47,15.46-75.09,20.65-109.24,12.64-1.88-.44-12.81-3.65-13.3-4.14Z"/>
          <path class="cls-1" d="M701.54,600.34c-5.74,65.34,78.15,78.63,84.92,9.13l74.19,17.37c4.5,3.74-5.27,32.07-7.56,37.94-46.17,118.35-242.97,137.37-279.92,2.56-2.94-10.71-9.84-48-1.24-54.92,5.25-4.23,41.29-9.48,50.08-10.53,26.29-3.14,53.14-4.35,79.53-1.55Z"/>
        </g>
        <g class="cls-2">
          <path d="M825.2,574.7c3.7-7,37.15,14.46,37.8,13.59-9.13-105.01-108.39-155.07-203.79-102.2-53.55,29.68-88.25,72.64-76.97,71.84,11.28-.81,36.26-1.61,26.59,3.22-9.67,4.83-44.31,12.09-49.95,13.7-5.64,1.61-8.06,20.95-2.42,25.78,5.64,4.83,16.26-1.79,16.26-1.79,9.53-2.36,18.8-5.29,28.52-7.08,53.88-9.91,119.23-7.66,173.54-.26,29.94,4.08,59.69,10.84,88.09,21.01,5.81-16.15-28.66-28.99-37.66-37.81Z"/>
        </g>
      </g>
      <rect class="cls-3" width="2048.06" height="2048.2"/>
    </g>
  </g>
</svg>