<?xml version="1.0" encoding="UTF-8"?>
<svg id="Layer_2" data-name="Layer 2" xmlns="http://www.w3.org/2000/svg" viewBox="0 0 2048.06 2048.2">
  <defs>
    <style>
      .cls-1 {
        fill: #fff;
      }

      .cls-2 {
        opacity: .3;
      }

      .cls-3 {
        opacity: 0;
      }
    </style>
  </defs>
  <g id="ohhmn">
    <g>
      <g>
        <path d="M620.69,756.29c34.8,50.9,98.33,51.64,152.6,29.79,11.93-4.8,26.4-14.79,37.48-18.46,2-.66,1.57-1.58,3.57.87-31.67,33.14-85.07,50.89-131.81,44.16-17.44-2.51-44.38-11.54-57.79-22.28-23.7-18.98-26.72-39.66-36.89-65.27-8.13-20.47-19.97-39.93-19.97-62.69-26.53,1.14-28.16-24.89-16.52-42.04,4.36-6.42,11.65-10.5,16.23-16.74,2.49-57.61,9.86-120.65,76.46-140.87,124.06-37.66,230.01,4.96,247.33,133.61,18,133.73-122.04,229.24-248.59,171.72-2.9-1.32-21.15-12.61-22.09-11.8ZM582.77,561.46c-1.13,12.14.83,25.64,0,37.93,17.4-4.2,34.69-9.94,52.54-12.49,4.61-.66,14.23-3.51,16.53.9-24.81,6.36-65.67,16.17-83.32,34.71-4.5,4.72-14.91,22.99-2.74,22.96,6.36-.01,28.88-10.47,37.63-12.99,55.69-16.01,126.72-18.43,184.38-12.36,30.28,3.18,59.72,9.94,88.88,17.83-5.87-13.4-24.75-22.59-38.36-28.5-33.02-14.34-71.61-18.72-106.98-25.74-3.73-1.13-2.62-4.48,1.13-4.97,44.84,2.8,90.32,9.76,129.72,31.18,3.45,1.88,7.56,6.56,10.42,5.54-5.32-7.32-17.43-17.29-21.49-24.6-1.28-2.3-1.87-4.27-1.52-6.9,4.24-4.03,27.02,16.92,30.47,20.56-1.06-16.73-8.16-35.34-15.35-51.01-21.03-45.82-46.32-75.85-101.31-82.55-79.81-9.73-171.8-4.62-180.64,90.49ZM752.07,636.69c-4.11,35.12-55.99,49.26-79.12,20.46-12.6-15.69-3.17-20.07-29.52-16.23-7.78,1.13-15.82,2.98-23.48,4.61-5.11,1.09-39.19,8.9-39.59,11.03,9.2,43.86,30.74,78.65,75.05,96.96,84.38,34.86,194.79-9.43,215.51-96.96-.27-1.47-2.71-1.87-3.99-2.28-13.01-4.26-35.63-8.46-49.59-10.78-21.54-3.57-43.53-4.95-65.28-6.8Z"/>
        <path class="cls-2" d="M582.77,561.46c8.83-95.11,100.83-100.22,180.64-90.49,54.99,6.7,80.28,36.73,101.31,82.55,7.19,15.67,14.29,34.28,15.35,51.01-3.46-3.64-26.23-24.59-30.47-20.56-.35,2.63.24,4.6,1.52,6.9,4.06,7.31,16.18,17.28,21.49,24.6-2.86,1.03-6.97-3.66-10.42-5.54-39.39-21.42-84.87-28.38-129.72-31.18-3.76.48-4.87,3.83-1.13,4.97,35.37,7.02,73.95,11.4,106.98,25.74,13.62,5.91,32.49,15.1,38.36,28.5-29.16-7.89-58.6-14.64-88.88-17.83-57.67-6.07-128.69-3.66-184.38,12.36-8.75,2.52-31.27,12.97-37.63,12.99-12.17.03-1.76-18.24,2.74-22.96,17.65-18.54,58.51-28.35,83.32-34.71-2.3-4.41-11.92-1.55-16.53-.9-17.84,2.54-35.14,8.29-52.54,12.49.83-12.29-1.13-25.79,0-37.93Z"/>
        <path class="cls-1" d="M752.07,636.69c21.75,1.85,43.75,3.23,65.28,6.8,13.96,2.32,36.57,6.52,49.59,10.78,1.27.42,3.71.82,3.99,2.28-20.72,87.53-131.13,131.83-215.51,96.96-44.31-18.31-65.85-53.1-75.05-96.96.39-2.13,34.47-9.94,39.59-11.03,7.65-1.63,15.7-3.48,23.48-4.61,26.36-3.84,16.92.54,29.52,16.23,23.13,28.8,75.01,14.66,79.12-20.46Z"/>
      </g>
      <rect class="cls-3" width="2048.06" height="2048.2"/>
    </g>
  </g>
</svg>