<?xml version="1.0" encoding="UTF-8"?>
<svg id="Layer_2" data-name="Layer 2" xmlns="http://www.w3.org/2000/svg" viewBox="0 0 2048.06 2048.2">
  <defs>
    <style>
      .cls-1 {
        fill: #fff;
      }

      .cls-2 {
        opacity: .3;
      }

      .cls-3 {
        opacity: 0;
      }
    </style>
  </defs>
  <g id="ohm">
    <g>
      <g>
        <path d="M874.51,639.09c-4.18-3.39-5.65-10.17-2.71-25.09,2.94-14.92,2.71-54.92,2.71-54.92-3.63-24.5-15.85-52.36-32.01-72-82.99-100.87-248.83-34.22-278.81,74.63-1.88,6.83-3.91,24.64-6.89,28.7-2.79,3.81-7.68,4.81-7.96,10.9-.24,5.16,3.36,5.18,4.02,8.45.86,4.26-1.22,8.02-1.36,12.03-.92,26.26,6.19,52.93,20.31,75.67,0,0,35.02,59.61,109.89,69.1,74.87,9.49,135.8-28.48,177.64-107.81,0,0,10.56,6.1,15.19,4.07,4.63-2.03,4.18-20.34,0-23.73ZM850.72,592.49l-8.59-13.2c-23.06-26.18-56.56-45.06-92.36-52.49-27.56-5.72-76.72-5.06-103.1,4.62-1.57.58-3.59,1.26-3.93,3.01l11.11-2.42.02,2.44,24.9-2.49c46.69.12,85.2,4.78,123.46,31,14.21,9.74,42.69,34.85,47.51,50.46.34,1.12.15,12.46-.32,12.93-1.08,1.07-3.1-1.17-3.93-1.8-9.99-7.71-15.02-14.06-27.06-20.94-57.14-32.69-135.7-38.87-200.8-27.68-12.64,2.17-26.87,7.57-38.44,9.23-1.77.25-3.93.72-3.16-1.72,5.9-8.31,11.01-17.08,17.21-25.22,1.68-2.21,9.23-7.73,1.7-6.91-6.55.72-9.38,5.97-13.68,9.72,13.87-51.49,65.44-92.86,121.37-102.47,37.04-6.36,81.71.88,107.51,28.11,26.37,27.83,41.55,68.87,40.57,105.8Z"/>
        <path class="cls-2" d="M850.72,592.49c.97-36.93-14.2-77.97-40.57-105.8-25.8-27.23-70.48-34.47-107.51-28.11-55.93,9.61-107.49,50.98-121.37,102.47,4.3-3.75,7.13-9.01,13.68-9.72,7.53-.83-.02,4.7-1.7,6.91-6.2,8.13-11.32,16.9-17.21,25.22-.78,2.44,1.39,1.97,3.16,1.72,11.56-1.65,25.8-7.05,38.44-9.23,65.1-11.2,143.66-5.01,200.8,27.68,12.04,6.89,17.06,13.24,27.06,20.94.82.64,2.85,2.88,3.93,1.8.48-.47.67-11.82.32-12.93-4.82-15.62-33.3-40.72-47.51-50.46-38.25-26.22-76.77-30.88-123.46-31l-24.9,2.49-.02-2.44-11.11,2.42c.34-1.75,2.35-2.43,3.93-3.01,26.38-9.69,75.54-10.34,103.1-4.62,35.8,7.43,69.3,26.31,92.36,52.49l8.59,13.2Z"/>
        <path class="cls-1" d="M726.83,794.21c-25.95,1.19-51.56-4.14-76.15-11.24-8.17-2.36-20.13-8.26-27.83-9.35-.77-.11-2.16-.32-1.97.61l2.61,3.02c-5.98-.43-7.22.16-2.64,4.26,20.48,18.34,72.74,23.93,99.21,16.71,1.62-.44,6.27-2.27,6.76-4.01Z"/>
        <path class="cls-1" d="M733.05,634.86c-51.65,6.23-33.17,76.76,14.69,61.95,39.4-12.2,27.56-67.05-14.69-61.95Z"/>
        <path d="M726.83,794.21c-.49,1.75-5.14,3.57-6.76,4.01-26.47,7.22-78.73,1.63-99.21-16.71-4.58-4.1-3.34-4.69,2.64-4.26l-2.61-3.02c-.19-.93,1.19-.72,1.97-.61,7.7,1.09,19.66,6.99,27.83,9.35,24.59,7.1,50.2,12.43,76.15,11.24Z"/>
        <path class="cls-1" d="M660.6,587.33c-21.42,1.39-44.69,5.75-65.41,10.88-11.7,2.9-28.03,4.8-28.4,18.52-.9,33.94,17.11,74.93,45.06,97.23,77.51,61.84,180.74,31.18,219.32-52.37,6.18-13.39,11.03-19.13-2.23-29.82-43.36-34.94-112.06-48.09-168.34-44.43Z"/>
        <path d="M733.05,634.86c42.25-5.1,54.08,49.76,14.69,61.95-47.86,14.81-66.34-55.72-14.69-61.95Z"/>
      </g>
      <rect class="cls-3" width="2048.06" height="2048.2"/>
    </g>
  </g>
</svg>