<?xml version="1.0" encoding="UTF-8"?>
<svg id="Layer_2" data-name="Layer 2" xmlns="http://www.w3.org/2000/svg" viewBox="0 0 2048.06 2048.2">
  <defs>
    <style>
      .cls-1 {
        fill: #fff;
      }

      .cls-2 {
        opacity: 0;
      }
    </style>
  </defs>
  <g id="riip">
    <g>
      <g>
        <path d="M726,463.55c-112.1,7.91-185.37,126.52-140.84,220.12,50.2,105.53,211.83,65.6,263.61-18.23,53.55-86.7-5.36-210.17-122.77-201.89ZM645.72,784.41c-.03-3.62-10.04-11.23-10.45-20.4-.15-3.36,2.48-7.24.62-9.98-.62-.92-16.84-9.22-20.09-11.41-140.79-95.07-10.44-334.52,159.91-291.95,50.28,12.57,110.56,78.2,110.56,126.37v23.24c-.16,18.86-8.75,42.64-8.75,42.64-16.63,43.33-41.34,70.83-84.52,94.2-43.29,23.43-92.8,37.36-142.17,20.5-2.01,27.04,24.08,26.22,45.81,23.51,31.94-3.99,47.7-17.8,74.3-28.47,9.76-3.92,9.62-.65,3.36,5.46-22.18,21.64-75.71,35.23-107.27,34.12-6.78-.24-21.3-7.83-21.3-7.83Z"/>
        <path class="cls-1" d="M726,463.55c117.41-8.28,176.32,115.18,122.77,201.89-51.77,83.83-213.41,123.76-263.61,18.23-44.53-93.6,28.74-212.21,140.84-220.12ZM746.74,554.03c-12.01,2.19-37.52,26.92-43.23,27.11-8.02.27-22.69-31.87-37.78-15.47-11.37,12.35,10.37,27.11,15.99,37.6-7.59,8.08-17.32,14.07-25.08,22.02-6.54,6.7-20.12,20.18-10.41,28.64,9.86,8.59,23.58-.5,32.3-6.2,4.24-2.77,20.28-17.26,22.36-17.26,4.92,0,22.47,25.1,32.24,28.47,14.22,4.9,27.32-3.3,22.05-17.82-3.03-8.37-27.53-28.31-27.53-34.29,0-4.63,23.05-23,27.9-28,1.83-1.89,10.09-10.54,10.5-11.89,2.17-7.23-12.3-14.19-19.31-12.91Z"/>
        <path d="M746.74,554.03c7.01-1.28,21.48,5.68,19.31,12.91-.4,1.35-8.66,10-10.5,11.89-4.85,4.99-27.9,23.37-27.9,28,0,5.98,24.5,25.92,27.53,34.29,5.26,14.53-7.84,22.73-22.05,17.82-9.76-3.37-27.32-28.47-32.24-28.47-2.08,0-18.12,14.49-22.36,17.26-8.72,5.7-22.45,14.79-32.3,6.2-9.71-8.46,3.88-21.95,10.41-28.64,7.75-7.95,17.48-13.94,25.08-22.02-5.62-10.49-27.35-25.25-15.99-37.6,15.09-16.4,29.75,15.74,37.78,15.47,5.71-.19,31.22-24.92,43.23-27.11Z"/>
      </g>
      <rect class="cls-2" width="2048.06" height="2048.2"/>
    </g>
  </g>
</svg>