<?xml version="1.0" encoding="UTF-8"?>
<svg id="Layer_2" data-name="Layer 2" xmlns="http://www.w3.org/2000/svg" viewBox="0 0 2048.06 2048.2">
  <defs>
    <style>
      .cls-1 {
        fill: #5f5f5f;
      }

      .cls-2 {
        opacity: .3;
      }

      .cls-3 {
        opacity: 0;
      }

      .cls-4 {
        fill: #fdfdfd;
      }
    </style>
  </defs>
  <g id="rip">
    <g>
      <g>
        <g id="V9foRU.tif">
          <g>
            <path class="cls-1" d="M828.56,751.11c-1.73-.46-2.29.58-3.39,1.22-10.71,6.25-21.3,17.08-32.11,24.16-45.63,29.9-103.43,35.44-153.43,12.82,9.6,11.14,24.89,19.15,39.1,23.04,52.12,14.25,117.63-9.68,147.16-55.1,1.22-1.87,2.98-3.66,2.67-6.14Z"/>
            <path d="M854.36,539.47c4.53,17.14,13.66,24.17,20.31,29.38,7.16,5.61,7.43,20.49,5.44,29.38-3.03,13.49-5.08,15.96-8.7,18.13s-3.8,17.99-3.8,17.99c-.83,1.32-3.11,14.6-4.01,17.83-15.31,55.02-50.74,104.55-110.06,117.95-76.93,17.37-142.16-14.14-182.78-88.49-18.31-33.51-11.24-93.93-11.24-102.63s-5.8-10.52-5.8-10.52c-5.44-2.54-5.8-10.52-4.35-15.59s10.88-13.42,14.87-14.87c3.99-1.45,8.52-18.68,8.52-18.68,0,0,45.15-77.25,122.4-82.69,77.25-5.44,99.55,21.31,116.96,36.99,21.94,19.77,38.98,53.43,42.25,65.82ZM849.6,564.19c-3.03-3.03-6.79-4.2-10.1-6.68-.06-1.62,10.01-2.69,11.74-1.26-21.51-91.18-124.45-139.1-207.99-93.37-28.59,15.66-49.31,39.82-64.09,68.61-.19,1.41-.07,1.33,1.25,1.26,3.36-.19,8.13-1.9,11.88-2.41,6.88-.94,16.76-2.47,23.44-2.68,2.55-.08,5.99.58,4.19,3.43-1.62,2.57-27.34,6.29-32.55,7.76-5.34,1.51-23.17,7.84-25.22,12.58-1.78,4.13-.17,7.99,4.75,7.31,3.95-.54,14.87-7.03,19.82-8.78,12.54-4.42,29.22-6.82,42.53-8.69,70.56-9.95,155.37-6.06,213.14,40.2,7.73,6.19,14.34,13.72,21.85,20.14.71.01,1.36-5.21,1.35-6.31-.03-2.25-1.3-11.11-1.55-12.8-1.25-8.41-14.44-18.31-14.44-18.31ZM672.19,553.98c-20.1.72-40.65,2.39-60.45,5.9-7.14,1.27-41.07,8.9-44.27,13.68-2.32,3.47-4.84,25.78-5.12,31-7.7,143.65,175.59,225.17,262.69,103.98,12.7-17.67,31.97-60.62,31.28-82.16-.67-20.74-36.36-41.82-52.94-50.41-40.38-20.91-86.24-23.59-131.2-21.99Z"/>
            <path d="M828.56,751.11c.31,2.47-1.46,4.27-2.67,6.14-29.53,45.43-95.04,69.35-147.16,55.1-14.21-3.89-29.5-11.89-39.1-23.04,50,22.62,107.81,17.08,153.43-12.82,10.81-7.08,21.4-17.91,32.11-24.16,1.1-.64,1.66-1.69,3.39-1.22Z"/>
            <path class="cls-4" d="M672.19,553.98c44.96-1.6,90.82,1.08,131.2,21.99,16.58,8.59,52.28,29.67,52.94,50.41.69,21.54-18.59,64.49-31.28,82.16-87.1,121.18-270.39,39.67-262.69-103.98.28-5.22,2.8-27.52,5.12-31,3.19-4.78,37.12-12.41,44.27-13.68,19.79-3.51,40.35-5.18,60.45-5.9ZM744.58,659.56c2.73.37,5.28-.7,7.94-.88,7.18-.49,35.83,1.17,39.98-2.85,2.11-2.04,2.29-7.73.84-10.19-1.93-3.28-11.9-4.29-15.6-4.56-8.19-.58-40.36,1.6-44.87-1.32-10.73-14.22-18.89-30.19-29.26-44.65-3.75-5.23-13.31-19.58-19.91-19.64-4.53-.04-8.01,3.55-8,8.07.01,6.36,14.06,21.88,18.18,28.02,2.38,3.56,18.89,28.98,18.76,30.77-.11,1.61-9.47,2.72-11.33,2.92-12.93,1.42-50.14,1.09-59.41,8.39-3.28,2.58-4.09,8.71-.62,11.36,3.44,2.64,16.03,2.34,20.57,2.09,17.88-.97,38.74-7.17,56.24-6.75,5.84.14,8.13,5.2,10.67,9.55,5.26,9,10.77,25.05,17.11,32.44,4.84,5.64,16.85,2.97,16.16-5.22-.47-5.6-19.19-35.95-17.46-37.57Z"/>
            <path d="M744.58,659.56c-1.73,1.62,16.99,31.97,17.46,37.57.69,8.19-11.32,10.86-16.16,5.22-6.34-7.4-11.84-23.44-17.11-32.44-2.54-4.35-4.84-9.41-10.67-9.55-17.5-.42-38.36,5.78-56.24,6.75-4.54.25-17.13.55-20.57-2.09-3.46-2.65-2.65-8.78.62-11.36,9.27-7.3,46.48-6.96,59.41-8.39,1.86-.2,11.21-1.31,11.33-2.92.13-1.8-16.38-27.22-18.76-30.77-4.11-6.14-18.16-21.66-18.18-28.02-.01-4.52,3.47-8.11,8-8.07,6.6.06,16.15,14.41,19.91,19.64,10.37,14.45,18.53,30.43,29.26,44.65,4.51,2.92,36.67.74,44.87,1.32,3.7.26,13.67,1.28,15.6,4.56,1.45,2.46,1.26,8.14-.84,10.19-4.14,4.02-32.79,2.36-39.98,2.85-2.66.18-5.22,1.25-7.94.88Z"/>
          </g>
        </g>
        <g class="cls-2">
          <path d="M865.7,595.42c-.03-2.25-1.3-11.11-1.55-12.8-1.25-8.41-14.44-18.31-14.44-18.31-3.03-3.03-6.79-4.2-10.1-6.68-.06-1.62,10.01-2.69,11.74-1.26-21.51-91.18-124.45-139.1-207.99-93.37-28.59,15.66-49.31,39.82-64.09,68.61-.19,1.41-.07,1.33,1.25,1.26,3.36-.19,8.13-1.9,11.88-2.41,6.88-.94,16.76-2.47,23.44-2.68,2.55-.08,5.99.58,4.19,3.43-1.62,2.57-27.34,6.29-32.55,7.76-5.34,1.51-23.17,7.84-25.22,12.58-1.78,4.13-.17,7.99,4.75,7.31,3.95-.54,14.87-7.03,19.82-8.78,12.54-4.42,29.22-6.82,42.53-8.69,70.56-9.95,155.37-6.06,213.14,40.2,7.73,6.19,14.34,13.72,21.85,20.14.71.01,1.36-5.21,1.35-6.31Z"/>
        </g>
      </g>
      <rect class="cls-3" width="2048.06" height="2048.2"/>
    </g>
  </g>
</svg>