<?xml version="1.0" encoding="UTF-8"?>
<svg id="Layer_2" data-name="Layer 2" xmlns="http://www.w3.org/2000/svg" viewBox="0 0 2048.06 2048.2">
  <defs>
    <style>
      .cls-1 {
        fill: #fff;
      }

      .cls-2 {
        opacity: .3;
      }

      .cls-3 {
        opacity: 0;
      }
    </style>
  </defs>
  <g id="uhuum">
    <g>
      <g>
        <g>
          <path d="M894.81,599.91c5.71,2.59,1.56,21.27-.52,25.93s-16.08,1.04-16.08,1.04c0,0,10.26,16.96-31.64,83.51-44.09,70.02-154.05,68.98-154.05,68.98-21.03-1.68-37.69-8.87-56.54-17.12l-20.23-10.37c11.87,9.55,28.01,39.42,50.83,39.94,2.94.07,23.44,5.15,23.86,5.71,3.84,5.12-16.17,5.82-18.15,5.71-32.43-1.8-58.37-37.86-77.28-61.72-24.32-30.68-41.11-68.58-47.2-107.37,0,0-8.3,1.56-10.89-9.34-2.59-10.89-2.59-26.45-.52-29.05,2.07-2.59,10.37-1.56,11.93-6.74l1.04-18.67c33.71-153.01,280.08-172.72,322.62-14.52,3.01,11.2,17.12,41.49,22.82,44.09ZM819.47,496.06c-93.39-79.72-247.51-28.12-258.69,92.95,59.55-5.1,120.11-1.25,179.98,0,32.22.67,86.6.74,116.18,10.37,1.55.51,4.5,3.06,4.15,5.19-15.05,2.55-32.14-1.92-47.2-2.59-63.73-2.83-125.09-5.01-188.8-1.56-21.85,1.18-51.64,2.45-73.65,1.04-.63,8.23-3.13,18.22,4.67,18.15,22.54-.19,61.13-7.16,84.84-8.46,63.47-3.49,128.53.13,191.86,4.4,11.51.78,23.4-.45,34.67,2.97,0,0,10.21,1.62,10.73-4.09s-4.67-12.45-7.78-12.97c-3.11-.52.52-6.74,3.63-6.22,0,0-12.18-62.98-54.59-99.18ZM675.63,624.41c-25.24.96-50.82.87-76,2.98-13.53,1.13-26.93,5.3-40.61,4.41,4.09,55.79,35.98,106.98,89.67,126.55,94.04,34.28,210.3-27.97,217.34-131.69l-111.19-2.29c-8.94,18.89-10.17,30.6-33.39,34.81-20.6,3.73-47.68-11.32-45.82-34.76Z"/>
          <path d="M820.25,761.69c-14.99,18.5-42.82,31.1-66.09,34.99-6.12,1.02-23.12,4.85-20.99-3.99,14.08-2.82,28.2-5.71,41.72-10.7,15.57-5.74,29.54-15.71,45.36-20.3Z"/>
        </g>
        <path class="cls-1" d="M721.44,659.17c-20.6,3.73-47.68-11.32-45.82-34.76-25.24.96-50.82.87-76,2.98-13.53,1.13-26.93,5.3-40.61,4.41,4.09,55.79,35.98,106.98,89.67,126.55,94.04,34.28,210.3-27.97,217.33-131.69l-111.19-2.29c-8.94,18.89-10.17,30.6-33.39,34.81Z"/>
        <path class="cls-2" d="M870.43,601.46c-3.11-.52.52-6.74,3.63-6.22,0,0-12.18-62.98-54.59-99.18-93.39-79.72-247.51-28.12-258.69,92.95,59.55-5.1,120.11-1.25,179.98,0,32.22.67,86.6.74,116.18,10.37,1.55.51,4.5,3.06,4.15,5.19-15.05,2.55-32.14-1.93-47.2-2.59-63.73-2.83-125.09-5.01-188.8-1.56-21.85,1.18-51.64,2.45-73.65,1.04-.63,8.23-3.13,18.22,4.67,18.15,22.54-.19,61.13-7.16,84.84-8.46,63.47-3.49,128.53.13,191.86,4.4,11.51.78,23.4-.45,34.67,2.97,0,0,10.21,1.62,10.73-4.09.52-5.71-4.67-12.45-7.78-12.97Z"/>
      </g>
      <rect class="cls-3" width="2048.06" height="2048.2"/>
    </g>
  </g>
</svg>