<?xml version="1.0" encoding="UTF-8"?>
<svg id="Layer_2" data-name="Layer 2" xmlns="http://www.w3.org/2000/svg" viewBox="0 0 2048.06 2048.2">
  <defs>
    <style>
      .cls-1 {
        fill: #fff;
      }

      .cls-2 {
        opacity: .3;
      }

      .cls-3 {
        opacity: 0;
      }
    </style>
  </defs>
  <g id="whaaaaa">
    <g>
      <g>
        <path d="M877.96,585.92c2.26-11.69,7.24-29.11-5.62-33.7,0,0-29.07-89.47-95.94-106.23-173.62-43.52-221.36,140.4-221.36,140.4-5.15,4.68-12.64,16.38-12.17,22.93.47,6.55,1.4,25.27,5.62,25.74,4.21.47,5.15,2.34,6.08,11.23.94,8.89,14.51,69.26,14.51,69.26,0,0,11.93,77.94,56.51,107.06,23.28,16.27,55.51,21.93,55.51,21.93h28.85l-30.8-9.59c-28.85-12.71-57.77-40.43-73.56-68.38,11.27,3.91,27.15,17.48,38.84,20.12,74.41,16.85,138.56,4.9,186.26-53.82,30.38-37.4,45.77-82.5,29.02-129.16,0,0,16.38-8.11,18.25-17.78ZM857.12,589.38c-53.08-23.92-162.18-20.63-217.68-4.12-27.37,8.14-55.65,21.19-79.51,36.71-2.09-16.13,3.4-26.78,13.21-38.71,36.58-44.49,107.94-65.67,164.08-61.93,27.42,1.83,52.52,11.45,78.24,19.84-43.53-40.83-116.45-36.73-169.44-18.57-31.56,10.82-56.58,29.56-77.85,54.85,12.17-58.85,66.69-109.76,123.28-126.48,0,0,92.35-23.15,142.51,47.9,22.46,31.82,32.76,47.73,25.27,45.86s-15.91,8.42-15.91,8.42c3.74,0,13.1-1.87,18.72,12.17,5.62,14.04-4.93,24.05-4.93,24.05Z"/>
        <path class="cls-1" d="M856.67,752.21c-28.23,26.88-60.87,54.37-96.67,70.66-3.72,1.69-26.93,9.49-26.94,10.95,18.04,10.27,45.44-4.44,61.19-14.62,21.01-13.59,48.96-37.95,58.38-60.33.98-2.33,4.95-3.13,4.04-6.66Z"/>
        <path class="cls-1" d="M652.25,602.2c-18.67,34.5-17.57,78.97,14.79,104.72,60.77,48.36,128.14-20.01,97.95-79.82-18.8-37.24-79.44-34.41-88.94,11.25-9.49,45.64,53.18,58.02,55.31,10-2.17-2.94-29.57,33.24-40.76,5.34-13.8-34.39,47.56-54.18,61.03-16.51,5.55,15.53,4.98,24.52-.86,39.64-23.1,59.8-101.05,15.34-96.86-34.22.83-9.77,11.98-38.93,19.03-45.26,4.2-3.77,29.18-6.35,36.11-6.76,14.94-.86,45.53-1.88,59.51-.02,9.63,1.28,20.46,20.03,24.12,28.64,31.08,73.14-27.86,129.13-100.02,123.1-45.1-3.77-91.2-49.7-88.02-96.21.38-5.5,4.47-28.45,8.07-31.49s37.74-13.78,39.52-12.39Z"/>
        <path class="cls-1" d="M594.53,621.97c-23.08,70.39,42.07,140.79,112.93,136.82,66.62-3.73,113.16-41.34,108.07-111.33-1.25-17.17-5.93-39.92-16.55-53.5,3.85-2.8,43.55,4.68,47.91,8.95,3.15,3.09,6.05,21.24,6.47,26.51,12.22,155.85-239.44,218.99-284.36,60.14-2.34-8.29-9.36-41.74-6.58-47.78s25.66-15.98,32.11-19.8Z"/>
        <path d="M856.67,752.21c.91,3.54-3.06,4.33-4.04,6.66-9.42,22.38-37.37,46.74-58.38,60.33-15.74,10.18-43.15,24.89-61.19,14.62,0-1.47,23.22-9.26,26.94-10.95,35.8-16.29,68.43-43.78,96.67-70.66Z"/>
        <g class="cls-2">
          <path d="M862.05,565.33c-5.62-14.04-14.98-12.17-18.72-12.17,0,0,8.42-10.3,15.91-8.42,7.49,1.87-2.81-14.04-25.27-45.86-50.15-71.05-142.51-47.9-142.51-47.9-56.59,16.72-111.11,67.63-123.28,126.48,21.27-25.3,46.29-44.03,77.85-54.85,52.99-18.17,125.91-22.27,169.44,18.57-25.72-8.39-50.82-18.01-78.24-19.84-56.14-3.74-127.5,17.44-164.08,61.93-9.8,11.93-15.3,22.58-13.21,38.71,23.86-15.52,52.14-28.56,79.51-36.71,55.49-16.51,164.6-19.8,217.68,4.12,0,0,10.54-10.01,4.93-24.05Z"/>
        </g>
      </g>
      <rect class="cls-3" width="2048.06" height="2048.2"/>
    </g>
  </g>
</svg>