<?xml version="1.0" encoding="UTF-8"?>
<svg id="Layer_2" data-name="Layer 2" xmlns="http://www.w3.org/2000/svg" viewBox="0 0 2048.06 2048.2">
  <defs>
    <style>
      .cls-1 {
        fill: #fff;
      }

      .cls-2 {
        opacity: .3;
      }

      .cls-3 {
        opacity: 0;
      }
    </style>
  </defs>
  <g id="wheere">
    <g>
      <g>
        <path d="M575.09,550.01c-1.6,13.6,3.2,11.2,22.4,9.6,19.2-1.6,45.6-2.4,37.6,2.4-8,4.8-42.4,8.8-64.79,9.6-22.4.8-18.4,0-20,8-1.6,8,1.6,21.6,8,17.6s66.85-9.77,66.85-9.77c78.46-6.52,144.59-5.27,217.58,25.88,7.55,3.22,32.5,17.18,38.28,16.88,2.1-.11,3.52-.25,4.75-2.17-6.77-26.7-35.39-33.87-48.07-56.43.98-1.97,3.37.27,4.6.9,3.65,1.85,23.52,13.84,25.65,12.16-12.08-21.61-18.35-45.24-31.9-66.44-46.26-72.38-139.35-81.42-208.1-31.17-28.77,21.02-51.23,49.37-52.83,62.97ZM749.61,602.56c-43.97-4.79-88.66-3.7-132.55,1.56-14.78,1.77-32.46,3.9-46.92,6.73-1.54.3-2.74.42-3.33,2.13,3.31,31.58,14.49,62.07,39.09,83.08,60.52,51.68,201.68,42.34,242.99-30.67,2.61-4.61,11.77-24.16,9.19-28.24l-27.86-12.69c-7.53,22.68-34.7,37.64-57.63,28.71-18.37-7.15-31.24-31.79-22.98-50.6ZM558.02,616.13c-1.07-3.2,1.07-9.6-4.8-8-5.87,1.6-9.6-5.33-11.73-8.53s-2.67-33.6-2.67-33.6c1.6-5.87,3.2-6.93,12.8-10.13,9.6-3.2,16.78-15.91,23.06-27.15,77.74-139.29,262.55-105.96,304.61,38.39,2.79,9.56,3.88,21.68,6.87,30.27,2.88,8.27,5.06,16.49,7.9,27.17,5.02,18.91-24.75,19.26-24.75,19.26-.62,4.02-1.23,8.17-2.38,12.09-5.12,17.59-19.62,38.4-30.91,53-25.01,32.37-62.33,45.6-98.09,62.86-2.93.26-2.66-.42-.64-2.02,18.62-14.73,42.47-25.94,60.47-42-65.59,31.09-151.01,26.71-207.7-20.65,7.4,16.23,22.15,32.18,36.69,42.39,18.48,12.97,34.5,12.84,53.81,20.54,2.09.83,3.72-.8,3.02,3.09-20.81-1.7-43.57-3.66-61.92-14.41-15.15-8.87-24.69-21.98-35.73-35.1.74,28.84,19.14,40.63,42.36,51.92,1.86.9,3.79-.88,3.02,3.1-12.75.64-25.74-4.83-35.74-12.37-23.84-25.76-19.26-47.47-19.26-47.47-.31-6.68,2.19-17.4,1.36-21.94-.39-2.16-3.9-20.48-6.85-25.24-6.93-11.2-12.8-55.46-12.8-55.46Z"/>
        <g class="cls-2">
          <path d="M885.73,628.02c-6.77-26.7-35.39-33.87-48.07-56.43.98-1.97,3.37.27,4.6.9,3.65,1.85,23.52,13.84,25.65,12.16-12.08-21.61-18.35-45.24-31.9-66.44-46.26-72.38-139.35-81.42-208.1-31.17-28.77,21.02-51.23,49.37-52.83,62.97-1.6,13.6,3.2,11.2,22.4,9.6,19.2-1.6,45.6-2.4,37.6,2.4-8,4.8-42.4,8.8-64.79,9.6-22.4.8-18.4,0-20,8-1.6,8,1.6,21.6,8,17.6,6.4-4,66.85-9.77,66.85-9.77,78.46-6.52,144.59-5.26,217.58,25.88,7.55,3.22,32.5,17.18,38.28,16.88,2.1-.11,3.52-.25,4.75-2.17Z"/>
        </g>
        <path class="cls-1" d="M848.89,665.37c2.61-4.61,11.77-24.16,9.19-28.24l-27.86-12.68c-7.53,22.68-34.7,37.64-57.63,28.71-18.37-7.15-31.24-31.79-22.98-50.6-43.97-4.79-88.66-3.7-132.55,1.56-14.78,1.77-32.46,3.9-46.92,6.73-1.54.3-2.74.42-3.33,2.13,3.31,31.58,14.49,62.07,39.09,83.08,60.52,51.68,201.68,42.34,242.99-30.67Z"/>
      </g>
      <rect class="cls-3" width="2048.06" height="2048.2"/>
    </g>
  </g>
</svg>