<?xml version="1.0" encoding="UTF-8"?>
<svg id="Layer_2" data-name="Layer 2" xmlns="http://www.w3.org/2000/svg" viewBox="0 0 2048.06 2048.2">
  <defs>
    <style>
      .cls-1 {
        fill: #fff;
      }

      .cls-2 {
        opacity: .3;
      }

      .cls-3 {
        opacity: 0;
      }
    </style>
  </defs>
  <g id="whhhaaa">
    <g>
      <g>
        <g>
          <path d="M897.53,586.42c-1.5-5.24-8.23-.75-15.71-19.45-7.48-18.7-24.68-42.63-77.78-56.84-53.1-14.21-71.8-17.95-154.82-4.49-83.02,13.46-89.75,38.14-91.99,50.11-2.24,11.97-5.98,22.44-13.46,26.18-7.48,3.74-6.73,17.95-4.49,28.42,2.24,10.47,11.07,22.81,11.07,22.81.01,27.24,13.07,64.81,31.13,85.43,7.19,8.21,18.6,13.52,24.55,21.79,7.16,9.96,10.92,23.22,19.67,33.89,48.24,58.82,144.39,39.14,196.17-5.07,13.77-11.75,34.12-30.53,35.51-49.17-2.65-2.98-16.72,14.64-18.1,15.91-22.35,20.35-47.35,38.55-76.36,48.17-40.56,13.45-99.07,10.42-126.42-29.41,61.5,25.36,128.55,7.54,188.47-34.4,37.4-26.18,47.12-91.25,49.36-97.98,2.24-6.73,11.97,2.99,17.2,0s7.48-30.66,5.98-35.9ZM855.79,647.01c-20.05,81.93-131.72,131.91-208.2,103.85-46.78-17.17-84.1-60.71-86.51-111.83-.27-5.77-1.45-10.06,3.79-13.54,5.18-3.44,35.51-12.68,43.22-14.7,8.27-2.17,67.3-12.97,70.26-10.1.62,5.73-4.8,9.74-6.26,14.71-4.01,13.63,5.63,37.84,15.62,47.58,33.4,32.58,88.78,3.18,86.28-41.37-.5-8.87-4.62-14.41-7.29-22.38,19.73,3.09,75.8,4.41,89.33,19.26,5.41,5.94,1.57,21.05-.26,28.52ZM876.59,611.1c-3.74.75-44.88-17.2-64.32-20.94-19.45-3.74-141.36-17.95-238.59,16.45,0,0-10.47,4.49-15.71,6.73s-6.73-5.98-6.73-14.96,11.22-11.22,14.96-12.71c3.74-1.5,57.59-15.71,77.78-16.45s-53.85-5.98-65.82-2.99c-11.97,2.99-17.2-2.99-11.97-18.7s112.19-53.85,206.42-35.15c96.28,19.1,91.99,42.63,97.23,53.85,5.24,11.22-17.2,6.73-27.67,9.72-10.47,2.99,24.68,7.48,35.15,14.96,10.47,7.48,2.99,19.45-.75,20.19Z"/>
          <path d="M758.76,686.06c-13.23.81-26.72,9.87-40.39,8.55-8.84-.85-32.61-12.46-39.91-18.04-17.89-13.69-23.02-40.27-23.27-61.43-10.28-2.91-7.7,15.24-7.22,22.43,3.03,45.8,48.82,74.2,92.41,63.44,3.28-.81,18.39-8.14,19.86-10.55,1.31-2.15,1.87-4.61-1.48-4.4Z"/>
        </g>
        <g class="cls-2">
          <path d="M812.27,590.16c19.45,3.74,60.58,21.69,64.32,20.94,3.74-.75,11.22-12.71.75-20.19-10.47-7.48-45.62-11.97-35.15-14.96,10.47-2.99,32.91,1.5,27.67-9.72-5.24-11.22-.95-34.75-97.23-53.85-94.24-18.7-201.19,19.45-206.42,35.15s0,21.69,11.97,18.7c11.97-2.99,86.01,2.24,65.82,2.99s-74.04,14.96-77.78,16.45c-3.74,1.5-14.96,3.74-14.96,12.71s1.5,17.2,6.73,14.96,15.71-6.73,15.71-6.73c97.23-34.4,219.14-20.19,238.59-16.45Z"/>
        </g>
        <path class="cls-1" d="M647.59,750.85c76.48,28.07,188.15-21.92,208.2-103.85,1.83-7.47,5.67-22.58.26-28.52-13.54-14.85-69.6-16.17-89.33-19.26,2.66,7.97,6.79,13.51,7.29,22.38,2.49,44.55-52.88,73.94-86.28,41.37-10-9.75-19.63-33.96-15.62-47.58,1.46-4.97,6.88-8.99,6.26-14.71-2.96-2.87-61.99,7.93-70.26,10.1-7.71,2.02-38.05,11.26-43.22,14.7-5.24,3.48-4.07,7.77-3.79,13.54,2.42,51.12,39.73,94.66,86.51,111.83ZM655.19,615.14c.25,21.16,5.38,47.75,23.27,61.43,7.29,5.58,31.07,17.19,39.91,18.04,13.66,1.31,27.15-7.74,40.39-8.55,3.35-.21,2.79,2.25,1.48,4.4-1.47,2.41-16.58,9.74-19.86,10.55-43.59,10.76-89.38-17.64-92.41-63.44-.48-7.2-3.06-25.35,7.22-22.43Z"/>
      </g>
      <rect class="cls-3" width="2048.06" height="2048.2"/>
    </g>
  </g>
</svg>