<?xml version="1.0" encoding="UTF-8"?>
<svg id="Layer_2" data-name="Layer 2" xmlns="http://www.w3.org/2000/svg" viewBox="0 0 2048.06 2048.2">
  <defs>
    <style>
      .cls-1 {
        fill: #fff;
      }

      .cls-2 {
        fill: #8bc7bd;
      }

      .cls-3 {
        opacity: .3;
      }

      .cls-4 {
        opacity: 0;
      }
    </style>
  </defs>
  <g id="whyy">
    <g>
      <g>
        <path d="M615.43,1047.06c3.91-1.08,5.94,3.24,7.22,5.93,7.86,16.6,15.2,53.75,13.54,71.87-1.71,18.59-19.53,38.22-37.86,24.47-20.44-15.33-6.54-53.19,1.14-72.29,2.75-6.84,7.47-19.32,11.28-25.1.83-1.26,3.39-4.52,4.68-4.87ZM616.05,1060.41c-.87.59-1.15,1.47-1.58,2.36-5.71,11.86-18.16,44.28-18.57,56.59-.37,11.07,5,27.35,18.99,23.74,16.46-4.25,12.71-32.64,10.79-44.87-.59-3.75-7.36-37.86-9.63-37.81Z"/>
        <path class="cls-1" d="M751.67,620.5c-12.78,1.36-30.08,25.11-33.86,24.88-9.87-6.03-30.99-35.91-43.41-19.9-11.43,14.73,12.23,25.83,19.15,35.28,3.21,4.38,3.05,5.3-.02,9.34-5.63,7.4-34.69,28.19-20.88,39.38,15.44,12.51,33.88-19.62,45.15-25.55,9.85,6.33,33.29,38.69,45.72,22.64,10.65-13.76-18.29-32.05-25.26-41.69,6.54-10.97,27.21-19.76,25.2-34.65-.77-5.71-5.97-10.35-11.78-9.73Z"/>
        <path d="M901.21,579.8c-.56-5.6-9.53-11.21-18.49-15.13-8.96-3.92,2.24-14.01-43.7-59.95-45.95-45.95-102.54-40.9-102.54-40.9-49.98,4.25-94.37,38.83-128.87,73.4-20.92,20.96-44.82,72.28-50.43,75.08-5.6,2.8-9.53,6.16-11.21,16.25-1.68,10.09,9.53,30.82,12.89,30.82,0,0,2.24.75,4.67-.75,2.43-1.49,5.42.75,5.79,6.54,3.44,53.26,17.37,65.86,23.16,79.38,8.4,19.61,9.71,21.48,9.71,21.48,0,0-6.91,6.72-4.67,19.61s7.84,16.06,15.5,24.84c0,0,28.2,25.4,16.44,56.78,0,0-28.02,62.75-32.5,80.12s-11.21,49.31,8.97,66.12c14.8,12.33,30.1,5.21,40.34-10.65,29.7-45.95,6.71-112.78,35.86-150.16,26.28-33.7,93.37-22.92,127.75-63.88,5.63-6.71,18.13-20.83,24.09-26.9,8.55-8.7,15.25-18.26,23.53-28.58,29.7-36.98,31.94-85.17,33.62-98.61,1.68-13.45,5.04-10.09,8.4-12.33,3.36-2.24,2.24-36.98,1.68-42.58ZM789.79,795.4c-28.57,18.74-62.26,20.4-91.85,34.28-61.29,28.74-29.63,110.44-53.04,159.97-8.54,18.07-29.8,34.74-42.04,9.69-25.47-52.11,63.99-125.12,30.86-180.26-7.22-12.01-37.69-30.53-26.93-47.06,10.3-15.82,43.81,8.23,55.28,12.9,25.48,10.38,53.35,7.97,79.19.1,18.09-5.51,40.4-19.96,57.86-21.98,36.46-4.22,2.42,24.66-9.32,32.36ZM830.61,748.25c-11.88,9.97-8.78,4.99-21.37,3.99-18.97-1.5-41.32,13.37-59.03,19.75-33.61,12.1-62.95,13.9-95.9-1.32-11.47-5.3-18.92-12.36-32.6-13.8-4.8-.5-5.22,2.48-10.34-1.12-14.8-10.41-29.51-45.25-33.34-62.74-1.79-8.16-5.92-27.5-.81-33.97,3.99-5.05,25.05-17.87,31.64-21.6,41.66-23.53,93.93-35.78,141.68-37.67,34.6-1.37,97.54,6.77,127.73,24.32,5.18,3.01,6.55,4.05,6.78,10.65,1.42,39.7-24.57,88.44-54.43,113.5ZM891.9,608.71c-32.75-13.93-65.48-23.71-101.22-26.62-64.32-5.23-146.29,11.01-200.6,46.99-3.26,2.16-25.89,19.99-27.01,20.25-4.21.96-5.41-16.97-3.37-20.74,2.96-5.48,43.69-28.45,51.08-32.05,4.94-2.41,30.21-11.56,31.21-13.92.25-.58.56-3.01-.7-2.84,0,0-12.65-5-30.86,3.12-18.21,8.12-31.38,13.17-15.41-9.53,0,0,53.8-81.19,117.11-94.24,73.3-15.12,127.51,21.53,155.51,85.58-14.04.49-28.67-3.23-42.59-.34-1.22.25-4.84-.16-3.67,2.07,2.03,3.88,19.95,3.42,24.73,4.2,7.6,1.24,39.09,8.69,43.85,12.54,2.4,1.94,4.1,24.04,1.96,25.54Z"/>
        <path class="cls-2" d="M616.05,1060.41c2.27-.05,9.04,34.06,9.63,37.81,1.92,12.23,5.67,40.61-10.79,44.87-13.99,3.61-19.36-12.67-18.99-23.74.41-12.3,12.87-44.72,18.57-56.59.43-.89.71-1.77,1.58-2.36Z"/>
        <g class="cls-3">
          <path d="M889.94,583.17c-4.76-3.85-36.25-11.3-43.85-12.54-4.78-.78-22.7-.32-24.73-4.2-1.17-2.23,2.45-1.82,3.67-2.07,13.92-2.89,28.55.83,42.59.34-28-64.05-82.21-100.7-155.51-85.58-63.31,13.06-117.11,94.24-117.11,94.24-15.97,22.69-2.8,17.65,15.41,9.53,18.21-8.12,30.86-3.12,30.86-3.12,1.26-.17.95,2.26.7,2.84-1,2.36-26.27,11.51-31.21,13.92-7.39,3.6-48.12,26.57-51.08,32.05-2.04,3.77-.83,21.71,3.37,20.74,1.12-.26,23.75-18.09,27.01-20.25,54.31-35.97,136.28-52.22,200.6-46.99,35.74,2.91,68.47,12.69,101.22,26.62,2.13-1.49.44-23.59-1.96-25.54Z"/>
        </g>
        <path class="cls-2" d="M799.16,763.04c-17.46,2.02-39.77,16.48-57.86,21.98-25.83,7.87-53.7,10.28-79.19-.1-11.47-4.67-44.98-28.72-55.28-12.9-10.76,16.53,19.72,35.05,26.93,47.06,33.13,55.14-56.33,128.15-30.86,180.26,12.24,25.04,33.5,8.38,42.04-9.69,23.4-49.53-8.26-131.23,53.04-159.97,29.59-13.87,63.28-15.54,91.85-34.28,11.73-7.7,45.77-36.58,9.32-32.36Z"/>
        <path class="cls-1" d="M830.57,748.25c29.87-25.06,55.86-73.8,54.43-113.5-.24-6.6-1.6-7.64-6.78-10.65-30.2-17.55-93.13-25.68-127.73-24.32-47.75,1.89-100.02,14.14-141.68,37.67-6.59,3.72-27.65,16.54-31.64,21.6-5.11,6.47-.98,25.81.81,33.97,3.84,17.49,18.55,52.33,33.34,62.74,5.12,3.6,5.54.62,10.34,1.12,13.68,1.43,21.13,8.5,32.6,13.8,32.96,15.22,62.29,13.42,95.9,1.32,17.72-6.38,40.06-21.25,59.03-19.75,12.59.99,9.49,5.98,21.37-3.99Z"/>
        <path d="M751.67,620.5c5.81-.62,11.01,4.03,11.78,9.73,2.01,14.89-18.65,23.68-25.2,34.65,6.97,9.64,35.91,27.93,25.26,41.69-12.42,16.05-35.87-16.31-45.72-22.64-11.27,5.93-29.71,38.07-45.15,25.55-13.8-11.19,15.25-31.98,20.88-39.38,3.07-4.04,3.23-4.96.02-9.34-6.92-9.45-30.58-20.54-19.15-35.28,12.42-16.01,33.54,13.86,43.41,19.9,3.78.22,21.08-23.52,33.86-24.88Z"/>
      </g>
      <rect class="cls-4" width="2048.06" height="2048.2"/>
    </g>
  </g>
</svg>