<?xml version="1.0" encoding="UTF-8"?>
<svg id="Layer_2" data-name="Layer 2" xmlns="http://www.w3.org/2000/svg" viewBox="0 0 2048.06 2048.2">
  <defs>
    <style>
      .cls-1 {
        fill: #fff;
      }

      .cls-2 {
        opacity: .3;
      }

      .cls-3 {
        opacity: 0;
      }
    </style>
  </defs>
  <g id="yee">
    <g>
      <g>
        <path d="M645.79,787.61c-1.69-2.3-5.43-4.05-7.62-6.11-11.66-10.99-12.96-21.14-20.2-33.99-5.04-8.94-11.69-11.57-18.09-18.76-11.5-12.92-25.27-38.52-30.17-55.09-1.15-3.88-1.97-12.49-3.56-15.23-1.12-1.92-5.76-3.03-7.77-4.51-7.03-5.22-7.82-17.25-3.56-24.41,3.32-5.57,9.91-6.63,10.72-14.56,4.92-47.65,20.8-88.58,53.84-123.9,72.45-77.45,191.63-64.2,235.36,34.92,13.17,29.86,21.16,62.71,15.76,95.45.27,1.72,6.09,6.86,7.39,9.28,4.21,7.81-.51,16.8-7.6,20.89-1.86,1.07-6.92,2.32-8.26,3.66-2.34,2.32-7.95,20.8-10.19,25.58-4,8.53-10.62,18.02-16.46,25.45-46.22,58.76-132.13,78.78-200.46,48.48,3.04,8.42,10.18,17.47,17.38,22.71,3.84,2.8,9.84,3.85,11.49,8.72,5.91,17.42-18.03,1.43-18.03,1.43ZM843.98,610.44c2.18-2.16,6.96,1.72,9.52,1.94,2.23-.49,1.92-10.6,1.85-12.59-2.69-79.42-57.25-147.9-141.99-139.07-74.71,7.78-127.03,78.9-133.33,150.26,1.25,1.12,10.25-5.07,12.23-5.44,1.36-.26,2.57,1.36,2.92,1.11.1-.07.09-1.32,1.18-2.07,4.94-3.44,25.77-8.24,32.8-9.85,53.98-12.38,122.48-13.8,176.48-.85,1.33.32,8.48,1.39,7.08,3.38l-5.31,2.13c-58.22-11.05-119.47-12.11-177.52.41-22.81,4.92-50.58,11.72-61.8,34.33l-2.5-1.45-.73,9.39c35.29-12.53,72.9-16.54,110.19-18.07,32.68-1.34,65.64-1.02,98.28,1.46,31.38,2.38,62.63,6.86,93.58,12.27,3.26-4.56-18.56-22.57-23.19-24.17l.27-3.1ZM670.36,642.04c-30.06-.02-59.85,4.18-88.89,11.57,4.96,35.34,26.67,71.92,59.72,87.31,30.57,14.23,71.08,15.14,103.61,7.7,47.45-10.86,88.17-50.24,103.3-96.04-.38-.89-1-.91-1.81-1.1-11.77-2.76-27.58-4.35-39.8-5.73-15.1-1.7-30.29-2.45-45.42-3.75-2.11.24-3.46,6.93-4.59,9.2-13.67,27.52-48.92,32.32-72.01,13.22-6.07-5.02-14.21-14.21-14.11-22.38Z"/>
        <path d="M715.52,789.43l-.77-1.48c.77-1,.7-2.54,2.02-3.1,2.37-1.02,11.07-.78,14.56-1.29,21.16-3.08,45.2-13.46,61.5-27.38,7.67-6.55,15.09-16.89,22.77-22.75,2.95-2.25,6.43-2.48,5.68,2-1.35,8.05-21.3,24.74-28.15,29.72-11.04,8.04-38.99,24.28-52.31,24.28h-25.29Z"/>
        <path class="cls-2" d="M843.98,610.44l-.27,3.1c4.63,1.6,26.45,19.61,23.19,24.17-30.95-5.41-62.2-9.89-93.58-12.27-32.64-2.48-65.6-2.8-98.28-1.46-37.3,1.53-74.91,5.53-110.19,18.07l.73-9.39,2.5,1.45c11.22-22.61,38.99-29.41,61.8-34.33,58.05-12.51,119.3-11.46,177.52-.41l5.31-2.13c1.4-1.99-5.75-3.06-7.08-3.38-54-12.95-122.5-11.53-176.48.85-7.03,1.61-27.87,6.41-32.8,9.85-1.09.76-1.08,2-1.18,2.07-.35.25-1.56-1.37-2.92-1.11-1.98.37-10.97,6.56-12.23,5.44,6.3-71.36,58.62-142.48,133.33-150.26,84.74-8.83,139.3,59.66,141.99,139.07.07,1.99.38,12.1-1.85,12.59-2.56-.22-7.34-4.1-9.52-1.94Z"/>
        <path class="cls-1" d="M670.36,642.04c-.1,8.17,8.04,17.36,14.11,22.38,23.09,19.1,58.34,14.3,72.01-13.22,1.13-2.27,2.48-8.96,4.59-9.2,15.13,1.3,30.33,2.04,45.42,3.75,12.22,1.38,28.03,2.97,39.8,5.73.8.19,1.43.21,1.81,1.1-15.13,45.81-55.85,85.19-103.3,96.04-32.52,7.44-73.04,6.54-103.61-7.7-33.05-15.39-54.76-51.98-59.72-87.31,29.04-7.38,58.83-11.59,88.89-11.57Z"/>
      </g>
      <rect class="cls-3" width="2048.06" height="2048.2"/>
    </g>
  </g>
</svg>