<?xml version="1.0" encoding="UTF-8"?>
<svg id="Layer_2" data-name="Layer 2" xmlns="http://www.w3.org/2000/svg" viewBox="0 0 2048.06 2048.2">
  <defs>
    <style>
      .cls-1 {
        fill: #fff;
      }

      .cls-2 {
        opacity: .18;
      }

      .cls-3 {
        opacity: .3;
      }

      .cls-4 {
        opacity: 0;
      }
    </style>
  </defs>
  <g id="yeee">
    <g>
      <g>
        <path d="M830.25,746.46c10.91-19.25,29.66-30.13,44.59-45.05.13,2.9-1.47,5.4-2.62,7.85-3.6,7.65-23.46,36.82-30.41,38.19-3.91.77-7.66-1.54-11.56-.99Z"/>
        <path d="M734.53,806.91c.26,3.79-8.78,3.94-11.57,4.13-4.88.33-24.52.95-27.2-2.35-2.05-2.53-1.72-6.3,1.56-7.47,10.72-3.82,25.72,8.39,37.21,5.69Z"/>
        <path class="cls-1" d="M870.2,606.16c-2.87,19.89-4.84,40.33-17.69,55.78-13.02,15.67-70.12,50.94-89.19,59.42-66.04,29.36-163.23,18.4-186.07-68.34-1.52-5.79-4.14-16.19-4.31-21.92-.15-5.01,6.76-8.51,10.44-10.79,21.39-13.3,47.21-19.04,71.22-23.92,5.26-1.07,34.55-7.21,37.06-5.47,5.11,56.06,76.77,50.2,75.4-5.26l103.14,20.49Z"/>
        <path d="M894.46,577.09c-.97-13.36-6.5-13.56-11.15-19.24-3.35-4.09-18.5-79.63-101.82-97.02-82.32-17.18-92.9-7.44-121.37-2.58-27.15,4.63-75.63,40.27-88.56,83.57-12.5,41.87-.49,25.12-12.12,33.68-11.64,8.55-21.82,11.76-21.33,24.06.49,12.29.49,35.82,17.45,32.07,0,0,6.79-3.74,8.97,2.67,2.18,6.41,8.82,36.82,9.45,40.09,10.61,54.91,50.88,79.55,50.88,79.55,40.43,24.73,70.11,38.13,115.64,25.23,0,0,74.23-33.41,98.68-65.76,26.67-35.28,36.2-91.64,37.82-98.89,2.27-10.2,9.21-9.09,12.12-9.62,2.91-.53,6.3-14.43,5.33-27.8ZM788.13,741.53c-49.13,30.36-117.42,45.37-162.3-1.72l31.55,9.26c44.14,9.45,90.39,5.05,131.68-14.71l32.82-20.65c-9.26,11.04-21.83,20.45-33.76,27.82ZM852.52,661.94c-13.02,15.67-70.12,50.94-89.19,59.42-66.04,29.36-163.23,18.4-186.07-68.34-1.52-5.79-4.14-16.19-4.31-21.92-.15-5.01,6.76-8.51,10.44-10.79,21.39-13.3,47.21-19.04,71.22-23.92,5.26-1.07,34.55-7.21,37.06-5.47,5.11,56.06,76.77,50.2,75.4-5.26l103.14,20.48c-2.87,19.89-4.84,40.33-17.69,55.78ZM879.91,597.94c-3.39,1.6-23.76-5.35-89.69-20.85-65.94-15.5-179.87,15.5-179.87,15.5-52.36,27.8-58.18,34.21-60.12,27.8-1.94-6.41-7.76-21.38,2.91-28.87,10.67-7.48,24.24-13.9,38.79-20.31,14.55-6.42-2.91-18.18-15.51-12.83-12.61,5.35,38.57-149.42,223.16-80.75,60.26,22.41,76.46,78.62,69.68,78.08-6.79-.53-18.42,10.69-12.61,11.76,5.82,1.07,24.73,2.67,26.18,8.02,1.45,5.35.49,20.85-2.91,22.45Z"/>
        <path class="cls-2" d="M821.88,713.71c-9.26,11.04-21.83,20.45-33.76,27.82-49.13,30.36-117.42,45.37-162.3-1.72l31.55,9.26c44.14,9.45,90.39,5.05,131.68-14.71l32.82-20.65Z"/>
        <g class="cls-3">
          <path d="M879.88,597.93c3.39-1.6,4.36-17.11,2.91-22.45-1.45-5.35-20.36-6.95-26.18-8.02-5.82-1.07,5.82-12.29,12.61-11.76,6.79.53-9.42-55.67-69.68-78.08-184.59-68.66-235.77,86.1-223.16,80.75,12.61-5.35,30.06,6.41,15.51,12.83-14.54,6.41-28.12,12.83-38.79,20.31-10.67,7.48-4.85,22.45-2.91,28.87s7.76,0,60.12-27.8c0,0,113.94-31,179.87-15.5,65.94,15.5,86.3,22.45,89.69,20.85Z"/>
        </g>
      </g>
      <rect class="cls-4" width="2048.06" height="2048.2"/>
    </g>
  </g>
</svg>