<?xml version="1.0" encoding="UTF-8"?>
<svg id="Layer_2" data-name="Layer 2" xmlns="http://www.w3.org/2000/svg" viewBox="0 0 2048.06 2048.2">
  <defs>
    <style>
      .cls-1 {
        fill: #fff;
      }

      .cls-2 {
        opacity: .3;
      }

      .cls-3 {
        opacity: 0;
      }
    </style>
  </defs>
  <g id="yooo">
    <g>
      <g>
        <path d="M789.03,479.19c-57.34-27.42-115.21-13.59-161.76,26.16-24.53,20.95-33.21,51.75-18.26,51.75s21.65,9.8,13.41,10.83c-8.25,1.03-44.86-1.55-50.01-2.06-5.16-.52-8.25,5.16-6.19,14.44,2.06,9.28,17.12,10.14,17.12,10.14,74.75,1.56,148.91,6.45,221.76,24.06,18.06,4.36,35.68,10.11,53.6,14.88,0,0,8.62,1.45,12.23-1.64s5.16-18.05,2.06-21.14-23.72-9.8-27.84-12.37,18.05-3.61,21.14-4.12c3.09-.52-25.61-86.21-77.25-110.91ZM880.72,602.47c4.64,3.61,9.8,4.64,5.67,20.62-4.12,15.98-7.22,17.01-12.89,18.56s-9.28,18.05-20.62,45.37c-11.34,27.33-59.02,62.76-59.02,62.76-52.02,29.45-110.78,30.56-162.93.69-14.17-5.63-35.35-27.38-35.35-27.38-24.78-40.23-22.66-96.4-21.63-104.13s1.55-17.53-5.67-18.05c-7.22-.52-13.92-13.41-14.95-24.75-1.03-11.34,5.67-20.62,18.05-22.17s13.92-8.25,25.26-31.45c11.34-23.2,50.61-53.46,50.61-53.46,95.46-55.93,200.77-2.82,225.81,100.58l7.66,32.79ZM702.87,613.66l-121.57-5.99c-5.08,18.3-.84,40.98,4.22,59.19,13.22,47.63,48.9,74.88,95.85,85.8,71.15,16.55,156.56-32.38,174.21-104.14.42-1.91-.84-2.29-2.17-3.02-6.35-3.51-24-7.79-31.87-9.94-17.67-4.83-35.79-7.95-53.64-11.94.51,52.07-64,30.5-65.03-9.95Z"/>
        <path class="cls-1" d="M702.87,613.66c1.03,40.46,65.53,62.03,65.03,9.95,17.85,3.99,35.97,7.11,53.64,11.94,7.87,2.15,25.52,6.44,31.87,9.94,1.32.73,2.58,1.11,2.17,3.02-17.65,71.76-103.07,120.69-174.21,104.14-46.95-10.92-82.63-38.17-95.85-85.8-5.05-18.21-9.29-40.89-4.22-59.19l121.57,5.99Z"/>
        <path d="M834.19,737.51c1.64,1.54-7.26,9.53-8.62,10.83-43.2,40.99-108.12,76.02-165.38,38.47-2.1-1.38-12.29-10.94-5.51-8.91,5.59,1.67,11.59,4.91,18.04,6.48,35.32,8.58,58.29,6.31,91.35-8.14,24.5-10.71,46.16-27.06,70.12-38.71Z"/>
        <g class="cls-2">
          <path d="M872.99,606.6c-3.09-3.09-23.72-9.8-27.84-12.37s18.05-3.61,21.14-4.12c3.09-.52-25.61-86.21-77.25-110.91-57.34-27.42-115.21-13.59-161.76,26.16-24.53,20.95-33.21,51.75-18.26,51.75s21.65,9.8,13.41,10.83-44.86-1.55-50.01-2.06c-5.16-.52-8.25,5.16-6.19,14.44,2.06,9.28,17.12,10.14,17.12,10.14,74.75,1.56,148.91,6.45,221.76,24.06,18.06,4.36,35.68,10.11,53.6,14.88,0,0,8.62,1.45,12.23-1.64,3.61-3.09,5.16-18.05,2.06-21.14Z"/>
        </g>
      </g>
      <rect class="cls-3" width="2048.06" height="2048.2"/>
    </g>
  </g>
</svg>