<?xml version="1.0" encoding="UTF-8"?>
<svg id="Layer_2" data-name="Layer 2" xmlns="http://www.w3.org/2000/svg" viewBox="0 0 2048.06 2048.2">
  <defs>
    <style>
      .cls-1 {
        opacity: 0;
      }
    </style>
  </defs>
  <g id="zzz">
    <g>
      <g>
        <path d="M1172.67,218.87c13.68,6.75,6.98,20.95-6.41,23.32-18.92,3.34-50.76,3.96-70.79,4.53-13.87.39-36.83,1.66-49.74,0-10.72-1.38-10.89-10.8-6.95-19.04l80.39-84.11,2.95-5.95-88.06,3.83c-15.94-2.52-14.92-23.46,4.05-27.42,22.39-4.67,91.66-6.72,114.52-3.94,12.41,1.51,20,6.37,13.91,19.39l-76.09,88.43c-.31,6.52,4.03.96,4.94.96h77.3Z"/>
        <path d="M959.6,333.83h42.61c10.59,0,17.31,18.04-.48,21.32-13.91,2.57-54.97,4.14-68.93,2.51-8.78-1.03-14.33-4.86-12.45-14.42,2.69-13.66,41.74-43.37,52.15-56.96,1.52-1.99,3.85-2.51,2.95-5.95-12.3-.43-50.14,9.53-57.26-1.24-3.1-4.7-1.31-12.7,2.27-16.1,4.4-4.18,64.24-5.39,73.89-4.55s18.84,1.42,18.52,13.01c-.35,12.73-45.59,48.47-53.28,62.38Z"/>
        <g>
          <path d="M731.46,766.12c57.99-18.02,92.98-58.33,132.76-101.12,1.52-3.23,4.77-.28,4.96,1.03.56,4-11.28,26.4-14.26,31.29-39.96,65.45-134.65,108.75-210.35,96.18-13.08-2.17-24.25-6.51-36.9-9.51"/>
          <path d="M870.58,596.17c-1.68.5-21.45,19.3-26.54,23.05-74.61,54.85-199.61,66.15-275.59,8.59-12.23,1.3-7.72,11.22-2.51,18.53,62.57,87.82,235.6,64.11,299.22-11.95,5.34-6.38,31.23-45.94,5.43-38.22Z"/>
          <path d="M870.58,596.17c25.81-7.71-.09,31.84-5.43,38.22-63.62,76.06-236.64,99.77-299.22,11.95-5.21-7.32-9.72-17.23,2.51-18.53,75.98,57.56,200.98,46.26,275.59-8.59,5.1-3.75,24.86-22.55,26.54-23.05Z"/>
        </g>
      </g>
      <rect class="cls-1" width="2048.06" height="2048.2"/>
    </g>
  </g>
</svg>