<?xml version="1.0" encoding="UTF-8"?>
<svg id="Layer_2" data-name="Layer 2" xmlns="http://www.w3.org/2000/svg" viewBox="0 0 2048.06 2048.2">
  <defs>
    <style>
      .cls-1 {
        opacity: .3;
      }

      .cls-2 {
        opacity: 0;
      }
    </style>
  </defs>
  <g id="Blotch">
    <g>
      <g>
        <path class="cls-1" d="M1550.31,1511.14c.25,8.06-13.01,17.46-20.2,22.07-14.18,9.12-30.01,6.68-44.12-1.28-15.14-8.33-23.12-19.27-30.72-33.32-8.47-14.54-16.65-27.68-7.55-44.45,7.77-14.56,19.87-18.4,35.75-12.73,19.08,6.8,35.07,23.35,45.97,39.94,4.61,7.79,13.37,17.43,17.49,22.48,1.62,2.16,3.19,4.52,3.39,7.21v.08Z"/>
        <path class="cls-1" d="M1478.54,1377.49c-31.26,23.22-57.05-36.02-59-60.12-5.87-72.77,69.31-19.07,70.39,27.85.21,9.3-3.85,26.67-11.4,32.27Z"/>
        <path class="cls-1" d="M1403.86,1543.08c-5.1,11.95-19.96,17.49-32.2,13.28-13.88-4.52-23.4-17.26-27.84-30.75-.76-2.19-1.49-4.48-2.18-6.63-2.5-8.49-6.05-13.85-4.92-21.81,2.37-11.38,15.11-23.33,26.67-24.42,21.78-.83,33.77,23.05,39.87,41.27,3.27,9.26,4.64,20.87.68,28.9l-.08.17Z"/>
        <path class="cls-1" d="M1604.77,1453.95c6.78,10.68,9.82,27.01,4.39,38.5-9.23,19.38-29.93,11.42-41.92-3.68-6.5-7.72-10.94-16.85-13.69-26.52-4.44-14.05-1.5-38.43,17.82-37.05,16.58,1.61,25.44,15.56,33.3,28.56l.11.18Z"/>
        <path class="cls-1" d="M1470,990.41c-12.52,4.3-22.99-7.49-29.29-16.82-4.96-6.63-8.31-13.89-7.1-22.41,1-6.79,1.64-14.99,5.56-20.88,7.32-10.65,19.36-4.39,29.09,7.03,7.6,9.07,14.51,22.45,13.51,34.07-.82,8.15-4.29,16.01-11.6,18.96l-.16.06Z"/>
        <path class="cls-1" d="M1360.77,1402.83c-8.56-6.76-13.9-19.28-11.52-30.41,4.09-20.59,22.8-27.72,37.32-11.38,11.26,11.81,12.16,41.78-6.41,45.75-6.51,1.24-14.03.19-19.24-3.84l-.15-.12Z"/>
        <path class="cls-1" d="M1582.71,1571.04c3.94-4.65,10.85-3.61,16.45-2.3,8.12,2.03,13.7,7.43,16.56,15.52,2.4,6.78,2.92,14.85.48,21.66-5.98,16.73-29.29,15.85-36.98-1.18-3.24-6.79-3.13-14.8-1.21-21.98,1.18-5.09,2.49-9.19,4.61-11.62l.09-.1Z"/>
        <path class="cls-1" d="M1504.28,1630.47c-6.72,5.84-17.71,5.01-25.29,1.06-6.01-3.29-9.8-9.65-12.96-15.64-5.32-9.81-.99-19.25,6.63-26.03,5.47-4.91,13.18-4.14,19.28-.65,9.03,5.04,15.71,14.22,17.19,24.3.93,6.39-.27,12.77-4.72,16.83l-.14.12Z"/>
        <path class="cls-1" d="M1387.34,1642.79c1.51,4.3,1.3,9.58.75,14.57-.42,3.59-1.09,7.95-2.49,10.08-2.7,4.74-12.39,3.91-17.44,3.49-7.23-.56-10.72-4.96-12.74-11.59-2.52-8.27-6.63-20.51-1.79-28.08,5.89-8.29,17.53-4.65,24.68.15,4.48,3.06,7.27,6.72,8.96,11.22l.06.17Z"/>
        <path class="cls-1" d="M1289.63,1582.5c-2.78,5.79-9.86,9.62-16.29,9.54-8.12-.31-12.75-8.1-15.85-16.07-3.27-8.83-3.29-18.28,3.25-24.43,6.6-6.31,17.09-4.38,22.28,2.9,4.97,6.87,10.36,19.83,6.69,27.9l-.08.16Z"/>
        <path class="cls-1" d="M1573.99,1344.33c3.46,2.8,5.6,6.73,7.25,11.31,2.31,7.05,4.9,20.2-4.17,22.91-12.18,2.29-20.93-8.42-22.51-20.58-.94-5.78.3-12.97,5.98-15.74,4.17-2.22,9.67-.95,13.29,1.98l.15.12Z"/>
        <path class="cls-1" d="M1645.3,1607.48c-4.22-4.81-5.29-12.27-3.2-18.43,1.41-4.29,4.53-7.64,8.43-9.67,10.7-5.87,21.62,8.39,19.38,21.39-1.52,13.28-16.16,16.15-24.48,6.86l-.13-.15Z"/>
        <path class="cls-1" d="M1399.22,870.17c6.08,6.67,3.3,13.37-.7,20.15-3.89,6.49-9.37,10.97-16.56,6.11-10.92-6.42-13.7-27.24-7.52-35.63,7.15-8.65,19.57,3.58,24.66,9.22l.12.15Z"/>
        <path class="cls-1" d="M1653.76,1443.95c-8.12,4.67-19.15-15.23-19.08-24.22.22-28.97,29.58.68,25.39,14.45-.17.56-5.8,9.48-6.31,9.77Z"/>
        <path class="cls-1" d="M1477.35,1663.02c16.7-.44,26.51,25.62,5.67,31.05-15.13-2.55-26.46-30.51-5.67-31.05Z"/>
        <path class="cls-1" d="M1671.22,1500.47c1.37,2.73,3.68,6.3,2.43,8.23-3.24,3.88-10.82,4.12-15.09,1.55-2.78-1.71-3.63-4.93-5.29-8.9-.88-2.2-2.05-4.47-2.66-6.82-1.23-5.06.25-10.16,5.02-10.42,8.39.31,11.94,10.39,15.51,16.23l.08.14Z"/>
        <path class="cls-1" d="M1640.45,1518.03c3.69,3.39,7.85,7.83,9.9,12.6,2.7,5.96-.74,14.61-7.87,14.6-16.74-.8-16.28-38.63-2.18-27.33l.15.13Z"/>
        <path class="cls-1" d="M1631.97,1674.2c3.64,1.89,3.1,6.86,3.17,10.41-.06,3.97-.3,8.89-2.52,12.7-2.06,3.77-6.62,7.89-11.07,6-5.9-3.39-4.04-12.69-2.07-18.23,1.72-4.71,7.96-12.04,12.4-10.92l.09.03Z"/>
        <path class="cls-1" d="M464.02,1448.26c-4.31,6.87-22.7-4.01-10.43-11.5,8.66-5.28,13.95,5.88,10.43,11.5Z"/>
        <path class="cls-1" d="M595.27,1216.23c6.36,6.61,1.82,16.6-1.47,24.48-3.39,7.78-6.99,15.45-12.41,22.5-4.87,6.33-10.42,12.35-16.91,16.91-12.45,8.55-24.98,6.61-29.26-4.54-3.76-10.71-1.61-22.63,3.19-32.98,6.35-13.6,18.67-25.24,33.43-28.67,7.84-2.24,18.41-2.93,23.36,2.23l.07.07Z"/>
        <path class="cls-1" d="M620.64,1323.55c12.24,8.79,6.17,26.35-.57,36.95-4.35,6.85-11.15,11.33-19.3,13.79-17.33,5.87-32.16-8-27.93-25.7,2.98-12.52,13.76-24.52,26.77-27.91,7.75-2.16,14.79-1.68,20.87,2.76l.15.11Z"/>
        <path class="cls-1" d="M449.52,1491.03c12.24,3.22,13.57,17.7,16.48,28.02,1.99,9.53,3.88,18.94-3.71,25.96-3.62,3.35-7.08,6.68-11.73,8.82-6.2,3.05-14.22,3.26-20.56.44-11.08-4.69-14.74-18.21-13.03-29.68,1.72-15.27,14.98-37.39,32.39-33.6l.16.04Z"/>
        <path class="cls-1" d="M585.21,1485.76c-2.2,7.14-6.67,14.18-9.77,20.62-4.41,10.58-7.36,16.52-19.86,20.66-4.85,1.6-10.04,2.85-15.17,2.88-8.6-.17-19.85-5.06-23.62-12.38-2.66-5.36-.56-11.02.69-17.23,3.56-22.13,14.65-49.58,32.27-62.64,11.48-8.09,25.88-3.48,32.75,8.17,6.78,11.47,6.86,27.46,2.77,39.76l-.06.17Z"/>
        <path class="cls-1" d="M649.7,1571.88c-2.41,4.05-4.36,7.62-7.57,8.96-8.54,3.42-17.01-5.13-19.94-12.68-3.11-8.36.18-17.74,3.95-25.4,6.36-12.59,20.23-16.96,27.42-3.42,2.39,4.89,2.45,10.56,1.86,16.4-.33,5.64-2.82,11.66-5.63,15.98l-.09.15Z"/>
        <path class="cls-1" d="M719.83,1429.09c3.38,2.06,4.95,7.76,5.94,11.85,2.17,7.97-.6,17.2-5.92,23.23-5.09,5.91-13.52,6.31-15.77-2.41-1.69-5.93-.77-13.08,1.16-19.24,2.35-6.9,6.48-17.46,14.48-13.5l.11.07Z"/>
        <path class="cls-1" d="M492.07,1577.69c5.98-.2,12.43,1.39,14.79,6.79,1.16,3.08-.13,6.61-.94,9.77-1.76,5.66-3.59,12.69-7.34,16.76-9.98,9.73-19.08-5.62-18.87-15.18.01-7.97,3.6-17.79,12.19-18.13h.17Z"/>
        <path class="cls-1" d="M498.79,1639.42c4.68,1.32,10.79,4.46,14.33,8.42,4.27,4.2,10.47,9.28,8.14,14.8-1.31,1.72-3.21,2.29-4.92,3.77-2.12,1.75-4.83,4.04-7.3,4.4-1.77.43-3.15.38-5.04-2.33-3.49-5.27-4.75-11.96-6.8-17.81-1.23-3.66-2.5-7.18-2.91-9.34-.68-2.87.19-3.33,4.34-1.96l.16.05Z"/>
        <path class="cls-1" d="M672.77,1203.23c5.08,3.15,9.15,10.25,3.31,14.32-4.07,2.72-8.9.89-10.51-3.38-3.16-6.85-3.55-17.95,7.01-11.06l.19.13Z"/>
        <path class="cls-1" d="M503.51,1413.44c-10.31,7.47-24.55,6.47-30.82-5.13-6.64-11.75-3.29-29.86,1.15-42.99,7.06-19.45,17.2-38.09,35.48-42.56,10.23-1.94,18.84,6.14,22.39,15.39,5.75,14.8,1.73,30.37-5.23,44.79-5.66,11.56-12.72,23.41-22.81,30.38l-.16.11Z"/>
        <path class="cls-1" d="M1205.27,1542.4c-2.71,6.07-10.74,3.21-14.7-.15-7.48-5.76-8.08-18.3,2.9-16.91,7.21,1.01,14.71,9.71,11.86,16.91l-.07.16Z"/>
        <path class="cls-1" d="M1245.66,1421.19c-7.21-7.05-9.35-20.09-9.1-30.61.13-6.71,2.01-13.42,7.56-16.83,19.19-9.54,42.36,27.7,33.88,44.56-5.69,11.47-24.13,11.54-32.23,3l-.11-.11Z"/>
      </g>
      <rect class="cls-2" width="2048.06" height="2048.2"/>
    </g>
  </g>
</svg>