<?xml version="1.0" encoding="UTF-8"?>
<svg id="Layer_2" data-name="Layer 2" xmlns="http://www.w3.org/2000/svg" viewBox="0 0 2048.06 2048.2">
  <defs>
    <style>
      .cls-1 {
        opacity: .3;
      }

      .cls-2 {
        opacity: 0;
      }
    </style>
  </defs>
  <g id="Clump">
    <g>
      <g>
        <path class="cls-1" d="M1410.49,1201.47c25.18-.99,50.39,44.6,52.62,66.33,7.35,71.47-73.97,26.87-79.22-19.38-2.25-19.82,1.79-45.98,26.6-46.95Z"/>
        <path class="cls-1" d="M1313.21,1408.91c12.92-13.62,32.22-18,46.4-2.67,29.41,31.8-21.34,106.69-57.87,83.08-23.88-15.43-4.2-63.9,11.47-80.42Z"/>
        <path class="cls-1" d="M1290.63,1551.69c44.11-6.43,21.29,60.97-16.81,68.36-41.53,8.06-22.24-62.66,16.81-68.36Z"/>
        <path class="cls-1" d="M695.26,1112.48c51.34-9.51,5.4,77.4-26.6,68.4-26.73-7.52,5.36-64.47,26.6-68.4Z"/>
        <path class="cls-1" d="M1407.81,1509.38c18.66-16.24,29.48-1.1,28.04,19.32-1.27,18.1-17.71,50.08-39.32,45.69-22.45-4.57-1.01-54.31,11.28-65.01Z"/>
        <path class="cls-1" d="M1460.62,1367.99c12.08,13.95.64,58.25-19.71,59.58-29.72,1.93-32.49-71.32,11.49-63.88,2.2.37,6.8,2.66,8.22,4.3Z"/>
        <path class="cls-1" d="M1495.28,1345.32c-24.43-22.15-7.51-68.71,20.63-42.9,24.67,22.63,7.61,68.5-20.63,42.9Z"/>
        <path class="cls-1" d="M1342.61,1298.47c20.96,18.1,13.42,67.26-14.67,50.48-25.15-15.02-12.11-73.61,14.67-50.48Z"/>
        <path class="cls-1" d="M546.44,1387.12c31.44-3.45,3.11,67.93-24.72,58.81-20.6-6.74,7.94-56.98,24.72-58.81Z"/>
        <path class="cls-1" d="M1497.41,1466.44c28.65-8.32,20.08,69.2-8.28,53.94-16.65-8.96-7.49-49.36,8.28-53.94Z"/>
        <path class="cls-1" d="M1581.56,1537.17c-10.46-9.21-3.39-50.97,15.48-45.57,23.67,6.77,5.85,64.36-15.48,45.57Z"/>
        <path class="cls-1" d="M848.01,1411.46c-12.13,12.77-48.67-6.14-39.15-26.63,8.41-18.1,56.24,8.63,39.15,26.63Z"/>
        <path class="cls-1" d="M571.59,1265.36c9.87,10.34-9.46,51.61-26.59,43.08-16.38-8.16,13.78-56.5,26.59-43.08Z"/>
        <path class="cls-1" d="M1555.34,1417.15c-11.34,14.84-31.17-10.94-22.11-30.86,9.96-21.9,34.88,14.13,22.11,30.86Z"/>
        <path class="cls-1" d="M634.53,1249.99c16.85-19.35,35.83,11.04,7.76,28.08-23.01,13.98-15.7-18.96-7.76-28.08Z"/>
        <path class="cls-1" d="M1675.25,1537.98c16.82-4.31,17.38,40.43-.44,40.53-15.62.09-13.37-37,.44-40.53Z"/>
        <path class="cls-1" d="M687.46,1371.62c16.89-5.28,13.29,28.2-2.56,36.17-24.68,12.41-6.15-33.45,2.56-36.17Z"/>
        <path class="cls-1" d="M1089.62,1301.16c-13.71,13.86-29-20.63-19.48-26.76,13.08-8.42,28.15,18,19.48,26.76Z"/>
        <path class="cls-1" d="M1124.25,1132.07c21.82,13.7-3.61,26.69-19.69,10.93-15.6-15.29,6.24-19.37,19.69-10.93Z"/>
        <path class="cls-1" d="M963.97,1463.68c-6.03,6.06-21.66.77-15.96-11.13,6.53-13.63,25.95,1.07,15.96,11.13Z"/>
        <g class="cls-1">
          <path d="M1373.86,883.25c5.18,2.26,9.32,8.39,11.87,13.51,6.72,13.86,6.14,36.94-10.28,43.52-5.71,2.04-11.89-.75-14.69-6.02-4.94-9.5-3.14-20.64-2.55-31.01.62-5.32,1.21-11.29,4.46-15.59,2.62-3.12,7.51-5.99,11.09-4.44l.11.04Z"/>
        </g>
        <g class="cls-1">
          <path d="M1314.35,936.07c6.03-.99,10.28,3.03,7.36,8.94-2.22,4.73-8.07,8.49-13.3,9.43-3.64.79-8.87-.22-9.02-4.7-.02-6.96,8.47-12.68,14.76-13.64l.2-.03Z"/>
        </g>
        <g class="cls-1">
          <path d="M1389.85,986.56c2.95,14.37,28.14,33.86,43.27,24.7,7.89-4.77,11.18-16.11,8.97-25.18-1.79-7.72-7.58-13.97-14.7-17.28-7.12-3.39-15.8-4.03-23.01-.82-7.18,3.28-15.37,10.81-14.54,18.44l.02.13Z"/>
        </g>
      </g>
      <rect class="cls-2" width="2048.06" height="2048.2"/>
    </g>
  </g>
</svg>