<?xml version="1.0" encoding="UTF-8"?>
<svg id="Layer_2" data-name="Layer 2" xmlns="http://www.w3.org/2000/svg" viewBox="0 0 2048.06 2048.2">
  <defs>
    <style>
      .cls-1 {
        opacity: .3;
      }

      .cls-2 {
        opacity: 0;
      }
    </style>
  </defs>
  <g id="Scatter">
    <g>
      <g>
        <path class="cls-1" d="M1274.73,1352.48c34.7-7.86,65.81,35.53,79.84,62.29,16.69,31.83,38.7,98.13-20.14,95.37-42-1.97-76.5-67.3-79.81-104.49-1.44-16.18-.37-48.53,20.11-53.17Z"/>
        <path class="cls-1" d="M543.69,1219.01c55.66-9.6,31.89,82.53,18.12,110.26-10.89,21.94-53.68,74.17-78.67,43.42-20.07-24.7-.73-80.29,13.05-105.28,8.67-15.71,29.01-45.22,47.5-48.4Z"/>
        <path class="cls-1" d="M1261.68,1203.88c35.62-4.81,61.27,56.74,60.76,85.19-.26,14.58-8.23,30.25-24.99,28.78-31.92-2.8-63.73-58.98-59.33-88.49,1.76-11.78,11.37-23.83,23.56-25.48Z"/>
        <path class="cls-1" d="M1389.44,1267.86c8.5-1.95,16.78.3,23.11,6.18,9.56,8.87,36.83,64.2,40.42,78.07,2.8,10.79,5.06,19.4-2.76,29.18-24.01,30.03-55.23-25.11-62.98-44.31-6.14-15.22-21.73-63.64,2.21-69.12Z"/>
        <path class="cls-1" d="M446.86,1429.62c23.84-4.9,32.46,24.79,30.38,43.57-2.44,22.05-30.82,69.84-56.17,50.93-25.89-19.31-2.8-88.64,25.79-94.51Z"/>
        <path class="cls-1" d="M1543.08,1473.63c.17.52,2.72.16,3.14,3.42,1.94,15.32-11.71,31.45-27.29,29.13-29.04-4.34-46.08-85.44-2.43-76.55,16.55,3.37,22.19,30.31,26.58,44Z"/>
        <path class="cls-1" d="M546.63,1465.34c34.36-3.37,21.97,64.74-6.61,70.61-44.91,9.23-27.02-67.31,6.61-70.61Z"/>
        <path class="cls-1" d="M650.02,1519.95c25.57-3.27,27.49,20.65,18.12,38.82-15.57,30.19-72.58,24.83-55.61-12.36,6.05-13.27,23.33-24.65,37.5-26.46Z"/>
        <path class="cls-1" d="M593.99,1085.47c42.52-8.82,26.47,60.89-.53,65.27-42.33,6.88-27.27-59.5.53-65.27Z"/>
        <path class="cls-1" d="M1180.71,1493.54c33.13-7.45,65.94,39.57,40.98,56.03-31.89,21.04-71.69-49.12-40.98-56.03Z"/>
        <path class="cls-1" d="M652.74,1222.76c9.79-2.05,17.53-.64,23.09,8.02,15.55,24.22-19,66.58-41.29,52.57-22.15-13.91-2.13-56.33,18.2-60.59Z"/>
        <path class="cls-1" d="M1432.71,1525.5c27.43-6.15,63.31,55.89,29.73,59.82-39,4.56-55.55-54.03-29.73-59.82Z"/>
        <path class="cls-1" d="M750.92,1523.69c40.1-1.98,30.33,41.41-2.98,46.05-46,6.4-36.62-44.09,2.98-46.05Z"/>
        <path class="cls-1" d="M1579.5,1356.18c19-2.4,37.69,35.18,36.14,51.22-.86,8.97-8.8,13.71-17.41,11.98-25.51-5.13-46.09-59.75-18.74-63.21Z"/>
        <path class="cls-1" d="M1630.18,1536.76c29.06-6.41,34.86,57.81,5.19,59.93-28.88,2.07-27.03-55.11-5.19-59.93Z"/>
        <path class="cls-1" d="M849.77,1431.53c32.94-5.53,50.18,30.93,19.29,41.84-42.88,15.14-54.07-36-19.29-41.84Z"/>
        <path class="cls-1" d="M1207.09,1096.71c26.81-5.17,49.36,48.59,12.21,53.77-28.88,4.03-37.95-48.81-12.21-53.77Z"/>
        <path class="cls-1" d="M984.78,1076.56c24.95,1.28,28.55,61.07-7.46,55.39-22.4-3.53-22.68-56.93,7.46-55.39Z"/>
        <path class="cls-1" d="M926.86,1516.13c11.25-2.29,23.05-.42,32.36,6.27,36.91,26.53-15.13,44.8-40.02,23.09-12.13-10.58-7.47-26.29,7.66-29.37Z"/>
        <path class="cls-1" d="M1317.99,1608.26c19.24-4.36,47.54,19.61,41.07,39.2-6.34,19.21-44.86-3.59-49.05-18.86-2.19-8-1.46-18.2,7.97-20.34Z"/>
        <path class="cls-1" d="M1169.35,1262.3c19.06-.57,31.39,50.02,10.91,54-36.99,7.18-32.47-53.36-10.91-54Z"/>
        <path class="cls-1" d="M1073.62,1540.52c33.79-4.59,49.5,43.56,14.74,42.74-25.65-.61-44.23-38.74-14.74-42.74Z"/>
        <path class="cls-1" d="M548.47,1162.21c23.27-6.25,30.89,32.55,11.61,43.56-26.4,15.07-38.84-36.25-11.61-43.56Z"/>
        <path class="cls-1" d="M1364.89,865.2c7.38-2.44,23.98,10.29,28.86,15.78,7.09,7.98,20.38,33.08,2.88,34.91-19.72,2.06-28.62-17.29-32.4-33.59-1.07-4.61-4.89-15.25.66-17.09Z"/>
        <path class="cls-1" d="M1543.67,1598.85c30.66-6.92,39.14,55.32,2.31,43.89-16.04-4.98-17.88-40.37-2.31-43.89Z"/>
        <path class="cls-1" d="M611.42,1346.8c25.87-4.99,17.15,43.31-4.37,46.58-29.19,4.43-17.7-42.32,4.37-46.58Z"/>
        <path class="cls-1" d="M524.03,1621.36c26.15-2.88,16.99,48.91-11.39,42.52-22.93-5.16-9.15-40.26,11.39-42.52Z"/>
        <path class="cls-1" d="M426.1,1587.76c8.71,7.76,9.84,36.66-2.63,40.39-35.36,10.57-22.6-62.87,2.63-40.39Z"/>
        <path class="cls-1" d="M1480.74,1638.97c25.16-8.8,36.56,43.67,11.15,41.06-9.26-.95-23.77-23.87-20.94-30.03.31-.67,9.1-10.79,9.79-11.03Z"/>
        <path class="cls-1" d="M1479.57,1299.57c13.77-4.41,41.59,33.04,27.02,40.32-19.2,9.6-40.09-36.13-27.02-40.32Z"/>
        <path class="cls-1" d="M804.6,1044.07c19.4-4.4,33.42,16.99,22.28,27.91-20.24,19.84-43.44-23.11-22.28-27.91Z"/>
        <path class="cls-1" d="M1321.77,1164.43c17.6-3.91,36.67,18.86,26.88,28.79-14.53,14.73-49.14-23.85-26.88-28.79Z"/>
        <path class="cls-1" d="M1436.51,953.77c19.91-4.24,30.79,25.61,16.96,32.09-16.64,7.79-35.39-28.17-16.96-32.09Z"/>
        <path class="cls-1" d="M1422.79,1661.54c-10.4,10.41-36.16-7.22-28.81-22.24,14.78-13.12,42.05,8.98,28.81,22.24Z"/>
        <path class="cls-1" d="M733.28,1442.73c16.6-1.37,17.91,17.63,5.89,24.86-20.95,12.6-35.03-22.45-5.89-24.86Z"/>
        <path class="cls-1" d="M1096.13,1218.89c15.01-3.12,25.51,16.58,13.69,26.96-22.17,11.05-31.45-23.27-13.69-26.96Z"/>
      </g>
      <rect class="cls-2" width="2048.06" height="2048.2"/>
    </g>
  </g>
</svg>