<?xml version="1.0" encoding="UTF-8"?>
<svg id="Layer_2" data-name="Layer 2" xmlns="http://www.w3.org/2000/svg" viewBox="0 0 2048.06 2048.2">
  <defs>
    <style>
      .cls-1 {
        opacity: .3;
      }

      .cls-2 {
        opacity: 0;
      }
    </style>
  </defs>
  <g id="Speckle">
    <g>
      <g>
        <path class="cls-1" d="M1422.99,1332.18c19.16-.96,32.55,31.29,37.81,47.88,10.19,32.12,11.03,96.04-8.55,124.37-17.7,25.61-46.74,18.01-62.6-5.29-22.1-32.45-21.05-105.65-4.67-140.36,8.46-17.93,17.57-25.57,38.02-26.6Z"/>
        <path class="cls-1" d="M633.42,1346.69c4.63-7.16,12.87-16.98,20.18-23.21,52.89-45.03,69.46-8.51,62.94,47.68-3.78,32.63-32.69,98.09-72.42,92.23-59.82-8.82-32.32-83.23-10.7-116.7Z"/>
        <path class="cls-1" d="M747.34,1436.03c6.17-4.81,26.79-6.12,34.37-4.65,20.82,4.03,24.39,59.67,23.14,76.3-2.67,35.45-33.37,101.83-77.2,78.29-24.78-13.31-23.63-44.33-17.06-68.29,4.85-17.68,16.63-30.64,23.13-45.66,3.75-8.66,6.63-30.53,13.62-35.98Z"/>
        <path class="cls-1" d="M1364.68,1159.19c35.4-10.82,67.38,41.69,70.69,71.79,4.66,42.34-24.94,53.98-53.13,25.5-20.13-20.34-35.78-60.17-24.54-88.12,1.37-3.42,3.16-8.01,6.97-9.17Z"/>
        <path class="cls-1" d="M550.33,1531.23c44.8-9.45,49.47,41.91,30.96,72.13-12.12,19.78-34.58,36.52-57.79,25.38-37.97-18.21-1.26-91.59,26.83-97.51Z"/>
        <path class="cls-1" d="M836.24,1303.6c9.74-2.27,14.19,2.51,19.01,10.35,13.66,22.23,14.05,61.36-.76,83.49-13.2,19.73-38.04,23.35-51.39,2.04-2.22-3.54-10.24-24.6-10.24-27.83-.02-15.31,11.58-45.8,23.23-55.94,2.54-2.21,17.47-11.48,20.15-12.11Z"/>
        <path class="cls-1" d="M1521.02,1486.65c29.15-2.51,22.15,62.89,14.84,80.35-2.22,5.3-7.97,15.73-13.45,16.83-30.36,6.1-38.68-27.33-36.74-51.56,1.96-24.41,8.38-43.29,35.36-45.61Z"/>
        <path class="cls-1" d="M884.28,1458.2c15.81-3.71,25.8,14.65,29.67,27.98,6.69,23.05-.27,68.08-32.12,65.33-14.49-1.25-23.34-35.56-23.16-47.96.22-14.45,10.24-41.74,25.61-45.35Z"/>
        <path class="cls-1" d="M1516.89,1366.72c5.74-1.21,12.13-1.65,16.75,2.39,8.5,7.42,10.08,53.77,7.34,64.78-3.15,12.67-16.57,22.3-29.5,16.72-22.35-9.64-26.32-77.16,5.42-83.88Z"/>
        <path class="cls-1" d="M848.23,1167.34c14.96-4.47,22.96,1.99,27.61,15.86,4.36,13.02,3.54,25.88.41,39.04-14,58.83-62.89,11.65-42.42-36.99,2.17-5.16,9.12-16.33,14.4-17.91Z"/>
        <path class="cls-1" d="M844.64,1546.26c21.11-4.96,23.68,19.18,22.56,35.14s-12.17,40.42-30.84,39.54c-35.23-1.66-17.53-68.61,8.28-74.68Z"/>
        <path class="cls-1" d="M945.52,1440.86c-14.46-12.06-23.64-54.62-5.41-66.28,8.01-5.12,18.3-7.86,23.68,1.97,3.88,7.08,16.19,36.68,16.93,43.81,2.52,24.53-16.82,35.82-35.19,20.5Z"/>
        <path class="cls-1" d="M1332.56,1263.23c9.36,8.11,21.12,34.55,20.9,47.11-.43,25.6-27.67,32.24-42.2,12.16-16.7-23.07-6.79-83.59,21.3-59.26Z"/>
        <path class="cls-1" d="M1392.71,1586.47c16.25-.13,18.3,26.72,16.16,38.62-3.88,21.58-37.7,51.01-48.55,19.77-8.06-23.18,5.78-58.19,32.39-58.4Z"/>
        <path class="cls-1" d="M1320.76,1494.85c36.92-6.46,47.85,44.01,21.95,56.91-37.84,18.84-51.05-51.81-21.95-56.91Z"/>
        <path class="cls-1" d="M1310.61,1436.78c-32.55,27.85-57.86-55.56-14.42-52.27,27.59,2.09,33.96,35.56,14.42,52.27Z"/>
        <path class="cls-1" d="M737.35,1236.63c.22-.51,2.6-.74,3.19-2.16,5-12.09,14.23-28.57,28.9-16.37,21.73,18.06,2.11,65.91-23.3,58.24-11.24-3.39-12.23-31.56-8.79-39.7Z"/>
        <path class="cls-1" d="M569.15,1265.13c.53-.48,11.82-6.6,12.51-6.72,18.58-3.32,23.56,25.31,17.78,38.53-5.54,12.68-19.58,22.13-33.46,18.02-14.83-4.39-5.41-41.98,3.17-49.83Z"/>
        <path class="cls-1" d="M1495.8,1337.34c-16.2,9.52-37.61-18.29-37.09-34.6.67-21.27,9.17-30.73,28.21-17.52,11.76,8.16,17.32,25.64,15.42,39.48-.39,2.86-4.99,11.72-6.54,12.63Z"/>
        <path class="cls-1" d="M1618.7,1480.91c-.31-.71-2.89-.2-3.32-3.71-1.5-12.29-1.61-29.84,12.47-34.34,35.62-11.4,36.75,66.91,5.11,57.23-6.81-2.08-11.67-13.27-14.27-19.18Z"/>
        <path class="cls-1" d="M1615.45,1661.14c-.52-.31-6.94-9.23-7.26-9.88-12.62-25.5,21.57-56.55,35.83-36.39,13.8,19.51-11.21,56.57-28.57,46.28Z"/>
        <path class="cls-1" d="M945.88,1569.44c26.48-5.69,31.59,72.93-4.21,54.29-18.48-9.62-13.53-50.48,4.21-54.29Z"/>
        <path class="cls-1" d="M1484.89,1631.17c6.9,7.38,2.36,31.62-7.95,36.63-16.37,7.94-23.02-15.99-18.03-28.49,3.51-8.79,18.28-16.37,25.99-8.14Z"/>
        <path class="cls-1" d="M563.86,1408.24c-16.37,17.55-32.33,3.14-22.33-19.64,12.66-28.84,45.36-5.04,22.33,19.64Z"/>
        <path class="cls-1" d="M1240.76,1232.46c.59.35,7.17,10.5,7.54,11.62,5.79,17.72-13.82,32.91-24.07,20.4-5.92-7.23-11.66-28.49.32-32.08,2.79-.84,14.12-1.17,16.21.06Z"/>
        <path class="cls-1" d="M926.59,1321.17c-2.69,1.69-9.66-.13-12.5-1.92-11.87-7.5-21.33-47.39,2.9-39.54,12.27,3.97,18.06,36.14,9.59,41.46Z"/>
        <path class="cls-1" d="M1569.36,1355.33c5.15-4.5,16.63,3.34,19.29,9.48,10.98,25.39-11.37,40.21-19.63,19.94-2.43-5.95-4.21-25.45.34-29.42Z"/>
        <path class="cls-1" d="M1180.71,1435.85c.47.27,5.98,8.63,6.13,9.16,1.65,5.87-3.38,11.59-8.78,12.7-10.74,2.2-5.64-4.41-6.95-6.05-3.53-4.41-4.1,7.91-7.98,4.07-.51-.5-2.56-13.75-2.04-14.23,10.57,3.23,7.11-5.84,9.11-6.25,2.03-.41,8.88-.34,10.5.59Z"/>
        <g class="cls-1">
          <path d="M1355.08,880.83c-4.25-.3-9.96,6.23-12.82,10.28-4.4,5.71-7.91,16.45-.18,20.7,3.68,1.93,9.27-.66,12.01-4.82,2.7-3.74,3.98-8.43,4.58-12.99.47-4.59,1.11-12.15-3.49-13.17h-.11Z"/>
        </g>
        <g class="cls-1">
          <path d="M1386.68,957.97c2.96,8.03,5.49,18.32,13.94,19.67,7.45,1.19,13.7-5.27,18.46-11.12,5.66-6.95,11.59-14.6,11.84-23.56.34-12.4-11.95-23.06-24.34-22.54,0,0-31.75,5.43-19.9,37.55Z"/>
        </g>
      </g>
      <rect class="cls-2" width="2048.06" height="2048.2"/>
    </g>
  </g>
</svg>